<?xml version="1.0" encoding="UTF-8"?>
<svg xmlns="http://www.w3.org/2000/svg" xmlns:xlink="http://www.w3.org/1999/xlink" viewBox="0 0 221.7 185.82">
  <defs>
    <style>
      .cls-1 {
        fill: #fff;
      }

      .cls-2 {
        fill: #bcbeff;
      }

      .cls-3 {
        mix-blend-mode: lighten;
      }

      .cls-3, .cls-4, .cls-5, .cls-6 {
        fill: #9548ee;
      }

      .cls-7 {
        fill: #0f054c;
      }

      .cls-8 {
        fill: url(#linear-gradient-6);
      }

      .cls-8, .cls-9, .cls-10, .cls-5, .cls-11, .cls-12, .cls-13 {
        opacity: .5;
      }

      .cls-14 {
        fill: url(#_Áåçûìÿííûé_ãðàäèåíò_18);
      }

      .cls-15 {
        isolation: isolate;
      }

      .cls-16 {
        opacity: .2;
      }

      .cls-17 {
        fill: url(#_Áåçûìÿííûé_ãðàäèåíò_18-2);
      }

      .cls-9 {
        fill: url(#linear-gradient-3);
      }

      .cls-10 {
        fill: url(#linear-gradient);
      }

      .cls-4 {
        opacity: .8;
      }

      .cls-11 {
        fill: url(#linear-gradient-2);
      }

      .cls-12 {
        fill: url(#linear-gradient-5);
      }

      .cls-18 {
        fill: #a575ea;
      }

      .cls-19 {
        fill: #5c1cb7;
        opacity: .7;
      }

      .cls-13 {
        fill: url(#linear-gradient-4);
      }
    </style>
    <linearGradient id="_Áåçûìÿííûé_ãðàäèåíò_18" data-name="Áåçûìÿííûé ãðàäèåíò 18" x1="-5.77" y1="151.86" x2="201.23" y2="151.86" gradientUnits="userSpaceOnUse">
      <stop offset="0" stop-color="#5761d7"/>
      <stop offset=".16" stop-color="#5e67d9"/>
      <stop offset=".41" stop-color="#7179e1"/>
      <stop offset=".69" stop-color="#9197ee"/>
      <stop offset="1" stop-color="#bcbeff"/>
    </linearGradient>
    <linearGradient id="_Áåçûìÿííûé_ãðàäèåíò_18-2" data-name="Áåçûìÿííûé ãðàäèåíò 18" y1="132.14" y2="132.14" xlink:href="#_Áåçûìÿííûé_ãðàäèåíò_18"/>
    <linearGradient id="linear-gradient" x1="52.81" y1="104.16" x2="177.06" y2="104.16" gradientUnits="userSpaceOnUse">
      <stop offset="0" stop-color="#9548ee"/>
      <stop offset=".24" stop-color="#9049ec"/>
      <stop offset=".51" stop-color="#814fe6"/>
      <stop offset=".81" stop-color="#6a59de"/>
      <stop offset="1" stop-color="#5761d7"/>
    </linearGradient>
    <linearGradient id="linear-gradient-2" x1="114.93" y1="81.71" y2="81.71" xlink:href="#linear-gradient"/>
    <linearGradient id="linear-gradient-3" y1="81.71" x2="114.94" y2="81.71" xlink:href="#linear-gradient"/>
    <linearGradient id="linear-gradient-4" y1="95.12" y2="95.12" xlink:href="#linear-gradient"/>
    <linearGradient id="linear-gradient-5" x1="114.94" y1="117.58" y2="117.58" xlink:href="#linear-gradient"/>
    <linearGradient id="linear-gradient-6" y1="117.57" x2="114.94" y2="117.57" xlink:href="#linear-gradient"/>
  </defs>
  <g class="cls-15">
    <g id="Layer_2" data-name="Layer 2">
      <g id="_Ñëîé_1" data-name="Ñëîé 1">
        <g>
          <polygon class="cls-6" points="150.93 67.4 150.77 67.13 185.62 46.86 185.7 46.9 221.7 66.66 221.55 66.94 185.62 47.22 150.93 67.4"/>
          <g class="cls-16">
            <g>
              <path class="cls-3" d="m135.14,185.82l-10.51-6.07c-1.8-1.04-3.27-3.58-3.27-5.67v-2.53c0-1.98-1.4-4.4-3.11-5.39l-2.2-1.27.16-.27,2.2,1.27c1.8,1.04,3.27,3.59,3.27,5.67v2.53c0,1.98,1.4,4.4,3.11,5.39l10.51,6.07-.16.27Z"/>
              <path class="cls-3" d="m139.22,183.46l-10.51-6.07c-1.8-1.04-3.27-3.58-3.27-5.67v-2.54c0-1.98-1.4-4.4-3.11-5.39l-2.2-1.27.16-.27,2.2,1.27c1.8,1.04,3.27,3.58,3.27,5.67v2.54c0,1.98,1.4,4.4,3.11,5.39l10.51,6.07-.16.27Z"/>
              <path class="cls-3" d="m143.31,181.11l-10.51-6.07c-1.8-1.04-3.27-3.58-3.27-5.67v-2.54c0-1.98-1.4-4.4-3.11-5.39l-2.2-1.27.16-.27,2.2,1.27c1.8,1.04,3.27,3.58,3.27,5.67v2.54c0,1.98,1.4,4.4,3.11,5.39l10.51,6.07-.16.27Z"/>
              <path class="cls-3" d="m147.4,178.75l-10.51-6.07c-1.8-1.04-3.27-3.58-3.27-5.67v-2.53c0-1.98-1.4-4.4-3.11-5.39l-2.2-1.27.16-.27,2.2,1.27c1.8,1.04,3.27,3.58,3.27,5.67v2.53c0,1.98,1.4,4.4,3.11,5.39l10.51,6.07-.16.27Z"/>
              <path class="cls-3" d="m151.49,176.39l-10.51-6.07c-1.8-1.04-3.27-3.58-3.27-5.67v-2.54c0-1.98-1.4-4.4-3.11-5.39l-2.2-1.27.16-.27,2.2,1.27c1.8,1.04,3.27,3.58,3.27,5.67v2.54c0,1.98,1.4,4.4,3.11,5.39l10.51,6.07-.16.27Z"/>
              <path class="cls-3" d="m155.58,174.04l-10.51-6.07c-1.8-1.04-3.27-3.58-3.27-5.67v-2.54c0-1.98-1.4-4.4-3.11-5.39l-2.2-1.27.16-.27,2.2,1.27c1.8,1.04,3.27,3.58,3.27,5.67v2.54c0,1.98,1.4,4.4,3.11,5.39l10.51,6.07-.16.27Z"/>
              <path class="cls-3" d="m159.66,171.68l-10.51-6.07c-1.8-1.04-3.27-3.58-3.27-5.67v-2.53c0-1.98-1.4-4.4-3.11-5.39l-2.2-1.27.16-.27,2.2,1.27c1.8,1.04,3.27,3.58,3.27,5.67v2.53c0,1.98,1.4,4.4,3.11,5.39l10.51,6.07-.16.27Z"/>
              <path class="cls-3" d="m163.75,169.33l-10.51-6.07c-1.8-1.04-3.27-3.58-3.27-5.67v-2.54c0-1.98-1.4-4.4-3.11-5.39l-2.2-1.27.16-.27,2.2,1.27c1.8,1.04,3.27,3.58,3.27,5.67v2.54c0,1.98,1.4,4.4,3.11,5.39l10.51,6.07-.16.27Z"/>
              <path class="cls-3" d="m167.84,166.97l-10.51-6.07c-1.8-1.04-3.27-3.58-3.27-5.67v-2.54c0-1.98-1.4-4.4-3.11-5.39l-2.2-1.27.16-.27,2.2,1.27c1.8,1.04,3.27,3.58,3.27,5.67v2.54c0,1.98,1.4,4.4,3.11,5.39l10.51,6.07-.16.27Z"/>
              <path class="cls-3" d="m171.93,164.62l-10.51-6.07c-1.8-1.04-3.27-3.58-3.27-5.67v-2.53c0-1.98-1.4-4.4-3.11-5.39l-2.2-1.27.16-.27,2.2,1.27c1.8,1.04,3.27,3.58,3.27,5.67v2.53c0,1.98,1.4,4.4,3.11,5.39l10.51,6.07-.16.27Z"/>
              <path class="cls-3" d="m176.02,162.26l-10.51-6.07c-1.8-1.04-3.27-3.58-3.27-5.67v-2.54c0-1.98-1.4-4.4-3.11-5.39l-2.2-1.27.16-.27,2.2,1.27c1.8,1.04,3.27,3.58,3.27,5.67v2.54c0,1.98,1.4,4.4,3.11,5.39l10.51,6.07-.16.27Z"/>
              <path class="cls-3" d="m180.11,159.9l-10.51-6.07c-1.8-1.04-3.27-3.58-3.27-5.67v-2.53c0-1.98-1.4-4.4-3.11-5.39l-2.2-1.27.16-.27,2.2,1.27c1.8,1.04,3.27,3.58,3.27,5.67v2.53c0,1.98,1.4,4.4,3.11,5.39l10.51,6.07-.16.27Z"/>
              <path class="cls-3" d="m184.19,157.55l-10.51-6.07c-1.8-1.04-3.27-3.58-3.27-5.67v-2.53c0-1.98-1.4-4.4-3.11-5.39l-2.2-1.27.16-.27,2.2,1.27c1.8,1.04,3.27,3.58,3.27,5.67v2.53c0,1.98,1.4,4.4,3.11,5.39l10.51,6.07-.16.27Z"/>
              <path class="cls-3" d="m188.28,155.19l-10.51-6.07c-1.8-1.04-3.27-3.58-3.27-5.67v-2.54c0-1.98-1.4-4.4-3.11-5.39l-2.2-1.27.16-.27,2.2,1.27c1.8,1.04,3.27,3.58,3.27,5.67v2.54c0,1.98,1.4,4.4,3.11,5.39l10.51,6.07-.16.27Z"/>
              <path class="cls-3" d="m192.37,152.84l-10.51-6.07c-1.8-1.04-3.27-3.58-3.27-5.67v-2.53c0-1.98-1.4-4.4-3.11-5.39l-2.2-1.27.16-.27,2.2,1.27c1.8,1.04,3.27,3.58,3.27,5.67v2.53c0,1.98,1.4,4.4,3.11,5.39l10.51,6.07-.16.27Z"/>
              <path class="cls-3" d="m196.46,150.48l-10.51-6.07c-1.8-1.04-3.27-3.58-3.27-5.67v-2.54c0-1.98-1.4-4.4-3.11-5.39l-2.2-1.27.16-.27,2.2,1.27c1.8,1.04,3.27,3.58,3.27,5.67v2.54c0,1.98,1.4,4.4,3.11,5.39l10.51,6.07-.16.27Z"/>
              <path class="cls-3" d="m200.55,148.13l-10.51-6.07c-1.8-1.04-3.27-3.58-3.27-5.67v-2.54c0-1.98-1.4-4.4-3.11-5.39l-2.2-1.27.16-.27,2.2,1.27c1.8,1.04,3.27,3.58,3.27,5.67v2.54c0,1.98,1.4,4.4,3.11,5.39l10.51,6.07-.16.27Z"/>
              <path class="cls-3" d="m204.63,145.77l-10.51-6.07c-1.8-1.04-3.27-3.58-3.27-5.67v-2.53c0-1.98-1.4-4.4-3.11-5.39l-2.2-1.27.16-.27,2.2,1.27c1.8,1.04,3.27,3.58,3.27,5.67v2.53c0,1.98,1.4,4.4,3.11,5.39l10.51,6.07-.16.27Z"/>
              <path class="cls-3" d="m208.72,143.41l-10.51-6.07c-1.8-1.04-3.27-3.58-3.27-5.67v-2.54c0-1.98-1.4-4.4-3.11-5.39l-2.2-1.27.16-.27,2.2,1.27c1.8,1.04,3.27,3.58,3.27,5.67v2.54c0,1.98,1.4,4.4,3.11,5.39l10.51,6.07-.16.27Z"/>
              <path class="cls-3" d="m212.81,141.06l-10.51-6.07c-1.8-1.04-3.27-3.58-3.27-5.67v-2.54c0-1.98-1.4-4.4-3.11-5.39l-2.2-1.27.16-.27,2.2,1.27c1.8,1.04,3.27,3.58,3.27,5.67v2.54c0,1.98,1.4,4.4,3.11,5.39l10.51,6.07-.16.27Z"/>
            </g>
            <g>
              <path class="cls-3" d="m94.45,185.82l-.16-.27,10.51-6.07c1.72-.99,3.11-3.41,3.11-5.39v-2.53c0-2.08,1.47-4.63,3.27-5.67l2.2-1.27.16.27-2.2,1.27c-1.72.99-3.11,3.41-3.11,5.39v2.53c0,2.08-1.47,4.63-3.27,5.67l-10.51,6.07Z"/>
              <path class="cls-3" d="m90.36,183.46l-.16-.27,10.51-6.07c1.72-.99,3.11-3.41,3.11-5.39v-2.54c0-2.08,1.47-4.62,3.27-5.67l2.2-1.27.16.27-2.2,1.27c-1.72.99-3.11,3.41-3.11,5.39v2.54c0,2.08-1.47,4.63-3.27,5.67l-10.51,6.07Z"/>
              <path class="cls-3" d="m86.27,181.11l-.16-.27,10.51-6.07c1.72-.99,3.11-3.41,3.11-5.39v-2.54c0-2.08,1.47-4.63,3.27-5.67l2.2-1.27.16.27-2.2,1.27c-1.72.99-3.11,3.41-3.11,5.39v2.54c0,2.08-1.47,4.62-3.27,5.67l-10.51,6.07Z"/>
              <path class="cls-3" d="m82.18,178.75l-.16-.27,10.51-6.07c1.72-.99,3.11-3.41,3.11-5.39v-2.53c0-2.08,1.47-4.63,3.27-5.67l2.2-1.27.16.27-2.2,1.27c-1.72.99-3.11,3.41-3.11,5.39v2.53c0,2.08-1.47,4.63-3.27,5.67l-10.51,6.07Z"/>
              <path class="cls-3" d="m78.1,176.39l-.16-.27,10.51-6.07c1.72-.99,3.11-3.41,3.11-5.39v-2.54c0-2.08,1.47-4.62,3.27-5.67l2.2-1.27.16.27-2.2,1.27c-1.72.99-3.11,3.41-3.11,5.39v2.54c0,2.08-1.47,4.63-3.27,5.67l-10.51,6.07Z"/>
              <path class="cls-3" d="m74.01,174.04l-.16-.27,10.51-6.07c1.72-.99,3.11-3.41,3.11-5.39v-2.54c0-2.08,1.47-4.63,3.27-5.67l2.2-1.27.16.27-2.2,1.27c-1.72.99-3.11,3.41-3.11,5.39v2.54c0,2.08-1.47,4.62-3.27,5.67l-10.51,6.07Z"/>
              <path class="cls-3" d="m69.92,171.68l-.16-.27,10.51-6.07c1.72-.99,3.11-3.41,3.11-5.39v-2.53c0-2.08,1.47-4.63,3.27-5.67l2.2-1.27.16.27-2.2,1.27c-1.72.99-3.11,3.41-3.11,5.39v2.53c0,2.08-1.47,4.63-3.27,5.67l-10.51,6.07Z"/>
              <path class="cls-3" d="m65.83,169.33l-.16-.27,10.51-6.07c1.72-.99,3.11-3.41,3.11-5.39v-2.54c0-2.08,1.47-4.62,3.27-5.67l2.2-1.27.16.27-2.2,1.27c-1.72.99-3.11,3.41-3.11,5.39v2.54c0,2.08-1.47,4.63-3.27,5.67l-10.51,6.07Z"/>
              <path class="cls-3" d="m61.74,166.97l-.16-.27,10.51-6.07c1.72-.99,3.11-3.41,3.11-5.39v-2.54c0-2.08,1.47-4.63,3.27-5.67l2.2-1.27.16.27-2.2,1.27c-1.72.99-3.11,3.41-3.11,5.39v2.54c0,2.08-1.47,4.62-3.27,5.67l-10.51,6.07Z"/>
              <path class="cls-3" d="m57.66,164.62l-.16-.27,10.51-6.07c1.72-.99,3.11-3.41,3.11-5.39v-2.53c0-2.08,1.47-4.63,3.27-5.67l2.2-1.27.16.27-2.2,1.27c-1.72.99-3.11,3.41-3.11,5.39v2.53c0,2.08-1.47,4.63-3.27,5.67l-10.51,6.07Z"/>
              <path class="cls-3" d="m53.57,162.26l-.16-.27,10.51-6.07c1.72-.99,3.11-3.41,3.11-5.39v-2.54c0-2.08,1.47-4.62,3.27-5.67l2.2-1.27.16.27-2.2,1.27c-1.72.99-3.11,3.41-3.11,5.39v2.54c0,2.08-1.47,4.62-3.27,5.67l-10.51,6.07Z"/>
              <path class="cls-3" d="m49.48,159.9l-.16-.27,10.51-6.07c1.72-.99,3.11-3.41,3.11-5.39v-2.53c0-2.08,1.47-4.63,3.27-5.67l2.2-1.27.16.27-2.2,1.27c-1.72.99-3.11,3.41-3.11,5.39v2.53c0,2.08-1.47,4.63-3.27,5.67l-10.51,6.07Z"/>
              <path class="cls-3" d="m45.39,157.55l-.16-.27,10.51-6.07c1.72-.99,3.11-3.41,3.11-5.39v-2.53c0-2.08,1.47-4.63,3.27-5.67l2.2-1.27.16.27-2.2,1.27c-1.72.99-3.11,3.41-3.11,5.39v2.53c0,2.08-1.47,4.63-3.27,5.67l-10.51,6.07Z"/>
              <path class="cls-3" d="m41.3,155.19l-.16-.27,10.51-6.07c1.72-.99,3.11-3.41,3.11-5.39v-2.54c0-2.08,1.47-4.62,3.27-5.67l2.2-1.27.16.27-2.2,1.27c-1.72.99-3.11,3.41-3.11,5.39v2.54c0,2.08-1.47,4.62-3.27,5.67l-10.51,6.07Z"/>
              <path class="cls-3" d="m37.21,152.84l-.16-.27,10.51-6.07c1.72-.99,3.11-3.41,3.11-5.39v-2.53c0-2.08,1.47-4.63,3.27-5.67l2.2-1.27.16.27-2.2,1.27c-1.72.99-3.11,3.41-3.11,5.39v2.53c0,2.08-1.47,4.63-3.27,5.67l-10.51,6.07Z"/>
              <path class="cls-3" d="m33.13,150.48l-.16-.27,10.51-6.07c1.72-.99,3.11-3.41,3.11-5.39v-2.54c0-2.08,1.47-4.62,3.27-5.67l2.2-1.27.16.27-2.2,1.27c-1.72.99-3.11,3.41-3.11,5.39v2.54c0,2.08-1.47,4.63-3.27,5.67l-10.51,6.07Z"/>
              <path class="cls-3" d="m29.04,148.13l-.16-.27,10.51-6.07c1.72-.99,3.11-3.41,3.11-5.39v-2.54c0-2.08,1.47-4.62,3.27-5.67l2.2-1.27.16.27-2.2,1.27c-1.72.99-3.11,3.41-3.11,5.39v2.54c0,2.08-1.47,4.62-3.27,5.67l-10.51,6.07Z"/>
              <path class="cls-3" d="m24.95,145.77l-.16-.27,10.51-6.07c1.72-.99,3.11-3.41,3.11-5.39v-2.53c0-2.08,1.47-4.63,3.27-5.67l2.2-1.27.16.27-2.2,1.27c-1.72.99-3.11,3.41-3.11,5.39v2.53c0,2.08-1.47,4.63-3.27,5.67l-10.51,6.07Z"/>
              <path class="cls-3" d="m20.86,143.41l-.16-.27,10.51-6.07c1.72-.99,3.11-3.41,3.11-5.39v-2.54c0-2.08,1.47-4.62,3.27-5.67l2.2-1.27.16.27-2.2,1.27c-1.72.99-3.11,3.41-3.11,5.39v2.54c0,2.08-1.47,4.63-3.27,5.67l-10.51,6.07Z"/>
              <path class="cls-3" d="m16.77,141.06l-.16-.27,10.51-6.07c1.72-.99,3.11-3.41,3.11-5.39v-2.54c0-2.08,1.47-4.63,3.27-5.67l2.2-1.27.16.27-2.2,1.27c-1.72.99-3.11,3.41-3.11,5.39v2.54c0,2.08-1.47,4.62-3.27,5.67l-10.51,6.07Z"/>
            </g>
            <g>
              <polygon class="cls-14" points="195.7 123.88 195.7 133.21 114.94 179.84 34.17 133.21 34.17 123.87 195.7 123.88"/>
              <polygon class="cls-2" points="114.94 170.51 34.17 123.87 114.93 77.24 195.7 123.88 114.94 170.51"/>
              <polygon class="cls-1" points="114.94 169.42 35.11 123.33 34.17 123.87 114.94 170.51 195.7 123.88 194.76 123.33 114.94 169.42"/>
            </g>
          </g>
          <g>
            <g>
              <path class="cls-3" d="m106.53,63.92c-.47,0-.98-.15-1.51-.46l-10.51-6.07.16-.27,10.51,6.07c.8.46,1.55.54,2.1.22.55-.32.86-1,.86-1.93v-2.53c0-1.04.36-1.83,1.01-2.21.65-.38,1.51-.3,2.42.22l2.2,1.27-.16.27-2.2-1.27c-.8-.46-1.55-.54-2.1-.22-.55.32-.86,1-.86,1.93v2.53c0,1.04-.36,1.83-1.01,2.21-.27.16-.58.23-.91.23Z"/>
              <path class="cls-3" d="m102.44,66.27c-.46,0-.98-.15-1.51-.46l-10.51-6.07.16-.27,10.51,6.07c.8.46,1.55.54,2.1.22.55-.32.86-1,.86-1.93v-2.53c0-1.04.36-1.83,1.01-2.2.65-.38,1.51-.3,2.42.22l2.2,1.27-.16.27-2.2-1.27c-.8-.46-1.55-.54-2.1-.22-.55.32-.86,1-.86,1.93v2.53c0,1.04-.36,1.83-1.01,2.21-.27.16-.58.23-.91.23Z"/>
              <path class="cls-3" d="m98.35,68.62c-.47,0-.98-.15-1.51-.46l-10.51-6.07.16-.27,10.51,6.07c.8.46,1.55.54,2.1.22.55-.32.86-1,.86-1.93v-2.54c0-1.04.36-1.83,1.01-2.2.65-.38,1.51-.3,2.42.22l2.2,1.27-.16.27-2.2-1.27c-.8-.46-1.55-.54-2.1-.22-.55.32-.86,1-.86,1.93v2.54c0,1.04-.36,1.83-1.01,2.2-.27.16-.58.23-.91.23Z"/>
              <path class="cls-3" d="m94.26,70.97c-.47,0-.98-.15-1.51-.46l-10.51-6.07.16-.27,10.51,6.07c.8.46,1.55.54,2.1.22.55-.32.86-1,.86-1.93v-2.54c0-1.04.36-1.83,1.01-2.2.65-.38,1.51-.3,2.42.22l2.2,1.27-.16.27-2.2-1.27c-.8-.46-1.55-.54-2.1-.22-.55.32-.86,1-.86,1.93v2.54c0,1.04-.36,1.83-1.01,2.2-.27.16-.58.23-.91.23Z"/>
              <path class="cls-3" d="m90.17,73.33c-.47,0-.98-.15-1.51-.46l-10.51-6.07.16-.27,10.51,6.07c.8.46,1.55.54,2.1.22.55-.32.86-1,.86-1.93v-2.54c0-1.04.36-1.83,1.01-2.2.65-.38,1.51-.3,2.42.22l2.2,1.27-.16.27-2.2-1.27c-.8-.46-1.55-.54-2.1-.22-.55.32-.86,1-.86,1.93v2.54c0,1.04-.36,1.83-1.01,2.2-.27.16-.58.23-.91.23Z"/>
              <path class="cls-3" d="m86.08,75.68c-.46,0-.98-.15-1.5-.46l-10.51-6.07.16-.27,10.51,6.07c.8.46,1.55.54,2.1.22.55-.32.86-1,.86-1.93v-2.54c0-1.04.36-1.83,1.01-2.2.65-.38,1.51-.3,2.42.22l2.2,1.27-.16.27-2.2-1.27c-.8-.46-1.55-.54-2.1-.22-.55.32-.86,1-.86,1.93v2.54c0,1.04-.36,1.83-1.01,2.2-.27.16-.58.24-.91.24Z"/>
              <path class="cls-3" d="m82,78.03c-.47,0-.98-.15-1.51-.46l-10.51-6.07.16-.27,10.51,6.07c.8.46,1.55.54,2.1.22.55-.32.86-1,.86-1.93v-2.54c0-1.04.36-1.83,1.01-2.2.65-.38,1.51-.3,2.42.22l2.2,1.27-.16.27-2.2-1.27c-.8-.46-1.55-.54-2.1-.22-.55.32-.86,1-.86,1.93v2.54c0,1.04-.36,1.83-1.01,2.2-.27.16-.58.24-.91.24Z"/>
              <path class="cls-3" d="m77.91,80.38c-.46,0-.98-.15-1.5-.46l-10.51-6.07.16-.27,10.51,6.07c.8.46,1.55.54,2.1.22.55-.32.86-1,.86-1.93v-2.53c0-1.04.36-1.83,1.01-2.2.65-.38,1.51-.3,2.42.22l2.2,1.27-.16.27-2.2-1.27c-.8-.46-1.55-.54-2.1-.22-.55.32-.86,1-.86,1.93v2.53c0,1.04-.36,1.83-1.01,2.2-.27.16-.58.24-.91.24Z"/>
              <path class="cls-3" d="m73.82,82.73c-.47,0-.98-.15-1.51-.46l-10.51-6.07.16-.27,10.51,6.07c.8.46,1.55.54,2.1.22.55-.32.86-1,.86-1.93v-2.53c0-1.04.36-1.83,1.01-2.21.65-.38,1.51-.3,2.42.22l2.2,1.27-.16.27-2.2-1.27c-.8-.46-1.55-.54-2.1-.22-.55.32-.86,1-.86,1.93v2.53c0,1.04-.36,1.83-1.01,2.21-.27.16-.58.23-.91.23Z"/>
              <path class="cls-3" d="m69.73,85.08c-.46,0-.98-.15-1.51-.46l-10.51-6.07.16-.27,10.51,6.07c.8.46,1.55.54,2.1.22.55-.32.86-1,.86-1.93v-2.53c0-1.04.36-1.83,1.01-2.2.65-.38,1.51-.3,2.42.22l2.2,1.27-.16.27-2.2-1.27c-.8-.46-1.55-.54-2.1-.22-.55.32-.86,1-.86,1.93v2.53c0,1.04-.36,1.83-1.01,2.21-.27.16-.58.23-.91.23Z"/>
              <path class="cls-3" d="m65.64,87.44c-.47,0-.98-.15-1.51-.46l-10.51-6.07.16-.27,10.51,6.07c.8.46,1.55.54,2.1.22.55-.32.86-1,.86-1.93v-2.54c0-1.04.36-1.83,1.01-2.2.65-.38,1.51-.3,2.42.22l2.2,1.27-.16.27-2.2-1.27c-.8-.46-1.55-.54-2.1-.22-.55.32-.86,1-.86,1.93v2.54c0,1.04-.36,1.83-1.01,2.2-.27.16-.58.23-.91.23Z"/>
              <path class="cls-3" d="m61.56,89.79c-.47,0-.98-.15-1.51-.46l-10.51-6.07.16-.27,10.51,6.07c.8.46,1.55.54,2.1.22.55-.32.86-1,.86-1.93v-2.54c0-1.04.36-1.83,1.01-2.2.65-.38,1.51-.3,2.42.22l2.2,1.27-.16.27-2.2-1.27c-.8-.46-1.55-.54-2.1-.22-.55.32-.86,1-.86,1.93v2.54c0,1.04-.36,1.83-1.01,2.2-.27.16-.58.23-.91.23Z"/>
              <path class="cls-3" d="m57.47,92.14c-.47,0-.98-.15-1.51-.46l-10.51-6.07.16-.27,10.51,6.07c.8.46,1.55.54,2.1.22.55-.32.86-1,.86-1.93v-2.54c0-1.04.36-1.83,1.01-2.2.65-.38,1.51-.3,2.42.22l2.2,1.27-.16.27-2.2-1.27c-.8-.46-1.55-.54-2.1-.22-.55.32-.86,1-.86,1.93v2.54c0,1.04-.36,1.83-1.01,2.2-.27.16-.58.24-.91.24Z"/>
              <path class="cls-3" d="m53.38,94.49c-.47,0-.98-.15-1.51-.46l-10.51-6.07.16-.27,10.51,6.07c.8.46,1.55.54,2.1.22.55-.32.86-1,.86-1.93v-2.54c0-1.04.36-1.83,1.01-2.2.65-.38,1.51-.3,2.42.22l2.2,1.27-.16.27-2.2-1.27c-.8-.46-1.55-.54-2.1-.22-.55.32-.86,1-.86,1.93v2.54c0,1.04-.36,1.83-1.01,2.2-.27.16-.58.24-.91.24Z"/>
              <path class="cls-3" d="m49.29,96.84c-.47,0-.98-.15-1.51-.46l-10.51-6.07.16-.27,10.51,6.07c.8.46,1.55.54,2.1.22.55-.32.86-1,.86-1.93v-2.54c0-1.04.36-1.83,1.01-2.2.65-.38,1.51-.3,2.42.22l2.2,1.27-.16.27-2.2-1.27c-.8-.46-1.55-.54-2.1-.22-.55.32-.86,1-.86,1.93v2.54c0,1.04-.36,1.83-1.01,2.2-.27.16-.58.24-.91.24Z"/>
              <path class="cls-3" d="m45.2,99.19c-.47,0-.98-.15-1.51-.46l-10.51-6.07.16-.27,10.51,6.07c.8.46,1.55.54,2.1.22.55-.32.86-1,.86-1.93v-2.53c0-1.04.36-1.83,1.01-2.21.65-.38,1.51-.3,2.42.22l2.2,1.27-.16.27-2.2-1.27c-.8-.46-1.55-.54-2.1-.22-.55.32-.86,1-.86,1.93v2.53c0,1.04-.36,1.83-1.01,2.21-.27.16-.58.23-.91.23Z"/>
              <path class="cls-3" d="m41.12,101.55c-.47,0-.98-.15-1.51-.46l-10.51-6.07.16-.27,10.51,6.07c.8.46,1.55.54,2.1.22.55-.32.86-1,.86-1.93v-2.53c0-1.04.36-1.83,1.01-2.21.65-.38,1.51-.3,2.42.22l2.2,1.27-.16.27-2.2-1.27c-.8-.46-1.55-.54-2.1-.22-.55.32-.86,1-.86,1.93v2.53c0,1.04-.36,1.83-1.01,2.2-.27.16-.58.23-.91.23Z"/>
              <path class="cls-3" d="m37.03,103.9c-.47,0-.98-.15-1.51-.46l-10.51-6.07.16-.27,10.51,6.07c.8.46,1.55.54,2.1.22.55-.32.86-1,.86-1.93v-2.54c0-1.04.36-1.83,1.01-2.2.65-.38,1.51-.3,2.42.22l2.2,1.27-.16.27-2.2-1.27c-.8-.46-1.55-.54-2.1-.22-.55.32-.86,1-.86,1.93v2.54c0,1.04-.36,1.83-1.01,2.2-.27.16-.58.23-.91.23Z"/>
              <path class="cls-3" d="m32.94,106.25c-.47,0-.98-.15-1.51-.46l-10.51-6.07.16-.27,10.51,6.07c.8.46,1.55.54,2.1.22.55-.32.86-1,.86-1.93v-2.54c0-1.04.36-1.83,1.01-2.2.65-.38,1.51-.3,2.42.22l2.2,1.27-.16.27-2.2-1.27c-.8-.46-1.55-.54-2.1-.22-.55.32-.86,1-.86,1.93v2.54c0,1.04-.36,1.83-1.01,2.2-.27.16-.58.23-.91.23Z"/>
              <path class="cls-3" d="m28.85,108.6c-.47,0-.98-.15-1.51-.46l-10.51-6.07.16-.27,10.51,6.07c.8.46,1.55.54,2.1.22.55-.32.86-1,.86-1.93v-2.54c0-1.04.36-1.83,1.01-2.2.65-.38,1.51-.3,2.42.22l2.2,1.27-.16.27-2.2-1.27c-.8-.46-1.55-.54-2.1-.22-.55.32-.86,1-.86,1.93v2.54c0,1.04-.36,1.83-1.01,2.2-.27.16-.58.23-.91.23Z"/>
            </g>
            <g>
              <path class="cls-3" d="m123.28,64.11c-.33,0-.64-.08-.91-.24-.65-.38-1.01-1.16-1.01-2.2v-2.54c0-.93-.3-1.61-.86-1.93-.55-.32-1.3-.24-2.1.22l-2.2,1.27-.16-.27,2.2-1.27c.9-.52,1.76-.6,2.42-.22.65.38,1.01,1.16,1.01,2.2v2.54c0,.93.3,1.61.86,1.93.55.32,1.3.24,2.1-.22l10.51-6.07.16.27-10.51,6.07c-.53.3-1.04.46-1.51.46Z"/>
              <path class="cls-3" d="m127.37,66.46c-.33,0-.64-.08-.91-.24-.65-.38-1.01-1.16-1.01-2.2v-2.54c0-.93-.3-1.61-.86-1.93-.55-.32-1.3-.24-2.1.22l-2.2,1.27-.16-.27,2.2-1.27c.9-.52,1.76-.6,2.42-.22.65.38,1.01,1.16,1.01,2.2v2.54c0,.93.3,1.61.86,1.93.55.32,1.3.24,2.1-.22l10.51-6.07.16.27-10.51,6.07c-.53.3-1.04.46-1.51.46Z"/>
              <path class="cls-3" d="m131.45,68.81c-.33,0-.64-.08-.91-.24-.65-.38-1.01-1.16-1.01-2.2v-2.53c0-.93-.3-1.61-.86-1.93-.55-.32-1.3-.24-2.1.22l-2.2,1.27-.16-.27,2.2-1.27c.9-.52,1.76-.6,2.42-.22.65.38,1.01,1.16,1.01,2.2v2.53c0,.93.3,1.61.86,1.93.55.32,1.3.24,2.1-.22l10.51-6.07.16.27-10.51,6.07c-.53.3-1.04.46-1.51.46Z"/>
              <path class="cls-3" d="m135.54,71.17c-.33,0-.64-.08-.91-.23-.65-.38-1.01-1.16-1.01-2.21v-2.53c0-.93-.3-1.61-.86-1.93-.55-.32-1.3-.24-2.1.22l-2.2,1.27-.16-.27,2.2-1.27c.9-.52,1.76-.6,2.42-.22.65.38,1.01,1.16,1.01,2.21v2.53c0,.93.3,1.61.86,1.93.55.32,1.3.24,2.1-.22l10.51-6.07.16.27-10.51,6.07c-.53.31-1.04.46-1.51.46Z"/>
              <path class="cls-3" d="m139.63,73.52c-.33,0-.64-.08-.91-.23-.65-.38-1.01-1.16-1.01-2.21v-2.53c0-.93-.3-1.61-.86-1.93-.55-.32-1.3-.24-2.1.22l-2.2,1.27-.16-.27,2.2-1.27c.9-.52,1.76-.6,2.42-.22.65.38,1.01,1.16,1.01,2.2v2.53c0,.93.3,1.61.86,1.93.55.32,1.3.24,2.1-.22l10.51-6.07.16.27-10.51,6.07c-.53.31-1.04.46-1.51.46Z"/>
              <path class="cls-3" d="m143.72,75.87c-.33,0-.64-.08-.91-.23-.65-.38-1.01-1.16-1.01-2.2v-2.54c0-.93-.3-1.61-.86-1.93-.55-.32-1.3-.24-2.1.22l-2.2,1.27-.16-.27,2.2-1.27c.9-.52,1.76-.6,2.42-.22.65.38,1.01,1.16,1.01,2.2v2.54c0,.93.3,1.61.86,1.93.55.32,1.3.24,2.1-.22l10.51-6.07.16.27-10.51,6.07c-.53.31-1.04.46-1.51.46Z"/>
              <path class="cls-3" d="m147.81,78.22c-.33,0-.64-.08-.91-.23-.65-.38-1.01-1.16-1.01-2.2v-2.54c0-.93-.3-1.61-.86-1.93-.55-.32-1.3-.24-2.1.22l-2.2,1.27-.16-.27,2.2-1.27c.9-.52,1.76-.6,2.42-.22.65.38,1.01,1.16,1.01,2.2v2.54c0,.93.3,1.61.86,1.93.55.32,1.3.24,2.1-.22l10.51-6.07.16.27-10.51,6.07c-.53.31-1.04.46-1.51.46Z"/>
              <path class="cls-3" d="m151.89,80.57c-.33,0-.64-.08-.91-.24-.65-.38-1.01-1.16-1.01-2.2v-2.54c0-.93-.3-1.61-.86-1.93-.55-.32-1.3-.24-2.1.22l-2.2,1.27-.16-.27,2.2-1.27c.91-.52,1.76-.6,2.42-.22.65.38,1.01,1.16,1.01,2.2v2.54c0,.93.3,1.61.86,1.93.55.32,1.3.24,2.1-.22l10.51-6.07.16.27-10.51,6.07c-.53.3-1.04.46-1.51.46Z"/>
              <path class="cls-3" d="m155.98,82.93c-.33,0-.64-.08-.91-.24-.65-.38-1.01-1.16-1.01-2.2v-2.54c0-.93-.3-1.61-.86-1.93-.55-.32-1.3-.24-2.1.22l-2.2,1.27-.16-.27,2.2-1.27c.9-.52,1.76-.6,2.42-.22s1.01,1.16,1.01,2.2v2.54c0,.93.3,1.61.86,1.93.55.32,1.3.24,2.1-.22l10.51-6.07.16.27-10.51,6.07c-.53.3-1.04.46-1.51.46Z"/>
              <path class="cls-3" d="m160.07,85.28c-.33,0-.64-.08-.91-.24-.65-.38-1.01-1.16-1.01-2.2v-2.54c0-.93-.3-1.61-.86-1.93-.55-.32-1.3-.24-2.1.22l-2.2,1.27-.16-.27,2.2-1.27c.91-.52,1.76-.6,2.42-.22.65.38,1.01,1.16,1.01,2.2v2.54c0,.93.3,1.61.86,1.93.55.32,1.3.24,2.1-.22l10.51-6.07.16.27-10.51,6.07c-.53.3-1.04.46-1.51.46Z"/>
              <path class="cls-3" d="m164.16,87.63c-.33,0-.64-.08-.91-.24-.65-.38-1.01-1.16-1.01-2.2v-2.53c0-.93-.3-1.61-.86-1.93-.55-.32-1.3-.24-2.1.22l-2.2,1.27-.16-.27,2.2-1.27c.9-.52,1.76-.6,2.42-.22.65.38,1.01,1.16,1.01,2.21v2.53c0,.93.3,1.61.86,1.93.55.32,1.3.24,2.1-.22l10.51-6.07.16.27-10.51,6.07c-.53.3-1.04.46-1.51.46Z"/>
              <path class="cls-3" d="m168.25,89.98c-.33,0-.64-.08-.91-.23-.65-.38-1.01-1.16-1.01-2.2v-2.53c0-.93-.3-1.61-.86-1.93-.55-.32-1.3-.24-2.1.22l-2.2,1.27-.16-.27,2.2-1.27c.9-.52,1.76-.6,2.42-.22.65.38,1.01,1.16,1.01,2.21v2.53c0,.93.3,1.61.86,1.93.55.32,1.3.24,2.1-.22l10.51-6.07.16.27-10.51,6.07c-.53.31-1.04.46-1.51.46Z"/>
              <path class="cls-3" d="m172.34,92.33c-.33,0-.64-.08-.91-.23-.65-.38-1.01-1.16-1.01-2.21v-2.53c0-.93-.3-1.61-.86-1.93-.55-.32-1.3-.24-2.1.22l-2.2,1.27-.16-.27,2.2-1.27c.9-.52,1.76-.6,2.42-.22.65.38,1.01,1.16,1.01,2.2v2.53c0,.93.3,1.61.86,1.93.55.32,1.3.24,2.1-.22l10.51-6.07.16.27-10.51,6.07c-.53.31-1.04.46-1.51.46Z"/>
              <path class="cls-3" d="m176.42,94.68c-.33,0-.64-.08-.91-.23-.65-.38-1.01-1.16-1.01-2.2v-2.54c0-.93-.3-1.61-.86-1.93-.55-.32-1.3-.24-2.1.22l-2.2,1.27-.16-.27,2.2-1.27c.9-.52,1.76-.6,2.42-.22.65.38,1.01,1.16,1.01,2.2v2.54c0,.93.3,1.61.86,1.93.55.32,1.3.24,2.1-.22l10.51-6.07.16.27-10.51,6.07c-.53.31-1.04.46-1.51.46Z"/>
              <path class="cls-3" d="m180.51,97.03c-.33,0-.64-.08-.91-.23-.65-.38-1.01-1.16-1.01-2.2v-2.54c0-.93-.3-1.61-.86-1.93-.55-.32-1.3-.24-2.1.22l-2.2,1.27-.16-.27,2.2-1.27c.9-.52,1.76-.6,2.42-.22.65.38,1.01,1.16,1.01,2.2v2.54c0,.93.3,1.61.86,1.93.55.32,1.3.24,2.1-.22l10.51-6.07.16.27-10.51,6.07c-.53.31-1.04.46-1.51.46Z"/>
              <path class="cls-3" d="m184.6,99.39c-.33,0-.64-.08-.91-.24-.65-.38-1.01-1.16-1.01-2.2v-2.54c0-.93-.3-1.61-.86-1.93-.55-.32-1.3-.24-2.1.22l-2.2,1.27-.16-.27,2.2-1.27c.91-.52,1.76-.6,2.42-.22.65.38,1.01,1.16,1.01,2.2v2.54c0,.93.3,1.61.86,1.93.55.32,1.3.24,2.1-.22l10.51-6.07.16.27-10.51,6.07c-.53.3-1.04.46-1.51.46Z"/>
              <path class="cls-3" d="m188.69,101.74c-.33,0-.64-.08-.91-.24-.65-.38-1.01-1.16-1.01-2.2v-2.54c0-.93-.3-1.61-.86-1.93-.55-.32-1.3-.24-2.1.22l-2.2,1.27-.16-.27,2.2-1.27c.9-.52,1.76-.6,2.42-.22s1.01,1.16,1.01,2.2v2.54c0,.93.3,1.61.86,1.93.55.32,1.3.24,2.1-.22l10.51-6.07.16.27-10.51,6.07c-.53.3-1.04.46-1.51.46Z"/>
              <path class="cls-3" d="m192.78,104.09c-.33,0-.64-.08-.91-.24-.65-.38-1.01-1.16-1.01-2.2v-2.53c0-.93-.3-1.61-.86-1.93-.55-.32-1.3-.24-2.1.22l-2.2,1.27-.16-.27,2.2-1.27c.9-.52,1.76-.6,2.42-.22.65.38,1.01,1.16,1.01,2.21v2.53c0,.93.3,1.61.86,1.93.55.32,1.3.24,2.1-.22l10.51-6.07.16.27-10.51,6.07c-.53.3-1.04.46-1.51.46Z"/>
              <path class="cls-3" d="m196.86,106.44c-.33,0-.64-.08-.91-.23-.65-.38-1.01-1.16-1.01-2.2v-2.53c0-.93-.3-1.61-.86-1.93-.55-.32-1.3-.24-2.1.22l-2.2,1.27-.16-.27,2.2-1.27c.9-.52,1.76-.6,2.42-.22.65.38,1.01,1.16,1.01,2.21v2.53c0,.93.3,1.61.86,1.93.55.32,1.3.24,2.1-.22l10.51-6.07.16.27-10.51,6.07c-.53.31-1.04.46-1.51.46Z"/>
              <path class="cls-3" d="m200.95,108.79c-.33,0-.64-.08-.91-.23-.65-.38-1.01-1.16-1.01-2.21v-2.53c0-.93-.3-1.61-.86-1.93-.55-.32-1.3-.24-2.1.22l-2.2,1.27-.16-.27,2.2-1.27c.9-.52,1.76-.6,2.42-.22.65.38,1.01,1.16,1.01,2.2v2.53c0,.93.3,1.61.86,1.93.55.32,1.3.24,2.1-.22l10.51-6.07.16.27-10.51,6.07c-.53.31-1.04.46-1.51.46Z"/>
            </g>
            <g>
              <g>
                <polygon class="cls-17" points="195.7 104.15 195.7 113.49 114.94 160.12 34.17 113.49 34.17 104.15 195.7 104.15"/>
                <polygon class="cls-2" points="114.94 150.78 34.17 104.15 114.93 57.52 195.7 104.15 114.94 150.78"/>
                <polygon class="cls-1" points="114.94 149.69 35.11 103.61 34.17 104.15 114.94 150.78 195.7 104.15 194.76 103.61 114.94 149.69"/>
              </g>
              <g>
                <polygon class="cls-7" points="114.94 140.03 52.81 104.16 114.93 68.3 177.06 104.16 114.94 140.03"/>
                <g>
                  <polygon class="cls-10" points="114.94 140.03 52.81 104.16 114.93 68.3 177.06 104.16 114.94 140.03"/>
                  <g>
                    <polygon class="cls-11" points="114.93 59.25 177.06 95.12 177.06 104.16 114.93 68.3 114.93 59.25"/>
                    <polygon class="cls-9" points="114.94 68.3 52.81 104.16 52.81 95.12 114.93 59.25 114.94 68.3"/>
                    <polygon class="cls-13" points="114.94 130.99 52.81 95.12 114.93 59.25 177.06 95.12 114.94 130.99"/>
                    <polygon class="cls-5" points="114.94 109.45 90.11 95.12 114.93 80.79 139.76 95.12 114.94 109.45"/>
                    <polygon class="cls-5" points="114.93 82.11 138.62 95.78 139.76 95.12 114.93 80.79 90.11 95.12 91.25 95.78 114.93 82.11"/>
                    <polygon class="cls-12" points="114.94 130.99 114.94 140.03 177.06 104.16 177.06 95.12 114.94 130.99"/>
                  </g>
                  <polygon class="cls-8" points="52.81 95.12 52.81 104.16 114.94 140.03 114.94 130.99 52.81 95.12"/>
                </g>
                <polygon class="cls-4" points="114.94 130 53.67 94.63 52.81 95.12 114.94 130.99 177.06 95.12 176.2 94.63 114.94 130"/>
              </g>
            </g>
            <g>
              <path class="cls-3" d="m135.14,171.08l-10.51-6.07c-1.8-1.04-3.27-3.58-3.27-5.67v-2.54c0-1.98-1.4-4.4-3.11-5.39l-2.2-1.27.16-.27,2.2,1.27c1.8,1.04,3.27,3.58,3.27,5.67v2.54c0,1.98,1.4,4.4,3.11,5.39l10.51,6.07-.16.27Z"/>
              <path class="cls-3" d="m139.22,168.73l-10.51-6.07c-1.8-1.04-3.27-3.58-3.27-5.67v-2.54c0-1.98-1.4-4.4-3.11-5.39l-2.2-1.27.16-.27,2.2,1.27c1.8,1.04,3.27,3.58,3.27,5.67v2.54c0,1.98,1.4,4.4,3.11,5.39l10.51,6.07-.16.27Z"/>
              <path class="cls-3" d="m143.31,166.37l-10.51-6.07c-1.8-1.04-3.27-3.58-3.27-5.67v-2.53c0-1.98-1.4-4.4-3.11-5.39l-2.2-1.27.16-.27,2.2,1.27c1.8,1.04,3.27,3.58,3.27,5.67v2.53c0,1.98,1.4,4.4,3.11,5.39l10.51,6.07-.16.27Z"/>
              <path class="cls-3" d="m147.4,164.02l-10.51-6.07c-1.8-1.04-3.27-3.58-3.27-5.67v-2.54c0-1.98-1.4-4.4-3.11-5.39l-2.2-1.27.16-.27,2.2,1.27c1.8,1.04,3.27,3.58,3.27,5.67v2.54c0,1.98,1.4,4.4,3.11,5.39l10.51,6.07-.16.27Z"/>
              <path class="cls-3" d="m151.49,161.66l-10.51-6.07c-1.8-1.04-3.27-3.58-3.27-5.67v-2.54c0-1.98-1.4-4.4-3.11-5.39l-2.2-1.27.16-.27,2.2,1.27c1.8,1.04,3.27,3.58,3.27,5.67v2.54c0,1.98,1.4,4.4,3.11,5.39l10.51,6.07-.16.27Z"/>
              <path class="cls-3" d="m155.58,159.3l-10.51-6.07c-1.8-1.04-3.27-3.58-3.27-5.67v-2.53c0-1.98-1.4-4.4-3.11-5.39l-2.2-1.27.16-.27,2.2,1.27c1.8,1.04,3.27,3.58,3.27,5.67v2.53c0,1.98,1.4,4.4,3.11,5.39l10.51,6.07-.16.27Z"/>
              <path class="cls-3" d="m159.66,156.95l-10.51-6.07c-1.8-1.04-3.27-3.58-3.27-5.67v-2.54c0-1.98-1.4-4.4-3.11-5.39l-2.2-1.27.16-.27,2.2,1.27c1.8,1.04,3.27,3.58,3.27,5.67v2.54c0,1.98,1.4,4.4,3.11,5.39l10.51,6.07-.16.27Z"/>
              <path class="cls-3" d="m163.75,154.59l-10.51-6.07c-1.8-1.04-3.27-3.58-3.27-5.67v-2.54c0-1.98-1.4-4.4-3.11-5.39l-2.2-1.27.16-.27,2.2,1.27c1.8,1.04,3.27,3.58,3.27,5.67v2.54c0,1.98,1.4,4.4,3.11,5.39l10.51,6.07-.16.27Z"/>
              <path class="cls-3" d="m167.84,152.24l-10.51-6.07c-1.8-1.04-3.27-3.58-3.27-5.67v-2.53c0-1.98-1.4-4.4-3.11-5.39l-2.2-1.27.16-.27,2.2,1.27c1.8,1.04,3.27,3.58,3.27,5.67v2.53c0,1.98,1.4,4.4,3.11,5.39l10.51,6.07-.16.27Z"/>
              <path class="cls-3" d="m171.93,149.88l-10.51-6.07c-1.8-1.04-3.27-3.58-3.27-5.67v-2.54c0-1.98-1.4-4.4-3.11-5.39l-2.2-1.27.16-.27,2.2,1.27c1.8,1.04,3.27,3.58,3.27,5.67v2.54c0,1.98,1.4,4.4,3.11,5.39l10.51,6.07-.16.27Z"/>
              <path class="cls-3" d="m176.02,147.52l-10.51-6.07c-1.8-1.04-3.27-3.58-3.27-5.67v-2.54c0-1.98-1.4-4.4-3.11-5.39l-2.2-1.27.16-.27,2.2,1.27c1.8,1.04,3.27,3.58,3.27,5.67v2.54c0,1.98,1.4,4.4,3.11,5.39l10.51,6.07-.16.27Z"/>
              <path class="cls-3" d="m180.11,145.17l-10.51-6.07c-1.8-1.04-3.27-3.58-3.27-5.67v-2.53c0-1.98-1.4-4.4-3.11-5.39l-2.2-1.27.16-.27,2.2,1.27c1.8,1.04,3.27,3.58,3.27,5.67v2.53c0,1.98,1.4,4.4,3.11,5.39l10.51,6.07-.16.27Z"/>
              <path class="cls-3" d="m184.19,142.81l-10.51-6.07c-1.8-1.04-3.27-3.58-3.27-5.67v-2.54c0-1.98-1.4-4.4-3.11-5.39l-2.2-1.27.16-.27,2.2,1.27c1.8,1.04,3.27,3.58,3.27,5.67v2.54c0,1.98,1.4,4.4,3.11,5.39l10.51,6.07-.16.27Z"/>
              <path class="cls-3" d="m188.28,140.46l-10.51-6.07c-1.8-1.04-3.27-3.58-3.27-5.67v-2.54c0-1.98-1.4-4.4-3.11-5.39l-2.2-1.27.16-.27,2.2,1.27c1.8,1.04,3.27,3.58,3.27,5.67v2.54c0,1.98,1.4,4.4,3.11,5.39l10.51,6.07-.16.27Z"/>
              <path class="cls-3" d="m192.37,138.1l-10.51-6.07c-1.8-1.04-3.27-3.58-3.27-5.67v-2.53c0-1.98-1.4-4.4-3.11-5.39l-2.2-1.27.16-.27,2.2,1.27c1.8,1.04,3.27,3.59,3.27,5.67v2.53c0,1.98,1.4,4.4,3.11,5.39l10.51,6.07-.16.27Z"/>
              <path class="cls-3" d="m196.46,135.75l-10.51-6.07c-1.8-1.04-3.27-3.58-3.27-5.67v-2.54c0-1.98-1.4-4.4-3.11-5.39l-2.2-1.27.16-.27,2.2,1.27c1.8,1.04,3.27,3.58,3.27,5.67v2.54c0,1.98,1.4,4.4,3.11,5.39l10.51,6.07-.16.27Z"/>
              <path class="cls-3" d="m200.55,133.39l-10.51-6.07c-1.8-1.04-3.27-3.58-3.27-5.67v-2.54c0-1.98-1.4-4.4-3.11-5.39l-2.2-1.27.16-.27,2.2,1.27c1.8,1.04,3.27,3.58,3.27,5.67v2.54c0,1.98,1.4,4.4,3.11,5.39l10.51,6.07-.16.27Z"/>
              <path class="cls-3" d="m204.63,131.03l-10.51-6.07c-1.8-1.04-3.27-3.58-3.27-5.67v-2.53c0-1.98-1.4-4.4-3.11-5.39l-2.2-1.27.16-.27,2.2,1.27c1.8,1.04,3.27,3.58,3.27,5.67v2.53c0,1.98,1.4,4.4,3.11,5.39l10.51,6.07-.16.27Z"/>
              <path class="cls-3" d="m208.72,128.68l-10.51-6.07c-1.8-1.04-3.27-3.58-3.27-5.67v-2.54c0-1.98-1.4-4.4-3.11-5.39l-2.2-1.27.16-.27,2.2,1.27c1.8,1.04,3.27,3.58,3.27,5.67v2.54c0,1.98,1.4,4.4,3.11,5.39l10.51,6.07-.16.27Z"/>
              <path class="cls-3" d="m212.81,126.32l-10.51-6.07c-1.8-1.04-3.27-3.58-3.27-5.67v-2.54c0-1.98-1.4-4.4-3.11-5.39l-2.2-1.27.16-.27,2.2,1.27c1.8,1.04,3.27,3.58,3.27,5.67v2.54c0,1.98,1.4,4.4,3.11,5.39l10.51,6.07-.16.27Z"/>
            </g>
            <g>
              <path class="cls-3" d="m94.45,171.08l-.16-.27,10.51-6.07c1.72-.99,3.11-3.41,3.11-5.39v-2.54c0-2.08,1.47-4.62,3.27-5.67l2.2-1.27.16.27-2.2,1.27c-1.72.99-3.11,3.41-3.11,5.39v2.54c0,2.08-1.47,4.63-3.27,5.67l-10.51,6.07Z"/>
              <path class="cls-3" d="m90.36,168.73l-.16-.27,10.51-6.07c1.72-.99,3.11-3.41,3.11-5.39v-2.54c0-2.08,1.47-4.63,3.27-5.67l2.2-1.27.16.27-2.2,1.27c-1.72.99-3.11,3.41-3.11,5.39v2.54c0,2.08-1.47,4.62-3.27,5.67l-10.51,6.07Z"/>
              <path class="cls-3" d="m86.27,166.37l-.16-.27,10.51-6.07c1.72-.99,3.11-3.41,3.11-5.39v-2.53c0-2.08,1.47-4.63,3.27-5.67l2.2-1.27.16.27-2.2,1.27c-1.72.99-3.11,3.41-3.11,5.39v2.53c0,2.08-1.47,4.63-3.27,5.67l-10.51,6.07Z"/>
              <path class="cls-3" d="m82.18,164.02l-.16-.27,10.51-6.07c1.72-.99,3.11-3.41,3.11-5.39v-2.54c0-2.08,1.47-4.62,3.27-5.67l2.2-1.27.16.27-2.2,1.27c-1.72.99-3.11,3.41-3.11,5.39v2.54c0,2.08-1.47,4.63-3.27,5.67l-10.51,6.07Z"/>
              <path class="cls-3" d="m78.1,161.66l-.16-.27,10.51-6.07c1.72-.99,3.11-3.41,3.11-5.39v-2.54c0-2.08,1.47-4.63,3.27-5.67l2.2-1.27.16.27-2.2,1.27c-1.72.99-3.11,3.41-3.11,5.39v2.54c0,2.08-1.47,4.62-3.27,5.67l-10.51,6.07Z"/>
              <path class="cls-3" d="m74.01,159.3l-.16-.27,10.51-6.07c1.72-.99,3.11-3.41,3.11-5.39v-2.53c0-2.08,1.47-4.63,3.27-5.67l2.2-1.27.16.27-2.2,1.27c-1.72.99-3.11,3.41-3.11,5.39v2.53c0,2.08-1.47,4.63-3.27,5.67l-10.51,6.07Z"/>
              <path class="cls-3" d="m69.92,156.95l-.16-.27,10.51-6.07c1.72-.99,3.11-3.41,3.11-5.39v-2.54c0-2.08,1.47-4.62,3.27-5.67l2.2-1.27.16.27-2.2,1.27c-1.72.99-3.11,3.41-3.11,5.39v2.54c0,2.08-1.47,4.63-3.27,5.67l-10.51,6.07Z"/>
              <path class="cls-3" d="m65.83,154.59l-.16-.27,10.51-6.07c1.72-.99,3.11-3.41,3.11-5.39v-2.54c0-2.08,1.47-4.63,3.27-5.67l2.2-1.27.16.27-2.2,1.27c-1.72.99-3.11,3.41-3.11,5.39v2.54c0,2.08-1.47,4.62-3.27,5.67l-10.51,6.07Z"/>
              <path class="cls-3" d="m44.78,161.79l-.08-.04L0,136.09l.16-.28,44.63,25.62,16.8-9.47,10.51-6.07c1.72-.99,3.11-3.41,3.11-5.39v-2.53c0-2.08,1.47-4.63,3.27-5.67l2.2-1.27.16.27-2.2,1.27c-1.72.99-3.11,3.41-3.11,5.39v2.53c0,2.08-1.47,4.63-3.27,5.67l-10.51,6.07-16.96,9.56Z"/>
              <path class="cls-3" d="m57.66,149.88l-.16-.27,10.51-6.07c1.72-.99,3.11-3.41,3.11-5.39v-2.54c0-2.08,1.47-4.62,3.27-5.67l2.2-1.27.16.27-2.2,1.27c-1.72.99-3.11,3.41-3.11,5.39v2.54c0,2.08-1.47,4.63-3.27,5.67l-10.51,6.07Z"/>
              <path class="cls-3" d="m53.57,147.52l-.16-.27,10.51-6.07c1.72-.99,3.11-3.41,3.11-5.39v-2.54c0-2.08,1.47-4.63,3.27-5.67l2.2-1.27.16.27-2.2,1.27c-1.72.99-3.11,3.41-3.11,5.39v2.54c0,2.08-1.47,4.62-3.27,5.67l-10.51,6.07Z"/>
              <path class="cls-3" d="m49.48,145.17l-.16-.27,10.51-6.07c1.72-.99,3.11-3.41,3.11-5.39v-2.53c0-2.08,1.47-4.63,3.27-5.67l2.2-1.27.16.27-2.2,1.27c-1.72.99-3.11,3.41-3.11,5.39v2.53c0,2.08-1.47,4.63-3.27,5.67l-10.51,6.07Z"/>
              <path class="cls-3" d="m45.39,142.81l-.16-.27,10.51-6.07c1.72-.99,3.11-3.41,3.11-5.39v-2.54c0-2.08,1.47-4.62,3.27-5.67l2.2-1.27.16.27-2.2,1.27c-1.72.99-3.11,3.41-3.11,5.39v2.54c0,2.08-1.47,4.63-3.27,5.67l-10.51,6.07Z"/>
              <path class="cls-3" d="m41.3,140.46l-.16-.27,10.51-6.07c1.72-.99,3.11-3.41,3.11-5.39v-2.54c0-2.08,1.47-4.63,3.27-5.67l2.2-1.27.16.27-2.2,1.27c-1.72.99-3.11,3.41-3.11,5.39v2.54c0,2.08-1.47,4.62-3.27,5.67l-10.51,6.07Z"/>
              <path class="cls-3" d="m37.21,138.1l-.16-.27,10.51-6.07c1.72-.99,3.11-3.41,3.11-5.39v-2.53c0-2.08,1.47-4.63,3.27-5.67l2.2-1.27.16.27-2.2,1.27c-1.72.99-3.11,3.41-3.11,5.39v2.53c0,2.08-1.47,4.63-3.27,5.67l-10.51,6.07Z"/>
              <path class="cls-3" d="m33.13,135.75l-.16-.27,10.51-6.07c1.72-.99,3.11-3.41,3.11-5.39v-2.54c0-2.08,1.47-4.62,3.27-5.67l2.2-1.27.16.27-2.2,1.27c-1.72.99-3.11,3.41-3.11,5.39v2.54c0,2.08-1.47,4.63-3.27,5.67l-10.51,6.07Z"/>
              <path class="cls-3" d="m29.04,133.39l-.16-.27,10.51-6.07c1.72-.99,3.11-3.41,3.11-5.39v-2.54c0-2.08,1.47-4.63,3.27-5.67l2.2-1.27.16.27-2.2,1.27c-1.72.99-3.11,3.41-3.11,5.39v2.54c0,2.08-1.47,4.62-3.27,5.67l-10.51,6.07Z"/>
              <path class="cls-3" d="m24.95,131.03l-.16-.27,10.51-6.07c1.72-.99,3.11-3.41,3.11-5.39v-2.53c0-2.08,1.47-4.63,3.27-5.67l2.2-1.27.16.27-2.2,1.27c-1.72.99-3.11,3.41-3.11,5.39v2.53c0,2.08-1.47,4.63-3.27,5.67l-10.51,6.07Z"/>
              <path class="cls-3" d="m20.86,128.68l-.16-.27,10.51-6.07c1.72-.99,3.11-3.41,3.11-5.39v-2.54c0-2.08,1.47-4.62,3.27-5.67l2.2-1.27.16.27-2.2,1.27c-1.72.99-3.11,3.41-3.11,5.39v2.54c0,2.08-1.47,4.62-3.27,5.67l-10.51,6.07Z"/>
              <path class="cls-3" d="m16.77,126.32l-.16-.27,10.51-6.07c1.72-.99,3.11-3.41,3.11-5.39v-2.54c0-2.08,1.47-4.63,3.27-5.67l2.2-1.27.16.27-2.2,1.27c-1.72.99-3.11,3.41-3.11,5.39v2.54c0,2.08-1.47,4.62-3.27,5.67l-10.51,6.07Z"/>
            </g>
          </g>
          <g>
            <g>
              <polygon class="cls-6" points="114.94 63.58 99.87 54.88 99.87 72.28 114.94 80.97 130 72.28 130 54.88 114.94 63.58"/>
              <polygon class="cls-6" points="114.94 80.97 99.87 72.28 99.87 54.88 114.94 63.58 114.94 80.97"/>
              <polygon class="cls-18" points="130 72.28 114.94 80.97 114.94 63.58 130 54.88 130 72.28"/>
              <polygon class="cls-6" points="114.94 63.58 99.87 54.88 114.94 46.18 130 54.88 114.94 63.58"/>
              <polygon class="cls-1" points="114.94 63.58 100.52 55.25 99.87 55.63 114.94 64.33 130 55.63 129.35 55.25 114.94 63.58"/>
            </g>
            <g>
              <polygon class="cls-6" points="134.51 74.74 119.44 66.04 119.44 83.44 134.51 92.14 149.58 83.44 149.58 66.04 134.51 74.74"/>
              <polygon class="cls-6" points="134.51 92.14 119.44 83.44 119.44 66.04 134.51 74.74 134.51 92.14"/>
              <polygon class="cls-18" points="149.58 83.44 134.51 92.14 134.51 74.74 149.58 66.04 149.58 83.44"/>
              <polygon class="cls-6" points="134.51 74.74 119.44 66.04 134.51 57.35 149.58 66.04 134.51 74.74"/>
              <polygon class="cls-1" points="134.51 74.74 120.09 66.42 119.44 66.8 134.51 75.5 149.58 66.8 148.92 66.42 134.51 74.74"/>
            </g>
            <g>
              <polygon class="cls-6" points="154.08 85.91 139.01 77.21 139.01 94.61 154.08 103.31 169.15 94.61 169.15 77.21 154.08 85.91"/>
              <polygon class="cls-6" points="154.08 103.31 139.01 94.61 139.01 77.21 154.08 85.91 154.08 103.31"/>
              <polygon class="cls-18" points="169.15 94.61 154.08 103.31 154.08 85.91 169.15 77.21 169.15 94.61"/>
              <polygon class="cls-6" points="154.08 85.91 139.01 77.21 154.08 68.51 169.15 77.21 154.08 85.91"/>
              <polygon class="cls-1" points="154.08 85.91 139.67 77.59 139.01 77.97 154.08 86.67 169.15 77.97 169.15 77.21 154.08 85.91"/>
            </g>
            <g>
              <polygon class="cls-6" points="95.36 75.5 80.3 66.8 80.3 84.2 95.36 92.9 110.43 84.2 110.43 66.8 95.36 75.5"/>
              <polygon class="cls-6" points="95.36 92.9 80.3 84.2 80.3 66.8 95.36 75.5 95.36 92.9"/>
              <polygon class="cls-18" points="110.43 84.2 95.36 92.9 95.36 75.5 110.43 66.8 110.43 84.2"/>
              <polygon class="cls-6" points="95.36 75.5 80.3 66.8 95.36 58.1 110.43 66.8 95.36 75.5"/>
              <polygon class="cls-1" points="95.36 75.5 80.95 67.18 80.3 67.55 95.36 76.25 110.43 67.55 109.78 67.18 95.36 75.5"/>
            </g>
            <g>
              <polygon class="cls-6" points="114.94 86.67 99.87 77.97 99.87 95.36 114.94 104.06 130 95.36 130 77.97 114.94 86.67"/>
              <polygon class="cls-6" points="114.94 104.06 99.87 95.36 99.87 77.97 114.94 86.67 114.94 104.06"/>
              <polygon class="cls-18" points="130 95.36 114.94 104.06 114.94 86.67 130 77.97 130 95.36"/>
              <polygon class="cls-6" points="114.94 86.67 99.87 77.97 114.94 69.27 130 77.97 114.94 86.67"/>
              <polygon class="cls-1" points="114.94 86.67 100.52 78.34 99.87 78.72 114.94 87.42 130 78.72 129.35 78.34 114.94 86.67"/>
            </g>
            <g>
              <polygon class="cls-6" points="134.51 97.83 119.44 89.13 119.44 106.53 134.51 115.23 149.58 106.53 149.58 89.13 134.51 97.83"/>
              <polygon class="cls-6" points="134.51 115.23 119.44 106.53 119.44 89.13 134.51 97.83 134.51 115.23"/>
              <polygon class="cls-18" points="149.58 106.53 134.51 115.23 134.51 97.83 149.58 89.13 149.58 106.53"/>
              <polygon class="cls-6" points="134.51 97.83 119.44 89.13 134.51 80.43 149.58 89.13 134.51 97.83"/>
              <polygon class="cls-1" points="134.51 97.83 120.09 89.51 119.44 89.89 134.51 98.59 149.58 89.89 149.58 89.13 134.51 97.83"/>
            </g>
            <g>
              <polygon class="cls-6" points="75.79 87.42 60.72 78.72 60.72 96.12 75.79 104.82 90.86 96.12 90.86 78.72 75.79 87.42"/>
              <polygon class="cls-6" points="75.79 104.82 60.72 96.12 60.72 78.72 75.79 87.42 75.79 104.82"/>
              <polygon class="cls-18" points="90.86 96.12 75.79 104.82 75.79 87.42 90.86 78.72 90.86 96.12"/>
              <polygon class="cls-6" points="75.79 87.42 60.72 78.72 75.79 70.02 90.86 78.72 75.79 87.42"/>
              <polygon class="cls-1" points="75.79 87.42 60.72 78.72 60.72 79.48 75.79 88.17 90.86 79.48 90.21 79.1 75.79 87.42"/>
            </g>
            <g>
              <polygon class="cls-6" points="95.36 98.59 80.3 89.89 80.3 107.29 95.36 115.99 110.43 107.29 110.43 89.89 95.36 98.59"/>
              <polygon class="cls-6" points="95.36 115.99 80.3 107.29 80.3 89.89 95.36 98.59 95.36 115.99"/>
              <polygon class="cls-18" points="110.43 107.29 95.36 115.99 95.36 98.59 110.43 89.89 110.43 107.29"/>
              <polygon class="cls-6" points="95.36 98.59 80.3 89.89 95.36 81.19 110.43 89.89 95.36 98.59"/>
              <polygon class="cls-1" points="95.36 98.59 80.3 89.89 80.3 90.64 95.36 99.34 110.43 90.64 109.78 90.27 95.36 98.59"/>
            </g>
            <g>
              <polygon class="cls-6" points="114.94 109.75 99.87 101.06 99.87 118.45 114.94 127.15 130 118.45 130 101.06 114.94 109.75"/>
              <polygon class="cls-6" points="114.94 127.15 99.87 118.45 99.87 101.06 114.94 109.75 114.94 127.15"/>
              <polygon class="cls-18" points="130 118.45 114.94 127.15 114.94 109.75 130 101.06 130 118.45"/>
              <polygon class="cls-6" points="114.94 109.75 99.87 101.06 114.94 92.36 130 101.06 114.94 109.75"/>
              <polygon class="cls-1" points="114.94 109.75 99.87 101.06 99.87 101.81 114.94 110.51 130 101.81 130 101.06 114.94 109.75"/>
            </g>
            <g>
              <polygon class="cls-6" points="114.94 40.49 99.87 31.79 99.87 49.19 114.94 57.89 130 49.19 130 31.79 114.94 40.49"/>
              <polygon class="cls-6" points="114.94 57.89 99.87 49.19 99.87 31.79 114.94 40.49 114.94 57.89"/>
              <polygon class="cls-18" points="130 49.19 114.94 57.89 114.94 40.49 130 31.79 130 49.19"/>
              <polygon class="cls-6" points="114.94 40.49 99.87 31.79 114.94 23.09 130 31.79 114.94 40.49"/>
              <polygon class="cls-1" points="114.94 40.49 100.52 32.17 99.87 32.54 114.94 41.24 130 32.54 129.35 32.17 114.94 40.49"/>
            </g>
            <g>
              <polygon class="cls-19" points="114.94 106.92 104.66 100.99 114.94 95.05 125.21 100.99 114.94 106.92"/>
              <polygon class="cls-19" points="95.36 95.75 85.09 89.82 95.36 83.89 105.64 89.82 95.36 95.75"/>
              <polygon class="cls-19" points="134.51 95 124.23 89.06 134.51 83.13 144.79 89.07 134.51 95"/>
              <polygon class="cls-19" points="154.12 83.21 143.84 77.28 154.12 71.35 164.4 77.28 154.12 83.21"/>
              <polygon class="cls-19" points="75.79 84.59 65.51 78.65 75.79 72.72 86.07 78.65 75.79 84.59"/>
            </g>
            <g>
              <polygon class="cls-6" points="134.51 51.65 119.44 42.96 119.44 60.35 134.51 69.05 149.58 60.35 149.58 42.96 134.51 51.65"/>
              <polygon class="cls-6" points="134.51 69.05 119.44 60.35 119.44 42.96 134.51 51.65 134.51 69.05"/>
              <polygon class="cls-18" points="149.58 60.35 134.51 69.05 134.51 51.65 149.58 42.96 149.58 60.35"/>
              <polygon class="cls-6" points="134.51 51.65 119.44 42.96 134.51 34.26 149.58 42.96 134.51 51.65"/>
              <polygon class="cls-1" points="134.51 51.65 120.09 43.33 119.44 43.71 134.51 52.41 149.58 43.71 148.92 43.33 134.51 51.65"/>
            </g>
            <g>
              <polygon class="cls-6" points="154.08 62.82 139.01 54.12 139.01 71.52 154.08 80.22 169.15 71.52 169.15 54.12 154.08 62.82"/>
              <polygon class="cls-6" points="154.08 80.22 139.01 71.52 139.01 54.12 154.08 62.82 154.08 80.22"/>
              <polygon class="cls-18" points="169.15 71.52 154.08 80.22 154.08 62.82 169.15 54.12 169.15 71.52"/>
              <polygon class="cls-6" points="154.08 62.82 139.01 54.12 154.08 45.42 169.15 54.12 154.08 62.82"/>
              <polygon class="cls-1" points="154.08 62.82 139.67 54.5 139.01 54.88 154.08 63.58 169.15 54.88 169.15 54.12 154.08 62.82"/>
            </g>
            <g>
              <polygon class="cls-6" points="95.36 52.41 80.3 43.71 80.3 61.11 95.36 69.81 110.43 61.11 110.43 43.71 95.36 52.41"/>
              <polygon class="cls-6" points="95.36 69.81 80.3 61.11 80.3 43.71 95.36 52.41 95.36 69.81"/>
              <polygon class="cls-18" points="110.43 61.11 95.36 69.81 95.36 52.41 110.43 43.71 110.43 61.11"/>
              <polygon class="cls-6" points="95.36 52.41 80.3 43.71 95.36 35.01 110.43 43.71 95.36 52.41"/>
              <polygon class="cls-1" points="95.36 52.41 80.95 44.09 80.3 44.46 95.36 53.16 110.43 44.46 109.78 44.09 95.36 52.41"/>
            </g>
            <g>
              <polygon class="cls-6" points="114.94 63.58 99.87 54.88 99.87 72.28 114.94 80.97 130 72.28 130 54.88 114.94 63.58"/>
              <polygon class="cls-6" points="114.94 80.97 99.87 72.28 99.87 54.88 114.94 63.58 114.94 80.97"/>
              <polygon class="cls-18" points="130 72.28 114.94 80.97 114.94 63.58 130 54.88 130 72.28"/>
              <polygon class="cls-6" points="114.94 63.58 99.87 54.88 114.94 46.18 130 54.88 114.94 63.58"/>
              <polygon class="cls-1" points="114.94 63.58 100.52 55.25 99.87 55.63 114.94 64.33 130 55.63 129.35 55.25 114.94 63.58"/>
            </g>
            <g>
              <polygon class="cls-6" points="134.51 74.74 119.44 66.04 119.44 83.44 134.51 92.14 149.58 83.44 149.58 66.04 134.51 74.74"/>
              <polygon class="cls-6" points="134.51 92.14 119.44 83.44 119.44 66.04 134.51 74.74 134.51 92.14"/>
              <polygon class="cls-18" points="149.58 83.44 134.51 92.14 134.51 74.74 149.58 66.04 149.58 83.44"/>
              <polygon class="cls-6" points="134.51 74.74 119.44 66.04 134.51 57.35 149.58 66.04 134.51 74.74"/>
              <polygon class="cls-1" points="134.51 74.74 120.09 66.42 119.44 66.8 134.51 75.5 149.58 66.8 149.58 66.04 134.51 74.74"/>
            </g>
            <g>
              <polygon class="cls-6" points="75.79 64.33 60.72 55.63 60.72 73.03 75.79 81.73 90.86 73.03 90.86 55.63 75.79 64.33"/>
              <polygon class="cls-6" points="75.79 81.73 60.72 73.03 60.72 55.63 75.79 64.33 75.79 81.73"/>
              <polygon class="cls-18" points="90.86 73.03 75.79 81.73 75.79 64.33 90.86 55.63 90.86 73.03"/>
              <polygon class="cls-6" points="75.79 64.33 60.72 55.63 75.79 46.93 90.86 55.63 75.79 64.33"/>
              <polygon class="cls-1" points="75.79 64.33 61.38 56.01 60.72 56.39 75.79 65.09 90.86 56.39 90.21 56.01 75.79 64.33"/>
            </g>
            <g>
              <polygon class="cls-6" points="95.36 75.5 80.3 66.8 80.3 84.2 95.36 92.9 110.43 84.2 110.43 66.8 95.36 75.5"/>
              <polygon class="cls-6" points="95.36 92.9 80.3 84.2 80.3 66.8 95.36 75.5 95.36 92.9"/>
              <polygon class="cls-18" points="110.43 84.2 95.36 92.9 95.36 75.5 110.43 66.8 110.43 84.2"/>
              <polygon class="cls-6" points="95.36 75.5 80.3 66.8 95.36 58.1 110.43 66.8 95.36 75.5"/>
              <polygon class="cls-1" points="95.36 75.5 80.3 66.8 80.3 67.55 95.36 76.25 110.43 67.55 109.78 67.18 95.36 75.5"/>
            </g>
            <g>
              <polygon class="cls-6" points="114.94 86.67 99.87 77.97 99.87 95.36 114.94 104.06 130 95.36 130 77.97 114.94 86.67"/>
              <polygon class="cls-6" points="114.94 104.06 99.87 95.36 99.87 77.97 114.94 86.67 114.94 104.06"/>
              <polygon class="cls-18" points="130 95.36 114.94 104.06 114.94 86.67 130 77.97 130 95.36"/>
              <polygon class="cls-6" points="114.94 86.67 99.87 77.97 114.94 69.27 130 77.97 114.94 86.67"/>
              <polygon class="cls-1" points="114.94 86.67 99.87 77.97 99.87 78.72 114.94 87.42 130 78.72 130 77.97 114.94 86.67"/>
            </g>
            <g>
              <polygon class="cls-19" points="154.12 60.23 143.84 54.29 154.12 48.36 164.4 54.29 154.12 60.23"/>
              <polygon class="cls-19" points="75.79 61.6 65.51 55.67 75.79 49.73 86.07 55.67 75.79 61.6"/>
            </g>
            <g>
              <polygon class="cls-6" points="114.94 17.4 99.87 8.7 99.87 26.1 114.94 34.8 130 26.1 130 8.7 114.94 17.4"/>
              <polygon class="cls-6" points="114.94 34.8 99.87 26.1 99.87 8.7 114.94 17.4 114.94 34.8"/>
              <polygon class="cls-18" points="130 26.1 114.94 34.8 114.94 17.4 130 8.7 130 26.1"/>
              <polygon class="cls-6" points="114.94 17.4 99.87 8.7 114.94 0 130 8.7 114.94 17.4"/>
              <polygon class="cls-1" points="114.94 17.4 99.87 8.7 99.87 9.45 114.94 18.15 130 9.45 130 8.7 114.94 17.4"/>
            </g>
            <g>
              <polygon class="cls-6" points="134.51 28.57 119.44 19.87 119.44 37.26 134.51 45.96 149.58 37.26 149.58 19.87 134.51 28.57"/>
              <polygon class="cls-6" points="134.51 45.96 119.44 37.26 119.44 19.87 134.51 28.57 134.51 45.96"/>
              <polygon class="cls-18" points="149.58 37.26 134.51 45.96 134.51 28.57 149.58 19.87 149.58 37.26"/>
              <polygon class="cls-6" points="134.51 28.57 119.44 19.87 134.51 11.17 149.58 19.87 134.51 28.57"/>
              <polygon class="cls-1" points="134.51 28.57 119.44 19.87 119.44 20.62 134.51 29.32 149.58 20.62 149.58 19.87 134.51 28.57"/>
            </g>
            <g>
              <polygon class="cls-6" points="154.08 39.73 139.01 31.03 139.01 48.43 154.08 57.13 169.15 48.43 169.15 31.03 154.08 39.73"/>
              <polygon class="cls-6" points="154.08 57.13 139.01 48.43 139.01 31.03 154.08 39.73 154.08 57.13"/>
              <polygon class="cls-18" points="169.15 48.43 154.08 57.13 154.08 39.73 169.15 31.03 169.15 48.43"/>
              <polygon class="cls-6" points="154.08 39.73 139.01 31.03 154.08 22.33 169.15 31.03 154.08 39.73"/>
              <polygon class="cls-1" points="154.08 39.73 139.01 31.03 139.01 31.79 154.08 40.49 169.15 31.79 169.15 31.03 154.08 39.73"/>
            </g>
            <g>
              <polygon class="cls-6" points="95.36 29.32 80.3 20.62 80.3 38.02 95.36 46.72 110.43 38.02 110.43 20.62 95.36 29.32"/>
              <polygon class="cls-6" points="95.36 46.72 80.3 38.02 80.3 20.62 95.36 29.32 95.36 46.72"/>
              <polygon class="cls-18" points="110.43 38.02 95.36 46.72 95.36 29.32 110.43 20.62 110.43 38.02"/>
              <polygon class="cls-6" points="95.36 29.32 80.3 20.62 95.36 11.92 110.43 20.62 95.36 29.32"/>
              <polygon class="cls-1" points="95.36 29.32 80.3 20.62 80.3 21.38 95.36 30.07 110.43 21.38 110.43 20.62 95.36 29.32"/>
            </g>
            <g>
              <polygon class="cls-6" points="75.79 41.24 60.72 32.54 60.72 49.94 75.79 58.64 90.86 49.94 90.86 32.54 75.79 41.24"/>
              <polygon class="cls-6" points="75.79 58.64 60.72 49.94 60.72 32.54 75.79 41.24 75.79 58.64"/>
              <polygon class="cls-18" points="90.86 49.94 75.79 58.64 75.79 41.24 90.86 32.54 90.86 49.94"/>
              <polygon class="cls-6" points="75.79 41.24 60.72 32.54 75.79 23.84 90.86 32.54 75.79 41.24"/>
              <polygon class="cls-1" points="75.79 41.24 60.72 32.54 60.72 33.3 75.79 42 90.86 33.3 90.86 32.54 75.79 41.24"/>
            </g>
          </g>
        </g>
      </g>
    </g>
  </g>
</svg>