<?xml version="1.0" encoding="UTF-8"?>
<svg xmlns="http://www.w3.org/2000/svg" xmlns:xlink="http://www.w3.org/1999/xlink" viewBox="0 0 366.85 208.59">
  <defs>
    <style>
      .cls-1 {
        fill: url(#linear-gradient-2);
      }

      .cls-2 {
        fill: #7238c6;
      }

      .cls-3 {
        fill: url(#Degradado_sin_nombre_3829);
        mix-blend-mode: screen;
      }

      .cls-4 {
        fill: url(#linear-gradient-6);
      }

      .cls-5 {
        isolation: isolate;
      }

      .cls-6 {
        fill: url(#linear-gradient-11);
      }

      .cls-7 {
        fill: url(#linear-gradient-10);
      }

      .cls-8 {
        fill: #ae8eef;
      }

      .cls-9 {
        fill: url(#linear-gradient-5);
      }

      .cls-10 {
        fill: url(#linear-gradient-7);
      }

      .cls-11 {
        fill: url(#linear-gradient-9);
      }

      .cls-12 {
        fill: #9b6aea;
      }

      .cls-13 {
        fill: url(#linear-gradient-3);
      }

      .cls-14 {
        fill: url(#linear-gradient);
      }

      .cls-15 {
        fill: #8144d8;
      }

      .cls-16 {
        fill: url(#linear-gradient-4);
      }

      .cls-17 {
        fill: url(#linear-gradient-8);
      }
    </style>
    <linearGradient id="linear-gradient" x1="366.37" y1="36.47" x2="26.38" y2="190.14" gradientUnits="userSpaceOnUse">
      <stop offset="0" stop-color="#9548ee"/>
      <stop offset=".13" stop-color="#994ff0"/>
      <stop offset=".33" stop-color="#a465f6"/>
      <stop offset=".48" stop-color="#af7afc"/>
      <stop offset=".99" stop-color="#703cba"/>
    </linearGradient>
    <linearGradient id="linear-gradient-2" x1="-23.49" y1="176.03" x2="376.78" y2="21.57" gradientUnits="userSpaceOnUse">
      <stop offset="0" stop-color="#9548ee"/>
      <stop offset=".28" stop-color="#954fee"/>
      <stop offset=".71" stop-color="#9565ee"/>
      <stop offset="1" stop-color="#9578ee"/>
    </linearGradient>
    <linearGradient id="Degradado_sin_nombre_3829" data-name="Degradado sin nombre 3829" x1="179.91" y1="119.81" x2="179.91" y2="-46.45" gradientUnits="userSpaceOnUse">
      <stop offset="0" stop-color="#fff" stop-opacity="0"/>
      <stop offset=".1" stop-color="#fff" stop-opacity=".12"/>
      <stop offset=".35" stop-color="#fff" stop-opacity=".43"/>
      <stop offset=".58" stop-color="#fff" stop-opacity=".67"/>
      <stop offset=".77" stop-color="#fff" stop-opacity=".85"/>
      <stop offset=".91" stop-color="#fff" stop-opacity=".96"/>
      <stop offset="1" stop-color="#fff"/>
    </linearGradient>
    <linearGradient id="linear-gradient-3" x1="90.98" y1="119.37" x2="57.53" y2="125.49" gradientUnits="userSpaceOnUse">
      <stop offset="0" stop-color="#a970fc"/>
      <stop offset=".27" stop-color="#a168f4"/>
      <stop offset=".68" stop-color="#8c53de"/>
      <stop offset="1" stop-color="#783fc9"/>
    </linearGradient>
    <linearGradient id="linear-gradient-4" x1="125.47" y1="130.05" x2="92.6" y2="127.57" xlink:href="#linear-gradient-3"/>
    <linearGradient id="linear-gradient-5" x1="78.63" y1="146.98" x2="50.2" y2="140.91" xlink:href="#linear-gradient-3"/>
    <linearGradient id="linear-gradient-6" x1="123.79" y1="152.26" x2="90.92" y2="149.78" xlink:href="#linear-gradient-3"/>
    <linearGradient id="linear-gradient-7" x1="257.33" y1="41.16" x2="266.82" y2="41.16" xlink:href="#linear-gradient-3"/>
    <linearGradient id="linear-gradient-8" x1="321.67" y1="48.64" x2="295.95" y2="50.52" xlink:href="#linear-gradient-3"/>
    <linearGradient id="linear-gradient-9" x1="300.15" y1="76.83" x2="253.49" y2="56.22" xlink:href="#linear-gradient-3"/>
    <linearGradient id="linear-gradient-10" x1="170.31" y1="90.93" x2="152.21" y2="109.57" xlink:href="#linear-gradient-3"/>
    <linearGradient id="linear-gradient-11" x1="218.03" y1="71.16" x2="189.13" y2="93.58" xlink:href="#linear-gradient-3"/>
  </defs>
  <g class="cls-5">
    <g id="Layer_2" data-name="Layer 2">
      <g id="OBJECTS">
        <g>
          <g>
            <g>
              <path class="cls-14" d="m366.85,58.3l-.24,16.28c-.01.54-.03,1.08-.05,1.61-.01.02-.01.03-.01.05-.02.43-.06.86-.11,1.31-.01.14-.01.28-.03.42-.05.58-.13,1.16-.22,1.73-.02.14-.05.27-.08.41-.06.43-.14.88-.23,1.32-.04.21-.09.41-.14.63-.08.36-.15.72-.24,1.09-.01.02-.01.04-.02.08-.03.16-.09.32-.13.49-.1.4-.21.8-.32,1.2-.06.23-.14.45-.21.68-.12.36-.23.71-.35,1.06-.09.25-.17.49-.26.73-.13.33-.25.67-.38,1-.1.25-.21.5-.3.75-.14.32-.27.66-.42.98-.05.12-.1.24-.15.36-.05.11-.11.22-.16.34-.21.44-.42.88-.64,1.32-.1.19-.18.38-.29.57-.31.62-.65,1.23-1,1.84-.01.02-.02.04-.04.06-.33.59-.7,1.18-1.07,1.75-.12.19-.25.38-.38.57-.27.42-.56.83-.85,1.25-.08.11-.14.22-.23.32-.04.06-.1.13-.14.19-.61.83-1.23,1.64-1.88,2.44-.11.14-.23.27-.33.4-.67.81-1.37,1.61-2.11,2.4-.11.11-.21.22-.3.32-.78.81-1.57,1.61-2.41,2.4-.05.06-.12.12-.18.17-.86.81-1.75,1.61-2.68,2.39-.02.01-.04.03-.06.05-.01.01-.02.01-.03.02-.62.52-1.25,1.03-1.9,1.53-.19.14-.39.29-.58.44-.48.36-.95.71-1.44,1.06-.24.17-.46.33-.71.51-.48.34-.96.67-1.46,1-.23.15-.45.3-.68.45-.67.43-1.36.88-2.05,1.3-.05.03-.1.06-.14.09-.75.45-1.51.91-2.29,1.34-.24.14-.48.27-.72.4-.55.3-1.11.61-1.69.91-.28.15-.56.29-.84.43-.57.29-1.16.58-1.74.86-.26.13-.52.26-.78.38-.85.4-1.71.8-2.58,1.18-.86.38-1.73.75-2.6,1.1-.12.04-.24.09-.35.14-.8.31-1.61.61-2.42.9-.58.22-1.17.45-1.75.66-.95.33-1.91.64-2.87.94-.52.17-1.03.36-1.56.51-1.31.4-2.64.77-3.97,1.12-.17.04-.36.11-.53.15-1.49.39-3,.75-4.52,1.08-.02,0-.04,0-.05.01-.08.01-.14.02-.21.04-1.32.28-2.65.54-3.98.78-.33.06-.68.12-1.02.18-1.38.24-2.78.45-4.17.65-.11.01-.23.03-.35.04-.89.12-1.77.24-2.67.33-.26.03-.53.04-.8.08-1.12.12-2.25.22-3.37.3-.62.05-1.22.11-1.84.15-1.37.09-2.76.15-4.13.19-.31.01-.63.03-.94.04h-.13c-1.15.03-2.29.04-3.44.04-.54,0-1.08,0-1.62-.01-.41,0-.81-.02-1.22-.03-1.28-.03-2.55-.06-3.83-.13-.13,0-.25,0-.37-.01-.48-.02-.95-.08-1.43-.11-1.1-.06-2.19-.14-3.28-.24-.67-.06-1.34-.14-2-.21-1.02-.11-2.04-.22-3.05-.35-.3-.04-.59-.06-.9-.11-.83-.11-1.66-.24-2.5-.37-.08-.01-.16-.02-.24-.03-.76-.12-1.51-.25-2.27-.39-.61-.11-1.21-.22-1.82-.34-.28-.05-.56-.11-.84-.16-1.19-.24-2.37-.48-3.54-.75-.21-.05-.41-.1-.62-.15-.77-.17-1.55-.31-2.32-.44-.13-.02-.27-.04-.4-.06-.4-.05-.81-.09-1.22-.13-.53-.06-1.06-.12-1.6-.15-.38-.03-.77-.03-1.15-.04-.53-.02-1.06-.03-1.59-.02-.68.01-1.35.02-2.03.06-.04.01-.09.01-.14.02-.7.04-1.42.13-2.11.23-.19.02-.38.04-.56.08-.73.12-1.47.25-2.18.41-.48.1-.94.24-1.42.36-.35.1-.7.18-1.04.28-.49.15-.95.33-1.43.5-.14.05-.29.11-.43.15-.18.06-.37.13-.54.19l-47.41,19.16c-.51.21-.99.42-1.47.65-.11.05-.23.12-.33.17-.48.23-.93.48-1.36.72-.01.01-.03.02-.05.03-.41.25-.81.51-1.2.77-.1.08-.19.14-.29.21-.39.28-.77.56-1.12.85-.11.1-.22.21-.33.3-.14.13-.29.25-.43.38-.11.11-.22.22-.32.32-.13.13-.27.26-.39.39-.11.12-.21.23-.3.34-.12.14-.24.27-.36.41-.1.11-.18.23-.27.35-.11.14-.22.27-.31.41-.04.06-.09.12-.13.18-.18.26-.36.53-.52.8-.05.1-.11.19-.17.29-.15.28-.29.56-.43.84-.02.05-.05.12-.09.17-.13.3-.26.62-.37.93-.02.06-.04.14-.06.21-.08.25-.15.49-.22.73-.06.24-.12.49-.16.72-.12.65-.27,1.29-.42,1.93-.02.08-.03.15-.04.24-.03.12-.08.24-.11.37-.09.36-.18.72-.29,1.08-.05.22-.12.42-.18.64-.12.38-.24.76-.37,1.12-.05.19-.12.38-.18.56-.18.51-.37,1.02-.57,1.52-.01.04-.03.1-.05.14-.22.55-.45,1.1-.7,1.65-.01.03-.03.08-.04.12-.04.1-.1.19-.14.29-.23.49-.46.97-.71,1.45-.09.18-.17.36-.27.54-.27.52-.56,1.04-.85,1.56-.05.09-.1.17-.14.25-.35.59-.71,1.18-1.08,1.77-.11.15-.22.31-.32.48-.29.44-.59.9-.91,1.34-.08.1-.14.21-.21.3-.05.08-.12.15-.17.23-.17.24-.36.49-.54.72-.17.23-.33.45-.52.68-.18.24-.38.48-.56.71-.18.23-.37.45-.55.68-.19.23-.4.46-.61.7-.18.22-.38.44-.57.66-.22.24-.42.46-.64.7-.19.22-.4.43-.61.65-.22.23-.44.46-.66.69-.22.22-.42.42-.64.64-.23.23-.46.45-.69.68-.23.21-.44.42-.66.63-.25.23-.49.44-.73.66-.23.22-.45.42-.69.63-.25.22-.5.43-.75.65-.19.16-.38.32-.57.48-.03.03-.08.06-.12.1-.66.55-1.34,1.09-2.03,1.63-.16.12-.32.24-.48.36-.63.48-1.26.94-1.92,1.4-.12.08-.23.16-.36.25-.73.52-1.49,1.03-2.27,1.52-.18.12-.37.24-.55.35-.71.45-1.44.9-2.17,1.34-.11.05-.21.12-.3.18-.65.38-1.32.75-1.99,1.11-.17.1-.36.19-.53.29-.21.11-.41.22-.62.34-.82.43-1.64.85-2.5,1.28-.06.03-.13.06-.19.1-.9.43-1.82.86-2.74,1.29-.23.1-.45.19-.68.3-.95.41-1.91.82-2.89,1.22-.11.04-.22.09-.32.13-.37.14-.75.27-1.11.42-.94.36-1.88.72-2.83,1.06-.54.18-1.07.36-1.61.54-.85.29-1.71.57-2.57.84-.57.17-1.17.35-1.75.52-.83.24-1.65.48-2.5.7-.61.16-1.21.31-1.83.46-.59.15-1.19.29-1.78.43-.23.05-.46.11-.7.16-.29.06-.59.15-.89.22-.49.11-.97.19-1.45.29-.37.08-.72.15-1.08.23-1.24.24-2.49.48-3.73.68-.09.01-.17.02-.26.03-1.18.19-2.34.36-3.52.52-.38.05-.76.1-1.13.14-.44.05-.88.12-1.32.17-.27.02-.55.04-.83.08-1.25.13-2.52.24-3.77.34-.44.04-.88.08-1.31.11-1.67.11-3.34.19-5.01.24-.06.01-.13.01-.18.01-.29.01-.58,0-.86.01-1.28.02-2.55.03-3.83.02-.54,0-1.08-.01-1.63-.03-1.11-.02-2.23-.05-3.33-.11-.32-.01-.66-.01-.98-.03-.22-.01-.42-.03-.64-.04-.45-.02-.91-.05-1.36-.09-.86-.06-1.73-.13-2.59-.21-.31-.03-.63-.05-.94-.08-1.62-.16-3.22-.35-4.82-.56-.11-.01-.22-.02-.32-.03-1.06-.15-2.11-.3-3.16-.48-.24-.04-.49-.09-.72-.12-1-.17-2.01-.36-3-.54-.3-.06-.62-.12-.92-.18-1.15-.23-2.28-.46-3.4-.72-.04-.01-.09-.02-.14-.03-.24-.05-.49-.12-.72-.17-.98-.24-1.96-.48-2.93-.73-.42-.11-.83-.23-1.24-.35-.8-.22-1.6-.44-2.39-.68-.44-.13-.89-.26-1.32-.4-.79-.24-1.56-.5-2.33-.76-.41-.14-.81-.27-1.21-.41-.17-.05-.35-.11-.52-.17-.91-.32-1.8-.65-2.69-.99-.16-.06-.33-.13-.5-.19-.94-.37-1.88-.76-2.8-1.15-.27-.11-.53-.23-.79-.34-1.05-.45-2.09-.92-3.11-1.42-.13-.06-.27-.13-.4-.19-.91-.43-1.8-.89-2.69-1.35-.25-.13-.5-.26-.76-.39-.98-.53-1.96-1.07-2.92-1.62-.1-.06-.19-.13-.3-.18-.86-.52-1.72-1.04-2.56-1.58-.23-.15-.46-.29-.69-.44-.92-.61-1.83-1.21-2.71-1.84-.06-.04-.13-.1-.19-.14-.82-.59-1.62-1.2-2.41-1.8-.22-.17-.43-.35-.65-.51-.83-.67-1.65-1.35-2.45-2.04-.03-.03-.06-.06-.1-.1-.77-.67-1.5-1.35-2.24-2.05-.18-.18-.38-.37-.57-.55-.75-.73-1.48-1.48-2.18-2.25C3.86,171.14-.14,160.8,0,150.6l.24-16.28v.52c0,.51.01,1.02.03,1.53.02.42.04.85.08,1.29.01.09.01.17.02.26.03.44.08.89.13,1.33.05.5.13,1,.21,1.5.09.54.18,1.07.29,1.61.06.31.13.63.21.94.06.29.14.57.21.86.05.23.12.46.18.69.05.21.11.41.18.63.05.21.12.41.18.63.1.31.19.63.3.94.22.66.45,1.32.71,1.98.11.27.22.54.33.81.13.31.26.63.4.93.13.31.27.62.42.93.29.62.59,1.22.93,1.84.14.27.29.55.44.83.37.65.75,1.29,1.15,1.93.18.29.37.58.56.88.24.38.5.75.76,1.12.77,1.12,1.61,2.24,2.51,3.34.48.58.97,1.17,1.49,1.75.25.29.51.57.78.86.33.37.68.73,1.04,1.09.03.03.08.08.11.11.35.35.69.69,1.04,1.04.19.19.39.38.58.56.37.36.72.7,1.1,1.04.21.21.41.4.63.57.02.04.05.06.08.06.14.13.28.26.42.38v.02c.44.37.88.75,1.32,1.1.41.34.82.68,1.24,1.01.21.17.42.35.64.51.3.24.61.46.91.7.27.22.54.41.82.61.29.23.58.44.89.65.44.31.89.63,1.34.93.44.3.91.61,1.36.9.23.15.46.3.69.45.36.23.71.45,1.08.67.17.12.35.23.52.32.19.12.39.24.59.36.12.06.25.14.38.22.08.04.14.1.22.14.31.18.64.37.96.55.24.14.49.28.73.41.43.24.86.48,1.31.7.24.14.5.27.75.4.44.24.89.45,1.34.68.45.23.9.45,1.35.67.14.06.27.13.4.19.03.01.08.03.12.05.03.01.08.02.11.04.67.32,1.34.63,2.01.93.08.03.15.06.24.11.08.03.14.06.22.09.26.13.53.24.8.35.02.01.04.02.06.03.11.04.23.1.35.14.45.19.93.39,1.39.58.46.19.94.39,1.42.57.15.05.3.12.45.17.01,0,.02.01.03.01.46.18.93.36,1.39.53.7.26,1.4.51,2.12.76.3.1.61.19.91.3,1.24.42,2.51.82,3.78,1.19.75.23,1.5.44,2.26.65.9.26,1.79.5,2.7.71.62.16,1.24.31,1.86.45.03.01.05.01.09.02.09.02.16.04.25.06.23.05.44.1.67.15.12.02.23.05.35.08.02,0,.04.01.06.01.03.01.06.01.1.02.81.18,1.63.36,2.46.52.27.05.55.11.82.15.43.09.88.17,1.32.25.56.11,1.12.21,1.69.29.24.04.49.09.72.13.43.06.86.13,1.31.19.14.02.29.04.43.06.57.09,1.16.16,1.74.25l.23.03c.49.06.97.13,1.47.18.06.01.12.01.18.02.03,0,.05.01.09.01.37.04.76.09,1.12.12.14.02.28.03.42.05.33.03.67.06,1,.1.1.01.21.02.3.03.11.01.22.02.32.02.21.02.41.04.62.05.66.06,1.32.11,1.98.16.12.01.25.02.38.02.23.02.46.04.7.05h.09c.08,0,.16.01.24.01.19.02.38.03.57.04.54.03,1.08.05,1.62.09.55.03,1.1.05,1.66.06.55.02,1.11.03,1.66.04.45.01.9.02,1.34.02.03,0,.05.01.09.01.08.01.14,0,.22,0h.21c1.2.01,2.4,0,3.61-.03h.35c.09-.01.17-.01.26-.01h.45c.05,0,.11,0,.16-.01.36,0,.72-.01,1.08-.03.51-.02,1.03-.04,1.53-.06.42-.02.83-.04,1.25-.08.25-.01.5-.03.75-.04.08,0,.15-.01.23-.01.17-.01.33-.02.51-.04.04,0,.09-.01.13-.01.03,0,.05,0,.09-.01.19-.01.39-.03.58-.04.63-.04,1.26-.1,1.89-.15.63-.06,1.25-.13,1.88-.19.64-.06,1.28-.13,1.9-.21.09-.01.18-.02.27-.03.53-.06,1.06-.13,1.59-.21.83-.12,1.66-.24,2.5-.37.04-.01.08-.01.12-.02.86-.13,1.72-.27,2.56-.43.11-.01.22-.03.32-.06.8-.14,1.6-.29,2.4-.46h.02c.06-.01.13-.03.19-.04.78-.16,1.56-.33,2.33-.51.15-.03.31-.08.46-.11.68-.16,1.35-.32,2.02-.49.62-.15,1.22-.3,1.84-.48.83-.22,1.65-.45,2.49-.69.58-.17,1.18-.35,1.76-.53.85-.26,1.71-.55,2.56-.83.4-.14.82-.27,1.23-.41.1-.03.21-.08.3-.11.06-.01.12-.03.17-.05.92-.33,1.83-.68,2.73-1.04.48-.18.96-.36,1.44-.54.98-.4,1.95-.8,2.89-1.23.23-.1.45-.19.68-.3.3-.14.58-.27.88-.41.37-.16.72-.32,1.08-.5t.02-.01s.08-.04.12-.05c.26-.13.51-.24.76-.36.03-.02.06-.03.1-.05.42-.21.83-.42,1.25-.63l1.23-.65c.21-.1.41-.21.62-.32.1-.05.19-.11.29-.16.3-.16.62-.33.92-.51.55-.3,1.08-.61,1.61-.93.71-.42,1.42-.85,2.11-1.29.44-.27.88-.55,1.31-.84.49-.31.95-.64,1.43-.96.09-.05.16-.12.25-.17.41-.29.82-.58,1.23-.89.29-.22.58-.43.88-.65.18-.13.36-.26.54-.41.33-.26.66-.51.98-.77.59-.46,1.17-.94,1.74-1.44.26-.22.51-.43.77-.66.23-.19.45-.4.68-.62.25-.22.49-.44.73-.67.22-.21.43-.41.66-.63s.46-.44.69-.67.42-.43.64-.65c.22-.23.44-.45.66-.68.21-.22.41-.43.61-.66.21-.22.41-.42.59-.65.22-.24.42-.46.62-.7.21-.24.41-.48.61-.71.18-.22.37-.44.54-.67.19-.24.39-.48.57-.71.51-.64.98-1.28,1.44-1.93.31-.45.62-.9.92-1.35.09-.13.17-.26.26-.39.02-.03.03-.05.05-.09.18-.29.37-.58.55-.88.39-.63.76-1.28,1.1-1.91.14-.26.29-.52.42-.79.1-.17.18-.35.27-.53.25-.49.49-.97.71-1.46.06-.13.13-.27.18-.4.23-.5.44-1,.65-1.5.09-.22.17-.42.25-.64.11-.25.19-.5.28-.75.05-.14.11-.28.15-.43.06-.19.13-.38.18-.56.06-.18.13-.38.19-.57.06-.18.12-.37.17-.56.06-.21.13-.42.18-.63.11-.37.21-.72.29-1.09.05-.19.11-.4.15-.59.08-.31.15-.63.23-.95.06-.32.13-.66.19-.98.03-.21.08-.41.13-.62.01-.04.02-.08.03-.11h0c.06-.26.14-.5.22-.73.02-.08.04-.14.06-.22.01-.03.02-.08.04-.11.09-.26.19-.51.3-.76.1-.23.21-.44.32-.66.06-.14.15-.27.23-.41.03-.06.06-.15.13-.23,0-.01.01-.01.01-.02.01-.02.02-.03.03-.05.01-.02.02-.03.03-.05,0-.01.01-.01.01-.02.14-.24.29-.48.45-.7h.01c.03-.05.05-.11.09-.15l.03-.03c.14-.19.28-.38.43-.56.05-.08.11-.14.16-.22.01-.02.03-.03.05-.05.08-.09.14-.17.23-.26.12-.14.25-.28.38-.42.13-.14.26-.27.4-.4.11-.11.21-.22.31-.31.14-.14.29-.27.44-.39.11-.1.21-.18.31-.27,0-.01.01-.01.01-.02.04-.03.08-.06.12-.09.14-.12.27-.23.42-.34.19-.15.39-.29.58-.43.13-.09.26-.18.4-.27.03-.02.06-.04.1-.06.23-.15.45-.3.68-.43.04-.03.08-.05.12-.08.09-.05.17-.11.26-.16.26-.16.53-.31.81-.45.18-.09.36-.18.54-.27.11-.06.23-.12.35-.17.24-.11.48-.23.71-.33.24-.12.49-.22.75-.32l47.41-19.15c.1-.04.19-.08.3-.11.08-.03.15-.05.24-.09.14-.05.29-.1.44-.15.24-.09.48-.17.7-.26.1-.04.19-.08.29-.1.19-.08.39-.13.58-.18.29-.09.59-.15.9-.24.23-.06.45-.13.69-.19.17-.05.33-.09.51-.13.37-.09.73-.16,1.11-.23.1-.02.19-.04.3-.05.31-.06.64-.12.96-.16.32-.05.65-.1.97-.14.03,0,.05-.01.09-.01h.04c.09-.02.17-.03.26-.04.25-.02.5-.05.75-.06.19-.02.38-.04.57-.05.04,0,.09-.01.13-.01.23-.01.45-.03.68-.03.03-.01.08-.01.11-.01.13-.01.27-.01.4-.02.25-.01.5-.01.75-.01h.1c.53,0,1.06.01,1.59.02.21.01.41,0,.63.01h.17s.05,0,.08.01c.1,0,.18.01.28.02.27.01.53.03.8.06.26.03.52.05.79.09.28.03.57.04.86.09.62.08,1.23.18,1.84.3.36.06.72.14,1.08.23l.16.03c.62.14,1.23.28,1.86.42.13.02.25.05.38.08.64.14,1.29.27,1.92.4.81.16,1.61.31,2.42.45.21.04.41.08.62.12.71.12,1.43.24,2.14.35.56.09,1.12.17,1.69.25.56.08,1.12.15,1.7.22,1.02.13,2.03.25,3.05.36.67.06,1.33.14,2,.19.54.05,1.09.11,1.64.14s1.1.06,1.65.11c.29.02.59.04.89.06.27.02.54.04.81.05.04,0,.1.01.15,0,1.24.06,2.5.1,3.76.13.4,0,.81.03,1.22.03.46.01.92.01,1.38.01h.3c.91,0,1.82-.01,2.72-.03h.24c.45-.01.91-.02,1.36-.04.04,0,.09,0,.13-.01.68-.03,1.37-.05,2.06-.09.68-.03,1.36-.08,2.05-.12.5-.02.98-.08,1.48-.11.96-.08,1.93-.17,2.91-.27.27-.02.54-.04.82-.08.54-.05,1.08-.11,1.61-.17.04,0,.08-.01.12-.01.58-.08,1.17-.14,1.74-.22.12-.02.24-.03.36-.04.69-.1,1.38-.21,2.07-.31.7-.11,1.39-.23,2.09-.35.33-.05.68-.12,1.02-.17.66-.13,1.33-.25,1.99-.38.67-.13,1.33-.27,1.99-.41.09-.01.16-.03.24-.05.11-.02.22-.04.32-.06.51-.11,1.02-.23,1.52-.35.12-.03.23-.05.35-.09.76-.17,1.5-.36,2.24-.55.03,0,.08-.01.11-.02.14-.04.29-.09.43-.13.04-.01.08-.02.12-.03.66-.17,1.32-.36,1.97-.54.33-.09.67-.18,1-.29.45-.12.91-.26,1.35-.4.39-.12.77-.26,1.15-.38.49-.16.97-.31,1.46-.46.33-.11.68-.23,1.02-.35.3-.1.58-.19.89-.31.02,0,.05-.01.08-.02.11-.03.23-.08.33-.12.01,0,.01-.01.01-.01.29-.12.58-.23.88-.34.46-.17.92-.35,1.38-.52.46-.16.93-.35,1.38-.53.88-.35,1.74-.71,2.61-1.09.86-.39,1.72-.78,2.57-1.18.01-.01.03-.01.04-.02.5-.24.98-.49,1.48-.72l.99-.5c.28-.14.56-.29.84-.43.57-.3,1.13-.61,1.7-.92.24-.12.48-.25.71-.39.39-.23.78-.44,1.16-.67.79-.45,1.57-.93,2.33-1.42.33-.22.67-.43.99-.65.23-.15.45-.3.68-.45.5-.32.98-.66,1.47-1.01.28-.18.56-.39.84-.61l.58-.42c.25-.18.49-.37.71-.54.19-.15.39-.29.58-.44.32-.25.65-.5.96-.76.83-.66,1.63-1.34,2.4-2.03.42-.38.84-.76,1.25-1.13.13-.12.26-.24.39-.36.38-.36.73-.71,1.09-1.07.05-.05.1-.1.15-.15.35-.36.69-.71,1.03-1.07.57-.58,1.11-1.18,1.62-1.78.27-.31.54-.63.8-.94.13-.14.25-.28.36-.43.3-.37.59-.73.88-1.1.06-.08.12-.14.17-.22.27-.36.53-.72.8-1.08.14-.18.27-.37.39-.55.28-.41.56-.81.84-1.22.14-.22.29-.44.43-.67.15-.24.3-.49.45-.72.21-.34.41-.67.61-1,.35-.62.68-1.22,1-1.84.22-.41.42-.82.62-1.23.1-.23.21-.44.3-.66.14-.28.27-.56.39-.85.12-.27.24-.54.35-.82.14-.32.28-.66.4-.99.1-.25.19-.5.28-.76.13-.34.25-.68.36-1.02.06-.22.14-.42.21-.64.02-.06.04-.14.06-.21.05-.19.12-.39.17-.58.03-.09.05-.18.08-.28.09-.26.16-.53.22-.8,0-.01.01-.01.01-.02.01-.04.02-.08.03-.12.08-.26.14-.53.21-.8.06-.28.12-.57.18-.85.01-.03.02-.06.02-.1.06-.28.13-.56.17-.85.05-.25.1-.51.13-.76h0c.02-.09.03-.17.04-.25.02-.13.05-.26.08-.4.01-.09.02-.17.03-.25l.03-.26c.03-.18.05-.37.08-.55.03-.22.05-.42.08-.64.01-.17.03-.36.04-.53.02-.19.03-.39.05-.58.01-.16.02-.32.03-.49.01-.18.02-.37.02-.55,0-.02.01-.03.01-.05.01-.06.01-.13,0-.18v-.06c.02-.32.03-.65.04-.97Z"/>
              <path class="cls-1" d="m366.81,59.27v.06c.01.05.01.12,0,.18,0,.02-.01.03-.01.05,0,.18-.01.37-.02.55-.01.16-.02.32-.03.49-.02.19-.03.39-.05.58-.01.17-.03.36-.04.53-.02.22-.04.42-.08.64-.02.18-.04.37-.08.55-.03.3-.09.61-.14.91-.01.08-.02.16-.04.24h0c-.03.26-.08.52-.13.77-.04.29-.11.57-.17.85,0,.03-.01.06-.02.1-.06.28-.12.57-.18.85-.06.27-.13.54-.21.8-.01.04-.02.08-.03.12,0,.01-.01.01-.01.02-.05.27-.13.54-.22.8-.02.1-.04.19-.08.28-.05.19-.12.39-.17.58-.02.06-.04.14-.06.21-.06.22-.14.42-.21.64-.11.33-.23.68-.36,1.02-.09.26-.18.51-.28.76-.12.34-.26.67-.4.99-.11.28-.23.55-.35.82-.12.29-.25.57-.39.85-.1.22-.21.43-.3.66-.19.41-.4.82-.62,1.23-.32.62-.66,1.22-1,1.84-.19.34-.4.67-.61,1-.15.24-.3.49-.45.72-.14.23-.29.45-.43.67-.28.41-.56.81-.84,1.22-.12.18-.25.37-.39.55-.27.36-.53.72-.8,1.08-.05.08-.11.14-.17.22-.28.37-.57.73-.88,1.1-.11.15-.23.29-.36.43-.26.31-.53.63-.8.94-.51.61-1.05,1.2-1.62,1.78-.33.36-.68.71-1.03,1.07-.05.05-.1.1-.15.15-.36.36-.71.71-1.09,1.07-.13.12-.26.24-.39.36-.41.38-.83.76-1.25,1.13-.77.69-1.57,1.37-2.4,2.03-.31.26-.64.51-.96.76-.19.15-.39.29-.58.44-.23.17-.46.36-.71.54l-.58.42c-.28.22-.56.42-.84.61-.49.35-.97.68-1.47,1.01-.23.15-.45.3-.68.45-.32.22-.66.43-.99.65-.77.49-1.55.96-2.33,1.42-.38.23-.77.44-1.16.67-.24.14-.48.27-.71.39-.56.31-1.12.62-1.7.92-.28.14-.56.29-.84.43l-.99.5c-.5.24-.98.49-1.48.72-.01.01-.03.01-.04.02-.85.4-1.71.79-2.57,1.18-.88.38-1.74.75-2.61,1.09-.45.18-.92.37-1.38.53-.75.3-1.5.59-2.26.85,0,0,0,.01-.01.01-.11.04-.23.09-.33.12-.02.01-.05.02-.08.02-.3.12-.58.22-.89.31-.33.12-.68.24-1.02.35-.86.3-1.73.58-2.6.84-.44.14-.9.28-1.35.4-.33.11-.67.21-1,.29-.65.18-1.31.37-1.97.54-.04.01-.08.02-.12.03-.17.05-.36.11-.54.15-.73.19-1.48.38-2.24.55-.12.03-.23.05-.35.09-.51.12-1.02.24-1.52.35-.11.02-.22.04-.32.06-.08.02-.15.04-.24.05-.66.14-1.32.28-1.99.41-.66.13-1.33.25-1.99.38-.33.05-.68.12-1.02.17-.69.12-1.38.24-2.09.35-1.38.22-2.78.41-4.17.57-.04,0-.08.01-.12.01-.53.06-1.07.12-1.61.17-.28.03-.55.05-.82.08-.97.1-1.95.19-2.91.27-.5.03-.98.09-1.48.11-.69.04-1.37.09-2.05.12-.69.03-1.38.05-2.06.09-.04.01-.09.01-.13.01-.45.02-.91.03-1.36.04h-.24c-.91.02-1.82.03-2.72.03h-.3c-.46,0-.92,0-1.38-.01-.41,0-.82-.03-1.22-.03-1.26-.03-2.52-.06-3.76-.13-.05.01-.11,0-.15,0-.27-.01-.54-.03-.81-.05-.85-.04-1.7-.1-2.54-.17-.55-.03-1.1-.09-1.64-.14-.67-.05-1.33-.13-2-.19-1.02-.11-2.03-.23-3.05-.36-.57-.06-1.13-.14-1.7-.22-.56-.08-1.12-.16-1.69-.25-.71-.11-1.43-.23-2.14-.35-.21-.04-.41-.08-.62-.12-.81-.14-1.61-.29-2.42-.45-.64-.13-1.29-.26-1.92-.4-.13-.02-.25-.05-.38-.08-.63-.14-1.24-.28-1.86-.42l-.16-.03c-.36-.09-.72-.16-1.08-.23-.61-.12-1.22-.23-1.84-.3-.55-.08-1.1-.14-1.65-.17-.27-.03-.53-.05-.8-.06-.1-.01-.18-.02-.28-.02-.09,0-.17-.01-.25-.01-.73-.04-1.48-.05-2.22-.03-.03-.01-.06-.01-.1,0-.25,0-.5,0-.75.01-.13.01-.27.01-.4.02-.03,0-.08,0-.11.01-.46.02-.92.05-1.38.1-.33.03-.67.06-1,.11h-.04s-.05.01-.09.01c-.32.04-.65.09-.97.14-.32.04-.65.1-.96.16-.11.01-.21.03-.3.05-.38.06-.75.14-1.11.23-.17.04-.33.08-.51.13-.54.12-1.07.27-1.59.43-.19.05-.39.11-.58.18-.1.02-.19.05-.29.1-.39.12-.77.25-1.15.41-.09.01-.16.04-.24.09-.11.03-.21.06-.3.11l-47.41,19.15c-.26.11-.51.21-.75.32-.25.1-.49.22-.71.33-.3.13-.61.28-.89.44-.28.14-.55.29-.81.45-.09.05-.17.11-.26.16-.04.02-.08.04-.12.08-.23.13-.45.28-.68.43-.03.02-.06.04-.1.06-.14.09-.27.18-.4.27-.19.14-.39.28-.58.43-.19.14-.37.29-.55.44-.11.09-.21.17-.31.27-.15.12-.3.25-.44.39-.11.1-.21.21-.31.31-.14.12-.27.26-.4.4-.13.14-.26.28-.38.42-.09.09-.15.17-.23.26-.08.09-.14.18-.22.27-.15.18-.29.37-.43.56-.04.06-.09.12-.12.17h-.01c-.17.24-.32.49-.45.71,0,.01-.01.01-.01.02-.01.02-.02.03-.03.05-.01.02-.02.03-.03.05,0,.01-.01.01-.01.02-.06.08-.1.16-.13.23-.1.14-.16.27-.23.41-.12.22-.23.43-.32.66-.11.25-.22.5-.3.76-.04.11-.08.22-.11.32-.09.24-.15.49-.22.72h0c-.06.25-.12.5-.16.73-.06.32-.13.66-.19.98-.18.89-.41,1.76-.67,2.64-.05.21-.12.42-.18.63-.05.19-.11.38-.17.56-.11.38-.24.76-.38,1.13-.04.15-.1.29-.15.43-.09.25-.17.5-.28.75-.08.22-.16.42-.25.64-.21.5-.42,1-.65,1.5-.05.13-.12.27-.18.4-.23.49-.46.97-.71,1.46-.09.18-.17.36-.27.53-.13.27-.28.53-.42.79-.35.64-.71,1.29-1.1,1.91-.18.29-.37.58-.55.88-.02.03-.03.05-.05.09-.09.13-.17.26-.26.39-.3.45-.61.9-.92,1.35-.45.66-.93,1.3-1.44,1.93-.18.24-.38.48-.57.71-.17.23-.36.45-.54.67-.19.24-.4.48-.61.71-.19.24-.4.46-.62.7-.18.23-.39.43-.59.65-.19.23-.4.44-.61.66-.22.23-.44.45-.66.68-.22.22-.42.43-.64.65-.23.23-.46.45-.69.67s-.44.42-.66.63c-.25.23-.49.45-.73.67-.23.22-.45.42-.68.62-.26.23-.51.44-.77.66-.57.5-1.15.97-1.74,1.44-.32.26-.65.51-.98.77-.18.15-.36.28-.54.41-.29.22-.58.43-.88.65-.41.3-.82.59-1.23.89-.09.05-.16.12-.25.17-.48.32-.94.65-1.43.96-.43.29-.86.57-1.31.84-.69.43-1.39.86-2.11,1.29-.53.32-1.06.63-1.61.93-.3.17-.62.35-.92.51h0c-.1.06-.19.12-.29.16-.21.12-.41.23-.62.32l-1.23.65c-.42.21-.83.42-1.25.63-.03.02-.06.03-.1.05-.25.12-.5.23-.76.36-.04.01-.08.03-.12.05-.08.02-.15.06-.23.1-.29.14-.58.27-.88.41-.29.14-.57.27-.88.41-.23.11-.45.21-.68.3-.94.43-1.9.83-2.89,1.23-1.37.55-2.77,1.08-4.17,1.58-.05.02-.11.04-.17.05-.1.03-.21.08-.3.11-3.88,1.37-7.86,2.51-11.9,3.44-.16.04-.31.08-.46.1-.78.17-1.56.35-2.33.51-.06.01-.13.03-.19.04h-.02c-.8.17-1.6.32-2.4.46-.11.03-.22.05-.32.06-.84.16-1.7.3-2.56.43-.04.01-.08.01-.12.02-.83.13-1.66.25-2.5.37-.53.08-1.06.14-1.59.21-.09.01-.18.02-.27.03-.63.08-1.26.14-1.9.21-.63.06-1.25.13-1.88.19-.63.05-1.26.11-1.89.15-.19.01-.39.03-.58.04-.03.01-.05.01-.09.01-.04,0-.09.01-.13.01-.25.02-.5.03-.73.05-.25.01-.5.03-.75.04-.42.03-.83.05-1.25.08-.51.02-1.03.04-1.53.06-.36.02-.72.03-1.08.03-.14.01-.29.01-.44.01h-.17c-.09,0-.17,0-.26.01-1.32.03-2.64.05-3.95.03h-.21c-.08,0-.14.01-.22,0-.03,0-.05-.01-.09-.01-.44,0-.89-.01-1.34-.02-.55-.01-1.11-.02-1.66-.04-.56-.01-1.11-.03-1.66-.06-.54-.03-1.08-.05-1.62-.09-.19-.01-.38-.02-.57-.04-.08,0-.16-.01-.24-.01h-.09c-.23-.01-.46-.02-.7-.04-.13,0-.26-.01-.38-.03-.66-.05-1.32-.1-1.98-.16-.21-.01-.41-.03-.62-.05-.21-.02-.42-.03-.63-.05-.33-.03-.67-.06-1-.1-.14-.02-.28-.03-.42-.05-.37-.03-.76-.08-1.12-.12-.03,0-.05-.01-.09-.01-.06-.01-.12-.01-.18-.02-.5-.05-.98-.12-1.47-.18l-.23-.03c-.58-.09-1.17-.16-1.74-.25-.14-.02-.29-.04-.43-.06-.68-.1-1.36-.21-2.03-.32-.56-.09-1.12-.18-1.69-.29-.44-.08-.89-.16-1.32-.25-.27-.04-.55-.1-.82-.15-.83-.16-1.65-.33-2.46-.52-.03-.01-.06-.01-.1-.02-.02,0-.04-.01-.06-.01-.42-.1-.84-.19-1.26-.29-.03-.01-.05-.01-.09-.02-.62-.14-1.24-.29-1.86-.45-.91-.22-1.8-.45-2.7-.71-.76-.21-1.51-.42-2.26-.65-1.27-.37-2.54-.77-3.78-1.19-.3-.11-.61-.21-.91-.3-.71-.25-1.42-.5-2.12-.76-.46-.17-.93-.35-1.39-.53-.01,0-.02-.01-.03-.01-.15-.05-.3-.12-.45-.17-.48-.18-.95-.38-1.42-.57-.58-.23-1.17-.46-1.74-.72-.02-.01-.04-.02-.06-.03-.27-.11-.54-.22-.8-.35-.08-.02-.14-.05-.22-.09-.09-.04-.16-.08-.24-.11-.67-.3-1.34-.61-2.01-.93-.22-.1-.42-.19-.63-.29-.45-.22-.9-.44-1.35-.67-.45-.23-.9-.44-1.34-.68-.25-.13-.51-.26-.75-.4-.44-.23-.88-.46-1.31-.7-.25-.13-.5-.27-.73-.41-.32-.18-.65-.37-.96-.55-.19-.12-.4-.24-.59-.36-.21-.12-.4-.24-.59-.36-.17-.1-.35-.21-.52-.32-.37-.22-.72-.44-1.08-.67-.23-.15-.46-.3-.69-.45-.45-.29-.92-.59-1.36-.9-.45-.3-.9-.62-1.34-.93-.3-.21-.59-.42-.89-.65-.28-.19-.55-.39-.82-.61-.3-.24-.61-.46-.91-.7-.22-.16-.43-.33-.64-.51-.42-.32-.83-.67-1.24-1.01-.44-.36-.88-.73-1.31-1.1-.39-.33-.77-.68-1.13-1.04-.38-.33-.73-.68-1.1-1.04-.19-.18-.39-.37-.58-.56-.35-.35-.69-.69-1.04-1.04-.03-.03-.08-.08-.11-.11-.36-.36-.7-.72-1.04-1.09-.27-.29-.53-.57-.78-.86-.52-.58-1.02-1.17-1.49-1.75-.9-1.1-1.74-2.22-2.51-3.34-.26-.38-.52-.75-.76-1.12-.19-.29-.38-.58-.56-.88-.4-.65-.78-1.29-1.15-1.93-.15-.28-.3-.56-.44-.83-.33-.62-.64-1.22-.93-1.84-.15-.31-.29-.62-.42-.93-.14-.3-.27-.62-.4-.93-.12-.27-.23-.54-.33-.81-.26-.66-.5-1.32-.71-1.98-.11-.31-.21-.63-.3-.94-.06-.22-.13-.42-.18-.63-.08-.22-.13-.42-.18-.63-.06-.23-.13-.46-.18-.69-.06-.29-.14-.57-.21-.86-.08-.31-.14-.63-.21-.94-.11-.54-.21-1.07-.29-1.61-.08-.5-.15-1-.21-1.5-.05-.44-.1-.89-.13-1.33-.01-.09-.01-.17-.02-.26-.03-.43-.05-.86-.08-1.29-.02-.52-.03-1.03-.03-1.53.02-19.34,15-38.19,41.67-48.96l37-14.94,37.82-15.28,26.45-10.69L231.56,9.25c.08-.03.15-.05.23-.09.67-.25,1.3-.53,1.94-.79,7.78-3.14,16.04-5.38,24.49-6.73,7.48-1.22,15.12-1.75,22.69-1.62,28.99.46,57.22,10.44,73.44,28.14,8.88,9.7,12.9,20.51,12.46,31.11Z"/>
            </g>
            <path class="cls-3" d="m78.91,70.93v137.35c.45.03.91.06,1.36.09.22.01.42.03.64.04.32.02.66.02.98.03,1.1.05,2.22.09,3.33.11.55.02,1.09.03,1.63.03,1.28.01,2.55,0,3.83-.02.28-.01.57,0,.86-.01.05,0,.12,0,.18-.01,1.67-.04,3.34-.13,5.01-.24.43-.03.86-.06,1.31-.11,1.25-.1,2.52-.21,3.77-.34.28-.03.56-.05.83-.08.44-.05.88-.12,1.32-.17.38-.04.76-.09,1.13-.14,1.18-.16,2.34-.32,3.52-.52.09-.01.17-.02.26-.03,1.24-.21,2.49-.44,3.73-.68.36-.08.71-.15,1.08-.23.48-.1.96-.18,1.45-.29.29-.06.59-.15.89-.22.24-.05.48-.11.7-.16V55.65l-37.82,15.28ZM231.56,9.25l-88.38,35.71v150.46c.67-.37,1.34-.73,1.99-1.11.1-.06.19-.13.3-.18.73-.44,1.46-.89,2.17-1.34.18-.11.37-.23.55-.35.78-.5,1.53-1,2.27-1.52.13-.09.24-.17.36-.25.66-.46,1.3-.93,1.92-1.4.15-.12.31-.24.48-.36.69-.54,1.37-1.08,2.03-1.63.04-.03.09-.06.12-.1.19-.15.38-.31.57-.48.25-.22.5-.43.75-.65.24-.21.46-.41.69-.63.25-.22.49-.43.73-.66.22-.21.43-.42.66-.63.23-.23.46-.45.69-.68.22-.22.42-.42.64-.64.22-.23.44-.46.66-.69.21-.22.41-.43.61-.65.22-.24.42-.46.64-.7.19-.22.39-.44.57-.66.21-.24.41-.48.61-.7.18-.23.37-.45.55-.68.18-.24.38-.48.56-.71.18-.23.35-.45.52-.68.18-.24.37-.49.54-.72.05-.08.12-.15.17-.23.06-.1.13-.21.21-.3.31-.44.62-.9.91-1.34.11-.16.22-.32.32-.48.37-.59.73-1.18,1.08-1.77.04-.08.09-.16.14-.25.29-.52.58-1.04.85-1.56.1-.18.18-.36.27-.54.25-.48.49-.96.71-1.45.04-.1.1-.19.14-.29.01-.04.03-.09.04-.12.25-.55.49-1.1.7-1.65.02-.04.04-.1.05-.14.21-.51.39-1.02.57-1.52.06-.18.13-.37.18-.56.13-.37.25-.75.37-1.12.06-.22.13-.42.18-.64.11-.36.21-.72.29-1.08.03-.13.08-.25.11-.37.01-.09.02-.16.04-.24.15-.65.3-1.29.42-1.93.04-.24.1-.49.16-.72.06-.25.14-.49.22-.73.02-.06.04-.14.06-.21.11-.31.24-.63.37-.93.03-.05.06-.12.09-.17.14-.28.28-.56.43-.84.06-.1.12-.19.17-.29.16-.27.34-.54.52-.8.04-.06.09-.12.13-.18.1-.14.21-.27.31-.41.09-.12.17-.24.27-.35.12-.14.24-.27.36-.41.1-.11.19-.22.3-.34.12-.13.26-.26.39-.39.11-.11.22-.22.32-.32.14-.13.29-.25.43-.38.12-.1.23-.21.33-.3.36-.29.73-.57,1.12-.85.1-.06.19-.13.29-.21.39-.26.79-.52,1.2-.77.02-.01.04-.02.05-.03.43-.25.89-.5,1.36-.72.11-.05.23-.12.33-.17.48-.23.96-.44,1.47-.65l47.41-19.16c.17-.06.36-.13.54-.19V9.16c-.08.03-.15.05-.23.09Zm26.66-7.61v127.02c.76.14,1.51.27,2.27.39.08.01.16.02.24.03.83.13,1.66.26,2.5.37.3.04.59.06.9.11,1,.13,2.03.24,3.05.35.66.06,1.33.14,2,.21,1.09.1,2.18.17,3.28.24.48.03.95.09,1.43.11.12.01.24.01.37.01,1.28.06,2.55.1,3.83.13.41.01.81.03,1.22.03.54.01,1.08.01,1.62.01V.02c-7.57-.13-15.21.4-22.69,1.62Z"/>
          </g>
          <g>
            <g>
              <path class="cls-2" d="m55.78,99.63c26.75-10.81,62.15-5.18,78.93,12.53,16.78,17.72,8.68,40.92-18.07,51.73-26.75,10.81-62.15,5.18-78.93-12.53-16.78-17.72-8.68-40.92,18.07-51.73Z"/>
              <path class="cls-2" d="m253.26,19.84c26.74-10.8,62.15-5.18,78.93,12.53,16.78,17.72,8.67,40.92-18.07,51.73-26.75,10.81-62.16,5.19-78.94-12.53s-8.67-40.92,18.08-51.73Z"/>
            </g>
            <g>
              <g>
                <path class="cls-12" d="m65.71,106.72c7.06-2.85,16.38-1.37,20.81,3.3,4.43,4.68,2.3,10.79-4.76,13.64-7.06,2.85-16.38,1.37-20.81-3.31-4.43-4.68-2.3-10.78,4.76-13.63Z"/>
                <path class="cls-13" d="m88.75,116.16c-.03.2-.05.4-.09.6-.07.33-.17.66-.29.98-.02.05-.04.11-.07.16-.14.35-.31.69-.51,1.03-.03.05-.06.1-.09.15-.16.26-.35.51-.54.75-.12.15-.24.3-.36.44-.17.2-.36.39-.56.57-.14.14-.28.27-.43.41-.32.28-.66.55-1.03.81-.02.01-.03.02-.05.03-.37.26-.78.5-1.2.73-.11.06-.22.12-.34.18-.45.23-.92.46-1.43.66-.11.05-.23.08-.34.12-.37.14-.74.27-1.12.39-.18.05-.36.1-.54.15-.31.09-.62.17-.94.25-.14.03-.29.06-.44.09-.54.11-1.08.2-1.63.27-.13.02-.27.04-.4.05-.57.06-1.15.1-1.73.12-.11,0-.22,0-.33,0-.45,0-.9,0-1.36-.02-.18,0-.36-.02-.55-.03-.4-.03-.8-.06-1.19-.11-.17-.02-.35-.04-.52-.07-.59-.08-1.17-.19-1.73-.32-.03,0-.06-.02-.09-.02-.66-.15-1.31-.35-1.93-.56-.12-.04-.25-.08-.37-.13-.51-.19-1.01-.39-1.49-.61-.03-.02-.07-.04-.1-.05-.44-.21-.86-.44-1.27-.69-.13-.08-.26-.16-.39-.25-.31-.2-.62-.41-.91-.64-.12-.09-.24-.18-.35-.27-.38-.31-.75-.64-1.08-.99-1.59-1.68-2.34-3.54-2.31-5.38l-.11,7.33c-.03,1.83.72,3.7,2.31,5.38.33.35.7.68,1.08.99.11.09.23.18.35.27.29.22.59.43.91.64.13.08.26.17.39.25.41.24.83.48,1.28.69.03.02.06.03.1.05.48.23.98.43,1.49.61.05.02.1.04.15.06.07.03.15.04.22.06.63.21,1.27.41,1.93.56.02,0,.04.01.07.02,0,0,.02,0,.02,0,.57.13,1.15.23,1.74.32.06,0,.12.03.19.03.11.01.22.02.33.03.4.05.8.09,1.2.11.11,0,.22.03.33.03.07,0,.14,0,.21,0,.45.02.9.02,1.36.02.09,0,.18,0,.27,0,.02,0,.04,0,.06,0,.58-.02,1.15-.06,1.73-.12.05,0,.09,0,.14,0,.09,0,.17-.03.26-.04.55-.07,1.09-.16,1.63-.27.09-.02.18-.03.27-.05.06-.01.11-.03.17-.04.32-.07.63-.16.94-.24.18-.05.36-.09.54-.15.38-.12.75-.25,1.12-.39.09-.04.19-.06.29-.1.02,0,.04-.01.06-.02.5-.2.97-.43,1.43-.66.12-.06.23-.12.34-.18.42-.23.83-.47,1.2-.73.02-.01.03-.02.05-.03.3-.21.58-.42.84-.64.07-.05.12-.11.18-.17.15-.13.29-.27.43-.41.19-.19.38-.38.56-.57.13-.14.25-.29.36-.44.08-.1.17-.19.24-.3.11-.15.2-.3.3-.46.03-.05.07-.1.09-.15.15-.26.29-.52.42-.78.04-.08.06-.16.1-.24.02-.05.04-.11.07-.16.11-.28.2-.56.27-.85.01-.04.01-.09.02-.13.04-.2.06-.4.09-.6.02-.16.06-.32.07-.48,0-.09,0-.18,0-.28l.11-7.33c0,.25-.05.5-.08.75Z"/>
              </g>
              <g>
                <path class="cls-15" d="m98.91,112c7.07-2.86,16.38-1.38,20.81,3.3,4.43,4.68,2.3,10.78-4.77,13.64-7.06,2.85-16.38,1.37-20.81-3.3-4.43-4.68-2.3-10.78,4.76-13.63Z"/>
                <path class="cls-16" d="m121.95,121.43c-.03.2-.05.4-.09.6-.07.33-.17.66-.29.98-.02.05-.04.11-.07.16-.14.35-.31.69-.51,1.03-.03.05-.06.1-.09.15-.16.26-.35.51-.54.75-.12.15-.24.3-.36.44-.17.2-.36.39-.56.58-.14.14-.28.27-.43.41-.32.28-.66.55-1.03.81-.02.01-.04.02-.05.03-.37.26-.78.5-1.2.73-.11.06-.22.12-.34.18-.45.24-.92.46-1.43.66-.11.04-.22.08-.34.12-.37.14-.74.28-1.13.4-.18.05-.35.1-.53.15-.31.09-.63.17-.95.25-.14.03-.29.06-.44.09-.54.11-1.09.2-1.64.27-.13.02-.27.04-.4.05-.57.06-1.15.1-1.73.12-.11,0-.22,0-.33,0-.45,0-.9,0-1.36-.02-.18,0-.36-.02-.54-.03-.4-.03-.8-.07-1.2-.11-.17-.02-.35-.04-.52-.07-.59-.08-1.17-.19-1.74-.32-.03,0-.06-.02-.1-.03-.66-.15-1.3-.35-1.93-.56-.12-.04-.25-.08-.37-.12-.51-.19-1.01-.39-1.49-.61-.04-.02-.07-.04-.11-.06-.44-.21-.86-.44-1.27-.68-.13-.08-.26-.17-.39-.25-.31-.2-.62-.41-.91-.63-.12-.09-.24-.18-.35-.27-.38-.31-.75-.64-1.08-.99-1.59-1.68-2.34-3.54-2.31-5.38l-.11,7.33c-.03,1.83.72,3.7,2.31,5.38.33.35.7.67,1.08.99.11.09.23.18.35.27.29.22.59.43.91.63.13.08.26.17.39.25.41.24.83.47,1.27.68.04.02.07.04.11.06.48.22.98.42,1.49.61.05.02.1.04.15.06.07.03.15.04.22.06.63.21,1.27.4,1.93.56.03,0,.05.02.07.02,0,0,.02,0,.03,0,.57.13,1.15.23,1.73.32.06,0,.12.03.19.03.11.01.22.02.33.03.4.05.79.09,1.19.11.11,0,.22.03.33.03.07,0,.14,0,.22,0,.45.02.9.02,1.36.02.09,0,.18,0,.27,0,.02,0,.04,0,.06,0,.58-.02,1.15-.06,1.73-.12.05,0,.09,0,.14,0,.09,0,.17-.03.26-.04.55-.07,1.09-.16,1.63-.27.09-.02.18-.03.27-.05.06-.01.11-.03.17-.04.32-.07.63-.16.94-.24.18-.05.36-.09.54-.15.38-.12.75-.25,1.12-.39.09-.04.19-.06.29-.1.02,0,.04-.01.06-.02.5-.2.97-.43,1.43-.66.11-.06.23-.12.34-.18.42-.23.83-.47,1.2-.73.02-.01.03-.02.05-.03.3-.21.58-.42.85-.64.07-.05.12-.11.18-.17.15-.13.29-.27.43-.41.2-.19.38-.38.56-.58.13-.14.25-.29.36-.44.08-.1.17-.19.24-.3.11-.15.2-.3.3-.46.03-.05.07-.1.09-.15.15-.26.3-.52.42-.78.04-.08.06-.16.1-.24.02-.05.04-.11.07-.16.11-.28.2-.56.27-.85.01-.04.01-.09.02-.13.04-.2.06-.4.09-.6.02-.16.06-.32.07-.48,0-.09,0-.18,0-.28l.11-7.33c0,.25-.05.5-.08.75Z"/>
              </g>
              <g>
                <path class="cls-9" d="m81.15,137.91c-.03.2-.05.4-.09.6-.07.33-.17.66-.29.98-.02.05-.04.11-.07.16-.14.35-.31.69-.51,1.03-.03.05-.06.1-.09.15-.16.26-.35.51-.54.75-.12.15-.24.3-.36.44-.17.2-.36.39-.56.57-.14.14-.28.27-.43.41-.32.28-.66.55-1.03.81-.02.01-.03.02-.05.03-.37.26-.78.5-1.2.73-.11.06-.22.12-.34.18-.45.24-.92.46-1.43.67-.11.05-.23.08-.34.12-.37.14-.74.27-1.12.39-.18.05-.36.1-.54.15-.31.09-.62.17-.94.24-.15.03-.29.06-.44.09-.54.11-1.08.2-1.63.27-.13.02-.27.04-.4.05-.57.06-1.15.1-1.73.12-.11,0-.22,0-.33,0-.45,0-.9,0-1.36-.02-.18,0-.36-.02-.54-.03-.4-.03-.8-.06-1.19-.11-.17-.02-.35-.04-.52-.07-.59-.08-1.17-.19-1.73-.32-.03,0-.06-.02-.1-.03-.66-.15-1.3-.35-1.93-.56-.12-.04-.25-.08-.37-.12-.51-.19-1.01-.39-1.49-.61-.04-.02-.07-.04-.11-.06-.44-.21-.86-.44-1.27-.68-.13-.08-.26-.16-.39-.25-.31-.2-.62-.41-.91-.63-.12-.09-.24-.18-.35-.27-.38-.31-.75-.64-1.08-.99-1.59-1.68-2.34-3.54-2.31-5.38l-.11,7.33c-.03,1.83.72,3.7,2.31,5.38.33.35.7.67,1.08.99.11.09.24.18.35.27.29.22.59.43.91.63.13.08.26.17.39.25.41.24.83.47,1.27.68.04.02.07.04.11.06.48.22.98.42,1.49.61.05.02.1.04.15.06.07.03.15.04.22.06.63.21,1.27.4,1.93.56.02,0,.05.02.07.02,0,0,.02,0,.02,0,.57.13,1.15.23,1.74.32.06,0,.12.03.19.03.11.01.22.02.33.03.4.05.79.09,1.2.11.11,0,.22.03.33.03.07,0,.14,0,.22,0,.45.02.9.02,1.35.02.09,0,.18,0,.27,0,.02,0,.04,0,.06,0,.58-.02,1.15-.06,1.73-.12.05,0,.09,0,.14,0,.09,0,.17-.03.26-.04.55-.07,1.09-.16,1.63-.27.09-.02.18-.03.27-.04.06-.01.11-.03.17-.04.32-.07.63-.16.94-.24.18-.05.36-.09.54-.15.38-.12.75-.25,1.12-.39.09-.04.19-.06.29-.1.02,0,.04-.01.06-.02.5-.2.97-.43,1.43-.67.11-.06.23-.12.34-.18.42-.23.83-.47,1.2-.73.02-.01.03-.02.05-.03.3-.21.58-.42.85-.64.07-.05.12-.11.18-.17.15-.13.29-.27.43-.41.19-.19.38-.38.56-.57.13-.14.25-.29.36-.44.08-.1.17-.19.24-.3.11-.15.2-.3.3-.46.03-.05.07-.1.1-.15.15-.26.3-.52.42-.78.04-.08.06-.16.1-.24.02-.05.04-.11.07-.16.11-.28.2-.56.27-.85.01-.04.01-.09.02-.13.04-.2.06-.4.09-.6.02-.16.06-.32.07-.48,0-.09,0-.18,0-.28l.11-7.33c0,.25-.05.5-.08.75Z"/>
                <path class="cls-15" d="m58.11,128.48c7.07-2.86,16.38-1.38,20.81,3.3,4.43,4.68,2.3,10.78-4.77,13.64-7.06,2.85-16.38,1.37-20.81-3.3-4.43-4.68-2.3-10.78,4.76-13.63Z"/>
              </g>
              <g>
                <path class="cls-8" d="m91.31,133.75c7.06-2.85,16.38-1.37,20.81,3.3,4.43,4.68,2.3,10.79-4.76,13.64-7.06,2.85-16.38,1.37-20.81-3.31-4.43-4.68-2.3-10.78,4.76-13.63Z"/>
                <path class="cls-4" d="m114.35,143.19c-.03.2-.05.4-.09.6-.07.33-.17.66-.29.98-.02.05-.04.11-.07.16-.14.35-.31.69-.51,1.03-.03.05-.06.1-.09.15-.16.26-.35.51-.54.75-.12.15-.24.3-.36.44-.17.2-.36.39-.56.57-.14.14-.28.27-.43.41-.32.28-.66.55-1.03.81-.02.01-.03.02-.05.03-.37.26-.78.5-1.2.73-.11.06-.22.12-.34.18-.45.23-.92.46-1.43.66-.11.05-.23.08-.34.12-.37.14-.74.27-1.12.39-.18.05-.36.1-.54.15-.31.09-.62.17-.94.25-.14.03-.29.06-.44.09-.54.11-1.08.2-1.63.27-.13.02-.27.04-.4.05-.57.06-1.15.1-1.73.12-.11,0-.22,0-.33,0-.45,0-.9,0-1.36-.02-.18,0-.36-.02-.55-.03-.4-.03-.8-.06-1.19-.11-.17-.02-.35-.04-.52-.07-.59-.08-1.17-.19-1.73-.32-.03,0-.06-.02-.09-.02-.66-.15-1.31-.35-1.93-.56-.12-.04-.25-.08-.37-.13-.51-.19-1.01-.39-1.49-.61-.03-.02-.07-.04-.1-.05-.44-.21-.86-.44-1.27-.69-.13-.08-.26-.16-.39-.25-.31-.2-.62-.41-.91-.64-.12-.09-.24-.18-.35-.27-.38-.31-.75-.64-1.08-.99-1.59-1.68-2.34-3.54-2.31-5.38l-.11,7.33c-.03,1.83.72,3.7,2.31,5.38.33.35.7.68,1.08.99.11.09.23.18.35.27.29.22.59.43.91.64.13.08.26.17.39.25.41.24.83.48,1.28.69.03.02.06.03.1.05.48.23.98.43,1.49.61.05.02.1.04.15.06.07.03.15.04.22.06.63.21,1.27.41,1.93.56.02,0,.05.01.07.02,0,0,.02,0,.02,0,.57.13,1.15.23,1.73.32.06,0,.12.03.19.03.11.01.22.02.33.03.4.05.79.09,1.19.11.11,0,.22.03.33.03.07,0,.14,0,.22,0,.45.02.9.02,1.36.02.09,0,.18,0,.27,0,.02,0,.04,0,.06,0,.58-.02,1.15-.06,1.73-.12.05,0,.09,0,.14,0,.09,0,.17-.03.26-.04.55-.07,1.09-.16,1.63-.27.09-.02.18-.03.27-.05.06-.01.11-.03.17-.04.32-.07.63-.16.94-.24.18-.05.36-.09.54-.15.38-.12.75-.25,1.11-.39.1-.04.19-.06.29-.1.02,0,.04-.01.06-.02.5-.2.97-.43,1.43-.66.11-.06.23-.12.34-.18.42-.23.83-.47,1.2-.73.02-.01.03-.02.05-.03.3-.21.58-.42.84-.64.07-.05.12-.11.18-.17.15-.13.29-.27.43-.41.19-.19.38-.38.56-.57.13-.14.25-.29.36-.44.08-.1.17-.19.24-.3.11-.15.2-.3.3-.46.03-.05.07-.1.09-.15.15-.26.29-.52.42-.78.04-.08.06-.16.1-.24.02-.05.04-.11.07-.16.11-.28.2-.56.27-.85.01-.04.01-.09.02-.13.04-.2.06-.4.09-.6.02-.16.06-.32.07-.47,0-.09,0-.18,0-.28l.11-7.33c0,.25-.05.5-.08.75Z"/>
              </g>
            </g>
            <g>
              <path class="cls-10" d="m265.45,40.99l-6.63-7c-.95-1-1.39-2.12-1.38-3.21l-.11,7.33c-.02,1.09.43,2.21,1.38,3.21l6.63,7c.95,1,1.39,2.11,1.38,3.21l.11-7.33c.02-1.09-.43-2.21-1.38-3.21Z"/>
              <path class="cls-17" d="m322.59,38.99c-.02.12-.03.24-.05.36-.02.11-.06.22-.1.32-.04.14-.08.27-.14.41-.04.09-.09.18-.13.27-.09.17-.19.34-.3.51-.07.11-.15.21-.23.32-.07.09-.14.18-.22.26-.1.12-.21.23-.33.34-.08.08-.17.16-.26.24-.09.07-.18.15-.28.22-.22.17-.45.33-.7.49-.1.06-.19.12-.3.18-.35.2-.72.39-1.13.55l-10.56,4.27c-.41.17-.78.35-1.13.55-.1.06-.2.12-.3.18-.25.16-.49.32-.71.49-.05.04-.12.08-.17.12-.04.03-.07.07-.11.1-.09.08-.17.16-.26.24-.12.11-.23.23-.33.34-.08.09-.15.17-.22.26-.05.06-.1.12-.15.18-.03.04-.05.09-.08.14-.11.17-.21.34-.3.51-.03.06-.07.12-.1.18-.01.03-.02.06-.03.09-.06.13-.1.27-.14.41-.03.08-.07.16-.09.25,0,.03,0,.05-.01.08-.03.12-.04.24-.05.35-.01.09-.04.19-.04.28,0,.06,0,.11,0,.16l-.11,7.33c0-.15.03-.3.05-.45.02-.12.03-.24.05-.35.02-.11.06-.22.1-.33.04-.14.08-.27.14-.41.04-.09.09-.18.13-.27.09-.17.19-.34.3-.51.07-.11.15-.21.23-.32.07-.09.14-.18.22-.26.1-.12.22-.23.33-.34.08-.08.17-.16.26-.24.09-.08.18-.15.28-.22.22-.17.45-.33.7-.49.1-.06.19-.12.3-.18.35-.2.72-.39,1.13-.55l10.56-4.27c.41-.16.78-.35,1.13-.55.1-.06.2-.12.3-.18.25-.16.48-.32.7-.49.05-.04.12-.08.17-.12.04-.03.07-.07.11-.1.09-.08.17-.16.26-.24.12-.11.23-.23.33-.34.08-.09.15-.17.22-.26.05-.06.1-.12.15-.18.03-.05.05-.09.08-.14.11-.17.21-.34.3-.51.03-.06.07-.11.1-.17.01-.03.02-.06.03-.09.06-.13.1-.27.14-.41.03-.08.06-.16.09-.24,0-.03,0-.05.01-.08.03-.12.04-.24.05-.36.01-.09.04-.19.04-.28,0-.06,0-.11,0-.17l.11-7.33c0,.15-.03.3-.05.45Z"/>
              <path class="cls-11" d="m312.97,66.52c-.02.12-.03.24-.05.36-.02.11-.06.22-.1.33-.04.14-.08.27-.14.41-.04.09-.09.18-.13.27-.09.17-.19.35-.3.51-.07.11-.15.21-.23.32-.07.09-.14.18-.22.26-.1.12-.22.23-.33.34-.08.08-.17.16-.26.24-.09.08-.19.15-.28.22-.22.17-.45.33-.7.49-.1.06-.19.12-.3.18-.35.2-.72.39-1.13.55l-3.19,1.29c-.07.03-.14.05-.2.07-.22.08-.44.16-.67.23-.11.03-.21.06-.32.09-.18.05-.37.1-.56.15-.09.02-.18.03-.26.05-.32.07-.65.12-.97.16-.08.01-.16.02-.24.03-.34.04-.69.06-1.03.07-.06,0-.13,0-.19,0-.27,0-.54,0-.81-.01-.11,0-.22-.01-.32-.02-.24-.02-.48-.04-.71-.07-.1-.01-.21-.02-.31-.04-.35-.05-.7-.11-1.03-.19-.02,0-.03,0-.05-.01-.4-.09-.78-.21-1.16-.34-.07-.03-.15-.05-.22-.08-.3-.11-.6-.23-.89-.36-.02,0-.04-.02-.05-.03-.27-.13-.52-.27-.77-.41-.08-.05-.16-.1-.23-.15-.19-.12-.37-.25-.54-.38-.07-.05-.14-.11-.21-.16-.23-.19-.45-.38-.64-.59l-6.63-7c-.2-.21-.42-.4-.64-.59-.07-.06-.14-.11-.21-.16-.17-.13-.35-.26-.54-.38-.08-.05-.16-.1-.24-.15-.24-.14-.49-.28-.75-.4-.02-.01-.04-.02-.07-.04-.28-.13-.58-.25-.89-.36-.03-.01-.06-.03-.09-.04-.04-.02-.09-.02-.13-.04-.37-.13-.75-.24-1.15-.33-.02,0-.03,0-.05-.01,0,0-.01,0-.02,0-.34-.08-.69-.14-1.03-.19-.04,0-.07-.02-.11-.02-.06,0-.13-.01-.2-.02-.24-.03-.47-.05-.71-.07-.07,0-.13-.02-.2-.02-.04,0-.09,0-.13,0-.27-.01-.53-.01-.8-.01-.06,0-.11,0-.17,0-.01,0-.02,0-.04,0-.34.01-.69.04-1.03.07-.03,0-.06,0-.08,0-.05,0-.1.02-.15.03-.33.04-.65.09-.98.16-.05.01-.11.02-.16.03-.03,0-.07.02-.1.03-.19.04-.38.09-.56.15-.11.03-.21.06-.32.09-.23.07-.45.15-.67.23-.06.02-.12.04-.17.06-.01,0-.02,0-.03.01l-10.56,4.27c-.07.03-.13.05-.2.07-.22.08-.44.17-.67.24-.1.03-.21.06-.32.09-.19.05-.38.1-.57.15-.09.02-.17.03-.26.05-.32.07-.65.12-.98.16-.08,0-.16.02-.24.03-.34.04-.69.06-1.03.07-.07,0-.14,0-.2,0-.27,0-.54,0-.8-.01-.11,0-.22-.01-.33-.02-.24-.02-.48-.04-.71-.07-.1-.01-.21-.02-.31-.04-.35-.05-.7-.11-1.03-.19-.02,0-.04-.01-.06-.02-.39-.09-.77-.21-1.15-.33-.07-.02-.15-.05-.22-.07-.3-.11-.6-.23-.89-.36-.02-.01-.04-.02-.07-.03-.26-.12-.51-.26-.75-.41-.08-.05-.16-.1-.23-.15-.19-.12-.37-.25-.54-.38-.07-.05-.14-.11-.21-.16-.23-.19-.45-.38-.64-.59l-2-2.11c-.71-.75-1.14-1.56-1.3-2.38-.05-.27-.08-.55-.07-.82l-.11,7.33c-.02,1.09.43,2.2,1.37,3.2l2,2.11c.2.21.42.4.64.59.07.06.14.11.21.16.17.13.35.26.54.38.08.05.15.1.23.15.24.14.49.28.76.41.02.01.04.02.06.03.29.13.58.25.89.36.03.01.06.02.09.04.04.02.09.02.13.04.37.13.75.24,1.15.33.02,0,.03,0,.05.01,0,0,.01,0,.02,0,.34.08.68.14,1.03.19.04,0,.07.02.11.02.07,0,.13.01.2.02.24.03.47.05.71.07.07,0,.13.01.19.02.04,0,.09,0,.13,0,.27.01.54.01.8.01.06,0,.11,0,.17,0,.01,0,.02,0,.04,0,.34-.01.69-.04,1.03-.07.03,0,.06,0,.08,0,.05,0,.1-.02.15-.03.33-.04.65-.09.98-.16.05-.01.11-.02.16-.03.03,0,.07-.02.1-.03.19-.04.38-.09.56-.15.11-.03.21-.06.32-.09.23-.07.45-.15.67-.23.06-.02.12-.04.17-.06.01,0,.02,0,.03-.01l10.56-4.27c.06-.03.13-.05.2-.07.22-.08.45-.17.67-.24.1-.03.21-.06.32-.09.19-.05.37-.1.56-.15.09-.02.17-.03.26-.05.32-.07.65-.12.98-.16.08,0,.16-.02.24-.03.34-.04.69-.06,1.03-.07.07,0,.13,0,.2,0,.27,0,.54,0,.8.01.11,0,.22.01.32.02.24.02.48.04.71.07.1.01.21.02.31.04.35.05.7.11,1.03.19.02,0,.04.01.06.02.39.09.77.21,1.15.33.07.02.15.05.22.07.3.11.6.23.89.36.02.01.04.02.06.03.26.13.51.26.76.41.08.05.16.1.23.15.19.12.37.25.54.38.07.05.14.11.21.16.23.19.45.38.64.59l6.63,7c.2.21.42.4.64.59.07.06.14.11.21.16.17.13.35.26.54.38.08.05.15.1.23.15.25.15.5.29.77.41.02,0,.04.02.05.03.29.13.58.25.89.36.03.01.06.03.09.04.04.02.09.02.13.04.38.13.76.24,1.16.33.01,0,.02,0,.04.01,0,0,0,0,.01,0,.34.08.69.14,1.03.19.04,0,.08.02.11.02.06,0,.13.01.2.02.24.03.47.05.71.07.07,0,.13.02.2.02.04,0,.08,0,.13,0,.27.01.54.02.82.01.05,0,.1,0,.16,0,.01,0,.02,0,.03,0,.34,0,.69-.04,1.03-.07.03,0,.06,0,.09,0,.05,0,.1-.02.16-.03.33-.04.65-.09.97-.16.05-.01.11-.02.16-.03.03,0,.06-.02.1-.03.19-.04.38-.09.56-.15.11-.03.21-.06.32-.09.23-.07.45-.15.67-.23.06-.02.11-.04.17-.06.01,0,.02,0,.03-.01l3.19-1.29c.41-.16.78-.35,1.13-.55.1-.06.2-.12.3-.18.25-.15.48-.32.7-.49.05-.04.12-.08.17-.12.04-.03.07-.07.11-.1.09-.08.17-.16.26-.24.12-.11.23-.23.33-.34.08-.09.15-.17.22-.26.05-.06.1-.12.15-.18.03-.05.05-.09.08-.14.11-.17.21-.34.3-.51.03-.06.07-.11.1-.17.01-.03.02-.06.03-.1.06-.13.1-.27.14-.41.03-.08.06-.16.08-.24,0-.03,0-.05.01-.08.03-.12.04-.24.05-.36.01-.09.04-.19.04-.28,0-.06,0-.11,0-.17l.11-7.33c0,.15-.03.3-.05.45Z"/>
              <path class="cls-15" d="m264.84,24.58c4.21-1.7,9.77-.82,12.41,1.97l6.63,7c2.64,2.79,8.2,3.68,12.41,1.97l10.56-4.27c4.21-1.7,9.76-.82,12.4,1.97l2,2.11c2.65,2.79,1.38,6.43-2.83,8.13l-10.56,4.27c-4.22,1.7-5.49,5.34-2.84,8.14l6.63,7c2.64,2.79,1.37,6.43-2.84,8.14l-3.19,1.29c-4.21,1.7-9.76.81-12.41-1.97l-6.63-7c-2.65-2.79-8.2-3.67-12.41-1.97l-10.56,4.27c-4.21,1.7-9.77.82-12.41-1.97l-2-2.11c-2.64-2.79-1.36-6.43,2.85-8.13l10.56-4.27c4.21-1.7,5.48-5.35,2.84-8.14l-6.63-7c-2.64-2.79-1.38-6.43,2.83-8.13l3.19-1.29Z"/>
            </g>
            <g>
              <path class="cls-15" d="m159.66,81.64c.97-.39,2.18-.54,3.39-.34l1.68.26c2.42.39,3.93,1.98,3.37,3.56l-5.6,16.02c-.28.79-1.02,1.43-1.99,1.82-.97.39-2.18.54-3.39.35l-1.69-.27c-2.41-.38-3.92-1.98-3.37-3.56l5.61-16.03c.27-.79,1.01-1.43,1.98-1.83Z"/>
              <path class="cls-7" d="m168.1,85.12l-5.6,16.02c-.06.18-.16.35-.26.51-.01.02-.02.04-.04.07-.03.04-.08.08-.11.12-.11.14-.24.28-.38.4-.11.1-.24.18-.36.27-.06.04-.12.09-.18.13-.2.12-.42.23-.65.32-.03.01-.07.02-.1.03-.24.09-.5.17-.76.23-.24.05-.48.1-.73.13-.02,0-.04,0-.06,0-.24.02-.49.03-.74.03-.05,0-.11,0-.16,0-.28,0-.55-.03-.83-.08l-1.69-.27c-.21-.03-.41-.08-.6-.13-.1-.03-.2-.06-.3-.09-.14-.04-.27-.09-.4-.14-.07-.03-.14-.06-.21-.09-.14-.06-.28-.14-.41-.21-.05-.03-.1-.05-.14-.08-.17-.1-.32-.22-.47-.34-.03-.03-.05-.05-.08-.08-.11-.1-.21-.2-.3-.3-.04-.05-.07-.09-.11-.14-.07-.09-.13-.18-.18-.28-.03-.05-.06-.1-.08-.15-.05-.1-.09-.2-.12-.31-.01-.05-.03-.09-.04-.14-.03-.15-.06-.31-.05-.46l-.11,7.33c0,.16.02.31.05.46.01.05.03.09.04.14.03.1.07.21.12.31.02.05.05.1.08.15.05.1.12.19.19.28.03.05.07.09.11.14.09.1.19.2.3.3.03.03.05.05.08.08.14.12.3.23.47.34.04.03.09.05.14.08.13.07.26.15.41.21.07.03.14.06.21.09.07.03.14.06.21.09.06.02.13.03.19.05.1.03.2.06.3.09.06.02.11.04.17.05.14.03.29.06.43.08l1.69.27s.1.02.15.02c.18.02.37.04.55.05.05,0,.09,0,.14,0,.05,0,.11,0,.16,0,.08,0,.16,0,.25,0,.17,0,.33-.02.5-.03.02,0,.04,0,.06,0,0,0,.01,0,.02,0,.22-.02.44-.06.65-.11.02,0,.05-.02.07-.02.26-.06.52-.14.76-.23.03-.01.06-.02.08-.03,0,0,.01,0,.02,0,.23-.09.45-.2.65-.32.07-.04.12-.09.18-.13.11-.07.23-.14.32-.23.01-.01.02-.03.04-.04.15-.13.27-.26.38-.41.03-.04.07-.07.1-.11,0,0,0-.01,0-.02.01-.02.02-.04.04-.06.07-.11.14-.21.19-.33.03-.06.05-.12.07-.18l5.6-16.02c.02-.06.04-.13.06-.19.03-.12.05-.24.05-.36,0-.03,0-.05,0-.08l.11-7.33c0,.21-.04.42-.11.63Z"/>
            </g>
            <g>
              <path class="cls-12" d="m200.88,64.99c.97-.39,2.18-.54,3.39-.34l1.68.26c2.42.39,3.93,1.98,3.37,3.56l-5.6,16.02c-.28.79-1.02,1.43-1.99,1.82-.97.39-2.18.54-3.39.35l-1.68-.27c-2.42-.38-3.93-1.97-3.37-3.56l5.6-16.02c.27-.79,1.01-1.43,1.98-1.83Z"/>
              <path class="cls-6" d="m209.32,68.47l-5.6,16.02c-.06.18-.16.35-.26.51-.01.02-.02.04-.04.07-.03.04-.08.08-.11.12-.11.14-.24.28-.38.41-.11.1-.24.18-.36.27-.06.04-.12.09-.18.13-.2.12-.42.23-.65.32-.03.01-.07.02-.1.03-.24.09-.5.17-.76.23-.24.05-.48.1-.73.13-.02,0-.04,0-.06,0-.24.02-.49.03-.74.03-.05,0-.11,0-.16,0-.28,0-.55-.03-.83-.08l-1.68-.27c-.21-.03-.41-.08-.61-.13-.1-.03-.2-.06-.3-.09-.14-.04-.27-.09-.39-.14-.07-.03-.14-.06-.21-.09-.14-.06-.27-.13-.4-.21-.05-.03-.1-.05-.14-.08-.17-.1-.32-.22-.47-.33-.03-.02-.05-.05-.07-.07-.11-.1-.21-.2-.3-.31-.04-.04-.07-.09-.1-.14-.07-.09-.13-.18-.19-.28-.03-.05-.06-.1-.08-.15-.05-.1-.09-.2-.12-.31-.01-.05-.03-.09-.04-.14-.03-.15-.06-.3-.05-.46l-.11,7.33c0,.16.02.31.05.46.01.05.03.09.04.14.03.1.07.21.12.31.02.05.05.1.08.15.05.1.12.19.19.28.03.05.07.09.1.14.09.11.19.21.3.31.03.02.05.05.07.07.14.12.3.23.46.33.05.03.1.05.14.08.13.07.26.14.4.21.07.03.14.06.21.09.07.03.13.06.2.08.06.02.13.04.19.06.1.03.2.06.3.09.06.01.11.03.16.05.15.03.29.06.45.09l1.68.27s.1.02.15.02c.18.02.37.04.55.05.05,0,.09,0,.14,0,.05,0,.11,0,.16,0,.08,0,.16,0,.25,0,.17,0,.33-.02.5-.03.02,0,.04,0,.05,0,0,0,.01,0,.02,0,.22-.02.44-.06.65-.11.02,0,.05-.02.07-.02.26-.06.52-.14.76-.23.03-.01.06-.02.08-.03h.02c.23-.1.45-.21.65-.33.07-.04.12-.09.18-.13.11-.07.23-.14.32-.23.01-.01.02-.03.04-.04.15-.13.27-.26.38-.41.03-.04.07-.07.1-.11,0,0,0-.01,0-.02.01-.02.02-.04.04-.07.07-.11.14-.21.19-.33.03-.06.05-.12.07-.18l5.6-16.02c.02-.06.04-.13.06-.19.03-.12.05-.24.05-.36,0-.03,0-.05,0-.08l.11-7.33c0,.21-.04.42-.11.63Z"/>
            </g>
          </g>
        </g>
      </g>
    </g>
  </g>
</svg>