<?xml version="1.0" encoding="UTF-8"?>
<svg id="Layer_2" data-name="Layer 2" xmlns="http://www.w3.org/2000/svg" xmlns:xlink="http://www.w3.org/1999/xlink" viewBox="0 0 437.93 370.15">
  <defs>
    <style>
      .cls-1 {
        fill: #6f3aba;
      }

      .cls-2 {
        fill: #fff;
      }

      .cls-3, .cls-4, .cls-5, .cls-6, .cls-7, .cls-8 {
        fill: none;
      }

      .cls-3, .cls-5 {
        stroke: #17baff;
      }

      .cls-3, .cls-5, .cls-8 {
        stroke-linecap: round;
        stroke-width: .78px;
      }

      .cls-3, .cls-8 {
        stroke-linejoin: round;
      }

      .cls-9 {
        fill: #4c287f;
      }

      .cls-10 {
        fill: #04131c;
      }

      .cls-11 {
        fill: #716ec7;
      }

      .cls-12 {
        isolation: isolate;
      }

      .cls-4 {
        stroke-width: .92px;
      }

      .cls-4, .cls-5, .cls-6, .cls-7 {
        stroke-miterlimit: 10;
      }

      .cls-4, .cls-7 {
        stroke: #072232;
      }

      .cls-13 {
        filter: url(#drop-shadow-1);
      }

      .cls-14 {
        fill: #008e9d;
      }

      .cls-15 {
        fill: #ba8aff;
      }

      .cls-16 {
        fill: #5d2ca3;
      }

      .cls-17 {
        fill: #6433aa;
      }

      .cls-18 {
        fill: #e9f6fe;
      }

      .cls-19 {
        fill: #8f8bfb;
      }

      .cls-6 {
        stroke: #9548ee;
      }

      .cls-20 {
        fill: #7875c7;
      }

      .cls-21 {
        fill: #9548ee;
      }

      .cls-8 {
        stroke: #1399d1;
      }
    </style>
    <filter id="drop-shadow-1" filterUnits="userSpaceOnUse">
      <feOffset dx="0" dy=".5"/>
      <feGaussianBlur result="blur" stdDeviation="0"/>
      <feFlood flood-color="#611b8e" flood-opacity=".75"/>
      <feComposite in2="blur" operator="in"/>
      <feComposite in="SourceGraphic"/>
    </filter>
  </defs>
  <g id="OBJECTS">
    <g>
      <g>
        <polygon class="cls-14" points="74.58 230.12 104.55 245.1 134.51 230.12 104.55 215.14 74.58 230.12"/>
        <polygon class="cls-21" points="74.58 220.99 104.55 235.97 134.51 220.99 104.55 206.01 74.58 220.99"/>
        <polygon class="cls-9" points="74.58 220.99 74.58 230.12 104.55 245.1 134.51 230.12 134.51 220.99 104.55 235.97 74.58 220.99"/>
        <polygon class="cls-1" points="104.55 235.97 104.55 245.1 134.51 230.12 134.51 220.99 104.55 235.97"/>
      </g>
      <g>
        <path class="cls-21" d="m124.24,233.61c0,1.28-.82,2.51-1.83,2.74-1.01.23-1.83-.62-1.83-1.9s.82-2.51,1.83-2.74c1.01-.23,1.83.62,1.83,1.9Z"/>
        <path class="cls-21" d="m123.61,233.93c0,1.06-.68,2.08-1.52,2.27-.84.19-1.52-.51-1.52-1.57,0-1.06.68-2.08,1.52-2.27.84-.19,1.52.51,1.52,1.57Z"/>
      </g>
      <polyline class="cls-3" points="122.45 234.37 213.74 280.61 164.27 305.49 14.66 230.48 150.33 162.37 190.27 180.49"/>
      <g>
        <path class="cls-21" d="m115.47,208.37l-31.82,23.3c-3.74,1.89-12.76-4.51-12.89-9.14l-.77-27.17c-.13-4.64,2.79-9.93,6.53-11.83l37.71-19.12c3.74-1.89,13.37,2.85,13.5,7.49l-5.73,24.65c.13,4.64-2.79,9.93-6.53,11.83Z"/>
        <path class="cls-19" d="m122.1,212.22l-37.71,19.12c-3.74,1.89-6.87-.33-7-4.97l-.77-27.17c-.13-4.64,2.79-9.93,6.53-11.83l37.71-19.12c3.74-1.89,6.87.33,7,4.97l.77,27.17c.13,4.64-2.79,9.93-6.53,11.83Z"/>
        <path class="cls-7" d="m119.77,210.73l-33.21,16.84c-3.29,1.67-6.05-.29-6.17-4.37l-.68-23.92c-.12-4.08,2.46-8.75,5.75-10.41l33.21-16.84c3.29-1.67,6.05.29,6.17,4.37l.68,23.92c.12,4.08-2.46,8.75-5.75,10.41Z"/>
        <path class="cls-18" d="m94.02,198.17l.37,13.17c.09,3.26,2.87,4.04,5.22,1.48l13.4-14.64c2.94-3.22,2.53-8.46-.63-8.12l-13.77,1.47c-2.35.25-4.67,3.61-4.58,6.64Z"/>
      </g>
      <g>
        <g>
          <polygon class="cls-14" points="314.07 140.6 344.03 155.58 373.99 140.6 344.03 125.62 314.07 140.6"/>
          <polygon class="cls-21" points="314.07 131.46 344.03 146.44 373.99 131.46 344.03 116.48 314.07 131.46"/>
          <polygon class="cls-9" points="314.07 131.46 314.07 140.6 344.03 155.58 373.99 140.6 373.99 131.46 344.03 146.44 314.07 131.46"/>
          <polygon class="cls-1" points="344.03 146.44 344.03 155.58 374 140.6 374 131.46 344.03 146.44"/>
        </g>
        <g>
          <g class="cls-12">
            <path class="cls-21" d="m355.15,66.47c.15,0,.3.03.44.04.22.02.44.03.66.06.16.02.32.06.48.08.2.03.4.06.6.1.16.03.31.08.46.12.2.05.39.09.59.15.15.05.3.11.45.16.19.07.38.13.56.2.15.06.3.14.45.2.18.08.35.15.53.24.15.08.3.17.45.25.17.09.34.18.51.29h0s0,0,0,0l-6.13-3.78s-.02,0-.02-.01c-.16-.1-.32-.18-.49-.27-.15-.08-.3-.17-.45-.25-.17-.09-.35-.16-.53-.24-.15-.07-.3-.14-.45-.21-.18-.07-.37-.13-.56-.2-.15-.05-.3-.11-.45-.16-.19-.06-.39-.1-.59-.15-.15-.04-.3-.09-.46-.12-.2-.04-.4-.07-.6-.1-.16-.03-.31-.06-.48-.08-.2-.03-.4-.04-.61-.05-.17-.01-.33-.04-.5-.04-.23-.01-.46,0-.69,0-.15,0-.29,0-.44,0-.38.01-.77.04-1.16.08-.52.06-1.04.15-1.57.26-.06.01-.13.02-.19.03-.05.01-.11.03-.16.04-.49.11-.98.24-1.48.4-.06.02-.12.04-.18.06-.45.15-.91.32-1.36.51-.07.03-.14.05-.21.08-.06.03-.12.06-.18.08-.46.2-.92.41-1.38.65-.02.01-.05.02-.07.03-.48.25-.97.53-1.46.82-.06.03-.11.06-.17.09-.25.15-.5.31-.75.47-.44.29-.88.59-1.31.91-.14.1-.28.21-.42.32-.29.22-.58.44-.87.68-.06.05-.12.09-.19.14-.06.05-.12.11-.18.16-.6.5-1.19,1.02-1.77,1.57-.06.06-.12.12-.19.18-.58.56-1.15,1.14-1.7,1.74-.03.03-.06.06-.08.09-.01.01-.02.03-.04.04-.39.43-.78.87-1.16,1.32-.11.13-.21.26-.31.38-.28.33-.55.67-.82,1.02-.13.17-.26.34-.39.51-.24.32-.48.64-.72.97-.13.18-.25.35-.38.53-.25.36-.49.72-.73,1.08-.08.11-.15.22-.23.34-.02.03-.04.07-.07.11-.35.55-.7,1.1-1.03,1.66-.07.12-.14.25-.21.37-.26.45-.52.91-.78,1.37-.1.18-.2.37-.3.55-.24.44-.47.89-.69,1.34-.08.16-.16.31-.23.47-.29.6-.58,1.2-.85,1.81-.05.12-.1.24-.15.36-.22.5-.43,1-.64,1.51-.08.2-.16.39-.23.59-.18.47-.36.94-.53,1.41-.06.17-.13.34-.19.52-.22.63-.44,1.27-.64,1.9-.03.1-.06.21-.09.31-.17.54-.33,1.08-.48,1.63-.06.2-.11.4-.16.61-.13.48-.25.96-.36,1.44-.04.18-.09.37-.13.55-.15.65-.29,1.3-.41,1.95-.02.08-.03.16-.04.24-.11.57-.2,1.15-.29,1.72-.03.2-.06.4-.09.6-.07.48-.13.95-.18,1.43-.02.19-.04.38-.06.57-.06.65-.12,1.29-.15,1.94,0,.04,0,.09,0,.13-.03.6-.05,1.2-.06,1.79,0,.2,0,.39,0,.58,0,.47,0,.93.02,1.39,0,.19.01.38.02.57.03.63.07,1.25.13,1.87.77,8.08,3.93,13.8,8.44,16.59l6.13,3.78c-4.52-2.78-7.68-8.51-8.44-16.59-.06-.62-.1-1.25-.13-1.87,0-.19-.01-.38-.02-.57-.02-.46-.02-.93-.02-1.39,0-.19,0-.39,0-.58,0-.6.03-1.19.06-1.79,0-.04,0-.09,0-.13.04-.64.09-1.29.15-1.94.02-.19.04-.38.06-.57.05-.48.11-.95.18-1.43.03-.2.06-.4.09-.6.09-.57.18-1.15.29-1.72.01-.08.03-.16.04-.24.12-.65.26-1.3.41-1.95.04-.18.09-.37.13-.55.11-.48.24-.96.36-1.44.05-.2.11-.4.16-.61.15-.54.31-1.09.48-1.63.03-.1.06-.21.09-.31.2-.64.42-1.27.64-1.9.06-.17.13-.34.19-.52.17-.47.35-.94.53-1.41.08-.2.16-.39.23-.59.21-.51.42-1.01.64-1.51.05-.12.1-.24.15-.36.27-.61.56-1.21.85-1.81.08-.16.16-.31.23-.47.23-.45.46-.9.69-1.34.1-.18.2-.37.3-.55.25-.46.51-.92.78-1.37.07-.12.14-.25.21-.37.34-.56.68-1.12,1.03-1.66.1-.15.2-.3.3-.44.24-.36.48-.72.73-1.08.12-.18.25-.36.38-.53.24-.33.48-.65.72-.97.13-.17.26-.34.39-.51.27-.35.55-.69.82-1.03.1-.12.2-.25.31-.37.38-.45.77-.9,1.16-1.33.04-.04.08-.08.12-.12.56-.6,1.13-1.18,1.71-1.74.06-.06.12-.12.18-.18.58-.55,1.17-1.07,1.77-1.57.12-.1.24-.2.36-.3.29-.23.58-.46.87-.68.14-.1.28-.21.42-.32.43-.32.87-.62,1.31-.91.31-.2.61-.39.92-.57.49-.29.98-.57,1.46-.82.02-.01.05-.02.07-.03.46-.24.93-.45,1.39-.65.13-.06.26-.11.39-.16.46-.19.91-.36,1.36-.51.06-.02.12-.04.18-.06.5-.16.99-.29,1.48-.4.12-.03.23-.05.35-.07.53-.11,1.05-.2,1.57-.26.39-.04.78-.07,1.16-.08.09,0,.18,0,.27,0,.29,0,.58,0,.87,0Z"/>
            <path class="cls-19" d="m352.86,66.54c8.82-.95,15.73,5.92,16.92,18.42,1.58,16.61-7.54,36.86-20.37,45.25-3.17,2.07-6.27,3.23-9.17,3.54-8.82.95-15.73-5.92-16.92-18.42-1.58-16.61,7.54-36.86,20.37-45.25,3.17-2.07,6.27-3.23,9.17-3.54Z"/>
            <path class="cls-4" d="m352.31,69.45c8.05-.87,14.37,5.41,15.46,16.82,1.44,15.17-6.89,33.67-18.61,41.33-2.9,1.89-5.73,2.95-8.37,3.23-8.05.87-14.37-5.41-15.46-16.82-1.44-15.17,6.89-33.67,18.61-41.33,2.9-1.89,5.73-2.95,8.37-3.23Z"/>
          </g>
          <g>
            <path class="cls-2" d="m340.05,97.34c.09,1.38-1.28,3.25-3.07,4.18-1.79.93-3.31.56-3.41-.82s1.28-3.25,3.07-4.18c1.79-.93,3.31-.56,3.41.82Z"/>
            <path class="cls-2" d="m360.92,86.51c.09,1.38-1.28,3.25-3.07,4.18-1.79.93-3.31.56-3.41-.82-.09-1.38,1.28-3.25,3.07-4.18,1.79-.93,3.31-.56,3.41.82Z"/>
            <path class="cls-2" d="m343.85,102.25c.29,4.33-2.14,11.64-5.62,13.45s-6.7-2.58-6.99-6.9c-.29-4.33,2.3-9.3,5.78-11.11,3.48-1.81,6.54.23,6.84,4.56Z"/>
            <path class="cls-2" d="m364.15,91.71c.29,4.33-2.14,11.64-5.62,13.45-3.48,1.81-6.7-2.58-6.99-6.9-.29-4.33,2.3-9.3,5.78-11.11s6.54.23,6.84,4.56Z"/>
            <polygon class="cls-2" points="356.9 100.4 339.81 109.26 339.14 99.25 356.22 90.38 356.9 100.4"/>
            <path class="cls-2" d="m358.93,90.58c.05.72-.38,1.55-.97,1.86-.58.3-1.09-.04-1.14-.76-.05-.72.38-1.55.97-1.86.58-.3,1.09.04,1.14.76Z"/>
            <path class="cls-19" d="m356,95.98c.05.72-.38,1.55-.97,1.86-.58.3-1.09-.04-1.14-.76s.38-1.55.97-1.86c.58-.3,1.09.04,1.14.76Z"/>
            <path class="cls-19" d="m362.37,92.68c.05.72-.38,1.55-.97,1.86-.58.3-1.09-.04-1.14-.76-.05-.72.38-1.55.97-1.86.58-.3,1.09.04,1.14.76Z"/>
            <path class="cls-2" d="m359.38,97.28c.05.72-.38,1.55-.97,1.86-.58.3-1.09-.04-1.14-.76s.38-1.55.97-1.86,1.09.04,1.14.76Z"/>
            <polygon class="cls-19" points="338.15 108.8 336.83 109.48 336.39 102.93 337.7 102.25 338.15 108.8"/>
            <polygon class="cls-19" points="339.85 103.68 339.96 105.31 334.69 108.05 334.58 106.42 339.85 103.68"/>
            <polygon class="cls-2" points="350.9 97.28 349.44 98.03 349.4 97.46 350.86 96.71 350.9 97.28"/>
            <polygon class="cls-2" points="346.04 99.8 344.58 100.56 344.54 99.99 346 99.23 346.04 99.8"/>
            <path class="cls-19" d="m351.44,99.4c.05.76-.41,1.64-1.02,1.96s-1.16-.04-1.21-.81c-.05-.76.41-1.64,1.02-1.96s1.16.04,1.21.81Z"/>
            <path class="cls-19" d="m346.58,101.92c.05.76-.41,1.64-1.02,1.96-.62.32-1.16-.04-1.21-.81-.05-.76.41-1.64,1.02-1.96s1.16.04,1.21.81Z"/>
          </g>
        </g>
        <g>
          <path class="cls-21" d="m362.68,144.48c0,1.28-.82,2.51-1.83,2.74-1.01.23-1.83-.62-1.83-1.9,0-1.28.82-2.51,1.83-2.74,1.01-.23,1.83.62,1.83,1.9Z"/>
          <path class="cls-21" d="m362.05,144.79c0,1.06-.68,2.08-1.52,2.27-.84.19-1.52-.51-1.52-1.57,0-1.06.68-2.08,1.52-2.27.84-.19,1.52.51,1.52,1.57Z"/>
        </g>
        <polyline class="cls-3" points="360.53 145.14 421.14 177.05 284.45 245.53 249.72 228.17"/>
      </g>
      <g>
        <g>
          <polygon class="cls-14" points="263.12 342.59 293.08 357.57 323.04 342.59 293.08 327.61 263.12 342.59"/>
          <polygon class="cls-21" points="263.12 333.46 293.08 348.44 323.04 333.46 293.08 318.48 263.12 333.46"/>
          <polygon class="cls-9" points="263.12 333.46 263.12 342.59 293.08 357.57 323.04 342.59 323.04 333.46 293.08 348.44 263.12 333.46"/>
          <path class="cls-2" d="m279.95,346.23c0,1.54-1.14,2.78-2.54,2.78s-2.54-1.25-2.54-2.78,1.14-2.78,2.54-2.78,2.54,1.25,2.54,2.78Z"/>
          <polygon class="cls-1" points="293.08 348.44 293.08 357.57 323.04 342.59 323.04 333.46 293.08 348.44"/>
        </g>
        <polyline class="cls-5" points="195.16 230.12 73.84 290.78 231.42 369.71 277.41 346.13"/>
        <g>
          <path class="cls-20" d="m304.48,321.4l-31.82,23.3c-3.74,1.89-12.76-4.51-12.89-9.14l-.77-27.17c-.13-4.64,2.79-9.93,6.53-11.83l37.71-19.12c3.74-1.89,13.37,2.85,13.5,7.49l-5.73,24.65c.13,4.64-2.79,9.93-6.53,11.83Z"/>
          <path class="cls-20" d="m311.11,325.25l-37.71,19.12c-3.74,1.89-6.87-.33-7-4.97l-.77-27.17c-.13-4.64,2.79-9.93,6.53-11.83l37.71-19.12c3.74-1.89,6.87.33,7,4.97l.77,27.17c.13,4.64-2.79,9.93-6.53,11.83Z"/>
          <path class="cls-19" d="m308.78,323.76l-33.21,16.84c-3.29,1.67-6.05-.29-6.17-4.37l-.68-23.92c-.12-4.08,2.46-8.75,5.75-10.41l33.21-16.84c3.29-1.67,6.05.29,6.17,4.37l.68,23.92c.12,4.08-2.46,8.75-5.75,10.41Z"/>
          <path class="cls-7" d="m308.78,323.76l-33.21,16.84c-3.29,1.67-6.05-.29-6.17-4.37l-.68-23.92c-.12-4.08,2.46-8.75,5.75-10.41l33.21-16.84c3.29-1.67,6.05.29,6.17,4.37l.68,23.92c.12,4.08-2.46,8.75-5.75,10.41Z"/>
          <polygon class="cls-18" points="277.06 314.26 293.11 315.23 307.62 291.91 295.35 323.57 277.06 314.26"/>
        </g>
      </g>
      <g>
        <g>
          <g>
            <polygon class="cls-14" points="104.35 66.14 134.31 81.12 164.27 66.14 134.31 51.16 104.35 66.14"/>
            <polygon class="cls-21" points="104.35 57 134.31 71.99 164.27 57 134.31 42.02 104.35 57"/>
            <polygon class="cls-9" points="104.35 57 104.35 66.14 134.31 81.12 164.27 66.14 164.27 57 134.31 71.99 104.35 57"/>
            <polygon class="cls-1" points="134.31 71.99 134.31 81.12 164.27 66.14 164.27 57 134.31 71.99"/>
          </g>
          <g>
            <path class="cls-2" d="m151.93,69.59c0,1.28-.82,2.51-1.83,2.74-1.01.23-1.83-.62-1.83-1.9,0-1.28.82-2.51,1.83-2.74,1.01-.23,1.83.62,1.83,1.9Z"/>
            <path class="cls-10" d="m151.3,69.9c0,1.06-.68,2.08-1.52,2.27-.84.19-1.52-.51-1.52-1.57,0-1.06.68-2.08,1.52-2.27.84-.19,1.52.51,1.52,1.57Z"/>
          </g>
        </g>
        <line class="cls-8" x1="149.29" y1="70.46" x2="232.23" y2="115.8"/>
        <g>
          <path class="cls-11" d="m149.27,47.66l-31.72,22.93c-4.15,2.14-12.17-4.37-12.28-9.3l-.67-29.33c-.11-4.92,3.16-10.65,7.31-12.78L148.2.5c4.15-2.14,13.4,2.95,13.51,7.87l-5.13,26.51c.11,4.92-3.16,10.65-7.31,12.78Z"/>
          <path class="cls-20" d="m155.15,51.53l-36.29,18.68c-4.15,2.14-7.6-.13-7.71-5.05l-.67-29.33c-.11-4.92,3.16-10.65,7.31-12.78l36.29-18.68c4.15-2.14,7.6.13,7.71,5.05l.67,29.33c.11,4.92-3.16,10.65-7.31,12.78Z"/>
          <path class="cls-19" d="m153.97,47.18l-34.51,17.77c-2.42,1.25-4.44-.07-4.5-2.95l-.62-27.3c-.07-2.88,1.85-6.22,4.27-7.46l34.51-17.77c2.42-1.25,4.44.07,4.5,2.95l.62,27.3c.07,2.88-1.85,6.22-4.27,7.46Z"/>
          <g>
            <polygon class="cls-18" points="124.85 62.17 119.96 64.69 119.33 36.92 124.22 34.41 124.85 62.17"/>
            <polygon class="cls-18" points="131.04 58.98 126.16 61.5 125.42 29.12 130.31 26.6 131.04 58.98"/>
            <polygon class="cls-18" points="137.98 55.41 133.09 57.93 132.51 32.46 137.4 29.94 137.98 55.41"/>
            <polygon class="cls-18" points="144.42 52.1 139.53 54.61 139.06 33.85 143.95 31.33 144.42 52.1"/>
            <polygon class="cls-18" points="151.1 48.65 146.22 51.17 145.42 15.85 150.3 13.33 151.1 48.65"/>
          </g>
          <path class="cls-7" d="m153.97,47.18l-34.51,17.77c-2.42,1.25-4.44-.07-4.5-2.95l-.62-27.3c-.07-2.88,1.85-6.22,4.27-7.46l34.51-17.77c2.42-1.25,4.44.07,4.5,2.95l.62,27.3c.07,2.88-1.85,6.22-4.27,7.46Z"/>
        </g>
      </g>
      <g>
        <g>
          <ellipse class="cls-1" cx="421.14" cy="216.37" rx="13.48" ry="7.8"/>
          <polygon class="cls-1" points="407.66 212.6 407.66 216.71 434.61 216.71 434.61 212.33 407.66 212.6"/>
          <ellipse class="cls-21" cx="421.14" cy="212.33" rx="13.48" ry="7.8"/>
        </g>
        <g class="cls-12">
          <g>
            <path class="cls-21" d="m436.24,185.1c.15.02.29.05.43.1l-4.67-1.88c-.08-.03-.15-.06-.23-.08-.06-.02-.13-.02-.2-.03-.04,0-.07-.01-.11-.02-.02,0-.04,0-.06,0-.15,0-.3,0-.46.03l-1.95.37,4.67,1.88,1.95-.37c.18-.03.35-.04.51-.03.04,0,.07.01.11.02Z"/>
            <path class="cls-21" d="m428.27,201.65l-4.67-1.88,1.38,1.34c.09.09.18.16.28.23.1.06.2.12.31.16l4.67,1.88c-.21-.09-.41-.21-.59-.39l-1.38-1.34Z"/>
            <path class="cls-21" d="m419.31,207.2v-2.28s-4.66-1.88-4.66-1.88v.36s-3.25-1.31-3.25-1.31c.25.13.5.24.75.35l2.5,1.01v1.87c0,1.05.51,1.87,1.26,2.17l4.67,1.88c-.75-.3-1.27-1.12-1.26-2.17Z"/>
            <path class="cls-21" d="m423.76,198.63c.13-.06.26-.12.39-.19.09-.05.17-.09.25-.14.12-.07.24-.15.36-.22.08-.05.16-.11.24-.17.12-.08.24-.17.35-.26.08-.06.15-.12.23-.18.03-.03.06-.05.1-.08.03-.03.06-.06.09-.09.29-.26.57-.54.84-.84,0,0,0,0,0,0,0,0,0,0,0,0,.22-.25.42-.52.62-.8.02-.03.05-.06.07-.1.03-.05.06-.1.09-.15.13-.2.26-.4.37-.61.03-.05.07-.1.1-.16.01-.03.03-.06.04-.08.15-.28.3-.57.42-.87,0,0,0,0,0-.01,0-.02.01-.04.02-.06.12-.29.23-.59.32-.89.01-.04.03-.08.05-.13.01-.04.02-.09.03-.13.11-.39.21-.78.28-1.18,0,0,0-.01,0-.02.03-.17.04-.34.06-.51.01-.09.03-.19.03-.28.02-.27.04-.55.04-.83,0-3.18-1.54-5.63-3.81-6.55l-4.67-1.88c2.27.92,3.82,3.37,3.81,6.55,0,.28-.01.55-.04.83,0,.09-.02.19-.03.28-.02.18-.04.35-.07.53-.07.4-.16.79-.28,1.18-.02.09-.05.17-.08.26-.1.3-.2.6-.32.89,0,.02-.02.05-.03.07-.13.3-.27.59-.42.87-.04.08-.09.16-.14.24-.12.21-.24.41-.37.61-.05.08-.11.16-.16.24-.2.28-.4.54-.62.8,0,0,0,0-.01.01-.26.3-.54.58-.84.84-.06.06-.12.11-.19.17-.07.06-.15.12-.23.18-.11.09-.23.18-.35.26-.08.06-.16.11-.24.17-.12.08-.24.15-.36.22-.08.05-.17.1-.25.14-.13.07-.26.13-.39.19-.08.04-.16.08-.25.11-.14.06-.28.11-.42.15-.3.1-.61.19-.92.25-.26.05-.52.08-.78.09-.08,0-.16,0-.24,0-.18,0-.36,0-.54-.01-.06,0-.13-.01-.19-.02-.21-.02-.42-.06-.63-.1-.02,0-.04,0-.06-.01-.25-.06-.49-.14-.72-.23l4.67,1.88c.23.09.46.17.7.23,0,0,.01,0,.02,0,.02,0,.04,0,.07.01.2.05.41.08.63.1.06,0,.13.01.19.02.06,0,.12.01.18.02.12,0,.24,0,.35,0,.08,0,.16,0,.24,0,.26-.02.51-.04.78-.09.31-.06.62-.15.92-.25.04-.01.08-.02.11-.03.07-.03.15-.05.22-.08.03-.01.06-.03.08-.04.08-.03.17-.07.25-.11Z"/>
            <path class="cls-21" d="m422.9,175.77c-.38-.15-.77-.28-1.17-.38-.01,0-.02,0-.03,0-.02,0-.04,0-.06-.01-.4-.1-.82-.17-1.24-.21l4.67,1.88c.42.04.84.11,1.24.21.02,0,.04,0,.06.01.24.06.47.15.7.22l1.26.51,1.38-1.87c.09-.12.19-.23.29-.34.04-.04.08-.08.12-.12.09-.08.17-.15.26-.21.04-.03.07-.06.11-.08.13-.08.26-.16.4-.21,0,0,0,0,0,0,.14-.06.29-.1.44-.13.17-.03.34-.04.5-.03.03,0,.06,0,.1.01.15.02.3.05.45.11l-4.67-1.88c-.08-.03-.15-.06-.23-.08-.07-.02-.14-.02-.21-.03-.03,0-.06-.01-.1-.01-.02,0-.03,0-.05,0-.15,0-.3,0-.46.03-.1.02-.21.05-.31.08-.04.01-.08.03-.12.05,0,0,0,0,0,0,0,0,0,0-.01,0-.13.06-.26.13-.39.21-.04.02-.07.06-.11.08-.07.05-.14.09-.2.15-.02.02-.04.04-.06.06-.04.04-.08.08-.12.12-.04.04-.09.08-.13.13-.06.07-.11.14-.17.21l-1.36,1.84-.77-.31Z"/>
            <path class="cls-21" d="m410.66,205.73c-.13-.13-.24-.27-.33-.43-.03-.05-.05-.1-.08-.15-.06-.11-.11-.23-.14-.36-.02-.06-.04-.12-.05-.19-.03-.13-.05-.27-.06-.4,0-.06-.01-.12-.01-.18,0-.2,0-.4.04-.6.03-.16.07-.33.12-.49.01-.03.02-.06.03-.09.05-.13.1-.26.16-.39.01-.03.03-.06.04-.09.08-.15.17-.31.28-.45l1.38-1.87c-.3-.53-.57-1.09-.79-1.68-.22-.59-.41-1.22-.55-1.87l-4.23-1.71c0-.06-.02-.12-.02-.18v-1.24c0-.18.02-.37.05-.54,0-.02.01-.04.02-.07.03-.15.06-.29.11-.43.01-.04.03-.08.04-.11.05-.13.1-.25.16-.37.01-.03.02-.05.04-.08.07-.14.16-.27.25-.39.02-.03.05-.06.07-.09.07-.09.15-.18.22-.26.04-.04.08-.09.13-.13.07-.07.15-.13.23-.19.05-.04.1-.08.15-.11.09-.06.18-.11.28-.15.05-.02.09-.05.14-.07.14-.06.29-.11.44-.14l1.95-.37c.1-.48.23-.96.36-1.43.04-.15.09-.29.13-.44.04-.14.09-.28.14-.42.07-.19.13-.37.2-.56.05-.13.1-.27.16-.4.11-.28.23-.55.36-.82l-1.38-1.35c-.13-.13-.24-.27-.33-.43-.03-.05-.05-.1-.08-.15-.06-.11-.11-.23-.14-.36-.02-.06-.04-.12-.05-.19-.03-.13-.05-.27-.06-.4,0-.06-.01-.12-.01-.18,0-.2,0-.4.04-.6.03-.16.07-.33.12-.49.01-.03.02-.06.03-.09.05-.13.1-.26.16-.39.01-.03.03-.06.04-.09.08-.15.17-.31.28-.45l.76-1.02c.09-.12.19-.23.29-.34.04-.04.08-.08.12-.12.09-.08.18-.15.27-.21.04-.03.07-.06.11-.08.03-.02.06-.03.08-.05l3.77,1.52c.17-.15.34-.29.51-.43.11-.09.21-.18.32-.26.15-.12.31-.23.47-.34.1-.07.21-.15.31-.22.18-.12.36-.23.54-.34.09-.05.18-.11.27-.16.27-.16.55-.3.84-.44v-2.28c0-.18.02-.37.05-.54,0-.02.01-.05.02-.07.03-.15.06-.29.11-.43.01-.04.03-.08.04-.11.05-.13.1-.25.16-.37.01-.03.03-.05.04-.08.07-.14.16-.27.25-.39.02-.03.05-.06.07-.09.07-.09.14-.17.22-.26.04-.04.09-.09.13-.13.07-.07.15-.13.23-.19.05-.04.1-.08.15-.11.09-.06.18-.11.28-.15.05-.02.09-.05.13-.07.14-.06.29-.11.44-.14l1.07-.2c.18-.03.35-.04.51-.03.04,0,.07.01.11.02.15.02.29.05.43.1l-4.67-1.88c-.08-.03-.15-.06-.23-.08-.06-.02-.13-.02-.2-.03-.04,0-.07-.01-.11-.02-.02,0-.04,0-.06,0-.15,0-.3,0-.45.03l-1.07.2c-.12.02-.23.05-.34.09-.02,0-.05.02-.07.03,0,0-.02.01-.03.01-.05.02-.09.05-.14.07-.09.05-.19.09-.28.15-.05.03-.1.07-.15.11-.05.04-.11.07-.16.12-.03.02-.05.05-.07.07-.04.04-.09.09-.13.13-.03.04-.07.07-.11.11-.04.05-.08.1-.12.15-.02.03-.05.06-.07.09-.01.02-.03.03-.04.05-.07.1-.13.2-.19.3,0,.01-.01.03-.02.04-.01.03-.03.05-.04.08-.03.07-.07.13-.1.2-.02.06-.04.12-.06.17-.01.04-.03.08-.04.11,0,.02-.02.05-.03.07-.04.12-.06.24-.08.36,0,.02-.01.05-.02.07,0,0,0,0,0,.01-.03.18-.04.35-.04.53v2.28c-.29.13-.57.28-.84.44-.09.05-.18.11-.27.17-.18.11-.36.22-.54.33-.11.07-.21.15-.31.22-.16.11-.31.22-.47.34-.02.02-.05.04-.07.05l-2.72-1.1c-.08-.03-.15-.06-.23-.08-.07-.02-.14-.02-.21-.03-.03,0-.06-.01-.1-.01-.02,0-.03,0-.05,0-.15,0-.3,0-.46.03-.1.02-.21.05-.31.08-.04.01-.08.03-.13.05,0,0,0,0,0,0,0,0,0,0-.01,0-.13.06-.26.13-.39.21-.04.03-.07.06-.11.08-.07.05-.14.09-.2.15-.02.02-.04.04-.06.06-.04.04-.08.08-.12.12-.04.04-.09.08-.13.13-.06.07-.11.14-.17.21l-.76,1.02s-.04.06-.06.09c-.07.1-.13.2-.19.3-.01.02-.02.04-.03.06-.02.03-.03.06-.04.09-.03.06-.06.11-.08.17-.03.07-.05.15-.08.22-.01.03-.02.06-.03.09,0,.01-.01.03-.02.04-.04.15-.08.29-.1.44,0,0,0,0,0,0-.03.2-.04.4-.04.6,0,.06,0,.12.01.18.01.14.03.27.06.4.01.06.03.13.05.19.04.13.09.24.14.36.03.05.05.1.08.15.09.16.2.3.33.43l1.38,1.35c-.1.21-.19.42-.29.64-.03.06-.05.12-.07.18-.05.13-.11.27-.16.4-.07.19-.14.37-.21.56-.05.14-.09.28-.14.41-.03.09-.06.17-.09.26-.02.06-.03.12-.04.18-.14.47-.26.95-.36,1.43l-1.95.37c-.12.02-.23.05-.34.09-.02,0-.05.02-.07.03,0,0-.02.01-.03.01-.05.02-.09.05-.14.07-.09.05-.19.09-.28.15-.05.03-.1.07-.15.11-.05.04-.11.07-.16.12-.03.02-.05.05-.07.07-.04.04-.09.08-.13.13-.03.04-.07.07-.11.11-.04.05-.08.1-.12.15-.02.03-.05.06-.07.09-.01.02-.03.03-.04.05-.07.1-.13.2-.19.3,0,.01-.01.03-.02.04-.01.03-.03.05-.04.08-.03.07-.07.13-.1.2-.02.06-.04.12-.06.17-.01.04-.03.08-.04.11,0,.02-.02.05-.02.07-.04.12-.06.24-.09.36,0,.02-.01.04-.02.07,0,0,0,0,0,0-.03.18-.04.35-.04.53v1.24c0,1.05.51,1.87,1.26,2.17l3.49,1.41c.24.66.52,1.28.85,1.86l-1.38,1.87s-.04.06-.06.09c-.07.1-.13.2-.19.3-.01.02-.02.04-.03.06-.02.03-.03.06-.04.09-.03.06-.06.11-.08.17-.03.07-.05.15-.08.22-.01.03-.02.06-.03.09,0,.01-.01.03-.02.04-.04.15-.08.29-.1.44,0,0,0,0,0,0-.03.2-.04.4-.04.6,0,.06,0,.12.01.18.01.14.03.27.06.4.01.06.03.13.05.19.04.13.09.24.14.36.03.05.05.1.08.15.09.16.2.3.33.43l.75.74c.18.17.38.3.59.39l4.67,1.88c-.21-.09-.41-.21-.59-.39l-.75-.74Z"/>
          </g>
          <path class="cls-19" d="m435.63,185.11c1.28-.24,2.31.77,2.31,2.26v1.24c0,1.5-1.04,2.9-2.32,3.14l-1.95.37c-.29,1.41-.75,2.78-1.36,4.06l1.38,1.34c.9.88.9,2.6,0,3.82l-.76,1.02c-.45.61-1.05.99-1.64,1.1-.59.11-1.18-.04-1.63-.48l-1.38-1.34c-1,.89-2.09,1.64-3.26,2.19v2.28c0,1.49-1.05,2.9-2.32,3.14l-1.07.2c-1.28.24-2.31-.77-2.31-2.26v-2.28c-1.16-.11-2.25-.44-3.25-.95l-1.38,1.87c-.45.61-1.05.99-1.64,1.1-.59.11-1.18-.04-1.63-.48l-.75-.74c-.9-.88-.9-2.59,0-3.82l1.38-1.87c-.6-1.05-1.06-2.25-1.34-3.55l-1.95.37c-1.28.24-2.31-.77-2.31-2.26v-1.24c0-1.49,1.04-2.89,2.32-3.14l1.95-.37c.29-1.41.75-2.78,1.36-4.06l-1.38-1.35c-.9-.88-.9-2.59,0-3.82l.76-1.02c.45-.61,1.05-.99,1.64-1.1.59-.11,1.18.04,1.63.48l1.38,1.35c1-.89,2.09-1.64,3.26-2.19v-2.28c0-1.49,1.05-2.9,2.32-3.14l1.07-.2c1.28-.24,2.31.77,2.31,2.26v2.28c1.15.11,2.25.44,3.25.95l1.38-1.87c.45-.61,1.05-.99,1.64-1.1.59-.11,1.18.04,1.63.48l.75.74c.9.88.9,2.6,0,3.82l-1.38,1.87c.6,1.05,1.06,2.25,1.34,3.55l1.95-.37Zm-13.45,14.04c3.86-.73,7-4.98,7.01-9.49,0-4.51-3.11-7.57-6.98-6.83-3.86.73-7,4.98-7,9.49,0,4.51,3.11,7.57,6.97,6.83"/>
        </g>
      </g>
      <g>
        <g>
          <ellipse class="cls-1" cx="20.5" cy="114.61" rx="13.48" ry="7.8"/>
          <polygon class="cls-1" points="7.01 110.83 7.01 114.94 33.96 114.94 33.96 110.56 7.01 110.83"/>
          <ellipse class="cls-21" cx="20.5" cy="110.56" rx="13.48" ry="7.8"/>
        </g>
        <g class="cls-12">
          <g>
            <path class="cls-11" d="m34.46,85.44c.15.02.29.05.43.1l-4.67-1.88c-.08-.03-.15-.06-.23-.08-.06-.02-.13-.02-.2-.03-.04,0-.07-.01-.11-.02-.02,0-.04,0-.06,0-.15,0-.3,0-.46.03l-1.95.37,4.67,1.88,1.95-.37c.18-.03.35-.04.51-.03.04,0,.07.01.11.02Z"/>
            <path class="cls-11" d="m26.49,101.99l-4.67-1.88,1.38,1.34c.09.09.18.16.28.23.1.06.2.12.31.16l4.67,1.88c-.21-.09-.41-.21-.59-.39l-1.38-1.34Z"/>
            <path class="cls-11" d="m17.53,107.54v-2.28s-4.66-1.88-4.66-1.88v.36s-3.25-1.31-3.25-1.31c.25.13.5.24.75.35l2.5,1.01v1.87c0,1.05.51,1.87,1.26,2.17l4.67,1.88c-.75-.3-1.27-1.12-1.26-2.17Z"/>
            <path class="cls-11" d="m21.98,98.97c.13-.06.26-.12.39-.19.09-.05.17-.09.25-.14.12-.07.24-.15.36-.22.08-.05.16-.11.24-.17.12-.08.24-.17.35-.26.08-.06.15-.12.23-.18.03-.03.06-.05.1-.08.03-.03.06-.06.09-.09.29-.26.57-.54.84-.84,0,0,0,0,0,0,0,0,0,0,0,0,.22-.25.42-.52.62-.8.02-.03.05-.06.07-.1.03-.05.06-.1.09-.15.13-.2.26-.4.37-.61.03-.05.07-.1.1-.16.01-.03.03-.06.04-.08.15-.28.3-.57.42-.87,0,0,0,0,0-.01,0-.02.01-.04.02-.06.12-.29.23-.59.32-.89.01-.04.03-.08.05-.13.01-.04.02-.09.03-.13.11-.39.21-.78.28-1.18,0,0,0-.01,0-.02.03-.17.04-.34.06-.51.01-.09.03-.19.03-.28.02-.27.04-.55.04-.83,0-3.18-1.54-5.63-3.81-6.55l-4.67-1.88c2.27.92,3.82,3.37,3.81,6.55,0,.28-.01.55-.04.83,0,.09-.02.19-.03.28-.02.18-.04.35-.07.53-.07.4-.16.79-.28,1.18-.02.09-.05.17-.08.26-.1.3-.2.6-.32.89,0,.02-.02.05-.03.07-.13.3-.27.59-.42.87-.04.08-.09.16-.14.24-.12.21-.24.41-.37.61-.05.08-.11.16-.16.24-.2.28-.4.54-.62.8,0,0,0,0-.01.01-.26.3-.54.58-.84.84-.06.06-.12.11-.19.17-.07.06-.15.12-.23.18-.11.09-.23.18-.35.26-.08.06-.16.11-.24.17-.12.08-.24.15-.36.22-.08.05-.17.1-.25.14-.13.07-.26.13-.39.19-.08.04-.16.08-.25.11-.14.06-.28.11-.42.15-.3.1-.61.19-.92.25-.26.05-.52.08-.78.09-.08,0-.16,0-.24,0-.18,0-.36,0-.54-.01-.06,0-.13-.01-.19-.02-.21-.02-.42-.06-.63-.1-.02,0-.04,0-.06-.01-.25-.06-.49-.14-.72-.23l4.67,1.88c.23.09.46.17.7.23,0,0,.01,0,.02,0,.02,0,.04,0,.07.01.2.05.41.08.63.1.06,0,.13.01.19.02.06,0,.12.01.18.02.12,0,.24,0,.35,0,.08,0,.16,0,.24,0,.26-.02.51-.04.78-.09.31-.06.62-.15.92-.25.04-.01.08-.02.11-.03.07-.03.15-.05.22-.08.03-.01.06-.03.08-.04.08-.03.17-.07.25-.11Z"/>
            <path class="cls-11" d="m21.12,76.11c-.38-.15-.77-.28-1.17-.38-.01,0-.02,0-.03,0-.02,0-.04,0-.06-.01-.4-.1-.82-.17-1.24-.21l4.67,1.88c.42.04.84.11,1.24.21.02,0,.04,0,.06.01.24.06.47.15.7.22l1.26.51,1.38-1.87c.09-.12.19-.23.29-.34.04-.04.08-.08.12-.12.09-.08.17-.15.26-.21.04-.03.07-.06.11-.08.13-.08.26-.16.4-.21,0,0,0,0,0,0,.14-.06.29-.1.44-.13.17-.03.34-.04.5-.03.03,0,.06,0,.1.01.15.02.3.05.45.11l-4.67-1.88c-.08-.03-.15-.06-.23-.08-.07-.02-.14-.02-.21-.03-.03,0-.06-.01-.1-.01-.02,0-.03,0-.05,0-.15,0-.3,0-.46.03-.1.02-.21.05-.31.08-.04.01-.08.03-.12.05,0,0,0,0,0,0,0,0,0,0-.01,0-.13.06-.26.13-.39.21-.04.03-.07.06-.11.08-.07.05-.14.09-.2.15-.02.02-.04.04-.06.06-.04.04-.08.08-.12.12-.04.04-.09.08-.13.13-.06.07-.11.14-.17.21l-1.36,1.84-.77-.31Z"/>
            <path class="cls-11" d="m8.88,106.07c-.13-.13-.24-.27-.33-.43-.03-.05-.05-.1-.08-.15-.06-.11-.1-.23-.14-.36-.02-.06-.04-.12-.05-.19-.03-.13-.05-.27-.06-.4,0-.06-.01-.12-.01-.18,0-.2,0-.4.04-.6.03-.16.07-.33.12-.49.01-.03.02-.06.03-.09.05-.13.1-.26.16-.39.01-.03.03-.06.04-.09.08-.15.17-.31.28-.45l1.38-1.87c-.3-.53-.57-1.09-.79-1.68-.22-.59-.41-1.22-.55-1.87l-4.23-1.71c0-.06-.02-.12-.02-.18v-1.24c0-.18.02-.37.05-.54,0-.02.01-.04.02-.07.03-.15.06-.29.11-.43.01-.04.03-.08.04-.11.05-.13.1-.25.16-.37.01-.03.02-.05.04-.08.07-.14.16-.27.25-.39.02-.03.05-.06.07-.09.07-.09.15-.18.22-.26.04-.04.08-.09.13-.13.07-.07.15-.13.23-.19.05-.04.1-.08.15-.11.09-.06.18-.11.28-.15.05-.02.09-.05.14-.07.14-.06.29-.11.44-.14l1.95-.37c.1-.48.23-.96.36-1.43.04-.15.09-.29.13-.44.04-.14.09-.28.14-.42.07-.19.13-.37.2-.56.05-.13.1-.27.16-.4.11-.28.23-.55.36-.82l-1.38-1.35c-.13-.13-.24-.27-.33-.43-.03-.05-.05-.1-.08-.15-.06-.11-.1-.23-.14-.36-.02-.06-.04-.12-.05-.19-.03-.13-.05-.27-.06-.4,0-.06-.01-.12-.01-.18,0-.2,0-.4.04-.6.03-.16.07-.33.12-.49.01-.03.02-.06.03-.09.05-.13.1-.26.16-.39.01-.03.03-.06.04-.09.08-.15.17-.31.28-.45l.76-1.02c.09-.12.19-.23.29-.34.04-.04.08-.08.12-.12.09-.08.18-.15.27-.21.04-.03.07-.06.11-.08.03-.02.06-.03.08-.05l3.77,1.52c.17-.15.34-.29.51-.43.11-.09.21-.18.32-.26.15-.12.31-.23.47-.34.1-.07.21-.15.31-.22.18-.12.36-.23.54-.34.09-.05.18-.11.27-.16.27-.16.55-.3.84-.44v-2.28c0-.18.02-.37.05-.54,0-.02.01-.05.02-.07.03-.15.06-.29.11-.43.01-.04.03-.08.04-.11.05-.13.1-.25.16-.37.01-.03.03-.05.04-.08.07-.14.16-.27.25-.39.02-.03.05-.06.07-.09.07-.09.14-.17.22-.26.04-.04.09-.09.13-.13.07-.07.15-.13.23-.19.05-.04.1-.08.15-.11.09-.06.18-.11.28-.15.05-.02.09-.05.13-.07.14-.06.29-.11.44-.14l1.07-.2c.18-.03.35-.04.51-.03.04,0,.07.01.11.02.15.02.29.05.43.1l-4.67-1.88c-.08-.03-.15-.06-.23-.08-.06-.02-.13-.02-.2-.03-.04,0-.07-.01-.11-.02-.02,0-.04,0-.06,0-.15,0-.3,0-.45.03l-1.07.2c-.12.02-.23.05-.34.09-.02,0-.05.02-.07.03,0,0-.02.01-.03.01-.05.02-.09.05-.14.07-.09.05-.19.09-.28.15-.05.03-.1.07-.15.11-.05.04-.11.07-.16.12-.03.02-.05.05-.07.07-.05.04-.09.09-.13.13-.03.04-.07.07-.11.11-.04.05-.08.1-.12.15-.02.03-.05.06-.07.09-.01.02-.03.03-.04.05-.07.1-.13.2-.19.3,0,.01-.01.03-.02.04-.01.03-.03.05-.04.08-.03.07-.07.13-.1.2-.02.06-.04.12-.06.17-.01.04-.03.08-.04.11,0,.02-.02.05-.03.07-.04.12-.06.24-.08.36,0,.02-.01.05-.02.07,0,0,0,0,0,.01-.03.18-.04.35-.04.53v2.28c-.29.13-.57.28-.84.44-.09.05-.18.11-.27.17-.18.11-.36.22-.54.33-.11.07-.21.15-.31.22-.16.11-.31.22-.47.34-.02.02-.05.04-.07.05l-2.72-1.1c-.08-.03-.15-.06-.23-.08-.07-.02-.14-.02-.21-.03-.03,0-.06-.01-.1-.01-.02,0-.03,0-.05,0-.15,0-.3,0-.46.03-.1.02-.21.05-.31.08-.04.01-.08.03-.13.05,0,0,0,0,0,0,0,0,0,0-.01,0-.13.06-.26.13-.39.21-.04.03-.07.06-.11.08-.07.05-.14.09-.2.15-.02.02-.04.04-.06.06-.04.04-.08.08-.12.12-.04.04-.09.08-.13.13-.06.07-.11.14-.17.21l-.76,1.02s-.04.06-.06.09c-.07.1-.13.2-.19.3-.01.02-.02.04-.03.06-.02.03-.03.06-.04.09-.03.06-.06.11-.08.17-.03.07-.05.15-.08.22-.01.03-.02.06-.03.09,0,.01-.01.03-.02.04-.04.15-.08.29-.1.44,0,0,0,0,0,0-.03.2-.04.4-.04.6,0,.06,0,.12.01.18.01.14.03.27.06.4.01.06.03.13.05.19.04.13.09.24.14.36.03.05.05.1.08.15.09.16.2.3.33.43l1.38,1.35c-.1.21-.19.42-.29.64-.03.06-.05.12-.07.18-.05.13-.11.27-.16.4-.07.19-.14.37-.21.56-.05.14-.09.28-.14.41-.03.09-.06.17-.09.26-.02.06-.03.12-.04.18-.14.47-.26.95-.36,1.43l-1.95.37c-.12.02-.23.05-.34.09-.02,0-.05.02-.07.03,0,0-.02.01-.03.01-.05.02-.09.05-.14.07-.09.05-.19.09-.28.15-.05.03-.1.07-.15.11-.05.04-.11.07-.16.12-.03.02-.05.05-.07.07-.04.04-.09.08-.13.13-.03.04-.07.07-.11.11-.04.05-.08.1-.12.15-.02.03-.05.06-.07.09-.01.02-.03.03-.04.05-.07.1-.13.2-.19.3,0,.01-.01.03-.02.04-.01.03-.03.05-.04.08-.03.07-.07.13-.1.2-.02.06-.04.12-.06.17-.01.04-.03.07-.04.11,0,.02-.02.05-.02.07-.04.12-.06.24-.09.36,0,.02-.01.04-.02.07,0,0,0,0,0,0-.03.18-.04.35-.04.54v1.24c0,1.05.51,1.87,1.26,2.17l3.49,1.41c.24.66.52,1.28.85,1.86l-1.38,1.87s-.04.06-.06.09c-.07.1-.13.2-.19.3-.01.02-.02.04-.03.06-.02.03-.03.06-.04.09-.03.06-.06.11-.08.17-.03.07-.05.15-.08.22-.01.03-.02.06-.03.09,0,.01-.01.03-.02.04-.04.15-.08.29-.1.44,0,0,0,0,0,0-.03.2-.04.4-.04.6,0,.06,0,.12.01.18.01.14.03.27.06.4.01.06.03.13.05.19.04.13.09.24.14.36.03.05.05.1.08.15.09.16.2.3.33.43l.75.74c.18.17.38.3.59.39l4.67,1.88c-.21-.09-.41-.21-.59-.39l-.75-.74Z"/>
          </g>
          <path class="cls-19" d="m33.85,85.45c1.28-.24,2.31.77,2.31,2.26v1.24c0,1.5-1.04,2.9-2.32,3.14l-1.95.37c-.29,1.41-.75,2.78-1.36,4.06l1.38,1.34c.9.88.9,2.6,0,3.82l-.76,1.02c-.45.61-1.05.99-1.64,1.1-.59.11-1.18-.04-1.63-.48l-1.38-1.34c-1,.89-2.09,1.64-3.26,2.19v2.28c0,1.49-1.05,2.9-2.32,3.14l-1.07.2c-1.28.24-2.31-.77-2.31-2.26v-2.28c-1.16-.11-2.25-.44-3.25-.95l-1.38,1.87c-.45.61-1.05.99-1.64,1.1-.59.11-1.18-.04-1.63-.48l-.75-.74c-.9-.88-.9-2.59,0-3.82l1.38-1.87c-.6-1.05-1.06-2.25-1.34-3.55l-1.95.37c-1.28.24-2.31-.77-2.31-2.26v-1.24c0-1.49,1.04-2.89,2.32-3.14l1.95-.37c.29-1.41.75-2.78,1.36-4.06l-1.38-1.35c-.9-.88-.9-2.59,0-3.82l.76-1.02c.45-.61,1.05-.99,1.64-1.1.59-.11,1.18.04,1.63.48l1.38,1.35c1-.89,2.09-1.64,3.26-2.19v-2.28c0-1.49,1.05-2.9,2.32-3.14l1.07-.2c1.28-.24,2.31.77,2.31,2.26v2.28c1.15.11,2.25.44,3.25.95l1.38-1.87c.45-.61,1.05-.99,1.64-1.1.59-.11,1.18.04,1.63.48l.75.74c.9.88.9,2.6,0,3.82l-1.38,1.87c.6,1.05,1.06,2.25,1.34,3.55l1.95-.37Zm-13.45,14.04c3.86-.73,7-4.98,7.01-9.49,0-4.51-3.11-7.57-6.98-6.83-3.86.73-7,4.98-7,9.49,0,4.51,3.11,7.57,6.97,6.83"/>
        </g>
      </g>
      <g>
        <g>
          <ellipse class="cls-1" cx="421.52" cy="306.12" rx="13.48" ry="7.8"/>
          <polygon class="cls-1" points="408.04 302.34 408.04 306.45 434.99 306.45 434.99 302.07 408.04 302.34"/>
          <ellipse class="cls-21" cx="421.52" cy="302.07" rx="13.48" ry="7.8"/>
        </g>
        <g class="cls-12">
          <g>
            <path class="cls-11" d="m436.24,276.75c.15.02.29.05.43.1l-4.67-1.88c-.08-.03-.15-.06-.23-.08-.06-.02-.13-.02-.2-.03-.04,0-.07-.01-.11-.02-.02,0-.04,0-.06,0-.15,0-.3,0-.46.03l-1.95.37,4.67,1.88,1.95-.37c.18-.03.35-.04.51-.03.04,0,.07.01.11.02Z"/>
            <path class="cls-11" d="m428.27,293.31l-4.67-1.88,1.38,1.34c.09.09.18.16.28.23.1.06.2.12.31.16l4.67,1.88c-.21-.09-.41-.21-.59-.39l-1.38-1.34Z"/>
            <path class="cls-11" d="m419.31,298.86v-2.28s-4.66-1.88-4.66-1.88v.36s-3.25-1.31-3.25-1.31c.25.13.5.24.75.35l2.5,1.01v1.87c0,1.05.51,1.87,1.26,2.17l4.67,1.88c-.75-.3-1.27-1.12-1.26-2.17Z"/>
            <path class="cls-11" d="m423.76,290.28c.13-.06.26-.12.39-.19.09-.05.17-.09.25-.14.12-.07.24-.15.36-.22.08-.05.16-.11.24-.17.12-.08.24-.17.35-.26.08-.06.15-.12.23-.18.03-.03.06-.05.1-.08.03-.03.06-.06.09-.09.29-.26.57-.54.84-.84,0,0,0,0,0,0,0,0,0,0,0,0,.22-.25.42-.52.62-.8.02-.03.05-.06.07-.1.03-.05.06-.1.09-.15.13-.2.26-.4.37-.61.03-.05.07-.1.1-.16.01-.03.03-.06.04-.08.15-.28.3-.57.42-.87,0,0,0,0,0-.01,0-.02.01-.04.02-.06.12-.29.23-.59.32-.89.01-.04.03-.08.05-.13.01-.04.02-.09.03-.13.11-.39.21-.78.28-1.18,0,0,0-.01,0-.02.03-.17.04-.34.06-.51.01-.09.03-.19.03-.28.02-.27.04-.55.04-.83,0-3.18-1.54-5.63-3.81-6.55l-4.67-1.88c2.27.92,3.82,3.37,3.81,6.55,0,.28-.01.55-.04.83,0,.09-.02.19-.03.28-.02.18-.04.35-.07.53-.07.4-.16.79-.28,1.18-.02.09-.05.17-.08.26-.1.3-.2.6-.32.89,0,.02-.02.05-.03.07-.13.3-.27.59-.42.87-.04.08-.09.16-.14.24-.12.21-.24.41-.37.61-.05.08-.11.16-.16.24-.2.28-.4.54-.62.8,0,0,0,0-.01.01-.26.3-.54.58-.84.84-.06.06-.12.11-.19.17-.07.06-.15.12-.23.18-.11.09-.23.18-.35.26-.08.06-.16.11-.24.17-.12.08-.24.15-.36.22-.08.05-.17.1-.25.14-.13.07-.26.13-.39.19-.08.04-.16.08-.25.11-.14.06-.28.11-.42.15-.3.1-.61.19-.92.25-.26.05-.52.08-.78.09-.08,0-.16,0-.24,0-.18,0-.36,0-.54-.01-.06,0-.13-.01-.19-.02-.21-.02-.42-.06-.63-.1-.02,0-.04,0-.06-.01-.25-.06-.49-.14-.72-.23l4.67,1.88c.23.09.46.17.7.23,0,0,.01,0,.02,0,.02,0,.04,0,.07.01.2.05.41.08.63.1.06,0,.13.01.19.02.06,0,.12.01.18.02.12,0,.24,0,.35,0,.08,0,.16,0,.24,0,.26-.02.51-.04.78-.09.31-.06.62-.15.92-.25.04-.01.08-.02.11-.03.07-.03.15-.05.22-.08.03-.01.06-.03.08-.04.08-.03.17-.07.25-.11Z"/>
            <path class="cls-11" d="m422.9,267.42c-.38-.15-.77-.28-1.17-.38-.01,0-.02,0-.03,0-.02,0-.04,0-.06-.01-.4-.1-.82-.17-1.24-.21l4.67,1.88c.42.04.84.11,1.24.21.02,0,.04,0,.06.01.24.06.47.15.7.22l1.26.51,1.38-1.87c.09-.12.19-.23.29-.34.04-.04.08-.08.12-.12.09-.08.17-.15.26-.21.04-.03.07-.06.11-.08.13-.08.26-.16.4-.21,0,0,0,0,0,0,.14-.06.29-.1.44-.13.17-.03.34-.04.5-.03.03,0,.06,0,.1.01.15.02.3.05.45.11l-4.67-1.88c-.08-.03-.15-.06-.23-.08-.07-.02-.14-.02-.21-.03-.03,0-.06-.01-.1-.01-.02,0-.03,0-.05,0-.15,0-.3,0-.46.03-.1.02-.21.05-.31.08-.04.01-.08.03-.12.05,0,0,0,0,0,0,0,0,0,0-.01,0-.13.06-.26.13-.39.21-.04.02-.07.06-.11.08-.07.05-.14.09-.2.15-.02.02-.04.04-.06.06-.04.04-.08.08-.12.12-.04.04-.09.08-.13.13-.06.07-.11.14-.17.21l-1.36,1.84-.77-.31Z"/>
            <path class="cls-11" d="m410.66,297.38c-.13-.13-.24-.27-.33-.43-.03-.05-.05-.1-.08-.15-.06-.11-.11-.23-.14-.36-.02-.06-.04-.12-.05-.19-.03-.13-.05-.27-.06-.4,0-.06-.01-.12-.01-.18,0-.2,0-.4.04-.6.03-.16.07-.33.12-.49.01-.03.02-.06.03-.09.05-.13.1-.26.16-.39.01-.03.03-.06.04-.09.08-.15.17-.31.28-.45l1.38-1.87c-.3-.53-.57-1.09-.79-1.68-.22-.59-.41-1.22-.55-1.87l-4.23-1.71c0-.06-.02-.12-.02-.18v-1.24c0-.18.02-.37.05-.54,0-.02.01-.04.02-.07.03-.15.06-.29.11-.43.01-.04.03-.08.04-.11.05-.13.1-.25.16-.37.01-.03.02-.05.04-.08.07-.14.16-.27.25-.39.02-.03.05-.06.07-.09.07-.09.15-.18.22-.26.04-.04.08-.09.13-.13.07-.07.15-.13.23-.19.05-.04.1-.08.15-.11.09-.06.18-.11.28-.15.05-.02.09-.05.14-.07.14-.06.29-.11.44-.14l1.95-.37c.1-.48.23-.96.36-1.43.04-.15.09-.29.13-.44.04-.14.09-.28.14-.42.07-.19.13-.37.2-.56.05-.13.1-.27.16-.4.11-.28.23-.55.36-.82l-1.38-1.35c-.13-.13-.24-.27-.33-.43-.03-.05-.05-.1-.08-.15-.06-.11-.11-.23-.14-.36-.02-.06-.04-.12-.05-.19-.03-.13-.05-.26-.06-.4,0-.06-.01-.12-.01-.18,0-.2,0-.4.04-.6.03-.16.07-.33.12-.49.01-.03.02-.06.03-.09.05-.13.1-.26.16-.39.01-.03.03-.06.04-.09.08-.15.17-.31.28-.45l.76-1.02c.09-.12.19-.23.29-.34.04-.04.08-.08.12-.12.09-.08.18-.15.27-.21.04-.03.07-.06.11-.08.03-.02.06-.03.08-.05l3.77,1.52c.17-.15.34-.29.51-.43.11-.09.21-.18.32-.26.15-.12.31-.23.47-.34.1-.07.21-.15.31-.22.18-.12.36-.23.54-.34.09-.05.18-.11.27-.16.27-.16.55-.3.84-.44v-2.28c0-.18.02-.37.05-.54,0-.02.01-.05.02-.07.03-.15.06-.29.11-.43.01-.04.03-.08.04-.11.05-.13.1-.25.16-.37.01-.03.03-.05.04-.08.07-.14.16-.27.25-.39.02-.03.05-.06.07-.09.07-.09.14-.17.22-.26.04-.04.09-.09.13-.13.07-.07.15-.13.23-.19.05-.04.1-.08.15-.11.09-.06.18-.11.28-.15.05-.02.09-.05.13-.07.14-.06.29-.11.44-.14l1.07-.2c.18-.03.35-.04.51-.03.04,0,.07.01.11.02.15.02.29.05.43.1l-4.67-1.88c-.08-.03-.15-.06-.23-.08-.06-.02-.13-.02-.2-.03-.04,0-.07-.01-.11-.02-.02,0-.04,0-.06,0-.15,0-.3,0-.45.03l-1.07.2c-.12.02-.23.05-.34.09-.02,0-.05.02-.07.03,0,0-.02.01-.03.01-.05.02-.09.05-.14.07-.09.05-.19.09-.28.15-.05.03-.1.07-.15.11-.05.04-.11.07-.16.12-.03.02-.05.05-.07.07-.04.04-.09.09-.13.13-.03.04-.07.07-.11.11-.04.05-.08.1-.12.15-.02.03-.05.06-.07.09-.01.02-.03.03-.04.05-.07.1-.13.2-.19.3,0,.01-.01.03-.02.04-.01.03-.03.05-.04.08-.03.07-.07.13-.1.2-.02.06-.04.12-.06.17-.01.04-.03.08-.04.11,0,.02-.02.05-.03.07-.04.12-.06.24-.08.36,0,.02-.01.05-.02.07,0,0,0,0,0,.01-.03.18-.04.35-.04.53v2.28c-.29.13-.57.28-.84.44-.09.05-.18.11-.27.17-.18.11-.36.22-.54.33-.11.07-.21.15-.31.22-.16.11-.31.22-.47.34-.02.02-.05.04-.07.05l-2.72-1.1c-.08-.03-.15-.06-.23-.08-.07-.02-.14-.02-.21-.03-.03,0-.06-.01-.1-.01-.02,0-.03,0-.05,0-.15,0-.3,0-.46.03-.1.02-.21.05-.31.08-.04.01-.08.03-.13.05,0,0,0,0,0,0,0,0,0,0-.01,0-.13.06-.26.13-.39.21-.04.03-.07.06-.11.08-.07.05-.14.09-.2.15-.02.02-.04.04-.06.06-.04.04-.08.08-.12.12-.04.04-.09.08-.13.13-.06.07-.11.14-.17.21l-.76,1.02s-.04.06-.06.09c-.07.1-.13.2-.19.3-.01.02-.02.04-.03.06-.02.03-.03.06-.04.09-.03.06-.06.11-.08.17-.03.07-.05.15-.08.22-.01.03-.02.06-.03.09,0,.01-.01.03-.02.04-.04.15-.08.29-.1.44,0,0,0,0,0,0-.03.2-.04.4-.04.6,0,.06,0,.12.01.18.01.14.03.27.06.4.01.06.03.13.05.19.04.13.09.24.14.36.03.05.05.1.08.15.09.16.2.3.33.43l1.38,1.35c-.1.21-.19.42-.29.64-.03.06-.05.12-.07.18-.05.13-.11.27-.16.4-.07.19-.14.37-.21.56-.05.14-.09.28-.14.41-.03.09-.06.17-.09.26-.02.06-.03.12-.04.18-.14.47-.26.95-.36,1.43l-1.95.37c-.12.02-.23.05-.34.09-.02,0-.05.02-.07.03,0,0-.02.01-.03.01-.05.02-.09.05-.14.07-.09.05-.19.09-.28.15-.05.03-.1.07-.15.11-.05.04-.11.07-.16.12-.03.02-.05.05-.07.07-.04.04-.09.08-.13.13-.03.04-.07.07-.11.11-.04.05-.08.1-.12.15-.02.03-.05.06-.07.09-.01.02-.03.03-.04.05-.07.1-.13.2-.19.3,0,.01-.01.03-.02.04-.01.03-.03.05-.04.08-.03.07-.07.13-.1.2-.02.06-.04.12-.06.17-.01.04-.03.08-.04.11,0,.02-.02.05-.02.07-.04.12-.06.24-.09.36,0,.02-.01.04-.02.07,0,0,0,0,0,0-.03.18-.04.35-.04.53v1.24c0,1.05.51,1.87,1.26,2.17l3.49,1.41c.24.66.52,1.28.85,1.86l-1.38,1.87s-.04.06-.06.09c-.07.1-.13.2-.19.3-.01.02-.02.04-.03.06-.02.03-.03.06-.04.09-.03.06-.06.11-.08.17-.03.07-.05.15-.08.22-.01.03-.02.06-.03.09,0,.01-.01.03-.02.04-.04.15-.08.29-.1.44,0,0,0,0,0,0-.03.2-.04.4-.04.6,0,.06,0,.12.01.18.01.14.03.27.06.4.01.06.03.13.05.19.04.13.09.24.14.36.03.05.05.1.08.15.09.16.2.3.33.43l.75.74c.18.17.38.3.59.39l4.67,1.88c-.21-.09-.41-.21-.59-.39l-.75-.74Z"/>
          </g>
          <path class="cls-19" d="m435.63,276.76c1.28-.24,2.31.77,2.31,2.26v1.24c0,1.5-1.04,2.9-2.32,3.14l-1.95.37c-.29,1.41-.75,2.78-1.36,4.06l1.38,1.34c.9.88.9,2.6,0,3.82l-.76,1.02c-.45.61-1.05.99-1.64,1.1s-1.18-.04-1.63-.48l-1.38-1.34c-1,.89-2.09,1.64-3.26,2.19v2.28c0,1.49-1.05,2.9-2.32,3.14l-1.07.2c-1.28.24-2.31-.77-2.31-2.26v-2.28c-1.16-.11-2.25-.44-3.25-.95l-1.38,1.87c-.45.61-1.05.99-1.64,1.1-.59.11-1.18-.04-1.63-.48l-.75-.74c-.9-.88-.9-2.59,0-3.82l1.38-1.87c-.6-1.05-1.06-2.25-1.34-3.55l-1.95.37c-1.28.24-2.31-.77-2.31-2.26v-1.24c0-1.49,1.04-2.89,2.32-3.14l1.95-.37c.29-1.41.75-2.78,1.36-4.06l-1.38-1.35c-.9-.88-.9-2.59,0-3.82l.76-1.02c.45-.61,1.05-.99,1.64-1.1.59-.11,1.18.04,1.63.48l1.38,1.35c1-.89,2.09-1.64,3.26-2.19v-2.28c0-1.49,1.05-2.9,2.32-3.14l1.07-.2c1.28-.24,2.31.77,2.31,2.26v2.28c1.15.11,2.25.44,3.25.95l1.38-1.87c.45-.61,1.05-.99,1.64-1.1.59-.11,1.18.04,1.63.48l.75.74c.9.88.9,2.6,0,3.82l-1.38,1.87c.6,1.05,1.06,2.25,1.34,3.55l1.95-.37Zm-13.45,14.04c3.86-.73,7-4.98,7.01-9.49,0-4.51-3.11-7.57-6.98-6.83-3.86.73-7,4.98-7,9.49,0,4.51,3.11,7.57,6.97,6.83"/>
        </g>
      </g>
      <g>
        <ellipse class="cls-16" cx="224.53" cy="215.14" rx="64.46" ry="37.3"/>
        <g>
          <path class="cls-21" d="m284.31,112.59v89.84h-.15c-.14,1.18-.38,2.33-.71,3.48h0c-4.8,16.37-29.4,28.84-59.06,28.84s-54.26-12.47-59.06-28.83h0c-.33-1.16-.57-2.31-.71-3.49h-.15v-89.84h119.84Z"/>
          <path class="cls-19" d="m284.31,162.8v39.63h-.15c-.14,1.18-.38,2.33-.71,3.48h0c-12.49,11.23-34.27,18.66-59.06,18.66s-46.57-7.43-59.06-18.65h0c-.33-1.16-.57-2.31-.71-3.49h-.15v-39.63c2.66-2.52,5.78-4.86,9.3-6.97,12.77-7.69,30.73-12.48,50.62-12.48s37.85,4.79,50.62,12.48c3.52,2.11,6.64,4.45,9.3,6.97Z"/>
          <path class="cls-21" d="m284.31,144.05v42.31c-12.33,11.67-34.55,19.45-59.92,19.45s-47.59-7.78-59.92-19.45v-42.31c12.33-11.67,34.55-19.46,59.92-19.46s47.59,7.79,59.92,19.46Z"/>
          <path class="cls-19" d="m284.31,125.29v42.32c-12.33,11.67-34.55,19.45-59.92,19.45s-47.59-7.78-59.92-19.45v-42.32c5.36-5.07,12.59-9.41,21.15-12.7h77.54c8.56,3.29,15.79,7.63,21.15,12.7Z"/>
          <path class="cls-21" d="m284.31,112.59v36.26c-2.66,2.52-5.78,4.86-9.3,6.98-12.77,7.68-30.73,12.47-50.62,12.47s-37.85-4.79-50.62-12.47c-3.52-2.12-6.64-4.46-9.3-6.98v-36.26h119.84Z"/>
          <ellipse class="cls-19" cx="224.39" cy="112.59" rx="59.92" ry="34.67"/>
          <g>
            <ellipse class="cls-21" cx="224.39" cy="112.59" rx="36.52" ry="21.13"/>
            <polygon class="cls-15" points="187.88 104.49 187.88 112.59 260.91 112.59 260.91 103.7 187.88 104.49"/>
            <ellipse class="cls-17" cx="224.39" cy="104.49" rx="36.52" ry="21.13"/>
            <ellipse class="cls-6" cx="224.39" cy="104.49" rx="30.1" ry="17.41"/>
          </g>
        </g>
      </g>
      <g>
        <g>
          <ellipse class="cls-1" cx="74.58" cy="292.43" rx="13.48" ry="7.8"/>
          <polygon class="cls-1" points="61.1 288.65 61.1 292.76 88.05 292.76 88.05 288.38 61.1 288.65"/>
          <ellipse class="cls-21" cx="74.58" cy="288.38" rx="13.48" ry="7.8"/>
        </g>
        <g class="cls-12">
          <g>
            <path class="cls-21" d="m88.7,264.71c.15.02.29.05.43.1l-4.67-1.88c-.08-.03-.15-.06-.23-.08-.06-.02-.13-.02-.2-.03-.04,0-.07-.01-.11-.02-.02,0-.04,0-.06,0-.15,0-.3,0-.46.03l-1.95.37,4.67,1.88,1.95-.37c.18-.03.35-.04.51-.03.04,0,.07.01.11.02Z"/>
            <path class="cls-21" d="m80.73,281.26l-4.67-1.88,1.38,1.34c.09.09.18.16.28.23.1.06.2.12.31.16l4.67,1.88c-.21-.09-.41-.21-.59-.39l-1.38-1.34Z"/>
            <path class="cls-21" d="m71.77,286.81v-2.28s-4.66-1.88-4.66-1.88v.36s-3.25-1.31-3.25-1.31c.25.13.5.24.75.35l2.5,1.01v1.87c0,1.05.51,1.87,1.26,2.17l4.67,1.88c-.75-.3-1.27-1.12-1.26-2.17Z"/>
            <path class="cls-21" d="m76.21,278.23c.13-.06.26-.12.39-.19.09-.05.17-.09.25-.14.12-.07.24-.15.36-.22.08-.05.16-.11.24-.17.12-.08.24-.17.35-.26.08-.06.15-.12.23-.18.03-.03.06-.05.1-.08.03-.03.06-.06.09-.09.29-.26.57-.54.84-.84,0,0,0,0,0,0,0,0,0,0,0,0,.22-.25.42-.52.62-.8.02-.03.05-.06.07-.1.03-.05.06-.1.09-.15.13-.2.26-.4.37-.61.03-.05.07-.1.1-.16.01-.03.03-.06.04-.08.15-.28.3-.57.42-.87,0,0,0,0,0-.01,0-.02.01-.04.02-.06.12-.29.23-.59.32-.89.01-.04.03-.08.05-.13.01-.04.02-.09.03-.13.11-.39.21-.78.28-1.18,0,0,0-.01,0-.02.03-.17.04-.34.06-.51.01-.09.03-.19.03-.28.02-.27.04-.55.04-.83,0-3.18-1.54-5.63-3.81-6.55l-4.67-1.88c2.27.92,3.82,3.37,3.81,6.55,0,.28-.01.55-.04.83,0,.09-.02.19-.03.28-.02.18-.04.35-.07.53-.07.4-.16.79-.28,1.18-.02.09-.05.17-.08.26-.1.3-.2.6-.32.89,0,.02-.02.05-.03.07-.13.3-.27.59-.42.87-.04.08-.09.16-.14.24-.12.21-.24.41-.37.61-.05.08-.11.16-.16.24-.2.28-.4.54-.62.8,0,0,0,0-.01.01-.26.3-.54.58-.84.84-.06.06-.12.11-.19.17-.07.06-.15.12-.23.18-.11.09-.23.18-.35.26-.08.06-.16.11-.24.17-.12.08-.24.15-.36.22-.08.05-.17.1-.25.14-.13.07-.26.13-.39.19-.08.04-.16.08-.25.11-.14.06-.28.11-.42.15-.3.1-.61.19-.92.25-.26.05-.52.08-.78.09-.08,0-.16,0-.24,0-.18,0-.36,0-.54-.01-.06,0-.13-.01-.19-.02-.21-.02-.42-.06-.63-.1-.02,0-.04,0-.06-.01-.25-.06-.49-.14-.72-.23l4.67,1.88c.23.09.46.17.7.23,0,0,.01,0,.02,0,.02,0,.04,0,.07.01.2.05.41.08.63.1.06,0,.13.01.19.02.06,0,.12.01.18.02.12,0,.24,0,.35,0,.08,0,.16,0,.24,0,.26-.02.51-.04.78-.09.31-.06.62-.15.92-.25.04-.01.08-.02.11-.03.07-.03.15-.05.22-.08.03-.01.06-.03.08-.04.08-.03.17-.07.25-.11Z"/>
            <path class="cls-21" d="m75.36,255.38c-.38-.15-.77-.28-1.17-.38-.01,0-.02,0-.03,0-.02,0-.04,0-.06-.01-.4-.1-.82-.17-1.24-.21l4.67,1.88c.42.04.84.11,1.24.21.02,0,.04,0,.06.01.24.06.47.15.7.22l1.26.51,1.38-1.87c.09-.12.19-.23.29-.34.04-.04.08-.08.12-.12.09-.08.17-.15.26-.21.04-.03.07-.06.11-.08.13-.08.26-.16.4-.21,0,0,0,0,0,0,.14-.06.29-.1.44-.13.17-.03.34-.04.5-.03.03,0,.06,0,.1.01.15.02.3.05.45.11l-4.67-1.88c-.08-.03-.15-.06-.23-.08-.07-.02-.14-.02-.21-.03-.03,0-.06-.01-.1-.01-.02,0-.03,0-.05,0-.15,0-.3,0-.46.03-.1.02-.21.05-.31.08-.04.01-.08.03-.12.05,0,0,0,0,0,0,0,0,0,0,0,0-.13.06-.26.13-.39.21-.04.02-.07.06-.11.08-.07.05-.14.09-.2.15-.02.02-.04.04-.06.06-.04.04-.08.08-.12.12-.04.04-.09.08-.13.13-.06.07-.11.14-.17.21l-1.36,1.84-.77-.31Z"/>
            <path class="cls-21" d="m63.11,285.33c-.13-.13-.24-.27-.33-.43-.03-.05-.05-.1-.08-.15-.06-.11-.1-.23-.14-.36-.02-.06-.04-.12-.05-.19-.03-.13-.05-.27-.06-.4,0-.06-.01-.12-.01-.18,0-.2,0-.4.04-.6.03-.16.07-.33.12-.49.01-.03.02-.06.03-.09.05-.13.1-.26.16-.39.01-.03.03-.06.04-.09.08-.15.17-.31.28-.45l1.38-1.87c-.3-.53-.57-1.09-.79-1.68-.22-.59-.41-1.22-.55-1.87l-4.23-1.71c0-.06-.02-.12-.02-.18v-1.24c0-.18.02-.37.05-.54,0-.02.01-.04.02-.07.03-.15.06-.29.11-.43.01-.04.03-.08.04-.11.05-.13.1-.25.16-.37.01-.03.02-.05.04-.08.07-.14.16-.27.25-.39.02-.03.05-.06.07-.09.07-.09.14-.18.22-.26.04-.04.08-.09.13-.13.07-.07.15-.13.23-.19.05-.04.1-.08.15-.11.09-.06.18-.11.28-.15.05-.02.09-.05.14-.07.14-.06.29-.11.44-.14l1.95-.37c.1-.48.23-.96.36-1.43.04-.15.08-.29.13-.43.04-.14.09-.28.14-.42.07-.19.13-.37.2-.56.05-.13.1-.27.16-.4.11-.28.23-.55.36-.82l-1.38-1.35c-.13-.13-.24-.27-.33-.43-.03-.05-.05-.1-.08-.15-.06-.11-.1-.23-.14-.36-.02-.06-.04-.12-.05-.19-.03-.13-.05-.26-.06-.4,0-.06-.01-.12-.01-.18,0-.2,0-.4.04-.6.03-.16.07-.33.12-.49.01-.03.02-.06.03-.09.05-.13.1-.26.16-.39.01-.03.03-.06.04-.09.08-.15.17-.31.28-.45l.76-1.02c.09-.12.19-.23.29-.34.04-.04.08-.08.12-.12.09-.08.18-.15.27-.21.04-.03.07-.06.11-.08.03-.02.06-.03.08-.05l3.77,1.52c.17-.15.34-.29.51-.43.11-.09.21-.18.32-.26.15-.12.31-.23.47-.34.1-.07.21-.15.31-.22.18-.12.36-.23.54-.34.09-.05.18-.11.27-.16.27-.16.55-.3.84-.44v-2.28c0-.18.02-.37.05-.54,0-.02.01-.05.02-.07.03-.15.06-.29.11-.43.01-.04.03-.08.04-.11.05-.13.1-.25.16-.37.01-.03.03-.05.04-.08.07-.14.16-.27.25-.39.02-.03.05-.06.07-.09.07-.09.14-.17.22-.26.04-.04.09-.09.13-.13.07-.07.15-.13.23-.19.05-.04.1-.08.15-.11.09-.06.18-.11.28-.15.05-.02.09-.05.13-.07.14-.06.29-.11.44-.14l1.07-.2c.18-.03.35-.04.51-.03.04,0,.07.01.11.02.15.02.29.05.43.1l-4.67-1.88c-.08-.03-.15-.06-.23-.08-.06-.02-.13-.02-.2-.03-.04,0-.07-.01-.11-.02-.02,0-.04,0-.06,0-.15,0-.3,0-.45.03l-1.07.2c-.12.02-.23.05-.34.09-.02,0-.05.02-.07.03,0,0-.02.01-.03.01-.05.02-.09.05-.14.07-.09.05-.19.09-.28.15-.05.03-.1.07-.15.11-.05.04-.11.07-.16.12-.03.02-.05.05-.07.07-.04.04-.09.09-.13.13-.03.04-.07.07-.11.11-.04.05-.08.1-.12.15-.02.03-.05.06-.07.09-.01.02-.03.03-.04.05-.07.1-.13.2-.19.3,0,.01-.01.03-.02.04-.01.03-.03.05-.04.08-.03.07-.07.13-.1.2-.02.06-.04.12-.06.17-.01.04-.03.08-.04.11,0,.02-.02.05-.03.07-.04.12-.06.24-.08.36,0,.02-.01.05-.02.07,0,0,0,0,0,.01-.03.18-.04.35-.04.53v2.28c-.29.13-.57.28-.84.44-.09.05-.18.11-.27.17-.18.11-.36.22-.54.33-.11.07-.21.15-.31.22-.16.11-.31.22-.47.34-.02.02-.05.04-.07.05l-2.72-1.1c-.08-.03-.15-.06-.23-.08-.07-.02-.14-.02-.21-.03-.03,0-.06-.01-.1-.01-.02,0-.03,0-.05,0-.15,0-.3,0-.46.03-.1.02-.21.05-.31.08-.04.01-.08.03-.13.05,0,0,0,0,0,0,0,0,0,0-.01,0-.13.06-.26.13-.39.21-.04.03-.07.06-.11.08-.07.05-.14.09-.2.15-.02.02-.04.04-.06.06-.04.04-.08.08-.12.12-.04.04-.09.08-.13.13-.06.07-.11.14-.17.21l-.76,1.02s-.04.06-.06.09c-.07.1-.13.2-.19.3-.01.02-.02.04-.03.06-.02.03-.03.06-.04.09-.03.06-.06.11-.08.17-.03.07-.05.15-.08.22-.01.03-.02.06-.03.09,0,.01-.01.03-.02.04-.04.15-.08.29-.1.44,0,0,0,0,0,0-.03.2-.04.4-.04.6,0,.06,0,.12.01.18.01.14.03.27.06.4.01.06.03.13.05.19.04.13.09.24.14.36.03.05.05.1.08.15.09.16.2.3.33.43l1.38,1.35c-.1.21-.19.42-.29.64-.03.06-.05.12-.07.18-.05.13-.11.27-.16.4-.07.19-.14.37-.21.56-.05.14-.09.28-.14.41-.03.09-.06.17-.09.26-.02.06-.03.12-.04.18-.14.47-.26.95-.36,1.43l-1.95.37c-.12.02-.23.05-.34.09-.02,0-.05.02-.07.03,0,0-.02.01-.03.01-.05.02-.09.05-.14.07-.09.05-.19.09-.28.15-.05.03-.1.07-.15.11-.05.04-.11.07-.16.12-.03.02-.05.05-.07.07-.04.04-.09.08-.13.13-.03.04-.07.07-.11.11-.04.05-.08.1-.12.15-.02.03-.05.06-.07.09-.01.02-.03.03-.04.05-.07.1-.13.2-.19.3,0,.01-.01.03-.02.04-.01.03-.03.05-.04.08-.03.07-.07.13-.1.2-.02.06-.04.12-.06.17-.01.04-.03.08-.04.11,0,.02-.02.05-.02.07-.04.12-.06.24-.09.36,0,.02-.01.04-.02.07,0,0,0,0,0,0-.03.18-.04.35-.04.54v1.24c0,1.05.51,1.87,1.26,2.17l3.49,1.41c.24.66.52,1.28.85,1.86l-1.38,1.87s-.04.06-.06.09c-.07.1-.13.2-.19.3-.01.02-.02.04-.03.06-.02.03-.03.06-.04.09-.03.06-.06.11-.08.17-.03.07-.05.15-.08.22-.01.03-.02.06-.03.09,0,.01-.01.03-.02.04-.04.15-.08.29-.1.44,0,0,0,0,0,0-.03.2-.04.4-.04.6,0,.06,0,.12.01.18.01.14.03.27.06.4.01.06.03.13.05.19.04.13.09.24.14.36.03.05.05.1.08.15.09.16.2.3.33.43l.75.74c.18.17.38.3.59.39l4.67,1.88c-.21-.09-.41-.21-.59-.39l-.75-.74Z"/>
          </g>
          <path class="cls-19" d="m88.08,264.72c1.28-.24,2.31.77,2.31,2.26v1.24c0,1.5-1.04,2.9-2.32,3.14l-1.95.37c-.29,1.41-.75,2.78-1.36,4.06l1.38,1.34c.9.88.9,2.6,0,3.82l-.76,1.02c-.45.61-1.05.99-1.64,1.1s-1.18-.04-1.63-.48l-1.38-1.34c-1,.89-2.09,1.64-3.26,2.19v2.28c0,1.49-1.05,2.9-2.32,3.14l-1.07.2c-1.28.24-2.31-.77-2.31-2.26v-2.28c-1.16-.11-2.25-.44-3.25-.95l-1.38,1.87c-.45.61-1.05.99-1.64,1.1-.59.11-1.18-.04-1.63-.48l-.75-.74c-.9-.88-.9-2.59,0-3.82l1.38-1.87c-.6-1.05-1.06-2.25-1.34-3.55l-1.95.37c-1.28.24-2.31-.77-2.31-2.26v-1.24c0-1.49,1.04-2.89,2.32-3.14l1.95-.37c.29-1.41.75-2.78,1.36-4.06l-1.38-1.35c-.9-.88-.9-2.59,0-3.82l.76-1.02c.45-.61,1.05-.99,1.64-1.1.59-.11,1.18.04,1.63.48l1.38,1.35c1-.89,2.09-1.64,3.26-2.19v-2.28c0-1.49,1.05-2.9,2.32-3.14l1.07-.2c1.28-.24,2.31.77,2.31,2.26v2.28c1.15.11,2.25.44,3.25.95l1.38-1.87c.45-.61,1.05-.99,1.64-1.1.59-.11,1.18.04,1.63.48l.75.74c.9.88.9,2.6,0,3.82l-1.38,1.87c.6,1.05,1.06,2.25,1.34,3.55l1.95-.37Zm-13.45,14.04c3.86-.73,7-4.98,7.01-9.49s-3.11-7.57-6.98-6.83c-3.86.73-7,4.98-7,9.49s3.11,7.57,6.97,6.83"/>
        </g>
      </g>
      <g class="cls-13">
        <g>
          <path class="cls-21" d="m233.01,108.36c-1.36.16-2.72.31-4.08.46-.65-.4-1.24-.76-1.71-1.04l2.01.2c1.13.11,2.43.24,3.78.38Z"/>
          <path class="cls-21" d="m227.31,101.98c-.43,1-.53,2.12-.37,3.37-.45.27-.9.54-1.34.82l-.53.32c-.63-.37-1.25-.73-1.86-1.09l-1-.58c-.09-.05-.17-.1-.26-.15-.03-.02-.07-.04-.1-.06.09-.05.18-.1.26-.15l3.21-1.85c.36-.21.73-.42,1.09-.62.16-.09.27-.11.38-.11.21,0,.32.03.39.06l.13.05Z"/>
          <path class="cls-21" d="m229.62,103.12c.33.17.27.39.05.53-.35.23-.74.47-1.22.77-.12.07-.24.15-.36.22-.36.22-.74.45-1.11.68.3-1.04.75-1.99,1.35-2.84.39.19.84.41,1.29.64Z"/>
          <path class="cls-21" d="m234.55,100.76c.16.07.29.23.28.33-.05.89-.1,1.83-.16,2.8-1.44-.11-2.65-.2-2.99-.23-.06,0-.13-.01-.2-.02,0-.19-.07-.38-.15-.56l-.06-.16c-.29-.72-.56-1.42-.83-2.08l-.15-.38c.42-.33.89-.65,1.4-.94.99.43,1.93.82,2.86,1.24Z"/>
          <path class="cls-21" d="m231.57,95.41c.9.97.57,1.87-.35,2.71-.45.4-1,.78-1.54,1.17-.14-.12-.31-.22-.52-.32-.75-.34-1.42-.63-2.06-.91-.54-.23-1.08-.33-1.64-.3-.05,0-.09,0-.13.01.48-.33.98-.64,1.42-.97.28-.2.48-.44.59-.67.3-.63-.08-1.22-1.26-1.69-1.62-.64-3.37-.95-5.34-.77.14-.17.54-.33,1.15-.44,1.38-.24,2.83-.18,4.31.05,2.34.37,4.32,1,5.37,2.13Z"/>
          <path class="cls-21" d="m204.88,100.78c-1.13,1.36-.82,2.87.94,3.87,1.03.58,2.33.74,3.71.48,1.05-.19,2.16-.55,3.14-.82,0,0-.25-.17-.29-.19-.76-.53-.8-.95-.36-1.51l.93-1.47s.28.18.39.25c1.85,1.16,3.85,2.41,5.99,3.77.19.12.37.31.4.46.2,1.14.38,2.35.57,3.63,0,.06-.01.13-.03.3-1.43-1-2.71-1.88-3.87-2.69-1.18.41-2.23.84-3.39,1.16-5.41,1.46-9.3-.38-10.35-3.02-.45-1.13-.37-2.22.6-3.27.44-.47.92-.75,1.63-.94Z"/>
          <path class="cls-21" d="m214.73,98.19c1.17.64,2.27,1.24,3.42,1.87.7.38,1.41.78,2.15,1.19.36.2.34.27.31.37-.23.72-.52,1.52-.82,2.33l-.4-.25c-1.99-1.19-3.83-2.31-5.57-3.34-.24-.14-.29-.26-.17-.44.37-.57.7-1.13,1.08-1.74Z"/>
          <path class="cls-21" d="m221.23,100.51c-1.92-1.01-3.66-1.93-5.37-2.83l2.33-.28c1.03-.11,1.56-.04,2.41.35.02,0,1.79.87,1.79.87.28.13.36.23.18.41-.46.46-.87.95-1.35,1.48Z"/>
          <path class="cls-21" d="m223.57,98.12c-.78-.36-1.48-.69-2.25-1.05,1.23-.14,2.38-.28,3.55-.39.15-.01.37.08.63.14-.65.44-1.26.85-1.93,1.3Z"/>
        </g>
        <path class="cls-21" d="m226.93,105.35s0,.06.01.1c.01-.04.02-.08.04-.12l-.05.03Z"/>
        <path class="cls-21" d="m226.76,98.25c-.35-.15-.74-.25-1.17-.23-.13,0-.26.03-.38.05-.09.02-.16.04-.24.06-.61.18-1.72,1.34-1.92,1.55,0,0,0,0-.01.01,0,0,0,0-.01.01,0,0,0,0,0,0,0,0,0,0,0,0-.93,1.03-3.31,3.59-1.64,9.4.01.13.05.25.12.36.03.04.06.08.09.11.07.08.17.16.29.24,2.39,1.6,4.51,3.03,5.27,3.53.18.12.4.19.62.18l6.36-.1c.57,0,.65-.47.14-.79-2.57-1.59-7.85-4.85-8.47-5.22-.09-.05-.16-.12-.28-.2.15,0,.24,0,.34,0,2.39.23,12.85,1.26,15.67,1.54.37.04.61-.1.54-.31-.25-.8-.82-2.61-1.08-3.37-.07-.2-.44-.39-.82-.42-2.01-.16-7.61-.59-8.41-.65-.27-.02-.53-.04-.8-.07-.17-.02-.22-.07-.19-.15.1-.24.02-.49-.08-.74-.3-.78-.58-1.52-.86-2.24-.49.43-.92.88-1.3,1.36.48.23.97.47,1.45.71.58.29.66.72.22,1.01-.51.34-1.05.67-1.59,1.01-1.07.66-2.16,1.33-3.29,2.03-.16.1-.17.1-.37-.02-1.09-.65-2.14-1.27-3.16-1.87-.22-.13-.43-.25-.65-.38-.11-.07-.17-.13-.04-.2.24-.13,4.08-2.32,4.81-2.73.19-.11.41-.19.74-.19.28,0,.54.04.78.13.32-.64.79-1.23,1.42-1.77.15-.13.3-.25.46-.37-.1-.14-.28-.27-.52-.38-.69-.31-1.37-.62-2.05-.91Z"/>
      </g>
    </g>
  </g>
</svg>