<?xml version="1.0" encoding="utf-8"?>
<!-- Generator: Adobe Illustrator 18.1.1, SVG Export Plug-In . SVG Version: 6.00 Build 0)  -->
<svg version="1.1" id="Layer_1" xmlns="http://www.w3.org/2000/svg" xmlns:xlink="http://www.w3.org/1999/xlink" x="0px" y="0px"
	 viewBox="0 0 841.9 595.3" enable-background="new 0 0 841.9 595.3" xml:space="preserve">
<rect x="-1722.7" y="1.9" fill="#030C43" width="841.9" height="595.3"/>
<rect x="-861.9" width="841.9" height="595.3"/>
<g>
	<path fill="#8BC24A" d="M-745,311c-10.4,0-20.8,0-31.1,0c-7.8,0-11.2-2.7-11.1-8.7c0.1-5.8,3.5-8.4,10.9-8.4
		c18.3-0.1,36.6-0.2,54.9,0c4.6,0,6.3-1.2,5.4-6.1c-1.6-8.7-1.4-8.7-10.1-8.7c-2.3,0-4.6,0.1-6.8-0.3c-4.6-0.8-7-3.9-7.1-8.5
		c-0.1-4.3,3.4-8,7.9-8.4c3.3-0.3,6.7-0.3,10-0.1c3.2,0.1,4.7-0.9,5.3-4.3c1.8-10.8,3.6-10.5-8.8-10.5c-12.5,0-25,0-37.5-0.1
		c-4.3,0-7.4-2-8.6-6.4c-1-4.1,0.3-7.5,3.9-9.4c2.1-1.1,4.7-1.2,7.1-1.2c15.1-0.1,30.3-0.1,45.4-0.1c7,0,14-4.9,16.1-11.3
		c1.1-3.2-1.2-3.6-3.5-3.6c-7.9,0-15.8,0-23.7,0c-4.9,0-9.9,0.1-14.8,0c-5.8-0.1-9.4-3.3-9.6-8.3c-0.2-5,3.7-8.8,9.6-8.9
		c7.6-0.1,15.1,0,22.7,0c8.8,0,17.6-0.1,26.4,0c11.3,0.1,22.1-1,33.1-4.4c38.5-12,81.6,9.3,96.3,46.4c15.8,39.5-0.2,83.6-37.1,102.5
		c-21.9,11.2-44.4,12.1-67.4,3.7c-3.9-1.4-8.2-2.2-12.3-2.3c-11.2-0.3-22.5-0.1-33.8-0.2c-6.9-0.1-10.6-3-10.7-8.2
		c-0.1-5.5,3.8-8.9,10.6-9c3.7-0.1,7.4,0.1,11.1-0.1c2.9-0.1,3.7-1.6,2.2-4.2c-4-6.6-8-12.1-17.6-10.8
		C-726.6,311.9-735.9,311-745,311z M-670.3,294.5c3.6,3.2,6.6,5.9,9.6,8.6c2.2,2,4.1,1.8,6.4-0.1c22.7-18.3,45.5-36.5,68.4-54.7
		c2.5-2,2.5-3.5,1.1-6.2c-17.6-33.3-62.9-42.2-91.4-17.8c-20.5,17.5-27.5,45.7-17.2,69.3c11.1,25.5,35.7,39.9,63.3,36.6
		c15.4-1.9,28.2-9,38.5-21.4c-3-2.4-5.9-4.4-8.3-6.9c-3-2.9-5-2.7-8.2,0.2c-13.3,12.1-28.7,15.3-45.5,8.8
		c-16.2-6.3-25.5-18.7-27.4-35.7c-2-18.1,5.5-32.3,20.9-41.9c17.7-11,43.3-6.8,54.8,9.2C-626.6,259.5-648,276.6-670.3,294.5z"/>
	<path fill="#FFFFFF" d="M-465.9,236c-2.7,0.2-4.4,0.4-6.1,0.4c-9.5,0.1-19-0.1-28.5,0.1c-18.9,0.5-33.9,15.6-33.8,34.2
		c0.1,18.9,15.1,34,34.3,34.2c9.3,0.1,18.7,0,28,0.1c1.7,0,3.4,0.2,6.3,0.3c-1.8,8.7-3.3,16.9-5.3,25c-0.3,1.4-2.3,2.5-3.8,3.4
		c-25,16.4-52.8,24.5-82.2,27.9c-27.1,3.1-54.1,2.2-80.8-3.7c-1.9-0.4-3.9-1-5.7-1.8c52.3,3.7,92.5-36.6,93.8-83.5
		c1.2-44.2-34.1-88.8-89.7-88.3c2.6-0.6,5.2-1.4,7.9-1.9c43.5-7.3,86.3-5.3,127.8,10.8c9.9,3.9,19.3,9.3,28.6,14.5
		c2.3,1.3,4.3,4.6,5,7.3C-468.3,221.7-467.4,228.6-465.9,236z"/>
	<path fill="#8BC24A" d="M-497.4,189.2c-59.7-21.6-118.6-21.8-178.4-0.9c0.8-0.4,1.7-0.8,2.5-1.3c34.7-21,72.4-32.5,112.9-34.3
		c26.5-1.2,46.7,10.6,61.2,32.6C-498.5,186.3-498.2,187.4-497.4,189.2z"/>
	<path fill="#8BC24A" d="M-481,243.7c6.8,0,13.7,0.2,20.5-0.1c3.2-0.1,4.7,1.1,4.7,4.1c0.1,15.3,0.1,30.5,0.1,45.8
		c0,3.6-2,4.7-5.4,4.6c-13-0.1-26,0.1-39-0.1c-15.3-0.3-27.2-12.4-27-27.3c0.2-15.3,11.7-26.8,27.2-27
		C-493.6,243.6-487.3,243.7-481,243.7C-481,243.7-481,243.7-481,243.7z M-499.6,290.8c11.1,0.3,20.3-8.6,20.5-19.7
		c0.2-10.7-8.8-20-19.4-20.2c-11.3-0.2-20.3,8.5-20.4,19.6C-519.1,281.5-510.5,290.5-499.6,290.8z"/>
	<path fill="#8BC24A" d="M-736.9,343.1c-4.9-0.1-8.4-4-8.2-9c0.2-4.5,4.1-8.1,8.7-8c4.6,0.1,8.7,4.3,8.6,8.8
		C-728,339.6-732,343.2-736.9,343.1z"/>
	<path fill="#8BC24A" d="M-753.7,261.7c4.5,0,8.4,3.8,8.5,8.3c0.1,4.8-3.7,8.7-8.5,8.7c-4.8,0-8.7-4-8.5-8.8
		C-762.1,265.4-758.2,261.7-753.7,261.7z"/>
	<path fill="#8CC34B" d="M-701.8,275.1c0-37.5,30-67.7,67.3-67.6c38.1,0,68.5,30.2,68.6,67.9c0,37.3-30.7,68-68.2,68
		C-671.6,343.4-701.8,312.9-701.8,275.1z"/>
	<g>
		<path fill="#FFFFFF" d="M-630.1,280.6c-0.7-2-2.1-2.8-4.1-2.8c-7.8,0-15.6,0-23.5,0c-0.1,0.5-0.3,0.9-0.3,1.2c0,4.3,0,8.6,0,12.9
			c0,1.2,0.3,1.7,1.7,1.7c7.3,0,14.6,0,21.9,0c3,0,4.4-1.5,4.4-4.5c0.1-4.7,0-4.7,4.7-5.7c1.6-0.3,3.2-0.6,4.8-0.9
			c0.1,0.2,0.1,0.3,0.2,0.5c-3.9,4.1-7.7,8.2-11.8,12.5c2.1,2.4,4.7,5.4,7.3,8.4c2.9,3.3,5.7,6.6,8.6,9.8c1.2,1.4,1.1,2.5-0.4,3.6
			c-3.8,2.8-7.6,5.7-11.4,8.6c-1.4,1-2.4,0.6-3.4-0.5c-4.2-4.8-8.4-9.6-12.6-14.4c-4.2-4.9-8.5-9.7-12.7-14.6
			c-0.3-0.4-0.7-0.7-1.3-1.2c-0.1,0.7-0.1,1.2-0.1,1.6c-0.1,8.1-0.2,16.2-0.3,24.2c0,0.9-0.4,2.4-1,2.7c-0.8,0.3-2.1-0.1-2.9-0.7
			c-3.6-2.6-7.1-5.3-10.7-7.9c-1.1-0.8-1.6-1.7-1.6-3.1c0-5.5-0.1-11,0-16.4c0-0.8,0.4-1.8,0.9-2.5c9-11.7,19.7-21.5,33.5-27
			c6.2-2.4,12.8-3.8,19.3-5.6c0.9-0.3,1.9-0.1,2.9-0.1c2.7,0.2,4.4,1.8,4.5,4.7c0.1,2.9,0.1,5.9,0,8.8c-0.1,1.8-0.7,3-2.9,3.1
			c-2.3,0.2-4.6,0.7-6.9,1.3C-625.4,279-627.6,279.8-630.1,280.6z"/>
		<path fill="#FFFFFF" d="M-685.1,224.5c-1.4,1.1-2.7,2-3.8,3c-5.8,5.3-8.3,11.8-6.6,19.7c0.8,4,3.2,7,7,8.7
			c3.4,1.5,7.1,2.5,10.5,3.6c0.3-0.4,0.5-0.5,0.5-0.5c-0.2-4.6,2.2-7.2,6.2-8.9c2.3-1,4.5-2.5,7-3.8c0.1,0.7,0.2,1.1,0.2,1.4
			c0,9.4,0.1,18.8-0.1,28.2c0,1.3-0.7,2.9-1.6,4c-3.1,3.7-6.4,7.2-9.5,10.9c-0.4,0.5-0.6,1.1-1,1.7c-0.2-0.2-0.5-0.3-0.7-0.5
			c-0.1-0.5-0.2-0.9-0.2-1.4c0-3.9-0.1-7.8,0-11.7c0.1-1.7-0.7-2.2-2.2-2.5c-5.3-0.9-10.6-1.9-15.4-4.6c-8.9-5-13.4-14.3-11.9-24.4
			c1.2-7.6,3.9-14.3,10.1-19.2c2.8-2.2,5.8-4,9.6-3.7C-686.4,224.3-685.9,224.4-685.1,224.5z"/>
		<path fill="#FFFFFF" d="M-614.6,259.6c2.2-0.2,4-0.4,5.8-0.6c4.8-0.5,9.5-1.4,13.4-4.6c3-2.5,4.5-5.7,4.5-9.6
			c0.1-7.9-2.3-14.7-9-19.5c-0.1-0.1-0.2-0.3-0.7-0.8c1.2-0.1,2.2-0.3,3.2-0.2c4.3,0.4,7.8,2.6,10.6,5.7c6,6.6,8.9,14.5,8,23.3
			c-1,10-6.7,16.9-16.2,20.3c-5.4,2-11.1,2.6-16.7,2.7c0-3.1,0-6.1,0-9.1C-611.6,264.4-612,261.8-614.6,259.6z"/>
		<path fill="#FFFFFF" d="M-658.4,273c-0.1-0.7-0.1-1.2-0.1-1.7c0-8.7,0-17.3-0.1-26c0-1.9,0.6-3.1,2.4-4c3.4-1.8,6.8-3.8,10.5-5.9
			c0.1,0.9,0.2,1.5,0.2,2.1c0,8.4,0,16.8,0,25.2c0,1.9-0.6,3.1-2.3,4.1c-3,1.7-5.9,3.6-8.8,5.4C-657.2,272.4-657.7,272.6-658.4,273z
			"/>
		<path fill="#FFFFFF" d="M-639.7,262.4c0-9,0-17.8,0-27.3c3.9,2.5,7.5,4.6,10.8,7.2c1,0.8,1.6,2.7,1.7,4.2
			c0.2,3.4,0.1,6.9,0.1,10.3c0,1.2-0.5,1.9-1.7,2.2C-632.3,260-635.8,261.2-639.7,262.4z"/>
		<path fill="#FFFFFF" d="M-646.1,290.9c4.9-2,9.4-3.9,14.4-5.9c0,2.1,0.1,3.5,0,5c-0.1,1.4-1.1,1.8-2.3,1.9
			c-3.3,0.1-6.6,0.2-10,0.2c-3.6,0-7.2-0.1-10.7-0.1c-1.2,0-1.6-0.4-1.6-1.6c0.1-3.1,0-6.3,0-9.4c0-1.1,0.5-1.4,1.5-1.4
			c6.7,0,13.4,0,20.1,0c0.5,0,1-0.1,1.3,0.1c0.5,0.3,0.9,0.8,1.4,1.2c-0.3,0.4-0.6,0.9-1.1,1.2c-4,2.7-8,5.3-12.1,7.9
			C-645.3,290.1-645.6,290.4-646.1,290.9z"/>
		<path fill="#FFFFFF" d="M-629.9,295.5c4.2-4.4,8.2-8.6,12.4-12.7c0.7-0.7,2.1-0.8,3.2-0.9c5.8-0.7,5.4-0.7,5.9,5
			c0.4,4.9-1.2,7.9-5.7,9.8c-3,1.3-5.8,3.3-8.7,4.9c-0.5,0.3-1.4,0.3-1.7,0.1C-626.3,299.6-628.1,297.6-629.9,295.5z"/>
		<path fill="#FFFFFF" d="M-621,246.1c4.1,2.4,7.9,4.6,11.7,6.9c0.6,0.4,0.8,1.4,1.4,2.4c-4.6,0.5-8.7,1-13.1,1.6
			C-621,253.5-621,250.1-621,246.1z"/>
		<path fill="#FFFFFF" d="M-647.2,310.5c-2.8-1.6-5.6-3.2-8.4-4.8c-0.4-0.2-0.7-0.8-0.7-1.3c-0.1-1.5,0-2.9,0-4.4
			c0.2-0.1,0.3-0.1,0.5-0.2c3,3.4,6,6.9,9,10.3C-647,310.2-647.1,310.4-647.2,310.5z"/>
	</g>
	<text transform="matrix(1 0 0 1 -418.7098 245.6689)" fill="#8BC24A" font-family="'Days'" font-size="106.2514">REXX</text>
	<text transform="matrix(1 0 0 1 -411.3451 326.3069)" fill="#FFFFFF" font-family="'Days'" font-size="87.4728">VAULT</text>
</g>
<g>
	<path fill="#8BC24A" d="M138.6,351.1c-10.4,0-20.8,0-31.1,0c-7.8,0-11.2-2.7-11.1-8.7c0.1-5.8,3.5-8.4,10.9-8.4
		c18.3-0.1,36.6-0.2,54.9,0c4.6,0,6.3-1.2,5.4-6.1c-1.6-8.7-1.4-8.7-10.1-8.7c-2.3,0-4.6,0.1-6.8-0.3c-4.6-0.8-7-3.9-7.1-8.5
		c-0.1-4.3,3.4-8,7.9-8.4c3.3-0.3,6.7-0.3,10-0.1c3.2,0.1,4.7-0.9,5.3-4.3c1.8-10.8,3.6-10.5-8.8-10.5c-12.5,0-25,0-37.5-0.1
		c-4.3,0-7.4-2-8.6-6.4c-1-4.1,0.3-7.5,3.9-9.4c2.1-1.1,4.7-1.2,7.1-1.2c15.1-0.1,30.3-0.1,45.4-0.1c7,0,14-4.9,16.1-11.3
		c1.1-3.2-1.2-3.6-3.5-3.6c-7.9,0-15.8,0-23.7,0c-4.9,0-9.9,0.1-14.8,0c-5.8-0.1-9.4-3.3-9.6-8.3c-0.2-5,3.7-8.8,9.6-8.9
		c7.6-0.1,15.1,0,22.7,0c8.8,0,17.6-0.1,26.4,0c11.3,0.1,22.1-1,33.1-4.4c38.5-12,81.6,9.3,96.3,46.4c15.8,39.5-0.2,83.6-37.1,102.5
		c-21.9,11.2-44.4,12.1-67.4,3.7c-3.9-1.4-8.2-2.2-12.3-2.3c-11.2-0.3-22.5-0.1-33.8-0.2c-6.9-0.1-10.6-3-10.7-8.2
		c-0.1-5.5,3.8-8.9,10.6-9c3.7-0.1,7.4,0.1,11.1-0.1c2.9-0.1,3.7-1.6,2.2-4.2c-4-6.6-8-12.1-17.6-10.8
		C157,352.1,147.7,351.1,138.6,351.1z M213.4,334.6c3.6,3.2,6.6,5.9,9.6,8.6c2.2,2,4.1,1.8,6.4-0.1c22.7-18.3,45.5-36.5,68.4-54.7
		c2.5-2,2.5-3.5,1.1-6.2c-17.6-33.3-62.9-42.2-91.4-17.8c-20.5,17.5-27.5,45.7-17.2,69.3c11.1,25.5,35.7,39.9,63.3,36.6
		c15.4-1.9,28.2-9,38.5-21.4c-3-2.4-5.9-4.4-8.3-6.9c-3-2.9-5-2.7-8.2,0.2c-13.3,12.1-28.7,15.3-45.5,8.8
		c-16.2-6.3-25.5-18.7-27.4-35.7c-2-18.1,5.5-32.3,20.9-41.9c17.7-11,43.3-6.8,54.8,9.2C257,299.7,235.7,316.7,213.4,334.6z"/>
	<path fill="#FFFFFF" d="M417.7,276.2c-2.7,0.2-4.4,0.4-6.1,0.4c-9.5,0.1-19-0.1-28.5,0.1c-18.9,0.5-33.9,15.6-33.8,34.2
		c0.1,18.9,15.1,34,34.3,34.2c9.3,0.1,18.7,0,28,0.1c1.7,0,3.4,0.2,6.3,0.3c-1.8,8.7-3.3,16.9-5.3,25c-0.3,1.4-2.3,2.5-3.8,3.4
		c-25,16.4-52.8,24.5-82.2,27.9c-27.1,3.1-54.1,2.2-80.8-3.7c-1.9-0.4-3.9-1-5.7-1.8c52.3,3.7,92.5-36.6,93.8-83.5
		c1.2-44.2-34.1-88.8-89.7-88.3c2.6-0.6,5.2-1.4,7.9-1.9c43.5-7.3,86.3-5.3,127.8,10.8c9.9,3.9,19.3,9.3,28.6,14.5
		c2.3,1.3,4.3,4.6,5,7.3C415.3,261.9,416.3,268.8,417.7,276.2z"/>
	<path fill="#8BC24A" d="M386.2,229.4c-59.7-21.6-118.6-21.8-178.4-0.9c0.8-0.4,1.7-0.8,2.5-1.3c34.7-21,72.4-32.5,112.9-34.3
		c26.5-1.2,46.7,10.6,61.2,32.6C385.1,226.5,385.4,227.6,386.2,229.4z"/>
	<path fill="#8BC24A" d="M402.6,283.8c6.8,0,13.7,0.2,20.5-0.1c3.2-0.1,4.7,1.1,4.7,4.1c0.1,15.3,0.1,30.5,0.1,45.8
		c0,3.6-2,4.7-5.4,4.6c-13-0.1-26,0.1-39-0.1c-15.3-0.3-27.2-12.4-27-27.3c0.2-15.3,11.7-26.8,27.2-27
		C390,283.8,396.3,283.8,402.6,283.8C402.6,283.8,402.6,283.8,402.6,283.8z M384,330.9c11.1,0.3,20.3-8.6,20.5-19.7
		c0.2-10.7-8.8-20-19.4-20.2c-11.3-0.2-20.3,8.5-20.4,19.6C364.6,321.6,373.1,330.6,384,330.9z"/>
	<path fill="#8BC24A" d="M146.7,383.2c-4.9-0.1-8.4-4-8.2-9c0.2-4.5,4.1-8.1,8.7-8c4.6,0.1,8.7,4.3,8.6,8.8
		C155.7,379.7,151.6,383.3,146.7,383.2z"/>
	<path fill="#8BC24A" d="M129.9,301.9c4.5,0,8.4,3.8,8.5,8.3c0.1,4.8-3.7,8.7-8.5,8.7c-4.8,0-8.7-4-8.5-8.8
		C121.5,305.6,125.4,301.8,129.9,301.9z"/>
	<path fill="#8CC34B" d="M181.9,315.3c0-37.5,30-67.7,67.3-67.6c38.1,0,68.5,30.2,68.6,67.9c0,37.3-30.7,68-68.2,68
		C212,383.5,181.8,353.1,181.9,315.3z"/>
	<g>
		<path fill="#FFFFFF" d="M253.5,320.7c-0.7-2-2.1-2.8-4.1-2.8c-7.8,0-15.6,0-23.5,0c-0.1,0.5-0.3,0.9-0.3,1.2c0,4.3,0,8.6,0,12.9
			c0,1.2,0.3,1.7,1.7,1.7c7.3,0,14.6,0,21.9,0c3,0,4.4-1.5,4.4-4.5c0.1-4.7,0-4.7,4.7-5.7c1.6-0.3,3.2-0.6,4.8-0.9
			c0.1,0.2,0.1,0.3,0.2,0.5c-3.9,4.1-7.7,8.2-11.8,12.5c2.1,2.4,4.7,5.4,7.3,8.4c2.9,3.3,5.7,6.6,8.6,9.8c1.2,1.4,1.1,2.5-0.4,3.6
			c-3.8,2.8-7.6,5.7-11.4,8.6c-1.4,1-2.4,0.6-3.4-0.5c-4.2-4.8-8.4-9.6-12.6-14.4c-4.2-4.9-8.5-9.7-12.7-14.6
			c-0.3-0.4-0.7-0.7-1.3-1.2c-0.1,0.7-0.1,1.2-0.1,1.6c-0.1,8.1-0.2,16.2-0.3,24.2c0,0.9-0.4,2.4-1,2.7c-0.8,0.3-2.1-0.1-2.9-0.7
			c-3.6-2.6-7.1-5.3-10.7-7.9c-1.1-0.8-1.6-1.7-1.6-3.1c0-5.5-0.1-11,0-16.4c0-0.8,0.4-1.8,0.9-2.5c9-11.7,19.7-21.5,33.5-27
			c6.2-2.4,12.8-3.8,19.3-5.6c0.9-0.3,1.9-0.1,2.9-0.1c2.7,0.2,4.4,1.8,4.5,4.7c0.1,2.9,0.1,5.9,0,8.8c-0.1,1.8-0.7,3-2.9,3.1
			c-2.3,0.2-4.6,0.7-6.9,1.3C258.2,319.1,256,319.9,253.5,320.7z"/>
		<path fill="#FFFFFF" d="M198.6,264.7c-1.4,1.1-2.7,2-3.8,3c-5.8,5.3-8.3,11.8-6.6,19.7c0.8,4,3.2,7,7,8.7
			c3.4,1.5,7.1,2.5,10.5,3.6c0.3-0.4,0.5-0.5,0.5-0.5c-0.2-4.6,2.2-7.2,6.2-8.9c2.3-1,4.5-2.5,7-3.8c0.1,0.7,0.2,1.1,0.2,1.4
			c0,9.4,0.1,18.8-0.1,28.2c0,1.3-0.7,2.9-1.6,4c-3.1,3.7-6.4,7.2-9.5,10.9c-0.4,0.5-0.6,1.1-1,1.7c-0.2-0.2-0.5-0.3-0.7-0.5
			c-0.1-0.5-0.2-0.9-0.2-1.4c0-3.9-0.1-7.8,0-11.7c0.1-1.7-0.7-2.2-2.2-2.5c-5.3-0.9-10.6-1.9-15.4-4.6c-8.9-5-13.4-14.3-11.9-24.4
			c1.2-7.6,3.9-14.3,10.1-19.2c2.8-2.2,5.8-4,9.6-3.7C197.3,264.4,197.7,264.5,198.6,264.7z"/>
		<path fill="#FFFFFF" d="M269,299.7c2.2-0.2,4-0.4,5.8-0.6c4.8-0.5,9.5-1.4,13.4-4.6c3-2.5,4.5-5.7,4.5-9.6
			c0.1-7.9-2.3-14.7-9-19.5c-0.1-0.1-0.2-0.3-0.7-0.8c1.2-0.1,2.2-0.3,3.2-0.2c4.3,0.4,7.8,2.6,10.6,5.7c6,6.6,8.9,14.5,8,23.3
			c-1,10-6.7,16.9-16.2,20.3c-5.4,2-11.1,2.6-16.7,2.7c0-3.1,0-6.1,0-9.1C272,304.5,271.7,301.9,269,299.7z"/>
		<path fill="#FFFFFF" d="M225.2,313.1c-0.1-0.7-0.1-1.2-0.1-1.7c0-8.7,0-17.3-0.1-26c0-1.9,0.6-3.1,2.4-4c3.4-1.8,6.8-3.8,10.5-5.9
			c0.1,0.9,0.2,1.5,0.2,2.1c0,8.4,0,16.8,0,25.2c0,1.9-0.6,3.1-2.3,4.1c-3,1.7-5.9,3.6-8.8,5.4C226.4,312.5,225.9,312.8,225.2,313.1
			z"/>
		<path fill="#FFFFFF" d="M243.9,302.5c0-9,0-17.8,0-27.3c3.9,2.5,7.5,4.6,10.8,7.2c1,0.8,1.6,2.7,1.7,4.2c0.2,3.4,0.1,6.9,0.1,10.3
			c0,1.2-0.5,1.9-1.7,2.2C251.3,300.2,247.8,301.3,243.9,302.5z"/>
		<path fill="#FFFFFF" d="M237.5,331c4.9-2,9.4-3.9,14.4-5.9c0,2.1,0.1,3.5,0,5c-0.1,1.4-1.1,1.8-2.3,1.9c-3.3,0.1-6.6,0.2-10,0.2
			c-3.6,0-7.2-0.1-10.7-0.1c-1.2,0-1.6-0.4-1.6-1.6c0.1-3.1,0-6.3,0-9.4c0-1.1,0.5-1.4,1.5-1.4c6.7,0,13.4,0,20.1,0
			c0.5,0,1-0.1,1.3,0.1c0.5,0.3,0.9,0.8,1.4,1.2c-0.3,0.4-0.6,0.9-1.1,1.2c-4,2.7-8,5.3-12.1,7.9C238.3,330.2,238.1,330.5,237.5,331
			z"/>
		<path fill="#FFFFFF" d="M253.7,335.6c4.2-4.4,8.2-8.6,12.4-12.7c0.7-0.7,2.1-0.8,3.2-0.9c5.8-0.7,5.4-0.7,5.9,5
			c0.4,4.9-1.2,7.9-5.7,9.8c-3,1.3-5.8,3.3-8.7,4.9c-0.5,0.3-1.4,0.3-1.7,0.1C257.3,339.8,255.5,337.7,253.7,335.6z"/>
		<path fill="#FFFFFF" d="M262.6,286.3c4.1,2.4,7.9,4.6,11.7,6.9c0.6,0.4,0.8,1.4,1.4,2.4c-4.6,0.5-8.7,1-13.1,1.6
			C262.6,293.6,262.6,290.2,262.6,286.3z"/>
		<path fill="#FFFFFF" d="M236.4,350.6c-2.8-1.6-5.6-3.2-8.4-4.8c-0.4-0.2-0.7-0.8-0.7-1.3c-0.1-1.5,0-2.9,0-4.4
			c0.2-0.1,0.3-0.1,0.5-0.2c3,3.4,6,6.9,9,10.3C236.7,350.4,236.5,350.5,236.4,350.6z"/>
	</g>
	<text transform="matrix(1 0 0 1 464.9035 285.8098)" fill="#8BC24A" font-family="'Days'" font-size="106.2514">REXX</text>
	<text transform="matrix(1 0 0 1 472.2682 366.4477)" fill="#FFFFFF" font-family="'Days'" font-size="87.4728">VAULT</text>
</g>
<g>
	<path fill="#8BC24A" d="M-1605.6,363.4c-10.4,0-20.8,0-31.1,0c-7.8,0-11.2-2.7-11.1-8.7c0.1-5.8,3.5-8.4,10.9-8.4
		c18.3-0.1,36.6-0.2,54.9,0c4.6,0,6.3-1.2,5.4-6.1c-1.6-8.7-1.4-8.7-10.1-8.7c-2.3,0-4.6,0.1-6.8-0.3c-4.6-0.8-7-3.9-7.1-8.5
		c-0.1-4.3,3.4-8,7.9-8.4c3.3-0.3,6.7-0.3,10-0.1c3.2,0.1,4.7-0.9,5.3-4.3c1.8-10.8,3.6-10.5-8.8-10.5c-12.5,0-25,0-37.5-0.1
		c-4.3,0-7.4-2-8.6-6.4c-1-4.1,0.3-7.5,3.9-9.4c2.1-1.1,4.7-1.2,7.1-1.2c15.1-0.1,30.3-0.1,45.4-0.1c7,0,14-4.9,16.1-11.3
		c1.1-3.2-1.2-3.6-3.5-3.6c-7.9,0-15.8,0-23.7,0c-4.9,0-9.9,0.1-14.8,0c-5.8-0.1-9.4-3.3-9.6-8.3c-0.2-5,3.7-8.8,9.6-8.9
		c7.6-0.1,15.1,0,22.7,0c8.8,0,17.6-0.1,26.4,0c11.3,0.1,22.1-1,33.1-4.4c38.5-12,81.6,9.3,96.3,46.4c15.8,39.5-0.2,83.6-37.1,102.5
		c-21.9,11.2-44.4,12.1-67.4,3.7c-3.9-1.4-8.2-2.2-12.3-2.3c-11.2-0.3-22.5-0.1-33.8-0.2c-6.9-0.1-10.6-3-10.7-8.2
		c-0.1-5.5,3.8-8.9,10.6-9c3.7-0.1,7.4,0.1,11.1-0.1c2.9-0.1,3.7-1.6,2.2-4.2c-4-6.6-8-12.1-17.6-10.8
		C-1587.2,364.3-1596.5,363.4-1605.6,363.4z M-1530.9,346.8c3.6,3.2,6.6,5.9,9.6,8.6c2.2,2,4.1,1.8,6.4-0.1
		c22.7-18.3,45.5-36.5,68.4-54.7c2.5-2,2.5-3.5,1.1-6.2c-17.6-33.3-62.9-42.2-91.4-17.8c-20.5,17.5-27.5,45.7-17.2,69.3
		c11.1,25.5,35.7,39.9,63.3,36.6c15.4-1.9,28.2-9,38.5-21.4c-3-2.4-5.9-4.4-8.3-6.9c-3-2.9-5-2.7-8.2,0.2
		c-13.3,12.1-28.7,15.3-45.5,8.8c-16.2-6.3-25.5-18.7-27.4-35.7c-2-18.1,5.5-32.3,20.9-41.9c17.7-11,43.3-6.8,54.8,9.2
		C-1487.2,311.9-1508.5,329-1530.9,346.8z"/>
	<path fill="#FFFFFF" d="M-1326.5,288.4c-2.7,0.2-4.4,0.4-6.1,0.4c-9.5,0.1-19-0.1-28.5,0.1c-18.9,0.5-33.9,15.6-33.8,34.2
		c0.1,18.9,15.1,34,34.3,34.2c9.3,0.1,18.7,0,28,0.1c1.7,0,3.4,0.2,6.3,0.3c-1.8,8.7-3.3,16.9-5.3,25c-0.3,1.4-2.3,2.5-3.8,3.4
		c-25,16.4-52.8,24.5-82.2,27.9c-27.1,3.1-54.1,2.2-80.8-3.7c-1.9-0.4-3.9-1-5.7-1.8c52.3,3.7,92.5-36.6,93.8-83.5
		c1.2-44.2-34.1-88.8-89.7-88.3c2.6-0.6,5.2-1.4,7.9-1.9c43.5-7.3,86.3-5.3,127.8,10.8c9.9,3.9,19.3,9.3,28.6,14.5
		c2.3,1.3,4.3,4.6,5,7.3C-1328.9,274.1-1327.9,281-1326.5,288.4z"/>
	<path fill="#8BC24A" d="M-1358,241.6c-59.7-21.6-118.6-21.8-178.4-0.9c0.8-0.4,1.7-0.8,2.5-1.3c34.7-21,72.4-32.5,112.9-34.3
		c26.5-1.2,46.7,10.6,61.2,32.6C-1359.1,238.7-1358.8,239.8-1358,241.6z"/>
	<path fill="#8BC24A" d="M-1341.6,296c6.8,0,13.7,0.2,20.5-0.1c3.2-0.1,4.7,1.1,4.7,4.1c0.1,15.3,0.1,30.5,0.1,45.8
		c0,3.6-2,4.7-5.4,4.6c-13-0.1-26,0.1-39-0.1c-15.3-0.3-27.2-12.4-27-27.3c0.2-15.3,11.7-26.8,27.2-27
		C-1354.2,296-1347.9,296.1-1341.6,296C-1341.6,296.1-1341.6,296.1-1341.6,296z M-1360.2,343.1c11.1,0.3,20.3-8.6,20.5-19.7
		c0.2-10.7-8.8-20-19.4-20.2c-11.3-0.2-20.3,8.5-20.4,19.6C-1379.7,333.9-1371.1,342.8-1360.2,343.1z"/>
	<path fill="#8BC24A" d="M-1597.5,395.5c-4.9-0.1-8.4-4-8.2-9c0.2-4.5,4.1-8.1,8.7-8c4.6,0.1,8.7,4.3,8.6,8.8
		C-1588.5,391.9-1592.6,395.6-1597.5,395.5z"/>
	<path fill="#8BC24A" d="M-1614.3,314.1c4.5,0,8.4,3.8,8.5,8.3c0.1,4.8-3.7,8.7-8.5,8.7c-4.8,0-8.7-4-8.5-8.8
		C-1622.7,317.8-1618.8,314.1-1614.3,314.1z"/>
	<path fill="#8CC34B" d="M-1562.4,327.5c0-37.5,30-67.7,67.3-67.6c38.1,0,68.5,30.2,68.6,67.9c0,37.3-30.7,68-68.2,68
		C-1532.2,395.8-1562.4,365.3-1562.4,327.5z"/>
	<g>
		<path fill="#FFFFFF" d="M-1490.7,333c-0.7-2-2.1-2.8-4.1-2.8c-7.8,0-15.6,0-23.5,0c-0.1,0.5-0.3,0.9-0.3,1.2c0,4.3,0,8.6,0,12.9
			c0,1.2,0.3,1.7,1.7,1.7c7.3,0,14.6,0,21.9,0c3,0,4.4-1.5,4.4-4.5c0.1-4.7,0-4.7,4.7-5.7c1.6-0.3,3.2-0.6,4.8-0.9
			c0.1,0.2,0.1,0.3,0.2,0.5c-3.9,4.1-7.7,8.2-11.8,12.5c2.1,2.4,4.7,5.4,7.3,8.4c2.9,3.3,5.7,6.6,8.6,9.8c1.2,1.4,1.1,2.5-0.4,3.6
			c-3.8,2.8-7.6,5.7-11.4,8.6c-1.4,1-2.4,0.6-3.4-0.5c-4.2-4.8-8.4-9.6-12.6-14.4c-4.2-4.9-8.5-9.7-12.7-14.6
			c-0.3-0.4-0.7-0.7-1.3-1.2c-0.1,0.7-0.1,1.2-0.1,1.6c-0.1,8.1-0.2,16.2-0.3,24.2c0,0.9-0.4,2.4-1,2.7c-0.8,0.3-2.1-0.1-2.9-0.7
			c-3.6-2.6-7.1-5.3-10.7-7.9c-1.1-0.8-1.6-1.7-1.6-3.1c0-5.5-0.1-11,0-16.4c0-0.8,0.4-1.8,0.9-2.5c9-11.7,19.7-21.5,33.5-27
			c6.2-2.4,12.8-3.8,19.3-5.6c0.9-0.3,1.9-0.1,2.9-0.1c2.7,0.2,4.4,1.8,4.5,4.7c0.1,2.9,0.1,5.9,0,8.8c-0.1,1.8-0.7,3-2.9,3.1
			c-2.3,0.2-4.6,0.7-6.9,1.3C-1486,331.3-1488.2,332.2-1490.7,333z"/>
		<path fill="#FFFFFF" d="M-1545.7,276.9c-1.4,1.1-2.7,2-3.8,3c-5.8,5.3-8.3,11.8-6.6,19.7c0.8,4,3.2,7,7,8.7
			c3.4,1.5,7.1,2.5,10.5,3.6c0.3-0.4,0.5-0.5,0.5-0.5c-0.2-4.6,2.2-7.2,6.2-8.9c2.3-1,4.5-2.5,7-3.8c0.1,0.7,0.2,1.1,0.2,1.4
			c0,9.4,0.1,18.8-0.1,28.2c0,1.3-0.7,2.9-1.6,4c-3.1,3.7-6.4,7.2-9.5,10.9c-0.4,0.5-0.6,1.1-1,1.7c-0.2-0.2-0.5-0.3-0.7-0.5
			c-0.1-0.5-0.2-0.9-0.2-1.4c0-3.9-0.1-7.8,0-11.7c0.1-1.7-0.7-2.2-2.2-2.5c-5.3-0.9-10.6-1.9-15.4-4.6c-8.9-5-13.4-14.3-11.9-24.4
			c1.2-7.6,3.9-14.3,10.1-19.2c2.8-2.2,5.8-4,9.6-3.7C-1547,276.6-1546.5,276.8-1545.7,276.9z"/>
		<path fill="#FFFFFF" d="M-1475.2,311.9c2.2-0.2,4-0.4,5.8-0.6c4.8-0.5,9.5-1.4,13.4-4.6c3-2.5,4.5-5.7,4.5-9.6
			c0.1-7.9-2.3-14.7-9-19.5c-0.1-0.1-0.2-0.3-0.7-0.8c1.2-0.1,2.2-0.3,3.2-0.2c4.3,0.4,7.8,2.6,10.6,5.7c6,6.6,8.9,14.5,8,23.3
			c-1,10-6.7,16.9-16.2,20.3c-5.4,2-11.1,2.6-16.7,2.7c0-3.1,0-6.1,0-9.1C-1472.2,316.8-1472.6,314.2-1475.2,311.9z"/>
		<path fill="#FFFFFF" d="M-1519,325.3c-0.1-0.7-0.1-1.2-0.1-1.7c0-8.7,0-17.3-0.1-26c0-1.9,0.6-3.1,2.4-4c3.4-1.8,6.8-3.8,10.5-5.9
			c0.1,0.9,0.2,1.5,0.2,2.1c0,8.4,0,16.8,0,25.2c0,1.9-0.6,3.1-2.3,4.1c-3,1.7-5.9,3.6-8.8,5.4C-1517.8,324.8-1518.3,325-1519,325.3
			z"/>
		<path fill="#FFFFFF" d="M-1500.3,314.7c0-9,0-17.8,0-27.3c3.9,2.5,7.5,4.6,10.8,7.2c1,0.8,1.6,2.7,1.7,4.2
			c0.2,3.4,0.1,6.9,0.1,10.3c0,1.2-0.5,1.9-1.7,2.2C-1492.9,312.4-1496.4,313.5-1500.3,314.7z"/>
		<path fill="#FFFFFF" d="M-1506.7,343.3c4.9-2,9.4-3.9,14.4-5.9c0,2.1,0.1,3.5,0,5c-0.1,1.4-1.1,1.8-2.3,1.9
			c-3.3,0.1-6.6,0.2-10,0.2c-3.6,0-7.2-0.1-10.7-0.1c-1.2,0-1.6-0.4-1.6-1.6c0.1-3.1,0-6.3,0-9.4c0-1.1,0.5-1.4,1.5-1.4
			c6.7,0,13.4,0,20.1,0c0.5,0,1-0.1,1.3,0.1c0.5,0.3,0.9,0.8,1.4,1.2c-0.3,0.4-0.6,0.9-1.1,1.2c-4,2.7-8,5.3-12.1,7.9
			C-1505.9,342.5-1506.1,342.8-1506.7,343.3z"/>
		<path fill="#FFFFFF" d="M-1490.5,347.9c4.2-4.4,8.2-8.6,12.4-12.7c0.7-0.7,2.1-0.8,3.2-0.9c5.8-0.7,5.4-0.7,5.9,5
			c0.4,4.9-1.2,7.9-5.7,9.8c-3,1.3-5.8,3.3-8.7,4.9c-0.5,0.3-1.4,0.3-1.7,0.1C-1486.9,352-1488.7,349.9-1490.5,347.9z"/>
		<path fill="#FFFFFF" d="M-1481.6,298.5c4.1,2.4,7.9,4.6,11.7,6.9c0.6,0.4,0.8,1.4,1.4,2.4c-4.6,0.5-8.7,1-13.1,1.6
			C-1481.6,305.8-1481.6,302.4-1481.6,298.5z"/>
		<path fill="#FFFFFF" d="M-1507.8,362.9c-2.8-1.6-5.6-3.2-8.4-4.8c-0.4-0.2-0.7-0.8-0.7-1.3c-0.1-1.5,0-2.9,0-4.4
			c0.2-0.1,0.3-0.1,0.5-0.2c3,3.4,6,6.9,9,10.3C-1507.6,362.6-1507.7,362.7-1507.8,362.9z"/>
	</g>
	<text transform="matrix(1 0 0 1 -1279.3059 298.042)" fill="#8BC24A" font-family="'Days'" font-size="106.2514">REXX</text>
	<text transform="matrix(1 0 0 1 -1271.9413 378.6799)" fill="#FFFFFF" font-family="'Days'" font-size="87.4728">VAULT</text>
</g>
</svg>
