<?xml version="1.0" encoding="utf-8"?>
<!-- Generator: Adobe Illustrator 18.1.1, SVG Export Plug-In . SVG Version: 6.00 Build 0)  -->
<svg version="1.1" id="Layer_1" xmlns="http://www.w3.org/2000/svg" xmlns:xlink="http://www.w3.org/1999/xlink" x="0px" y="0px"
	 viewBox="0 0 960 558" enable-background="new 0 0 960 558" xml:space="preserve">
<rect x="980" fill="#030C43" width="960" height="558"/>
<rect width="960" height="558"/>
<g>
	<polygon opacity="0.5" fill="#6941BE" points="-639.8,173.6 -505.4,266.8 -367.2,169.1 -405.1,256.9 -472.3,273.7 -505.4,308 
		-529.4,277.2 -567.5,255 -605.9,257.5 -643.5,186.1 	"/>
	<path fill="#6941BE" d="M-409.8,178c0,0,31.8-1.9,34.4,0c2.6,1.9,5.2,0.6-3.9,16.9s-30.4,61.1-30.4,61.1s-7,3.3-22.9-25.3
		l-19.5,15.6l6.5,6.5l13.6-9.7c2.7,5.5,5.3,11.1,8,16.6c2.2,4.5-0.6,16.2,3,19.4c4,3.5,33.5-11.2,39-14.7
		c11.2-6.9,21.4-15.6,29.1-26.4c15.2-21.3,19.5-52.8,1.4-73.5c-0.9-1-1.8-1.9-2.8-2.8c-2.7-2.4-5.6-4.4-8.6-6.3
		c-4.6-2.7-9.5-4.9-14.6-6.6c-6.7-2.1-13.6-3.3-20.6-3.7c-6.8-0.3-15.3-0.9-21.6,1.1c-0.5,1.3-0.1,2.7-0.6,3.9L-409.8,178z"/>
	<path fill="#6941BE" d="M-429.3,294.9V373C-429.3,373-524.8,351.3-429.3,294.9z"/>
	<path fill="#9548EE" d="M-414.9,146.2c4.6,4,5.8,31.9,5.2,31.9c0,0-46.8,0-46.8,0s-9.1,1.9,0,13s11,16.2,11,16.2l-41.6,27.9v-62.4
		c19.6-8.8,39.4-17.5,59.8-24.4c3.4-1.2,7-2.2,10.5-2.7c0.4-0.1,0.9-0.1,1.3,0.1C-415.3,145.9-415.1,146-414.9,146.2z"/>
	<path fill="#9548EE" d="M-502,294.9c12.3-27.8,50-48.6,50-48.6l6.5,6.5l13.6-9.7c5,8,9.9,16.1,14.7,24.2c1.3,2.3,6.8,10.4,6.8,10.4
		s-14.5,6.3-17,7.5c-5.3,2.5-10.5,5.3-15.7,8.2c-9.8,5.6-19.4,12-26.1,21.1c-6.7,9-10.2,21.2-6.6,31.8c-0.8-2.4-2.8-4.4-4.2-6.4
		c-1.9-2.9-3.4-6.1-4.4-9.4c-3.3-11-0.7-22.4,5-32.1c3.5-6,8-11.4,13-16.3c0,0-26,7.7-32.5,33.1c0,0-0.6,11.1,5.2,16.9
		S-514.4,322.7-502,294.9"/>
	<g>
		<path fill="#6941BE" d="M-600.9,178c0,0-31.8-1.9-34.4,0c-2.6,1.9-5.2,0.6,3.9,16.9c9.1,16.2,30.4,61.1,30.4,61.1s7,3.3,22.9-25.3
			l19.5,15.6l-6.5,6.5l-13.6-9.7c-2.7,5.5-5.3,11.1-8,16.6c-2.2,4.5,0.6,16.2-3,19.4c-4,3.5-33.5-11.2-39-14.7
			c-11.2-6.9-21.4-15.6-29.1-26.4c-15.2-21.3-19.5-52.8-1.4-73.5c0.9-1,1.8-1.9,2.8-2.8c2.7-2.4,5.6-4.4,8.6-6.3
			c4.6-2.7,9.5-4.9,14.6-6.6c6.7-2.1,13.6-3.3,20.6-3.7c6.8-0.3,15.3-0.9,21.6,1.1c0.5,1.3,0.1,2.7,0.6,3.9L-600.9,178z"/>
		<path fill="#6941BE" d="M-581.4,294.9V373C-581.4,373-485.9,351.3-581.4,294.9z"/>
		<path fill="#9548EE" d="M-595.8,146.2c-4.6,4-5.8,31.9-5.2,31.9c0,0,46.8,0,46.8,0s9.1,1.9,0,13c-9.1,11-11,16.2-11,16.2
			l41.6,27.9v-62.4c-19.6-8.8-39.4-17.5-59.8-24.4c-3.4-1.2-7-2.2-10.5-2.7c-0.4-0.1-0.9-0.1-1.3,0.1
			C-595.4,145.9-595.6,146-595.8,146.2z"/>
		<path fill="#9548EE" d="M-508.7,294.9c-12.3-27.8-50-48.6-50-48.6l-6.5,6.5l-13.6-9.7c-5,8-9.9,16.1-14.7,24.2
			c-1.3,2.3-6.8,10.4-6.8,10.4s14.5,6.3,17,7.5c5.3,2.5,10.5,5.3,15.7,8.2c9.8,5.6,19.4,12,26.1,21.1c6.7,9,10.2,21.2,6.6,31.8
			c0.8-2.4,2.8-4.4,4.2-6.4c1.9-2.9,3.4-6.1,4.4-9.4c3.3-11,0.7-22.4-5-32.1c-3.5-6-8-11.4-13-16.3c0,0,26,7.7,32.5,33.1
			c0,0,0.6,11.1-5.2,16.9C-523,337.9-496.3,322.7-508.7,294.9"/>
	</g>
	<path fill="#9548EE" d="M-648.5,448.5c-7.6,0-15.1,0-22.7,0c-1.7,0-2.2-0.4-2.2-2.2c0.1-14.3,0.1-28.6,0-42.8c0-1.6,0.4-2.1,2-2.1
		c15.3,0.1,30.6,0.1,45.9,0c1.7,0,2.3,0.5,2.2,2.2c-0.1,2.2-0.2,4.4,0,6.5c0.1,1.9-0.6,2.3-2.4,2.3c-11.3-0.1-22.7,0-34,0
		c-2.7,0-2.7,0-2.7,2.7c0,4.4,0,4.4,4.3,4.4c9.9,0,19.9,0,29.8,0c1.9,0,2.7,0.4,2.5,2.4c-0.2,2.2-0.1,4.4,0,6.5
		c0.1,1.6-0.6,2.1-2.1,2c-10.7-0.1-21.4,0-32.1-0.1c-1.9,0-2.5,0.5-2.5,2.5c0.1,4.6,0,4.6,4.7,4.6c10.6,0,21.3,0,31.9,0
		c2.5,0,2.5,0,2.5,2.6c0,2.2-0.1,4.4,0,6.5c0.1,1.4-0.5,1.9-1.9,1.9C-633,448.5-640.8,448.5-648.5,448.5z"/>
	<path fill="#9548EE" d="M-694.7,433.7c4.2,4.8,8.5,9.5,13,14.6c-0.9,0.1-1.5,0.2-2,0.2c-3.7,0-7.4,0.1-11.1,0c-0.9,0-2-0.4-2.5-1
		c-7.2-7.9-14.2-16-21.3-24c-0.2-0.3-0.4-0.6-0.8-1.2c1-0.1,1.7-0.1,2.5-0.1c7.9,0,15.9,0,23.8,0c1.7,0,3.2,0,4-1.9
		c0.8-2.2,0.5-5.9-0.8-6.9c-0.6-0.4-1.4-0.8-2.1-0.8c-10.9,0-21.8,0-32.7,0c-0.2,0-0.4,0.1-0.7,0.2c0,0.7-0.1,1.4-0.1,2.2
		c0,10.4-0.1,20.9,0,31.3c0,1.9-0.6,2.4-2.4,2.3c-2.3-0.1-4.6-0.1-6.9,0c-1.2,0-1.7-0.4-1.7-1.6c0-14.6,0-29.2,0-43.8
		c0-1.7,1-1.6,2.1-1.6c12.9,0,25.7,0,38.6,0c1.5,0,3.1,0,4.6,0c4.7-0.1,8.2,2,10.7,5.9c3.8,6,3.6,15.1-0.6,20.7
		c-2.5,3.3-5.7,5-9.9,5c-1.2,0-2.4,0-3.6,0C-694.6,433.3-694.6,433.5-694.7,433.7z"/>
	<path fill="#9548EE" d="M-400.5,430.4c0-5.1-0.1-10.1,0-15.2c0.1-4.8,2-8.8,6-11.5c1.9-1.2,4.4-2.1,6.6-2.1
		c10.7-0.2,21.4-0.2,32.1-0.1c6.7,0.1,12.4,5.7,12.6,12.8c0.3,10.9,0.1,21.8,0.1,32.7c0,1.1-0.4,1.5-1.5,1.5c-2.6,0-5.3-0.1-7.9,0
		c-1.3,0-1.6-0.6-1.6-1.7c0-3.7,0-7.4,0-11.1c0-1.6-0.5-2.1-2.1-2.1c-8.1,0.1-16.3,0-24.4,0.1c-1.8,0-2.4-0.5-2.3-2.3
		c0.1-2.2,0.1-4.4,0-6.5c-0.1-1.7,0.5-2.2,2.2-2.2c7.9,0.1,15.9,0,23.8,0c2.7,0,2.7,0,2.7-2.8c0-1.6,0-3.2-0.1-4.8
		c-0.1-1.7-1.1-2.6-2.8-2.6c-9.9,0-19.9,0-29.8,0c-1.6,0-2.5,0.9-2.7,2.4c-0.1,0.9-0.1,1.8-0.1,2.7c0,9.5,0,19.1,0,28.6
		c0,1.7-0.5,2.4-2.3,2.3c-2.2-0.1-4.5-0.1-6.7,0c-1.5,0.1-2-0.5-2-2C-400.5,441.2-400.5,435.8-400.5,430.4
		C-400.5,430.4-400.5,430.4-400.5,430.4z"/>
	<path fill="#9548EE" d="M-439.2,401.5c6.5,0,13.1,0,19.6,0c8.3,0,13.5,4.3,14.8,12.5c0.9,5.3,0,10.2-3.4,14.5
		c-2.5,3.1-5.7,4.7-9.7,4.7c-10.6,0-21.3,0-31.9,0c-2.5,0-2.5,0-2.5,2.6c0,3.6,0,7.3,0,10.9c0,1.4-0.4,2-1.9,1.9
		c-2.4-0.1-4.9-0.1-7.3,0c-1.3,0-1.9-0.3-1.9-1.7c0-14.5,0-29.1,0-43.6c0-1.6,0.8-1.7,2-1.7C-453.9,401.5-446.6,401.5-439.2,401.5z
		 M-434.7,422.2c5.1,0,10.2,0,15.4,0c1.7,0,3-0.2,3.5-2.2c0.7-2.8,0.2-6.4-1.3-7.2c-0.4-0.2-1-0.3-1.5-0.3c-10.8,0-21.5,0-32.3,0
		c-1.2,0-1.5,0.6-1.5,1.7c0,2,0.1,4,0,6c-0.1,1.6,0.4,2.1,2.1,2.1C-445.1,422.1-439.9,422.2-434.7,422.2z"/>
	<path fill="#9548EE" d="M-565.3,448.5c0.8-1.1,1.2-1.7,1.7-2.3c5.5-6.7,11-13.4,16.6-20c1.1-1.2,1-2,0-3.3
		c-5.4-6.4-10.7-12.9-16.1-19.4c-0.4-0.5-0.9-1.1-1.5-1.9c0.8-0.1,1.4-0.2,1.9-0.2c3.5,0,7-0.1,10.6,0c0.9,0,2,0.6,2.6,1.2
		c3.3,3.8,6.5,7.7,9.7,11.7c1.1,1.4,1.7,1.2,2.7,0c3.1-3.9,6.3-7.8,9.5-11.6c0.6-0.7,1.8-1.3,2.7-1.3c4-0.1,7.9-0.1,12.4-0.1
		c-0.6,0.9-1,1.4-1.4,1.9c-5.3,6.5-10.6,13-16,19.4c-1.2,1.4-1.3,2.3,0,3.7c5.5,6.5,11,13.2,16.4,19.8c0.4,0.5,0.8,1.1,1.5,1.9
		c-0.9,0.1-1.4,0.2-1.9,0.2c-3.5,0-6.9,0.1-10.4-0.1c-0.9,0-2.1-0.6-2.7-1.3c-3.4-3.9-6.6-7.8-9.9-11.8c-1.6-2-1.6-2-3.2-0.1
		c-3.3,3.9-6.5,7.9-9.9,11.8c-0.7,0.7-1.9,1.3-2.9,1.4C-556.9,448.6-560.8,448.5-565.3,448.5z"/>
	<path fill="#9548EE" d="M-620.8,448.5c0.8-1.1,1.2-1.7,1.7-2.3c5.5-6.7,11-13.4,16.6-20c1.1-1.2,1-2,0-3.3
		c-5.4-6.4-10.7-12.9-16.1-19.4c-0.4-0.5-0.9-1.1-1.5-1.9c0.8-0.1,1.4-0.2,1.9-0.2c3.5,0,7-0.1,10.6,0c0.9,0,2,0.6,2.6,1.2
		c3.3,3.8,6.5,7.7,9.7,11.7c1.1,1.4,1.7,1.2,2.7,0c3.1-3.9,6.3-7.8,9.5-11.6c0.6-0.7,1.8-1.3,2.7-1.3c4-0.1,7.9-0.1,12.4-0.1
		c-0.6,0.9-1,1.4-1.4,1.9c-5.3,6.5-10.6,13-16,19.4c-1.2,1.4-1.3,2.3,0,3.7c5.5,6.5,11,13.2,16.4,19.8c0.4,0.5,0.8,1.1,1.5,1.9
		c-0.9,0.1-1.4,0.2-1.9,0.2c-3.5,0-6.9,0.1-10.4-0.1c-0.9,0-2.1-0.6-2.7-1.3c-3.4-3.9-6.6-7.8-9.9-11.8c-1.6-2-1.6-2-3.2-0.1
		c-3.3,3.9-6.5,7.9-9.9,11.8c-0.7,0.7-1.9,1.3-2.9,1.4C-612.4,448.6-616.3,448.5-620.8,448.5z"/>
	<path fill="#9548EE" d="M-309.5,419.6c4.7,0,9.3,0,14,0c2.9,0,3.6-0.7,3.7-3.6c0.1-4.1,0.1-8.2,0-12.3c0-1.7,0.5-2.3,2.2-2.2
		c2.4,0.1,4.7,0.1,7.1,0c1.2,0,1.8,0.3,1.7,1.6c-0.1,4.8,0.1,9.6-0.1,14.4c-0.3,7.6-6.1,12.9-13.6,13c-2.5,0-5,0.1-7.5,0
		c-1.6-0.1-2.1,0.6-2.1,2.1c0.1,4.6,0,9.2,0.1,13.8c0,1.5-0.4,2.2-2,2.1c-2.4-0.1-4.7-0.1-7.1,0c-1.4,0.1-1.9-0.5-1.9-1.9
		c0.1-4.7,0-9.5,0.1-14.2c0-1.5-0.5-2-2-2c-2.6,0.1-5.1-0.1-7.7,0c-7.9,0.4-13.1-6.5-13.5-12.6c-0.2-5-0.1-10-0.1-15
		c0-1.1,0.5-1.5,1.5-1.5c2.6,0,5.1,0.1,7.7,0c1.4,0,1.8,0.5,1.7,1.8c-0.1,4,0,7.9,0,11.9c0,3.8,0.6,4.4,4.3,4.4
		C-318.5,419.6-314,419.6-309.5,419.6z"/>
	<path fill="#9548EE" d="M-636.5,323.4c3.9-13.2,15.7-26.2,22.1-36.4c3.9-6.3,7.4-13.2,11.9-19.2l7.5-9.9c0,0,21,14.9,21.7,15.4
		c0.6,0.4-9.3,19.7-10.2,21.5c-6.5,13.6-15.9,29-26,40.2c-3.7,4.1-8.4,7.6-13.8,9.1c-2.9,0.8-6.1,0.9-8.7-0.4
		c-3.3-1.7-5-5.5-5.5-9.2C-638,330.8-637.5,327.1-636.5,323.4z"/>
	<path fill="#6941BE" d="M-589.8,260.6l-46,79.3c0,0-7.4-9.5,1.8-24.5c9.1-15,37.2-59.7,37.2-59.7L-589.8,260.6z"/>
</g>
<g>
	<polygon opacity="0.5" fill="#6941BE" points="374.8,184.9 509.2,278.2 647.4,180.5 609.5,268.2 542.3,285.1 509.2,319.4 
		485.2,288.6 447.1,266.4 408.7,268.8 371,197.4 	"/>
	<path fill="#6941BE" d="M604.8,189.4c0,0,31.8-1.9,34.4,0c2.6,1.9,5.2,0.6-3.9,16.9S605,267.4,605,267.4s-7,3.3-22.9-25.3
		l-19.5,15.6l6.5,6.5l13.6-9.7c2.7,5.5,5.3,11.1,8,16.6c2.2,4.5-0.6,16.2,3,19.4c4,3.5,33.5-11.2,39-14.7
		c11.2-6.9,21.4-15.6,29.1-26.4c15.2-21.3,19.5-52.8,1.4-73.5c-0.9-1-1.8-1.9-2.8-2.8c-2.7-2.4-5.6-4.4-8.6-6.3
		c-4.6-2.7-9.5-4.9-14.6-6.6c-6.7-2.1-13.6-3.3-20.6-3.7c-6.8-0.3-15.3-0.9-21.6,1.1c-0.5,1.3-0.1,2.7-0.6,3.9L604.8,189.4z"/>
	<path fill="#6941BE" d="M585.3,306.2v78.1C585.3,384.3,489.8,362.6,585.3,306.2z"/>
	<path fill="#9548EE" d="M599.7,157.5c4.6,4,5.8,31.9,5.2,31.9c0,0-46.8,0-46.8,0s-9.1,1.9,0,13c9.1,11,11,16.2,11,16.2l-41.6,27.9
		v-62.4c19.6-8.8,39.4-17.5,59.8-24.4c3.4-1.2,7-2.2,10.5-2.7c0.4-0.1,0.9-0.1,1.3,0.1C599.3,157.2,599.5,157.3,599.7,157.5z"/>
	<path fill="#9548EE" d="M512.5,306.2c12.3-27.8,50-48.6,50-48.6l6.5,6.5l13.6-9.7c5,8,9.9,16.1,14.7,24.2
		c1.3,2.3,6.8,10.4,6.8,10.4s-14.5,6.3-17,7.5c-5.3,2.5-10.5,5.3-15.7,8.2c-9.8,5.6-19.4,12-26.1,21.1c-6.7,9-10.2,21.2-6.6,31.8
		c-0.8-2.4-2.8-4.4-4.2-6.4c-1.9-2.9-3.4-6.1-4.4-9.4c-3.3-11-0.7-22.4,5-32.1c3.5-6,8-11.4,13-16.3c0,0-26,7.7-32.5,33.1
		c0,0-0.6,11.1,5.2,16.9C526.8,349.2,500.2,334,512.5,306.2"/>
	<g>
		<path fill="#6941BE" d="M413.6,189.4c0,0-31.8-1.9-34.4,0c-2.6,1.9-5.2,0.6,3.9,16.9s30.4,61.1,30.4,61.1s7,3.3,22.9-25.3
			l19.5,15.6l-6.5,6.5l-13.6-9.7c-2.7,5.5-5.3,11.1-8,16.6c-2.2,4.5,0.6,16.2-3,19.4c-4,3.5-33.5-11.2-39-14.7
			c-11.2-6.9-21.4-15.6-29.1-26.4c-15.2-21.3-19.5-52.8-1.4-73.5c0.9-1,1.8-1.9,2.8-2.8c2.7-2.4,5.6-4.4,8.6-6.3
			c4.6-2.7,9.5-4.9,14.6-6.6c6.7-2.1,13.6-3.3,20.6-3.7c6.8-0.3,15.3-0.9,21.6,1.1c0.5,1.3,0.1,2.7,0.6,3.9L413.6,189.4z"/>
		<path fill="#6941BE" d="M433.1,306.2v78.1C433.1,384.3,528.7,362.6,433.1,306.2z"/>
		<path fill="#9548EE" d="M418.8,157.5c-4.6,4-5.8,31.9-5.2,31.9c0,0,46.8,0,46.8,0s9.1,1.9,0,13s-11,16.2-11,16.2l41.6,27.9v-62.4
			c-19.6-8.8-39.4-17.5-59.8-24.4c-3.4-1.2-7-2.2-10.5-2.7c-0.4-0.1-0.9-0.1-1.3,0.1C419.2,157.2,419,157.3,418.8,157.5z"/>
		<path fill="#9548EE" d="M505.9,306.2c-12.3-27.8-50-48.6-50-48.6l-6.5,6.5l-13.6-9.7c-5,8-9.9,16.1-14.7,24.2
			c-1.3,2.3-6.8,10.4-6.8,10.4s14.5,6.3,17,7.5c5.3,2.5,10.5,5.3,15.7,8.2c9.8,5.6,19.4,12,26.1,21.1c6.7,9,10.2,21.2,6.6,31.8
			c0.8-2.4,2.8-4.4,4.2-6.4c1.9-2.9,3.4-6.1,4.4-9.4c3.3-11,0.7-22.4-5-32.1c-3.5-6-8-11.4-13-16.3c0,0,26,7.7,32.5,33.1
			c0,0,0.6,11.1-5.2,16.9C491.6,349.2,518.3,334,505.9,306.2"/>
	</g>
	<path fill="#9548EE" d="M366,459.9c-7.6,0-15.1,0-22.7,0c-1.7,0-2.2-0.4-2.2-2.2c0.1-14.3,0.1-28.6,0-42.8c0-1.6,0.4-2.1,2-2.1
		c15.3,0.1,30.6,0.1,45.9,0c1.7,0,2.3,0.5,2.2,2.2c-0.1,2.2-0.2,4.4,0,6.5c0.1,1.9-0.6,2.3-2.4,2.3c-11.3-0.1-22.7,0-34,0
		c-2.7,0-2.7,0-2.7,2.7c0,4.4,0,4.4,4.3,4.4c9.9,0,19.9,0,29.8,0c1.9,0,2.7,0.4,2.5,2.4c-0.2,2.2-0.1,4.4,0,6.5
		c0.1,1.6-0.6,2.1-2.1,2c-10.7-0.1-21.4,0-32.1-0.1c-1.9,0-2.5,0.5-2.5,2.5c0.1,4.6,0,4.6,4.7,4.6c10.6,0,21.3,0,31.9,0
		c2.5,0,2.5,0,2.5,2.6c0,2.2-0.1,4.4,0,6.5c0.1,1.4-0.5,1.9-1.9,1.9C381.5,459.8,373.8,459.9,366,459.9z"/>
	<path fill="#9548EE" d="M319.9,445c4.2,4.8,8.5,9.5,13,14.6c-0.9,0.1-1.5,0.2-2,0.2c-3.7,0-7.4,0.1-11.1,0c-0.9,0-2-0.4-2.5-1
		c-7.2-7.9-14.2-16-21.3-24c-0.2-0.3-0.4-0.6-0.8-1.2c1-0.1,1.7-0.1,2.5-0.1c7.9,0,15.9,0,23.8,0c1.7,0,3.2,0,4-1.9
		c0.8-2.2,0.5-5.9-0.8-6.9c-0.6-0.4-1.4-0.8-2.1-0.8c-10.9,0-21.8,0-32.7,0c-0.2,0-0.4,0.1-0.7,0.2c0,0.7-0.1,1.4-0.1,2.2
		c0,10.4-0.1,20.9,0,31.3c0,1.9-0.6,2.4-2.4,2.3c-2.3-0.1-4.6-0.1-6.9,0c-1.2,0-1.7-0.4-1.7-1.6c0-14.6,0-29.2,0-43.8
		c0-1.7,1-1.6,2.1-1.6c12.9,0,25.7,0,38.6,0c1.5,0,3.1,0,4.6,0c4.7-0.1,8.2,2,10.7,5.9c3.8,6,3.6,15.1-0.6,20.7
		c-2.5,3.3-5.7,5-9.9,5c-1.2,0-2.4,0-3.6,0C320,444.7,319.9,444.8,319.9,445z"/>
	<path fill="#9548EE" d="M614.1,441.8c0-5.1-0.1-10.1,0-15.2c0.1-4.8,2-8.8,6-11.5c1.9-1.2,4.4-2.1,6.6-2.1
		c10.7-0.2,21.4-0.2,32.1-0.1c6.7,0.1,12.4,5.7,12.6,12.8c0.3,10.9,0.1,21.8,0.1,32.7c0,1.1-0.4,1.5-1.5,1.5c-2.6,0-5.3-0.1-7.9,0
		c-1.3,0-1.6-0.6-1.6-1.7c0-3.7,0-7.4,0-11.1c0-1.6-0.5-2.1-2.1-2.1c-8.1,0.1-16.3,0-24.4,0.1c-1.8,0-2.4-0.5-2.3-2.3
		c0.1-2.2,0.1-4.4,0-6.5c-0.1-1.7,0.5-2.2,2.2-2.2c7.9,0.1,15.9,0,23.8,0c2.7,0,2.7,0,2.7-2.8c0-1.6,0-3.2-0.1-4.8
		c-0.1-1.7-1.1-2.6-2.8-2.6c-9.9,0-19.9,0-29.8,0c-1.6,0-2.5,0.9-2.7,2.4c-0.1,0.9-0.1,1.8-0.1,2.7c0,9.5,0,19.1,0,28.6
		c0,1.7-0.5,2.4-2.3,2.3c-2.2-0.1-4.5-0.1-6.7,0c-1.5,0.1-2-0.5-2-2C614.1,452.5,614.1,447.1,614.1,441.8
		C614.1,441.8,614.1,441.8,614.1,441.8z"/>
	<path fill="#9548EE" d="M575.4,412.8c6.5,0,13.1,0,19.6,0c8.3,0,13.5,4.3,14.8,12.5c0.9,5.3,0,10.2-3.4,14.5
		c-2.5,3.1-5.7,4.7-9.7,4.7c-10.6,0-21.3,0-31.9,0c-2.5,0-2.5,0-2.5,2.6c0,3.6,0,7.3,0,10.9c0,1.4-0.4,2-1.9,1.9
		c-2.4-0.1-4.9-0.1-7.3,0c-1.3,0-1.9-0.3-1.9-1.7c0-14.5,0-29.1,0-43.6c0-1.6,0.8-1.7,2-1.7C560.6,412.9,568,412.8,575.4,412.8z
		 M579.9,433.5c5.1,0,10.2,0,15.4,0c1.7,0,3-0.2,3.5-2.2c0.7-2.8,0.2-6.4-1.3-7.2c-0.4-0.2-1-0.3-1.5-0.3c-10.8,0-21.5,0-32.3,0
		c-1.2,0-1.5,0.6-1.5,1.7c0,2,0.1,4,0,6c-0.1,1.6,0.4,2.1,2.1,2.1C569.5,433.4,574.7,433.5,579.9,433.5z"/>
	<path fill="#9548EE" d="M449.2,459.9c0.8-1.1,1.2-1.7,1.7-2.3c5.5-6.7,11-13.4,16.6-20c1.1-1.2,1-2,0-3.3
		c-5.4-6.4-10.7-12.9-16.1-19.4c-0.4-0.5-0.9-1.1-1.5-1.9c0.8-0.1,1.4-0.2,1.9-0.2c3.5,0,7-0.1,10.6,0c0.9,0,2,0.6,2.6,1.2
		c3.3,3.8,6.5,7.7,9.7,11.7c1.1,1.4,1.7,1.2,2.7,0c3.1-3.9,6.3-7.8,9.5-11.6c0.6-0.7,1.8-1.3,2.7-1.3c4-0.1,7.9-0.1,12.4-0.1
		c-0.6,0.9-1,1.4-1.4,1.9c-5.3,6.5-10.6,13-16,19.4c-1.2,1.4-1.3,2.3,0,3.7c5.5,6.5,11,13.2,16.4,19.8c0.4,0.5,0.8,1.1,1.5,1.9
		c-0.9,0.1-1.4,0.2-1.9,0.2c-3.5,0-6.9,0.1-10.4-0.1c-0.9,0-2.1-0.6-2.7-1.3c-3.4-3.9-6.6-7.8-9.9-11.8c-1.6-2-1.6-2-3.2-0.1
		c-3.3,3.9-6.5,7.9-9.9,11.8c-0.7,0.7-1.9,1.3-2.9,1.4C457.7,460,453.8,459.9,449.2,459.9z"/>
	<path fill="#9548EE" d="M393.7,459.9c0.8-1.1,1.2-1.7,1.7-2.3c5.5-6.7,11-13.4,16.6-20c1.1-1.2,1-2,0-3.3
		c-5.4-6.4-10.7-12.9-16.1-19.4c-0.4-0.5-0.9-1.1-1.5-1.9c0.8-0.1,1.4-0.2,1.9-0.2c3.5,0,7-0.1,10.6,0c0.9,0,2,0.6,2.6,1.2
		c3.3,3.8,6.5,7.7,9.7,11.7c1.1,1.4,1.7,1.2,2.7,0c3.1-3.9,6.3-7.8,9.5-11.6c0.6-0.7,1.8-1.3,2.7-1.3c4-0.1,7.9-0.1,12.4-0.1
		c-0.6,0.9-1,1.4-1.4,1.9c-5.3,6.5-10.6,13-16,19.4c-1.2,1.4-1.3,2.3,0,3.7c5.5,6.5,11,13.2,16.4,19.8c0.4,0.5,0.8,1.1,1.5,1.9
		c-0.9,0.1-1.4,0.2-1.9,0.2c-3.5,0-6.9,0.1-10.4-0.1c-0.9,0-2.1-0.6-2.7-1.3c-3.4-3.9-6.6-7.8-9.9-11.8c-1.6-2-1.6-2-3.2-0.1
		c-3.3,3.9-6.5,7.9-9.9,11.8c-0.7,0.7-1.9,1.3-2.9,1.4C402.2,460,398.3,459.9,393.7,459.9z"/>
	<path fill="#9548EE" d="M705.1,430.9c4.7,0,9.3,0,14,0c2.9,0,3.6-0.7,3.7-3.6c0.1-4.1,0.1-8.2,0-12.3c0-1.7,0.5-2.3,2.2-2.2
		c2.4,0.1,4.7,0.1,7.1,0c1.2,0,1.8,0.3,1.7,1.6c-0.1,4.8,0.1,9.6-0.1,14.4c-0.3,7.6-6.1,12.9-13.6,13c-2.5,0-5,0.1-7.5,0
		c-1.6-0.1-2.1,0.6-2.1,2.1c0.1,4.6,0,9.2,0.1,13.8c0,1.5-0.4,2.2-2,2.1c-2.4-0.1-4.7-0.1-7.1,0c-1.4,0.1-1.9-0.5-1.9-1.9
		c0.1-4.7,0-9.5,0.1-14.2c0-1.5-0.5-2-2-2c-2.6,0.1-5.1-0.1-7.7,0c-7.9,0.4-13.1-6.5-13.5-12.6c-0.2-5-0.1-10-0.1-15
		c0-1.1,0.5-1.5,1.5-1.5c2.6,0,5.1,0.1,7.7,0c1.4,0,1.8,0.5,1.7,1.8c-0.1,4,0,7.9,0,11.9c0,3.8,0.6,4.4,4.3,4.4
		C696.1,430.9,700.6,430.9,705.1,430.9z"/>
	<path fill="#9548EE" d="M378.1,334.7c3.9-13.2,15.7-26.2,22.1-36.4c3.9-6.3,7.4-13.2,11.9-19.2l7.5-9.9c0,0,21,14.9,21.7,15.4
		c0.6,0.4-9.3,19.7-10.2,21.5c-6.5,13.6-15.9,29-26,40.2c-3.7,4.1-8.4,7.6-13.8,9.1c-2.9,0.8-6.1,0.9-8.7-0.4
		c-3.3-1.7-5-5.5-5.5-9.2C376.6,342.1,377,338.4,378.1,334.7z"/>
	<path fill="#6941BE" d="M424.8,272l-46,79.3c0,0-7.4-9.5,1.8-24.5c9.1-15,37.2-59.7,37.2-59.7L424.8,272z"/>
</g>
<g>
	<polygon opacity="0.5" fill="#6941BE" points="1346.8,183.1 1481.2,276.3 1619.4,178.6 1581.5,266.4 1514.3,283.3 1481.2,317.5 
		1457.2,286.8 1419.1,264.6 1380.7,267 1343,195.6 	"/>
	<path fill="#6941BE" d="M1576.8,187.6c0,0,31.8-1.9,34.4,0c2.6,1.9,5.2,0.6-3.9,16.9c-9.1,16.2-30.4,61.1-30.4,61.1
		s-7,3.3-22.9-25.3l-19.5,15.6l6.5,6.5l13.6-9.7c2.7,5.5,5.3,11.1,8,16.6c2.2,4.5-0.6,16.2,3,19.4c4,3.5,33.5-11.2,39-14.7
		c11.2-6.9,21.4-15.6,29.1-26.4c15.2-21.3,19.5-52.8,1.4-73.5c-0.9-1-1.8-1.9-2.8-2.8c-2.7-2.4-5.6-4.4-8.6-6.3
		c-4.6-2.7-9.5-4.9-14.6-6.6c-6.7-2.1-13.6-3.3-20.6-3.7c-6.8-0.3-15.3-0.9-21.6,1.1c-0.5,1.3-0.1,2.7-0.6,3.9L1576.8,187.6z"/>
	<path fill="#6941BE" d="M1557.3,304.4v78.1C1557.3,382.5,1461.8,360.8,1557.3,304.4z"/>
	<path fill="#9548EE" d="M1571.7,155.7c4.6,4,5.8,31.9,5.2,31.9c0,0-46.8,0-46.8,0s-9.1,1.9,0,13c9.1,11,11,16.2,11,16.2l-41.6,27.9
		v-62.4c19.6-8.8,39.4-17.5,59.8-24.4c3.4-1.2,7-2.2,10.5-2.7c0.4-0.1,0.9-0.1,1.3,0.1C1571.3,155.4,1571.5,155.5,1571.7,155.7z"/>
	<path fill="#9548EE" d="M1484.5,304.4c12.3-27.8,50-48.6,50-48.6l6.5,6.5l13.6-9.7c5,8,9.9,16.1,14.7,24.2
		c1.3,2.3,6.8,10.4,6.8,10.4s-14.5,6.3-17,7.5c-5.3,2.5-10.5,5.3-15.7,8.2c-9.8,5.6-19.4,12-26.1,21.1c-6.7,9-10.2,21.2-6.6,31.8
		c-0.8-2.4-2.8-4.4-4.2-6.4c-1.9-2.9-3.4-6.1-4.4-9.4c-3.3-11-0.7-22.4,5-32.1c3.5-6,8-11.4,13-16.3c0,0-26,7.7-32.5,33.1
		c0,0-0.6,11.1,5.2,16.9C1498.8,347.4,1472.2,332.2,1484.5,304.4"/>
	<g>
		<path fill="#6941BE" d="M1385.6,187.6c0,0-31.8-1.9-34.4,0c-2.6,1.9-5.2,0.6,3.9,16.9c9.1,16.2,30.4,61.1,30.4,61.1
			s7,3.3,22.9-25.3l19.5,15.6l-6.5,6.5l-13.6-9.7c-2.7,5.5-5.3,11.1-8,16.6c-2.2,4.5,0.6,16.2-3,19.4c-4,3.5-33.5-11.2-39-14.7
			c-11.2-6.9-21.4-15.6-29.1-26.4c-15.2-21.3-19.5-52.8-1.4-73.5c0.9-1,1.8-1.9,2.8-2.8c2.7-2.4,5.6-4.4,8.6-6.3
			c4.6-2.7,9.5-4.9,14.6-6.6c6.7-2.1,13.6-3.3,20.6-3.7c6.8-0.3,15.3-0.9,21.6,1.1c0.5,1.3,0.1,2.7,0.6,3.9L1385.6,187.6z"/>
		<path fill="#6941BE" d="M1405.1,304.4v78.1C1405.1,382.5,1500.7,360.8,1405.1,304.4z"/>
		<path fill="#9548EE" d="M1390.8,155.7c-4.6,4-5.8,31.9-5.2,31.9c0,0,46.8,0,46.8,0s9.1,1.9,0,13c-9.1,11-11,16.2-11,16.2
			l41.6,27.9v-62.4c-19.6-8.8-39.4-17.5-59.8-24.4c-3.4-1.2-7-2.2-10.5-2.7c-0.4-0.1-0.9-0.1-1.3,0.1
			C1391.2,155.4,1391,155.5,1390.8,155.7z"/>
		<path fill="#9548EE" d="M1477.9,304.4c-12.3-27.8-50-48.6-50-48.6l-6.5,6.5l-13.6-9.7c-5,8-9.9,16.1-14.7,24.2
			c-1.3,2.3-6.8,10.4-6.8,10.4s14.5,6.3,17,7.5c5.3,2.5,10.5,5.3,15.7,8.2c9.8,5.6,19.4,12,26.1,21.1c6.7,9,10.2,21.2,6.6,31.8
			c0.8-2.4,2.8-4.4,4.2-6.4c1.9-2.9,3.4-6.1,4.4-9.4c3.3-11,0.7-22.4-5-32.1c-3.5-6-8-11.4-13-16.3c0,0,26,7.7,32.5,33.1
			c0,0,0.6,11.1-5.2,16.9C1463.6,347.4,1490.3,332.2,1477.9,304.4"/>
	</g>
	<path fill="#9548EE" d="M1338,458.1c-7.6,0-15.1,0-22.7,0c-1.7,0-2.2-0.4-2.2-2.2c0.1-14.3,0.1-28.6,0-42.8c0-1.6,0.4-2.1,2-2.1
		c15.3,0.1,30.6,0.1,45.9,0c1.7,0,2.3,0.5,2.2,2.2c-0.1,2.2-0.2,4.4,0,6.5c0.1,1.9-0.6,2.3-2.4,2.3c-11.3-0.1-22.7,0-34,0
		c-2.7,0-2.7,0-2.7,2.7c0,4.4,0,4.4,4.3,4.4c9.9,0,19.9,0,29.8,0c1.9,0,2.7,0.4,2.5,2.4c-0.2,2.2-0.1,4.4,0,6.5
		c0.1,1.6-0.6,2.1-2.1,2c-10.7-0.1-21.4,0-32.1-0.1c-1.9,0-2.5,0.5-2.5,2.5c0.1,4.6,0,4.6,4.7,4.6c10.6,0,21.3,0,31.9,0
		c2.5,0,2.5,0,2.5,2.6c0,2.2-0.1,4.4,0,6.5c0.1,1.4-0.5,1.9-1.9,1.9C1353.5,458,1345.8,458.1,1338,458.1z"/>
	<path fill="#9548EE" d="M1291.9,443.2c4.2,4.8,8.5,9.5,13,14.6c-0.9,0.1-1.5,0.2-2,0.2c-3.7,0-7.4,0.1-11.1,0c-0.9,0-2-0.4-2.5-1
		c-7.2-7.9-14.2-16-21.3-24c-0.2-0.3-0.4-0.6-0.8-1.2c1-0.1,1.7-0.1,2.5-0.1c7.9,0,15.9,0,23.8,0c1.7,0,3.2,0,4-1.9
		c0.8-2.2,0.5-5.9-0.8-6.9c-0.6-0.4-1.4-0.8-2.1-0.8c-10.9,0-21.8,0-32.7,0c-0.2,0-0.4,0.1-0.7,0.2c0,0.7-0.1,1.4-0.1,2.2
		c0,10.4-0.1,20.9,0,31.3c0,1.9-0.6,2.4-2.4,2.3c-2.3-0.1-4.6-0.1-6.9,0c-1.2,0-1.7-0.4-1.7-1.6c0-14.6,0-29.2,0-43.8
		c0-1.7,1-1.6,2.1-1.6c12.9,0,25.7,0,38.6,0c1.5,0,3.1,0,4.6,0c4.7-0.1,8.2,2,10.7,5.9c3.8,6,3.6,15.1-0.6,20.7
		c-2.5,3.3-5.7,5-9.9,5c-1.2,0-2.4,0-3.6,0C1292,442.8,1291.9,443,1291.9,443.2z"/>
	<path fill="#9548EE" d="M1586.1,439.9c0-5.1-0.1-10.1,0-15.2c0.1-4.8,2-8.8,6-11.5c1.9-1.2,4.4-2.1,6.6-2.1
		c10.7-0.2,21.4-0.2,32.1-0.1c6.7,0.1,12.4,5.7,12.6,12.8c0.3,10.9,0.1,21.8,0.1,32.7c0,1.1-0.4,1.5-1.5,1.5c-2.6,0-5.3-0.1-7.9,0
		c-1.3,0-1.6-0.6-1.6-1.7c0-3.7,0-7.4,0-11.1c0-1.6-0.5-2.1-2.1-2.1c-8.1,0.1-16.3,0-24.4,0.1c-1.8,0-2.4-0.5-2.3-2.3
		c0.1-2.2,0.1-4.4,0-6.5c-0.1-1.7,0.5-2.2,2.2-2.2c7.9,0.1,15.9,0,23.8,0c2.7,0,2.7,0,2.7-2.8c0-1.6,0-3.2-0.1-4.8
		c-0.1-1.7-1.1-2.6-2.8-2.6c-9.9,0-19.9,0-29.8,0c-1.6,0-2.5,0.9-2.7,2.4c-0.1,0.9-0.1,1.8-0.1,2.7c0,9.5,0,19.1,0,28.6
		c0,1.7-0.5,2.4-2.3,2.3c-2.2-0.1-4.5-0.1-6.7,0c-1.5,0.1-2-0.5-2-2C1586.1,450.7,1586.1,445.3,1586.1,439.9
		C1586.1,439.9,1586.1,439.9,1586.1,439.9z"/>
	<path fill="#9548EE" d="M1547.4,411c6.5,0,13.1,0,19.6,0c8.3,0,13.5,4.3,14.8,12.5c0.9,5.3,0,10.2-3.4,14.5
		c-2.5,3.1-5.7,4.7-9.7,4.7c-10.6,0-21.3,0-31.9,0c-2.5,0-2.5,0-2.5,2.6c0,3.6,0,7.3,0,10.9c0,1.4-0.4,2-1.9,1.9
		c-2.4-0.1-4.9-0.1-7.3,0c-1.3,0-1.9-0.3-1.9-1.7c0-14.5,0-29.1,0-43.6c0-1.6,0.8-1.7,2-1.7C1532.6,411,1540,411,1547.4,411z
		 M1551.9,431.7c5.1,0,10.2,0,15.4,0c1.7,0,3-0.2,3.5-2.2c0.7-2.8,0.2-6.4-1.3-7.2c-0.4-0.2-1-0.3-1.5-0.3c-10.8,0-21.5,0-32.3,0
		c-1.2,0-1.5,0.6-1.5,1.7c0,2,0.1,4,0,6c-0.1,1.6,0.4,2.1,2.1,2.1C1541.5,431.6,1546.7,431.7,1551.9,431.7z"/>
	<path fill="#9548EE" d="M1421.2,458.1c0.8-1.1,1.2-1.7,1.7-2.3c5.5-6.7,11-13.4,16.6-20c1.1-1.2,1-2,0-3.3
		c-5.4-6.4-10.7-12.9-16.1-19.4c-0.4-0.5-0.9-1.1-1.5-1.9c0.8-0.1,1.4-0.2,1.9-0.2c3.5,0,7-0.1,10.6,0c0.9,0,2,0.6,2.6,1.2
		c3.3,3.8,6.5,7.7,9.7,11.7c1.1,1.4,1.7,1.2,2.7,0c3.1-3.9,6.3-7.8,9.5-11.6c0.6-0.7,1.8-1.3,2.7-1.3c4-0.1,7.9-0.1,12.4-0.1
		c-0.6,0.9-1,1.4-1.4,1.9c-5.3,6.5-10.6,13-16,19.4c-1.2,1.4-1.3,2.3,0,3.7c5.5,6.5,11,13.2,16.4,19.8c0.4,0.5,0.8,1.1,1.5,1.9
		c-0.9,0.1-1.4,0.2-1.9,0.2c-3.5,0-6.9,0.1-10.4-0.1c-0.9,0-2.1-0.6-2.7-1.3c-3.4-3.9-6.6-7.8-9.9-11.8c-1.6-2-1.6-2-3.2-0.1
		c-3.3,3.9-6.5,7.9-9.9,11.8c-0.7,0.7-1.9,1.3-2.9,1.4C1429.7,458.1,1425.8,458.1,1421.2,458.1z"/>
	<path fill="#9548EE" d="M1365.7,458.1c0.8-1.1,1.2-1.7,1.7-2.3c5.5-6.7,11-13.4,16.6-20c1.1-1.2,1-2,0-3.3
		c-5.4-6.4-10.7-12.9-16.1-19.4c-0.4-0.5-0.9-1.1-1.5-1.9c0.8-0.1,1.4-0.2,1.9-0.2c3.5,0,7-0.1,10.6,0c0.9,0,2,0.6,2.6,1.2
		c3.3,3.8,6.5,7.7,9.7,11.7c1.1,1.4,1.7,1.2,2.7,0c3.1-3.9,6.3-7.8,9.5-11.6c0.6-0.7,1.8-1.3,2.7-1.3c4-0.1,7.9-0.1,12.4-0.1
		c-0.6,0.9-1,1.4-1.4,1.9c-5.3,6.5-10.6,13-16,19.4c-1.2,1.4-1.3,2.3,0,3.7c5.5,6.5,11,13.2,16.4,19.8c0.4,0.5,0.8,1.1,1.5,1.9
		c-0.9,0.1-1.4,0.2-1.9,0.2c-3.5,0-6.9,0.1-10.4-0.1c-0.9,0-2.1-0.6-2.7-1.3c-3.4-3.9-6.6-7.8-9.9-11.8c-1.6-2-1.6-2-3.2-0.1
		c-3.3,3.9-6.5,7.9-9.9,11.8c-0.7,0.7-1.9,1.3-2.9,1.4C1374.2,458.1,1370.3,458.1,1365.7,458.1z"/>
	<path fill="#9548EE" d="M1677.1,429.1c4.7,0,9.3,0,14,0c2.9,0,3.6-0.7,3.7-3.6c0.1-4.1,0.1-8.2,0-12.3c0-1.7,0.5-2.3,2.2-2.2
		c2.4,0.1,4.7,0.1,7.1,0c1.2,0,1.8,0.3,1.7,1.6c-0.1,4.8,0.1,9.6-0.1,14.4c-0.3,7.6-6.1,12.9-13.6,13c-2.5,0-5,0.1-7.5,0
		c-1.6-0.1-2.1,0.6-2.1,2.1c0.1,4.6,0,9.2,0.1,13.8c0,1.5-0.4,2.2-2,2.1c-2.4-0.1-4.7-0.1-7.1,0c-1.4,0.1-1.9-0.5-1.9-1.9
		c0.1-4.7,0-9.5,0.1-14.2c0-1.5-0.5-2-2-2c-2.6,0.1-5.1-0.1-7.7,0c-7.9,0.4-13.1-6.5-13.5-12.6c-0.2-5-0.1-10-0.1-15
		c0-1.1,0.5-1.5,1.5-1.5c2.6,0,5.1,0.1,7.7,0c1.4,0,1.8,0.5,1.7,1.8c-0.1,4,0,7.9,0,11.9c0,3.8,0.6,4.4,4.3,4.4
		C1668.1,429.1,1672.6,429.1,1677.1,429.1z"/>
	<path fill="#9548EE" d="M1350.1,332.9c3.9-13.2,15.7-26.2,22.1-36.4c3.9-6.3,7.4-13.2,11.9-19.2l7.5-9.9c0,0,21,14.9,21.7,15.4
		c0.6,0.4-9.3,19.7-10.2,21.5c-6.5,13.6-15.9,29-26,40.2c-3.7,4.1-8.4,7.6-13.8,9.1c-2.9,0.8-6.1,0.9-8.7-0.4
		c-3.3-1.7-5-5.5-5.5-9.2C1348.6,340.3,1349,336.6,1350.1,332.9z"/>
	<path fill="#6941BE" d="M1396.8,270.1l-46,79.3c0,0-7.4-9.5,1.8-24.5s37.2-59.7,37.2-59.7L1396.8,270.1z"/>
</g>
</svg>
