<?xml version="1.0" encoding="utf-8"?>
<!-- Generator: Adobe Illustrator 18.1.1, SVG Export Plug-In . SVG Version: 6.00 Build 0)  -->
<svg version="1.1" id="Layer_1" xmlns="http://www.w3.org/2000/svg" xmlns:xlink="http://www.w3.org/1999/xlink" x="0px" y="0px"
	 viewBox="0 0 841.9 595.3" enable-background="new 0 0 841.9 595.3" xml:space="preserve">
<rect x="-1723.8" width="841.9" height="595.3"/>
<rect x="-861.9" fill="#020D43" width="841.9" height="595.3"/>
<g>
	<g>
		<path fill="#1EEAF1" d="M-360.3,216.1c-0.8,23.8-8.1,45.5-23.1,64.4c-2.7,3.5-4.9,4.4-8.2,0.7c-4.5-5-9.3-9.9-14.3-14.5
			c-3.5-3.2-3.3-5.7-0.7-9.3c13.3-18,16.5-38.4,11.2-59.7c-6.9-27.8-25.5-44.6-53-51.8c-2.3-0.6-4.9-0.5-7-1.5
			c-1.6-0.8-3.6-2.8-3.7-4.3c-0.4-7.9-0.1-15.8-0.2-23.7c0-4.3,2.5-4.7,5.8-4.3c21.2,2.5,40.1,10.3,56.3,24.3
			C-372.9,157.3-361.1,184.1-360.3,216.1z"/>
		<path fill="#1EEAF1" d="M-469,128.5c-0.2,4.8,1.2,10.8-1.1,13.9c-2.3,3-8.5,2.9-13,4.2c-49.5,14.2-67,71.7-39,110.2
			c3.4,4.6,3,7.4-1.2,11c-5,4.3-9.4,9.2-14,14c-2.7,2.8-4.8,2.6-7.1-0.4c-18.5-23.6-26.4-50.1-22.5-79.9
			c3.3-25.2,14.7-46.4,33.5-63.4c16.6-15,36.2-23.4,58.4-26.1c4.4-0.5,6.1,1,5.9,5.4c-0.2,3.7,0,7.3,0,11
			C-469.1,128.5-469,128.5-469,128.5z"/>
		<path fill="#1EEAF1" d="M-395.5,292.2c-1.1,1.4-1.9,2.7-2.9,3.7c-20.5,20.7-41.1,41.5-61.6,62.2c-2.9,2.9-5.1,3.2-8.2,0
			c-20.5-20.8-41.1-41.4-61.8-62c-2.9-2.9-2.8-5,0.2-7.7c5.1-4.7,10.1-9.7,14.8-14.8c2.9-3.1,5.1-3.1,8.4-0.6
			c18.9,13.9,39.9,17.5,62.2,11.1c7.9-2.3,15.3-6.9,22.5-11.1c3.8-2.2,6.1-2.2,9,0.9c4.6,5,9.6,9.6,14.4,14.5
			C-397.5,289.4-396.6,290.8-395.5,292.2z"/>
		<path fill="#FFFFFF" d="M-479.9,228.5c-4.3,5.4-8.6,10.8-12.7,16.1c-8.3-7-8.5-7.7-2.5-13.4c3-2.9,6.3-5.4,9.5-8.1
			c-0.4-0.7-0.8-1.5-1.2-2.2c-4.8,0-9.7,0.3-14.4-0.2c-1.6-0.1-4.1-1.9-4.3-3.2c-2.8-20.1,16.6-41.9,37.9-41.9c0,2.1,0,4.2,0,6.3
			c0,24.8,0,49.6-0.2,74.4c0,4.2,1,5.9,5.6,5.5c20.2-1.6,36.8-15.4,41.8-35.2c4.9-19.5-3.2-39.3-20.5-50c-6.7-4.2-6.7-4.2-5.4-13.7
			c2.9,1.3,5.7,2.3,8.4,3.7c23,12.5,34.2,40.3,26.6,65.7c-7.6,25.1-32.1,41.8-58.3,39.5c-8-0.7-8-0.7-8-8.8c0-11,0-22,0-33
			C-478.4,229.5-479.2,229-479.9,228.5z M-495.1,210.6c5.4,0,10,0.2,14.5-0.1c1-0.1,2.6-1.6,2.6-2.6c0.2-6.3,0.1-12.5,0.1-19.9
			C-487.6,193.1-492.7,200.1-495.1,210.6z"/>
		<path fill="#FFFFFF" d="M-483.6,268.4c-22.7-6.5-38.5-30.1-37.6-55.6c1.1-32.7,32-58,64.2-52.8c3.7,0.6,5.2,2,4.7,5.7
			c-0.1,0.9,0.1,1.9,0,2.7c-1.1,5.9,1.4,8.9,6.8,11.8c13.9,7.5,20.6,19.8,21.1,35.6c0.1,3.8-1,5.3-5,5.1c-6-0.3-12.1,0.1-18.2-0.1
			c-3.6-0.1-4.9,1.2-4.8,4.8c0.2,7.2,0,14.3,0.1,21.5c0,8.5-0.4,9-10.3,8.9c0-1.9,0-3.8,0-5.8c0-24.8-0.2-49.6,0.1-74.4
			c0.1-5.6-1.9-6.3-6.7-5.9c-19.4,1.8-36,16.1-40.5,35.3c-4.5,19.1,3.5,39.5,20.7,49.4C-482.9,258.2-482.3,262.2-483.6,268.4z
			 M-452.2,188.1c0,7.3-0.1,13.5,0.1,19.6c0,1,1.6,2.6,2.5,2.7c4.6,0.3,9.2,0.1,14.4,0.1C-437.4,200.1-442.6,193.3-452.2,188.1z"/>
		
			<text transform="matrix(1 0 0 1 -587.4127 472.5102)" fill="#1EEAF1" font-family="'Arial-BoldMT'" font-size="37.8321" letter-spacing="18">PLORER</text>
	</g>
	<text transform="matrix(1 0 0 1 -587.4129 431.2966)" fill="#FFFFFF" font-family="'Days'" font-size="82.7615">REXX</text>
</g>
<g>
	<g>
		<path fill="#1EEAF1" d="M-1233.4,195.1c-0.8,23.8-8.1,45.5-23.1,64.4c-2.7,3.5-4.9,4.4-8.2,0.7c-4.5-5-9.3-9.9-14.3-14.5
			c-3.5-3.2-3.3-5.7-0.7-9.3c13.3-18,16.5-38.4,11.2-59.7c-6.9-27.8-25.5-44.6-53-51.8c-2.3-0.6-4.9-0.5-7-1.5
			c-1.6-0.8-3.6-2.8-3.7-4.3c-0.4-7.9-0.1-15.8-0.2-23.7c0-4.3,2.5-4.7,5.8-4.3c21.2,2.5,40.1,10.3,56.3,24.3
			C-1246,136.3-1234.2,163-1233.4,195.1z"/>
		<path fill="#1EEAF1" d="M-1342.1,107.4c-0.2,4.8,1.2,10.8-1.1,13.9c-2.3,3-8.5,2.9-13,4.2c-49.5,14.2-67,71.7-39,110.2
			c3.4,4.6,3,7.4-1.2,11c-5,4.3-9.4,9.2-14,14c-2.7,2.8-4.8,2.6-7.1-0.4c-18.5-23.6-26.4-50.1-22.5-79.9
			c3.3-25.2,14.7-46.4,33.5-63.4c16.6-15,36.2-23.4,58.4-26.1c4.4-0.5,6.1,1,5.9,5.4c-0.2,3.7,0,7.3,0,11
			C-1342.2,107.4-1342.1,107.4-1342.1,107.4z"/>
		<path fill="#1EEAF1" d="M-1268.6,271.2c-1.1,1.4-1.9,2.7-2.9,3.7c-20.5,20.7-41.1,41.5-61.6,62.2c-2.9,2.9-5.1,3.2-8.2,0
			c-20.5-20.8-41.1-41.4-61.8-62c-2.9-2.9-2.8-5,0.2-7.7c5.1-4.7,10.1-9.7,14.8-14.8c2.9-3.1,5.1-3.1,8.4-0.6
			c18.9,13.9,39.9,17.5,62.2,11.1c7.9-2.3,15.3-6.9,22.5-11.1c3.8-2.2,6.1-2.2,9,0.9c4.6,5,9.6,9.6,14.4,14.5
			C-1270.5,268.4-1269.7,269.8-1268.6,271.2z"/>
		<path fill="#FFFFFF" d="M-1353,207.5c-4.3,5.4-8.6,10.8-12.7,16.1c-8.3-7-8.5-7.7-2.5-13.4c3-2.9,6.3-5.4,9.5-8.1
			c-0.4-0.7-0.8-1.5-1.2-2.2c-4.8,0-9.7,0.3-14.4-0.2c-1.6-0.1-4.1-1.9-4.3-3.2c-2.8-20.1,16.6-41.9,37.9-41.9c0,2.1,0,4.2,0,6.3
			c0,24.8,0,49.6-0.2,74.4c0,4.2,1,5.9,5.6,5.5c20.2-1.6,36.8-15.4,41.8-35.2c4.9-19.5-3.2-39.3-20.5-50c-6.7-4.2-6.7-4.2-5.4-13.7
			c2.9,1.3,5.7,2.3,8.4,3.7c23,12.5,34.2,40.3,26.6,65.7c-7.6,25.1-32.1,41.8-58.3,39.5c-8-0.7-8-0.7-8-8.8c0-11,0-22,0-33
			C-1351.5,208.5-1352.2,208-1353,207.5z M-1368.2,189.5c5.4,0,10,0.2,14.5-0.1c1-0.1,2.6-1.6,2.6-2.6c0.2-6.3,0.1-12.5,0.1-19.9
			C-1360.7,172.1-1365.8,179-1368.2,189.5z"/>
		<path fill="#FFFFFF" d="M-1356.6,247.4c-22.7-6.5-38.5-30.1-37.6-55.6c1.1-32.7,32-58,64.2-52.8c3.7,0.6,5.2,2,4.7,5.7
			c-0.1,0.9,0.1,1.9,0,2.7c-1.1,5.9,1.4,8.9,6.8,11.8c13.9,7.5,20.6,19.8,21.1,35.6c0.1,3.8-1,5.3-5,5.1c-6-0.3-12.1,0.1-18.2-0.1
			c-3.6-0.1-4.9,1.2-4.8,4.8c0.2,7.2,0,14.3,0.1,21.5c0,8.5-0.4,9-10.3,8.9c0-1.9,0-3.8,0-5.8c0-24.8-0.2-49.6,0.1-74.4
			c0.1-5.6-1.9-6.3-6.7-5.9c-19.4,1.8-36,16.1-40.5,35.3c-4.5,19.1,3.5,39.5,20.7,49.4C-1356,237.1-1355.4,241.2-1356.6,247.4z
			 M-1325.3,167c0,7.3-0.1,13.5,0.1,19.6c0,1,1.6,2.6,2.5,2.7c4.6,0.3,9.2,0.1,14.4,0.1C-1310.5,179-1315.6,172.2-1325.3,167z"/>
		
			<text transform="matrix(1 0 0 1 -1460.4999 451.4643)" fill="#1EEAF1" font-family="'Arial-BoldMT'" font-size="37.8321" letter-spacing="18">PLORER</text>
	</g>
	<text transform="matrix(1 0 0 1 -1460.5001 410.2507)" fill="#FFFFFF" font-family="'Days'" font-size="82.7615">REXX</text>
</g>
<g>
	<g>
		<path fill="#1EEAF1" d="M535.6,231.3c-0.8,23.8-8.1,45.5-23.1,64.4c-2.7,3.5-4.9,4.4-8.2,0.7c-4.5-5-9.3-9.9-14.3-14.5
			c-3.5-3.2-3.3-5.7-0.7-9.3c13.3-18,16.5-38.4,11.2-59.7c-6.9-27.8-25.5-44.6-53-51.8c-2.3-0.6-4.9-0.5-7-1.5
			c-1.6-0.8-3.6-2.8-3.7-4.3c-0.4-7.9-0.1-15.8-0.2-23.7c0-4.3,2.5-4.7,5.8-4.3c21.2,2.5,40.1,10.3,56.3,24.3
			C523,172.5,534.8,199.2,535.6,231.3z"/>
		<path fill="#1EEAF1" d="M426.9,143.6c-0.2,4.8,1.2,10.8-1.1,13.9c-2.3,3-8.5,2.9-13,4.2c-49.5,14.2-67,71.7-39,110.2
			c3.4,4.6,3,7.4-1.2,11c-5,4.3-9.4,9.2-14,14c-2.7,2.8-4.8,2.6-7.1-0.4C333,273,325.1,246.4,329,216.6
			c3.3-25.2,14.7-46.4,33.5-63.4c16.6-15,36.2-23.4,58.4-26.1c4.4-0.5,6.1,1,5.9,5.4c-0.2,3.7,0,7.3,0,11
			C426.8,143.6,426.8,143.6,426.9,143.6z"/>
		<path fill="#1EEAF1" d="M500.4,307.3c-1.1,1.4-1.9,2.7-2.9,3.7c-20.5,20.7-41.1,41.5-61.6,62.2c-2.9,2.9-5.1,3.2-8.2,0
			c-20.5-20.8-41.1-41.4-61.8-62c-2.9-2.9-2.8-5,0.2-7.7c5.1-4.7,10.1-9.7,14.8-14.8c2.9-3.1,5.1-3.1,8.4-0.6
			c18.9,13.9,39.9,17.5,62.2,11.1c7.9-2.3,15.3-6.9,22.5-11.1c3.8-2.2,6.1-2.2,9,0.9c4.6,5,9.6,9.6,14.4,14.5
			C498.4,304.6,499.3,305.9,500.4,307.3z"/>
		<path fill="#FFFFFF" d="M416,243.7c-4.3,5.4-8.6,10.8-12.7,16.1c-8.3-7-8.5-7.7-2.5-13.4c3-2.9,6.3-5.4,9.5-8.1
			c-0.4-0.7-0.8-1.5-1.2-2.2c-4.8,0-9.7,0.3-14.4-0.2c-1.6-0.1-4.1-1.9-4.3-3.2c-2.8-20.1,16.6-41.9,37.9-41.9c0,2.1,0,4.2,0,6.3
			c0,24.8,0,49.6-0.2,74.4c0,4.2,1,5.9,5.6,5.5c20.2-1.6,36.8-15.4,41.8-35.2c4.9-19.5-3.2-39.3-20.5-50c-6.7-4.2-6.7-4.2-5.4-13.7
			c2.9,1.3,5.7,2.3,8.4,3.7c23,12.5,34.2,40.3,26.6,65.7c-7.6,25.1-32.1,41.8-58.3,39.5c-8-0.7-8-0.7-8-8.8c0-11,0-22,0-33
			C417.4,244.6,416.7,244.1,416,243.7z M400.8,225.7c5.4,0,10,0.2,14.5-0.1c1-0.1,2.6-1.6,2.6-2.6c0.2-6.3,0.1-12.5,0.1-19.9
			C408.2,208.2,403.2,215.2,400.8,225.7z"/>
		<path fill="#FFFFFF" d="M412.3,283.6c-22.7-6.5-38.5-30.1-37.6-55.6c1.1-32.7,32-58,64.2-52.8c3.7,0.6,5.2,2,4.7,5.7
			c-0.1,0.9,0.1,1.9,0,2.7c-1.1,5.9,1.4,8.9,6.8,11.8c13.9,7.5,20.6,19.8,21.1,35.6c0.1,3.8-1,5.3-5,5.1c-6-0.3-12.1,0.1-18.2-0.1
			c-3.6-0.1-4.9,1.2-4.8,4.8c0.2,7.2,0,14.3,0.1,21.5c0,8.5-0.4,9-10.3,8.9c0-1.9,0-3.8,0-5.8c0-24.8-0.2-49.6,0.1-74.4
			c0.1-5.6-1.9-6.3-6.7-5.9c-19.4,1.8-36,16.1-40.5,35.3c-4.5,19.1,3.5,39.5,20.7,49.4C413,273.3,413.6,277.4,412.3,283.6z
			 M443.6,203.2c0,7.3-0.1,13.5,0.1,19.6c0,1,1.6,2.6,2.5,2.7c4.6,0.3,9.2,0.1,14.4,0.1C458.4,215.2,453.3,208.4,443.6,203.2z"/>
		
			<text transform="matrix(1 0 0 1 308.443 487.6384)" fill="#1EEAF1" font-family="'Arial-BoldMT'" font-size="37.8321" letter-spacing="18">PLORER</text>
	</g>
	<text transform="matrix(1 0 0 1 308.4427 446.4249)" fill="#FFFFFF" font-family="'Days'" font-size="82.7615">REXX</text>
</g>
</svg>
