<?xml version="1.0" encoding="utf-8"?>
<!-- Generator: Adobe Illustrator 18.1.1, SVG Export Plug-In . SVG Version: 6.00 Build 0)  -->
<svg version="1.1" id="Layer_1" xmlns="http://www.w3.org/2000/svg" xmlns:xlink="http://www.w3.org/1999/xlink" x="0px" y="0px"
	 viewBox="0 0 841.9 595.3" enable-background="new 0 0 841.9 595.3" xml:space="preserve">
<rect fill="#020D43" width="841.9" height="595.3"/>
<rect x="861.9" width="841.9" height="595.3"/>
<rect x="1385.4" y="224.1" fill="#FFFFFF" width="3.3" height="101.6"/>
<path fill="#FFFFFF" d="M1502.4,221c-4.5-26.6-21.2-43.5-45.2-53.9c-12.4-5.3-25.5-6-38.8-5.7c-8.9,0.2-16.4-2.9-21.8-10.4
	c-3.7-5.2-7.7-10.3-11.6-15.4c-1.2-1.5-2.5-2.8-3.8-4.2c-0.5,0.3-0.9,0.6-1.4,0.9c3.5,9.9,7.3,19.6,13.5,28.3c3.8,5.3,8.6,9,15.2,10
	c8.1,1.3,16.4,2,24.3,4.2c7.3,2,14.9,4.6,21.1,8.7c21.7,14.3,19.5,41.4-3.7,53c-16.3,8.1-33.2,4.1-50.4,2.4V228
	c-8.7-1.4-16.9-1.4-26.1,0c0,2.2,0,4.2,0,6.2c0,17.8,0,35.6,0,53.4c0,10.1,0,10,9.6,10.9c0.3,0,12.9-0.3,16-0.5
	c1.1-8.7,2.1-9.9,10.8-11.4c9-1.6,18.1-2.6,27.1-4.4c18.3-3.6,35.8-9.4,50.3-21.9C1499.5,249.8,1505.1,236.7,1502.4,221z"/>
<path fill="#FFFFFF" d="M1236.1,228.6c0,1.8-0.2,3.8,0,5.8c0.3,3.5-1.2,5-4.6,5.2c-8.9,0.4-17.9,1.1-26.8,1.5
	c-9.3,0.3-17.6-2.9-25-8.4c-16.2-12-17.1-32.4-2.1-45.9c10.6-9.5,23.7-13.3,37.4-14c16.9-0.9,28.5-8.1,34.5-24
	c1.6-4.3,3.6-8.4,5.3-12.7c0.5-1.2,0.6-2.6,0.9-3.9c-2.3,0.9-3.7,2.3-4.8,3.8c-4.3,5.5-7.9,11.6-12.8,16.4
	c-3.6,3.5-8.4,6.8-13.2,7.8c-7.2,1.6-14.9,0.8-22.4,1.5c-29.1,2.9-51.4,16.6-64.2,43.4c-11.1,23.2-4.9,45.3,16.4,59.7
	c5,3.4,10.4,6.2,15.9,8.7c16.6,7.5,34.4,9.8,52.2,12.3c7.4,1,14.7,1.9,14,12.1c3.7,0.2,25.1,0.1,25.1,0.1v-69.4
	C1257.1,227.4,1240.6,227.4,1236.1,228.6z"/>
<path fill="#FF0123" d="M1518.8,296.3c-1.7,1-2.8,0.6-4.5,0.4c-0.8-0.1-1.2-1.5-1.9-1.5c-0.9-0.1-1.7,0.9-2.6,1.2
	c0.7,14.4-0.9,28.9-3.6,43.1c-21.2,114-138.9,182.4-248.4,144.5c-82-28.4-133.5-106.9-127.3-191.3c-0.6,4-4.6,2.8-7.3,0.8
	c-4,62.1,21.4,133,85.4,177.4c74.4,51.7,177.9,44.7,245.3-16.8C1503.9,408.3,1521.5,348.1,1518.8,296.3z"/>
<path fill="#FFFFFF" d="M1353.6,310.2h10.3V214c-4.8-1.6-20.8-1.5-25.2,0.1v95.8C1342.3,310.1,1353.6,310.2,1353.6,310.2z"/>
<path fill="#FFFFFF" d="M1271.9,214.1v95.8c3.8,0.2,21.7,0.1,25-0.1v-95.7C1292.5,212.5,1276.4,212.5,1271.9,214.1z"/>
<path fill="#FFFFFF" d="M1305.6,194.9v96.5c3.7,0.2,21.1,0.2,24.6-0.2v-96.3C1326.2,193.2,1309.3,193,1305.6,194.9z"/>
<path fill="#FF0123" d="M1213.2,140.3c2.4,0.8,4.1,3.2,3.7,5.5c13.1-8.7,27.1-15.6,42.3-20.5c16.8-5.4,34-9.2,51.7-9.8
	c44.9-1.6,85.9,10.4,122.1,37.5c5.9,4.4,12,5.5,19.9,6.7C1379.8,93.4,1276.9,97.6,1213.2,140.3z"/>
<path fill="#FF0123" d="M1123.2,314c0.6-0.4,1.4-0.6,2.1-0.7c1.9-0.3,3.9,0.3,5.1,2.2c-0.8-15,0.2-30.4,3.3-46.2
	c1.4-7.3-0.3-13.3-2.8-20.9C1124.3,270.9,1122,292.9,1123.2,314z"/>
<path fill="#FF0123" d="M1509.1,241.4c-2.5,7.5-4.3,13.6-2.8,20.9c2.6,13.5,3.9,28.4,3.7,41.4c2.2,0,4.5,0.3,4.7,2.6c0,0,0,0,0,0
	c0.7,0.1,3.7,3.5,4.4,3.9C1520.2,289,1515.7,263.8,1509.1,241.4z"/>
<path fill="#FF0123" d="M1243.9,124c0,0.7,0.1,0.7,0.3,1.4c0.5,1.8,1.9,3.4,4.2,3.7c-13.9,5.8-27.3,13.5-40.1,23.1
	c-6,4.5-12.1,5.5-20,6.6C1205.6,143.1,1224.4,132.2,1243.9,124z"/>
<path fill="#FFFFFF" d="M1211.3,301.5c8.6,0,16.6,0,25,0c0,3.1,0,5.9,0,9.3c-3.2,0.2-6.4,0.3-10.5,0.5c0,2.8,0,5.5,0,8.3
	c0,1.4,0,2.7,0,4.1c0,0.7,0,1.4-0.1,2c0,0.8,0,1.3,0,1.3c-0.8,0.1-3.9,0-4,0c0,0,0-1.6,0-2c0-0.6,0-1.3-0.1-1.9c0-1.3,0-2.5,0-3.8
	c0-0.7,0.1-8.1,0.1-8.1c-3.8,0-9,0.2-10.4,0.1C1211.3,308.2,1211.3,304.8,1211.3,301.5z"/>
<path fill="#FFFFFF" d="M1399.2,302.2c8.6,0,16.6,0,25,0c0,3.1,0,5.9,0,9.3c-3.2,0.2-6.4,0.3-10.5,0.5c0,5.1,0.1,10-0.1,14.9l-4,0.1
	c-0.2-4.8-0.1-9.9-0.1-15.2c-3.6-0.2-6.9-0.2-10.4-0.4C1399.2,308.4,1399.2,305.6,1399.2,302.2z"/>
<path fill="#FF0123" d="M1216.5,336.4c11.1,0.4,22.1,0.4,33,1.4c6.3,0.5,10.7,5.8,11.7,11.8c1.3,7.2-1.2,13.3-6.8,16.9
	c-1.2,0.7-2.5,1.3-4.1,2.2c-0.2,0.1,17.2,28.8,18,31.6c-5.8,0.3-11.7,0.1-17.5,0c-1.8,0-2.6-1.1-3.5-2.6
	c-4.1-7.1-8.2-14.3-12.9-21.4c0,7.9,0,15.7,0,23.9c-6.2,0-11.9,0-17.9,0C1216.5,379.2,1216.5,358.2,1216.5,336.4z M1234.4,363.6
	c6.8-0.4,8.7-2.8,8.4-10.3c-0.2-5.8-2.4-7.8-8.4-7.5C1234.4,351.6,1234.4,357.5,1234.4,363.6z"/>
<path fill="#FF0123" d="M1345.1,379.7c-3.4,6.7-6.3,12.6-9.4,18.4c-1.1,2-3.7,2.3-5.7,2.6c-2.3,0.3-4.7,0.3-7.1,0.2
	c-3.3-0.2-1.1-2.8-0.1-4.2c5.1-8.1,10.1-16.2,15.3-24.2c1.2-1.9,1.3-3.2,0.1-5.2c-5.4-8.8-10.6-17.7-15.9-26.6
	c-0.6-1-2.2-2.6-1.8-3.9c0.1-0.4,7.6,0,8.3,0c2.4,0,4.9,0.1,7.3,0.1c2,0.1,3.9,0.7,5,2.5c3.2,5.2,6.1,10.4,9.6,16.3
	c2.8-5.2,5.6-9.9,7.9-14.7c0.9-2,2.5-3.7,4.8-4.1c1.5-0.3,3.1-0.2,4.7-0.1c1.6,0.1,3.3,0,4.8,0.1c-0.4,1.3-1.3,2.7-2,3.8
	c-4.3,7.2-8.5,14.5-13,21.6c-1.4,2.2-1.3,3.8,0,5.9c5.6,9.4,11,19,16.5,28.5c0.4,0.7,0.8,1.4,1.2,2.1c0.2,0.4,0.4,0.7,0.5,1.1
	c0.1,0.4,0.3,0.7-0.2,0.7c-1,0-2.1,0-3.1,0c-1.2,0-2.4,0-3.7,0c-2.4,0-4.9,0-7.3,0.1c-1.3,0-2.6,0-3.8-0.4c-0.9-0.3-1.8-0.8-2.3-1.6
	c-0.3-0.4-0.4-0.8-0.7-1.2c-0.3-0.5-0.6-1-0.9-1.5c-1.2-2-2.3-4.1-3.4-6.2C1348.7,386.4,1346.9,383,1345.1,379.7z"/>
<path fill="#FF0123" d="M1403.2,379.7c-3.4,6.7-6.3,12.6-9.4,18.4c-1.1,2-3.7,2.3-5.7,2.6c-2.3,0.3-4.7,0.3-7.1,0.2
	c-3.3-0.2-1.1-2.8-0.1-4.2c5.1-8.1,10.1-16.2,15.3-24.2c1.2-1.9,1.3-3.2,0.1-5.2c-5.4-8.8-10.6-17.7-15.9-26.6
	c-0.6-1-2.2-2.6-1.8-3.9c0.1-0.4,7.6,0,8.3,0c2.4,0,4.9,0.1,7.3,0.1c2,0.1,3.9,0.7,5,2.5c3.2,5.2,6.1,10.4,9.6,16.3
	c2.8-5.2,5.6-9.9,7.9-14.7c0.9-2,2.5-3.7,4.8-4.1c1.5-0.3,3.1-0.2,4.7-0.1c1.6,0.1,3.3,0,4.8,0.1c-0.4,1.3-1.3,2.7-2,3.8
	c-4.3,7.2-8.5,14.5-13,21.6c-1.4,2.2-1.3,3.8,0,5.9c5.6,9.4,11,19,16.5,28.5c0.4,0.7,0.8,1.4,1.2,2.1c0.2,0.4,0.4,0.7,0.5,1.1
	c0.1,0.4,0.3,0.7-0.2,0.7c-1,0-2.1,0-3.1,0c-1.2,0-2.4,0-3.7,0c-2.4,0-4.9,0-7.3,0.1c-1.3,0-2.6,0-3.8-0.4c-0.9-0.3-1.8-0.8-2.3-1.6
	c-0.3-0.4-0.4-0.8-0.7-1.2c-0.3-0.5-0.6-1-0.9-1.5c-1.2-2-2.3-4.1-3.4-6.2C1406.9,386.4,1405.1,383,1403.2,379.7z"/>
<path fill="#FF0123" d="M1292.6,372.3c0,6.6,0,12.7,0,19.2c8.2,0,16.3,0,24.4,0c0,3.1,0,5.8,0,8.7c-14.1,0-28,0-42.2,0
	c0-20.9,0-41.9,0-63.1c13.7,0,27.4,0,41.3,0c0,2.6,0,5.2,0,8.3c-7.7,0-15.5,0-23.5,0c0,6.2,0,11.9,0,18c5.2,0,13.5-0.2,18.7-0.2
	c0,0,0,7.4,0,9.1C1304.9,372.3,1298.9,372.3,1292.6,372.3z"/>
<g>
	<path fill="#FFFFFF" d="M1327.9,409.5c3.3-1.1,5.4,0,7.2,2.9c5.7,9.2,11.7,18.1,18.4,27c0-10,0-19.9,0-30c1.9,0,3.4,0,5,0
		c0,13.6,0,26.9,0,40.2c-3.6,1.1-5.6-0.2-7.5-3.2c-5.6-9.1-11.6-17.9-18-27.8c0,11,0,21,0,31.1c-1.9,0-3.3,0-5.1,0
		C1327.9,436.4,1327.9,423.1,1327.9,409.5z"/>
	<path fill="#FFFFFF" d="M1392.9,434c-3.3,0-6,0-9.1,0c-0.1-1.4-0.1-2.6-0.2-4c4.9,0,9.6,0,14.6,0c0,4.7,0.6,9.4-0.3,13.8
		c-0.4,2.1-3.4,4.4-5.7,5.3c-8.5,3.1-19.5,1.3-23.2-7.9c-1.8-4.6-2.5-9.7-2-14.6c0.4-4.5,1.6-10.6,4.9-13.9c2.3-2.3,6-3.4,9.1-3.7
		c8.3-0.8,15.4,3,16.9,11.7c-1.5,0.5-3.2,0.8-4.5,0c-1.3-0.9-1.7-2.6-2.5-4c-1.5-2.7-4.5-3.5-7.3-3.5c-5.6-0.1-8.4,2.5-10.1,7.5
		c-1.7,5-2,10.4-0.7,15.5c0.6,2.4,1.6,4.8,3.3,6.7c3.5,4.1,10.1,4.8,14.6,2c1-0.6,1.9-2,2-3.1C1393.1,439.2,1392.9,436.9,1392.9,434
		z"/>
	<path fill="#FFFFFF" d="M1255.2,431.3c0,6.3,0,12.2,0,18.4c-1.8,0-3.3,0-5.1,0c0-13.4,0-26.7,0-40.2c1.5,0,3,0,4.9,0
		c0,5.5,0,11.1,0,16.9c7,0,13.6,0,20.6,0c0-5.7,0-11.2,0-17c1.9,0,3.3,0,5,0c0,13.4,0,26.8,0,40.3c-1.6,0-3,0-4.9,0
		c0-6.1,0-12.1,0-18.4C1268.7,431.3,1262.2,431.3,1255.2,431.3z"/>
	<path fill="#FFFFFF" d="M1432,449.7c-8.8,0-17.1,0-25.6,0c0-13.4,0-26.7,0-40.3c8.2,0,16.4,0,24.9,0c0,1.2,0,2.4,0,3.9
		c-6.4,0-12.9,0-19.6,0c0,4.5,0,8.6,0,13.2c5.6,0,11.3,0,17.2,0c0.1,1.6,0.1,2.8,0.2,4.4c-5.9,0-11.6,0-17.5,0c0,5,0,9.5,0,14.4
		c6.7,0,13.2,0,20,0C1431.8,446.9,1431.9,448.1,1432,449.7z"/>
	<path fill="#FFFFFF" d="M1322.1,449.3c-0.1,0.2-0.3,0.4-0.6,0.5c-2.9,1.5-5-2-5.8-4.1c-2.8-7.9-0.7-6.3-9.1-6.5c-0.4,0-0.7,0-1.1,0
		c-2.9,0-6.9-0.6-9.1,1.8c-2.7,3.1-1.8,9-7.1,9c-0.4,0-0.7,0-1-0.2c-1-0.6-0.3-2.1,0-2.9c4.4-11.6,8.8-23.2,13.2-34.8
		c1.5-4,5.5-3.9,6.9,0c4.4,11.5,8.8,23,13.2,34.5C1321.9,447.7,1322.5,448.6,1322.1,449.3z M1304.9,415.7c-2.5,6.9-4.6,12.8-6.8,19
		c4.8,0,8.9,0,13.6,0C1309.5,428.4,1307.4,422.5,1304.9,415.7z"/>
	<path fill="#FFFFFF" d="M1242.8,421.9c0,0.4-3.4,0.3-3.8,0.1c-1.4-0.6-1.6-1.7-2.1-3c-2.5-7.4-12.9-8.1-17.1-1.8
		c-3.7,5.5-3.7,15-1.7,21.1c1.3,3.8,4.5,7.2,8.7,7.7c4.1,0.6,8.9-1.2,9.9-5.5c0.9-3.8,3-3.9,5.9-3.2c-0.4,6.4-4.1,11.1-9.9,12.6
		c-5.6,1.5-11.5,0.7-15.7-3.7c-3-3.2-4.6-7.4-5.3-11.7c-1-6.7,0.1-13.9,3.7-19.6c3.6-5.7,10.7-7.1,16.9-5.7
		C1238.2,410.3,1241.9,414.7,1242.8,421.9z"/>
</g>
<rect x="1246.8" y="224.1" fill="#FFFFFF" width="3.3" height="102.9"/>
<rect x="1385.4" y="224.1" fill="#FFFFFF" width="3.3" height="102.9"/>
<rect x="1282.9" y="210.3" fill="#FFFFFF" width="3.2" height="116.7"/>
<rect x="1349.7" y="210.3" fill="#FFFFFF" width="3.2" height="116.7"/>
<rect x="1316.5" y="189.7" fill="#FFFFFF" width="3.1" height="137.3"/>
<rect x="2255.8" y="232.6" fill="#FFFFFF" width="3.3" height="101.6"/>
<path fill="#FFFFFF" d="M2372.9,229.5c-4.5-26.6-21.2-43.5-45.2-53.9c-12.4-5.3-25.5-6-38.8-5.7c-8.9,0.2-16.4-2.9-21.8-10.4
	c-3.7-5.2-7.7-10.3-11.6-15.4c-1.2-1.5-2.5-2.8-3.8-4.2c-0.5,0.3-0.9,0.6-1.4,0.9c3.5,9.9,7.3,19.6,13.5,28.3c3.8,5.3,8.6,9,15.2,10
	c8.1,1.3,16.4,2,24.3,4.2c7.3,2,14.9,4.6,21.1,8.7c21.7,14.3,19.5,41.4-3.7,53c-16.3,8.1-33.2,4.1-50.4,2.4v-10.8
	c-8.7-1.4-16.9-1.4-26.1,0c0,2.2,0,4.2,0,6.2c0,17.8,0,35.6,0,53.4c0,10.1,0,10,9.6,10.9c0.3,0,12.9-0.3,16-0.5
	c1.1-8.7,2.1-9.9,10.8-11.4c9-1.6,18.1-2.6,27.1-4.4c18.3-3.6,35.8-9.4,50.3-21.9C2370,258.3,2375.6,245.2,2372.9,229.5z"/>
<path fill="#FFFFFF" d="M2106.5,237.1c0,1.8-0.2,3.8,0,5.8c0.3,3.5-1.2,5-4.6,5.2c-8.9,0.4-17.9,1.1-26.8,1.5
	c-9.3,0.3-17.6-2.9-25-8.4c-16.2-12-17.1-32.4-2.1-45.9c10.6-9.5,23.7-13.3,37.4-14c16.9-0.9,28.5-8.1,34.5-24
	c1.6-4.3,3.6-8.4,5.3-12.7c0.5-1.2,0.6-2.6,0.9-3.9c-2.3,0.9-3.7,2.3-4.8,3.8c-4.3,5.5-7.9,11.6-12.8,16.4
	c-3.6,3.5-8.4,6.8-13.2,7.8c-7.2,1.6-14.9,0.8-22.4,1.5c-29.1,2.9-51.4,16.6-64.2,43.4c-11.1,23.2-4.9,45.3,16.4,59.7
	c5,3.4,10.4,6.2,15.9,8.7c16.6,7.5,34.4,9.8,52.2,12.3c7.4,1,14.7,1.9,14,12.1c3.7,0.2,25.1,0.1,25.1,0.1v-69.4
	C2127.6,235.9,2111.1,235.9,2106.5,237.1z"/>
<path fill="#FF0123" d="M2389.3,304.7c-1.7,1-2.8,0.6-4.5,0.4c-0.8-0.1-1.2-1.5-1.9-1.5c-0.9-0.1-1.7,0.9-2.6,1.2
	c0.7,14.4-0.9,28.9-3.6,43.1c-21.2,114-138.9,182.4-248.4,144.5c-82-28.4-133.5-106.9-127.3-191.3c-0.6,4-4.6,2.8-7.3,0.8
	c-4,62.1,21.4,133,85.4,177.4c74.4,51.7,177.9,44.7,245.3-16.8C2374.3,416.8,2392,356.5,2389.3,304.7z"/>
<path fill="#FFFFFF" d="M2224,318.6h10.3v-96.2c-4.8-1.6-20.8-1.5-25.2,0.1v95.8C2212.8,318.5,2224,318.6,2224,318.6z"/>
<path fill="#FFFFFF" d="M2142.4,222.6v95.8c3.8,0.2,21.7,0.1,25-0.1v-95.7C2163,221,2146.9,220.9,2142.4,222.6z"/>
<path fill="#FFFFFF" d="M2176.1,203.4v96.5c3.7,0.2,21.1,0.2,24.6-0.2v-96.3C2196.7,201.6,2179.8,201.5,2176.1,203.4z"/>
<path fill="#FF0123" d="M2083.7,148.7c2.4,0.8,4.1,3.2,3.7,5.5c13.1-8.7,27.1-15.6,42.3-20.5c16.8-5.4,34-9.2,51.7-9.8
	c44.9-1.6,85.9,10.4,122.1,37.5c5.9,4.4,12,5.5,19.9,6.7C2250.3,101.9,2147.4,106.1,2083.7,148.7z"/>
<path fill="#FF0123" d="M2379.6,249.9c-2.5,7.5-4.3,13.6-2.8,20.9c2.6,13.5,3.9,28.4,3.7,41.4c2.2,0,4.5,0.3,4.7,2.6c0,0,0,0,0,0
	c0.7,0.1,3.7,3.5,4.4,3.9C2390.7,297.5,2386.2,272.3,2379.6,249.9z"/>
<path fill="#FF0123" d="M2114.4,132.5c0,0.7,0.1,0.7,0.3,1.4c0.5,1.8,1.9,3.4,4.2,3.7c-13.9,5.8-27.3,13.5-40.1,23.1
	c-6,4.5-12.1,5.5-20,6.6C2076.1,151.6,2094.8,140.7,2114.4,132.5z"/>
<path fill="#FFFFFF" d="M2081.8,309.9c8.6,0,16.6,0,25,0c0,3.1,0,5.9,0,9.3c-3.2,0.2-6.4,0.3-10.5,0.5c0,2.8,0,5.5,0,8.3
	c0,1.4,0,2.7,0,4.1c0,0.7,0,1.4-0.1,2c0,0.8,0,1.3,0,1.3c-0.8,0.1-3.9,0-4,0c0,0,0-1.6,0-2c0-0.6,0-1.3-0.1-1.9c0-1.3,0-2.5,0-3.8
	c0-0.7,0.1-8.1,0.1-8.1c-3.8,0-9,0.2-10.4,0.1C2081.8,316.7,2081.8,313.3,2081.8,309.9z"/>
<path fill="#FFFFFF" d="M2269.7,310.7c8.6,0,16.6,0,25,0c0,3.1,0,5.9,0,9.3c-3.2,0.2-6.4,0.3-10.5,0.5c0,5.1,0.1,10-0.1,14.9l-4,0.1
	c-0.2-4.8-0.1-9.9-0.1-15.2c-3.6-0.2-6.9-0.2-10.4-0.4C2269.7,316.9,2269.7,314.1,2269.7,310.7z"/>
<path fill="#FF0123" d="M2087,344.9c11.1,0.4,22.1,0.4,33,1.4c6.3,0.5,10.7,5.8,11.7,11.8c1.3,7.2-1.2,13.3-6.8,16.9
	c-1.2,0.7-2.5,1.3-4.1,2.2c-0.2,0.1,17.2,28.8,18,31.6c-5.8,0.3-11.7,0.1-17.5,0c-1.8,0-2.6-1.1-3.5-2.6
	c-4.1-7.1-8.2-14.3-12.9-21.4c0,7.9,0,15.7,0,23.9c-6.2,0-11.9,0-17.9,0C2087,387.7,2087,366.7,2087,344.9z M2104.9,372.1
	c6.8-0.4,8.7-2.8,8.4-10.3c-0.2-5.8-2.4-7.8-8.4-7.5C2104.9,360.1,2104.9,365.9,2104.9,372.1z"/>
<path fill="#FF0123" d="M2215.5,388.2c-3.4,6.7-6.3,12.6-9.4,18.4c-1.1,2-3.7,2.3-5.7,2.6c-2.3,0.3-4.7,0.3-7.1,0.2
	c-3.3-0.2-1.1-2.8-0.1-4.2c5.1-8.1,10.1-16.2,15.3-24.2c1.2-1.9,1.3-3.2,0.1-5.2c-5.4-8.8-10.6-17.7-15.9-26.6
	c-0.6-1-2.2-2.6-1.8-3.9c0.1-0.4,7.6,0,8.3,0c2.4,0,4.9,0.1,7.3,0.1c2,0.1,3.9,0.7,5,2.5c3.2,5.2,6.1,10.4,9.6,16.3
	c2.8-5.2,5.6-9.9,7.9-14.7c0.9-2,2.5-3.7,4.8-4.1c1.5-0.3,3.1-0.2,4.7-0.1c1.6,0.1,3.3,0,4.8,0.1c-0.4,1.3-1.3,2.7-2,3.8
	c-4.3,7.2-8.5,14.5-13,21.6c-1.4,2.2-1.3,3.8,0,5.9c5.6,9.4,11,19,16.5,28.5c0.4,0.7,0.8,1.4,1.2,2.1c0.2,0.4,0.4,0.7,0.5,1.1
	c0.1,0.4,0.3,0.7-0.2,0.7c-1,0-2.1,0-3.1,0c-1.2,0-2.4,0-3.7,0c-2.4,0-4.9,0-7.3,0.1c-1.3,0-2.6,0-3.8-0.4c-0.9-0.3-1.8-0.8-2.3-1.6
	c-0.3-0.4-0.4-0.8-0.7-1.2c-0.3-0.5-0.6-1-0.9-1.5c-1.2-2-2.3-4.1-3.4-6.2C2219.2,394.9,2217.4,391.5,2215.5,388.2z"/>
<path fill="#FF0123" d="M2273.7,388.2c-3.4,6.7-6.3,12.6-9.4,18.4c-1.1,2-3.7,2.3-5.7,2.6c-2.3,0.3-4.7,0.3-7.1,0.2
	c-3.3-0.2-1.1-2.8-0.1-4.2c5.1-8.1,10.1-16.2,15.3-24.2c1.2-1.9,1.3-3.2,0.1-5.2c-5.4-8.8-10.6-17.7-15.9-26.6
	c-0.6-1-2.2-2.6-1.8-3.9c0.1-0.4,7.6,0,8.3,0c2.4,0,4.9,0.1,7.3,0.1c2,0.1,3.9,0.7,5,2.5c3.2,5.2,6.1,10.4,9.6,16.3
	c2.8-5.2,5.6-9.9,7.9-14.7c0.9-2,2.5-3.7,4.8-4.1c1.5-0.3,3.1-0.2,4.7-0.1c1.6,0.1,3.3,0,4.8,0.1c-0.4,1.3-1.3,2.7-2,3.8
	c-4.3,7.2-8.5,14.5-13,21.6c-1.4,2.2-1.3,3.8,0,5.9c5.6,9.4,11,19,16.5,28.5c0.4,0.7,0.8,1.4,1.2,2.1c0.2,0.4,0.4,0.7,0.5,1.1
	c0.1,0.4,0.3,0.7-0.2,0.7c-1,0-2.1,0-3.1,0c-1.2,0-2.4,0-3.7,0c-2.4,0-4.9,0-7.3,0.1c-1.3,0-2.6,0-3.8-0.4c-0.9-0.3-1.8-0.8-2.3-1.6
	c-0.3-0.4-0.4-0.8-0.7-1.2c-0.3-0.5-0.6-1-0.9-1.5c-1.2-2-2.3-4.1-3.4-6.2C2277.4,394.9,2275.6,391.5,2273.7,388.2z"/>
<path fill="#FF0123" d="M2163,380.8c0,6.6,0,12.7,0,19.2c8.2,0,16.3,0,24.4,0c0,3.1,0,5.8,0,8.7c-14.1,0-28,0-42.2,0
	c0-20.9,0-41.9,0-63.1c13.7,0,27.4,0,41.3,0c0,2.6,0,5.2,0,8.3c-7.7,0-15.5,0-23.5,0c0,6.2,0,11.9,0,18c5.2,0,13.5-0.2,18.7-0.2
	c0,0,0,7.4,0,9.1C2175.4,380.8,2169.4,380.8,2163,380.8z"/>
<g>
	<path fill="#FFFFFF" d="M2198.4,418c3.3-1.1,5.4,0,7.2,2.9c5.7,9.2,11.7,18.1,18.4,27c0-10,0-19.9,0-30c1.9,0,3.4,0,5,0
		c0,13.6,0,26.9,0,40.2c-3.6,1.1-5.6-0.2-7.5-3.2c-5.6-9.1-11.6-17.9-18-27.8c0,11,0,21,0,31.1c-1.9,0-3.3,0-5.1,0
		C2198.4,444.9,2198.4,431.6,2198.4,418z"/>
	<path fill="#FFFFFF" d="M2263.4,442.4c-3.3,0-6,0-9.1,0c-0.1-1.4-0.1-2.6-0.2-4c4.9,0,9.6,0,14.6,0c0,4.7,0.6,9.4-0.3,13.8
		c-0.4,2.1-3.4,4.4-5.7,5.3c-8.5,3.1-19.5,1.3-23.2-7.9c-1.8-4.6-2.5-9.7-2-14.6c0.4-4.5,1.6-10.6,4.9-13.9c2.3-2.3,6-3.4,9.1-3.7
		c8.3-0.8,15.4,3,16.9,11.7c-1.5,0.5-3.2,0.8-4.5,0c-1.3-0.9-1.7-2.6-2.5-4c-1.5-2.7-4.5-3.5-7.3-3.5c-5.6-0.1-8.4,2.5-10.1,7.5
		c-1.7,5-2,10.4-0.7,15.5c0.6,2.4,1.6,4.8,3.3,6.7c3.5,4.1,10.1,4.8,14.6,2c1-0.6,1.9-2,2-3.1
		C2263.6,447.7,2263.4,445.3,2263.4,442.4z"/>
	<path fill="#FFFFFF" d="M2125.6,439.8c0,6.3,0,12.2,0,18.4c-1.8,0-3.3,0-5.1,0c0-13.4,0-26.7,0-40.2c1.5,0,3,0,4.9,0
		c0,5.5,0,11.1,0,16.9c7,0,13.6,0,20.6,0c0-5.7,0-11.2,0-17c1.9,0,3.3,0,5,0c0,13.4,0,26.8,0,40.3c-1.6,0-3,0-4.9,0
		c0-6.1,0-12.1,0-18.4C2139.2,439.8,2132.6,439.8,2125.6,439.8z"/>
	<path fill="#FFFFFF" d="M2302.4,458.2c-8.8,0-17.1,0-25.6,0c0-13.4,0-26.7,0-40.3c8.2,0,16.4,0,24.9,0c0,1.2,0,2.4,0,3.9
		c-6.4,0-12.9,0-19.6,0c0,4.5,0,8.6,0,13.2c5.6,0,11.3,0,17.2,0c0.1,1.6,0.1,2.8,0.2,4.4c-5.9,0-11.6,0-17.5,0c0,5,0,9.5,0,14.4
		c6.7,0,13.2,0,20,0C2302.3,455.4,2302.3,456.6,2302.4,458.2z"/>
	<path fill="#FFFFFF" d="M2192.6,457.8c-0.1,0.2-0.3,0.4-0.6,0.5c-2.9,1.5-5-2-5.8-4.1c-2.8-7.9-0.7-6.3-9.1-6.5c-0.4,0-0.7,0-1.1,0
		c-2.9,0-6.9-0.6-9.1,1.8c-2.7,3.1-1.8,9-7.1,9c-0.4,0-0.7,0-1-0.2c-1-0.6-0.3-2.1,0-2.9c4.4-11.6,8.8-23.2,13.2-34.8
		c1.5-4,5.5-3.9,6.9,0c4.4,11.5,8.8,23,13.2,34.5C2192.4,456.2,2193,457.1,2192.6,457.8z M2175.4,424.1c-2.5,6.9-4.6,12.8-6.8,19
		c4.8,0,8.9,0,13.6,0C2180,436.9,2177.8,431,2175.4,424.1z"/>
	<path fill="#FFFFFF" d="M2113.3,430.4c0,0.4-3.4,0.3-3.8,0.1c-1.4-0.6-1.6-1.7-2.1-3c-2.5-7.4-12.9-8.1-17.1-1.8
		c-3.7,5.5-3.7,15-1.7,21.1c1.3,3.8,4.5,7.2,8.7,7.7c4.1,0.6,8.9-1.2,9.9-5.5c0.9-3.8,3-3.9,5.9-3.2c-0.4,6.4-4.1,11.1-9.9,12.6
		c-5.6,1.5-11.5,0.7-15.7-3.7c-3-3.2-4.6-7.4-5.3-11.7c-1-6.7,0.1-13.9,3.7-19.6c3.6-5.7,10.7-7.1,16.9-5.7
		C2108.7,418.8,2112.3,423.2,2113.3,430.4z"/>
</g>
<rect x="2117.3" y="232.6" fill="#FFFFFF" width="3.3" height="102.9"/>
<rect x="2255.8" y="232.6" fill="#FFFFFF" width="3.3" height="102.9"/>
<rect x="2153.4" y="218.8" fill="#FFFFFF" width="3.2" height="116.7"/>
<rect x="2220.2" y="218.8" fill="#FFFFFF" width="3.2" height="116.7"/>
<rect x="2187" y="198.2" fill="#FFFFFF" width="3.1" height="137.3"/>
<rect x="429.6" y="209.6" fill="#FFFFFF" width="3.3" height="101.6"/>
<path fill="#FFFFFF" d="M548.2,206.4c-4.5-26.6-21.2-43.5-45.2-53.9c-12.4-5.3-25.5-6-38.8-5.7c-8.9,0.2-16.4-2.9-21.8-10.4
	c-3.7-5.2-7.7-10.3-11.6-15.4c-1.2-1.5-2.5-2.8-3.8-4.2c-0.5,0.3-0.9,0.6-1.4,0.9c3.5,9.9,7.3,19.6,13.5,28.3c3.8,5.3,8.6,9,15.2,10
	c8.1,1.3,16.4,2,24.3,4.2c7.3,2,14.9,4.6,21.1,8.7c21.7,14.3,19.5,41.4-3.7,53c-16.3,8.1-33.2,4.1-50.4,2.4v-10.8
	c-8.7-1.4-16.9-1.4-26.1,0c0,2.2,0,4.2,0,6.2c0,17.8,0,35.6,0,53.4c0,10.1,0,10,9.6,10.9c0.3,0,12.9-0.3,16-0.5
	c1.1-8.7,2.1-9.9,10.8-11.4c9-1.6,18.1-2.6,27.1-4.4c18.3-3.6,35.8-9.4,50.3-21.9C545.3,235.3,550.9,222.1,548.2,206.4z"/>
<path fill="#FFFFFF" d="M170.1,209.3c4.5-26.6,21.2-43.5,45.2-53.9c12.4-5.3,25.5-6,38.8-5.7c8.9,0.2,16.4-2.9,21.8-10.4
	c3.7-5.2,7.7-10.3,11.6-15.4c1.2-1.5,2.5-2.8,3.8-4.2c0.5,0.3,0.9,0.6,1.4,0.9c-3.5,9.9-7.3,19.6-13.5,28.3c-3.8,5.3-8.6,9-15.2,10
	c-8.1,1.3-16.4,2-24.3,4.2c-7.3,2-14.9,4.6-21.1,8.7c-21.7,14.3-19.5,41.4,3.7,53c16.3,8.1,33.2,4.1,50.4,2.4v-10.8
	c8.7-1.4,16.9-1.4,26.1,0c0,2.2,0,4.2,0,6.2c0,17.8,0,35.6,0,53.4c0,10.1,0,10-9.6,10.9c-0.3,0-12.9-0.3-16-0.5
	c-1.1-8.7-2.1-9.9-10.8-11.4c-9-1.6-18.1-2.6-27.1-4.4c-18.3-3.6-35.8-9.4-50.3-21.9C173,238.1,167.5,225,170.1,209.3z"/>
<path fill="#FF0123" d="M559.7,281.7c-1.7,1-2.8,0.6-4.5,0.4c-0.8-0.1-1.2-1.5-1.9-1.5c-0.9-0.1-1.7,0.9-2.6,1.2
	c0.7,14.4-0.9,28.9-3.6,43.1c-21.2,114-138.9,182.4-248.4,144.5c-82-28.4-133.5-106.9-127.3-191.3c-0.6,4-4.6,2.8-7.3,0.8
	c-4,62.1,21.4,133,85.4,177.4c74.4,51.7,177.9,44.7,245.3-16.8C544.8,393.8,562.5,333.5,559.7,281.7z"/>
<path fill="#FFFFFF" d="M394.5,295.6h10.3v-96.2c-4.8-1.6-20.8-1.5-25.2,0.1v95.8C383.3,295.5,394.5,295.6,394.5,295.6z"/>
<path fill="#FFFFFF" d="M312.8,199.6v95.8c3.8,0.2,21.7,0.1,25-0.1v-95.7C333.4,197.9,317.4,197.9,312.8,199.6z"/>
<path fill="#FFFFFF" d="M346.5,180.4v96.5c3.7,0.2,21.1,0.2,24.6-0.2v-96.3C367.2,178.6,350.2,178.4,346.5,180.4z"/>
<path fill="#FF0123" d="M254.1,125.7c2.4,0.8,4.1,3.2,3.7,5.5c13.1-8.7,27.1-15.6,42.3-20.5c16.8-5.4,34-9.2,51.7-9.8
	c44.9-1.6,85.9,10.4,122.1,37.5c5.9,4.4,12,5.5,19.9,6.7C420.7,78.9,317.8,83,254.1,125.7z"/>
<path fill="#FF0123" d="M164.1,301.7c0.6-0.4,1.4-0.6,2.1-0.7c1.9-0.3,3.9,0.3,5.1,2.2c-0.8-15,0.2-30.4,3.3-46.2
	c1.4-7.3-0.3-13.3-2.8-20.9C165.2,258.6,162.9,280.6,164.1,301.7z"/>
<path fill="#FF0123" d="M550.1,226.9c-2.5,7.5-4.3,13.6-2.8,20.9c2.6,13.5,3.9,28.4,3.7,41.4c2.2,0,4.5,0.3,4.7,2.6c0,0,0,0,0,0
	c0.7,0.1,3.7,3.5,4.4,3.9C561.2,274.5,556.6,249.2,550.1,226.9z"/>
<path fill="#FF0123" d="M284.8,109.5c0,0.7,0.1,0.7,0.3,1.4c0.5,1.8,1.9,3.4,4.2,3.7c-13.9,5.8-27.3,13.5-40.1,23.1
	c-6,4.5-12.1,5.5-20,6.6C246.5,128.6,265.3,117.6,284.8,109.5z"/>
<path fill="#FFFFFF" d="M250.4,289.5c8.6,0,16.6,0,25,0c0,2.8,0,5.3,0,8.4c-3.2,0.1-6.4,0.3-10.5,0.5c0,2.5,0,5,0,7.4
	c0,1.2,0,2.5,0,3.7c0,0.6,0,1.2-0.1,1.8c0,0.7,0,1.2,0,1.2c-0.8,0.1-3.9,0-4,0c0,0,0-1.4,0-1.8c0-0.6,0-1.2-0.1-1.7
	c0-1.1,0-2.3,0-3.4c0-0.6,0.1-7.3,0.1-7.3c-3.8,0-9,0.2-10.4,0.1C250.4,295.5,250.4,292.5,250.4,289.5z"/>
<path fill="#FFFFFF" d="M440.1,287.7c8.6,0,16.6,0,25,0c0,3.1,0,5.9,0,9.3c-3.2,0.2-6.4,0.3-10.5,0.5c0,5.1,0.1,10-0.1,14.9l-4,0.1
	c-0.2-4.8-0.1-9.9-0.1-15.2c-3.6-0.2-6.9-0.2-10.4-0.4C440.1,293.9,440.1,291.1,440.1,287.7z"/>
<path fill="#FF0123" d="M257.4,321.9c11.1,0.4,22.1,0.4,33,1.4c6.3,0.5,10.7,5.8,11.7,11.8c1.3,7.2-1.2,13.3-6.8,16.9
	c-1.2,0.7-2.5,1.3-4.1,2.2c-0.2,0.1,17.2,28.8,18,31.6c-5.8,0.3-11.7,0.1-17.5,0c-1.8,0-2.6-1.1-3.5-2.6
	c-4.1-7.1-8.2-14.3-12.9-21.4c0,7.9,0,15.7,0,23.9c-6.2,0-11.9,0-17.9,0C257.4,364.6,257.4,343.7,257.4,321.9z M275.3,349
	c6.8-0.4,8.7-2.8,8.4-10.3c-0.2-5.8-2.4-7.8-8.4-7.5C275.3,337.1,275.3,342.9,275.3,349z"/>
<path fill="#FF0123" d="M386,365.1c-3.4,6.7-6.3,12.6-9.4,18.4c-1.1,2-3.7,2.3-5.7,2.6c-2.3,0.3-4.7,0.3-7.1,0.2
	c-3.3-0.2-1.1-2.8-0.1-4.2c5.1-8.1,10.1-16.2,15.3-24.2c1.2-1.9,1.3-3.2,0.1-5.2c-5.4-8.8-10.6-17.7-15.9-26.6
	c-0.6-1-2.2-2.6-1.8-3.9c0.1-0.4,7.6,0,8.3,0c2.4,0,4.9,0.1,7.3,0.1c2,0.1,3.9,0.7,5,2.5c3.2,5.2,6.1,10.4,9.6,16.3
	c2.8-5.2,5.6-9.9,7.9-14.7c0.9-2,2.5-3.7,4.8-4.1c1.5-0.3,3.1-0.2,4.7-0.1c1.6,0.1,3.3,0,4.8,0.1c-0.4,1.3-1.3,2.7-2,3.8
	c-4.3,7.2-8.5,14.5-13,21.6c-1.4,2.2-1.3,3.8,0,5.9c5.6,9.4,11,19,16.5,28.5c0.4,0.7,0.8,1.4,1.2,2.1c0.2,0.4,0.4,0.7,0.5,1.1
	c0.1,0.4,0.3,0.7-0.2,0.7c-1,0-2.1,0-3.1,0c-1.2,0-2.4,0-3.7,0c-2.4,0-4.9,0-7.3,0.1c-1.3,0-2.6,0-3.8-0.4c-0.9-0.3-1.8-0.8-2.3-1.6
	c-0.3-0.4-0.4-0.8-0.7-1.2c-0.3-0.5-0.6-1-0.9-1.5c-1.2-2-2.3-4.1-3.4-6.2C389.7,371.8,387.8,368.5,386,365.1z"/>
<path fill="#FF0123" d="M444.2,365.1c-3.4,6.7-6.3,12.6-9.4,18.4c-1.1,2-3.7,2.3-5.7,2.6c-2.3,0.3-4.7,0.3-7.1,0.2
	c-3.3-0.2-1.1-2.8-0.1-4.2c5.1-8.1,10.1-16.2,15.3-24.2c1.2-1.9,1.3-3.2,0.1-5.2c-5.4-8.8-10.6-17.7-15.9-26.6
	c-0.6-1-2.2-2.6-1.8-3.9c0.1-0.4,7.6,0,8.3,0c2.4,0,4.9,0.1,7.3,0.1c2,0.1,3.9,0.7,5,2.5c3.2,5.2,6.1,10.4,9.6,16.3
	c2.8-5.2,5.6-9.9,7.9-14.7c0.9-2,2.5-3.7,4.8-4.1c1.5-0.3,3.1-0.2,4.7-0.1c1.6,0.1,3.3,0,4.8,0.1c-0.4,1.3-1.3,2.7-2,3.8
	c-4.3,7.2-8.5,14.5-13,21.6c-1.4,2.2-1.3,3.8,0,5.9c5.6,9.4,11,19,16.5,28.5c0.4,0.7,0.8,1.4,1.2,2.1c0.2,0.4,0.4,0.7,0.5,1.1
	c0.1,0.4,0.3,0.7-0.2,0.7c-1,0-2.1,0-3.1,0c-1.2,0-2.4,0-3.7,0c-2.4,0-4.9,0-7.3,0.1c-1.3,0-2.6,0-3.8-0.4c-0.9-0.3-1.8-0.8-2.3-1.6
	c-0.3-0.4-0.4-0.8-0.7-1.2c-0.3-0.5-0.6-1-0.9-1.5c-1.2-2-2.3-4.1-3.4-6.2C447.8,371.8,446,368.5,444.2,365.1z"/>
<path fill="#FF0123" d="M333.5,357.7c0,6.6,0,12.7,0,19.2c8.2,0,16.3,0,24.4,0c0,3.1,0,5.8,0,8.7c-14.1,0-28,0-42.2,0
	c0-20.9,0-41.9,0-63.1c13.7,0,27.4,0,41.3,0c0,2.6,0,5.2,0,8.3c-7.7,0-15.5,0-23.5,0c0,6.2,0,11.9,0,18c5.2,0,13.5-0.2,18.7-0.2
	c0,0,0,7.4,0,9.1C345.9,357.7,339.8,357.7,333.5,357.7z"/>
<g>
	<path fill="#FFFFFF" d="M368.8,395c3.3-1.1,5.4,0,7.2,2.9c5.7,9.2,11.7,18.1,18.4,27c0-10,0-19.9,0-30c1.9,0,3.4,0,5,0
		c0,13.6,0,26.9,0,40.2c-3.6,1.1-5.6-0.2-7.5-3.2c-5.6-9.1-11.6-17.9-18-27.8c0,11,0,21,0,31.1c-1.9,0-3.3,0-5.1,0
		C368.8,421.9,368.8,408.5,368.8,395z"/>
	<path fill="#FFFFFF" d="M433.8,419.4c-3.3,0-6,0-9.1,0c-0.1-1.4-0.1-2.6-0.2-4c4.9,0,9.6,0,14.6,0c0,4.7,0.6,9.4-0.3,13.8
		c-0.4,2.1-3.4,4.4-5.7,5.3c-8.5,3.1-19.5,1.3-23.2-7.9c-1.8-4.6-2.5-9.7-2-14.6c0.4-4.5,1.6-10.6,4.9-13.9c2.3-2.3,6-3.4,9.1-3.7
		c8.3-0.8,15.4,3,16.9,11.7c-1.5,0.5-3.2,0.8-4.5,0c-1.3-0.9-1.7-2.6-2.5-4c-1.5-2.7-4.5-3.5-7.3-3.5c-5.6-0.1-8.4,2.5-10.1,7.5
		c-1.7,5-2,10.4-0.7,15.5c0.6,2.4,1.6,4.8,3.3,6.7c3.5,4.1,10.1,4.8,14.6,2c1-0.6,1.9-2,2-3.1C434,424.7,433.8,422.3,433.8,419.4z"
		/>
	<path fill="#FFFFFF" d="M296.1,416.8c0,6.3,0,12.2,0,18.4c-1.8,0-3.3,0-5.1,0c0-13.4,0-26.7,0-40.2c1.5,0,3,0,4.9,0
		c0,5.5,0,11.1,0,16.9c7,0,13.6,0,20.6,0c0-5.7,0-11.2,0-17c1.9,0,3.3,0,5,0c0,13.4,0,26.8,0,40.3c-1.6,0-3,0-4.9,0
		c0-6.1,0-12.1,0-18.4C309.6,416.8,303.1,416.8,296.1,416.8z"/>
	<path fill="#FFFFFF" d="M472.9,435.2c-8.8,0-17.1,0-25.6,0c0-13.4,0-26.7,0-40.3c8.2,0,16.4,0,24.9,0c0,1.2,0,2.4,0,3.9
		c-6.4,0-12.9,0-19.6,0c0,4.5,0,8.6,0,13.2c5.6,0,11.3,0,17.2,0c0.1,1.6,0.1,2.8,0.2,4.4c-5.9,0-11.6,0-17.5,0c0,5,0,9.5,0,14.4
		c6.7,0,13.2,0,20,0C472.7,432.4,472.8,433.6,472.9,435.2z"/>
	<path fill="#FFFFFF" d="M363,434.8c-0.1,0.2-0.3,0.4-0.6,0.5c-2.9,1.5-5-2-5.8-4.1c-2.8-7.9-0.7-6.3-9.1-6.5c-0.4,0-0.7,0-1.1,0
		c-2.9,0-6.9-0.6-9.1,1.8c-2.7,3.1-1.8,9-7.1,9c-0.4,0-0.7,0-1-0.2c-1-0.6-0.3-2.1,0-2.9c4.4-11.6,8.8-23.2,13.2-34.8
		c1.5-4,5.5-3.9,6.9,0c4.4,11.5,8.8,23,13.2,34.5C362.9,433.1,363.4,434.1,363,434.8z M345.8,401.1c-2.5,6.9-4.6,12.8-6.8,19
		c4.8,0,8.9,0,13.6,0C350.4,413.9,348.3,408,345.8,401.1z"/>
	<path fill="#FFFFFF" d="M283.7,407.4c0,0.4-3.4,0.3-3.8,0.1c-1.4-0.6-1.6-1.7-2.1-3c-2.5-7.4-12.9-8.1-17.1-1.8
		c-3.7,5.5-3.7,15-1.7,21.1c1.3,3.8,4.5,7.2,8.7,7.7c4.1,0.6,8.9-1.2,9.9-5.5c0.9-3.8,3-3.9,5.9-3.2c-0.4,6.4-4.1,11.1-9.9,12.6
		c-5.6,1.5-11.5,0.7-15.7-3.7c-3-3.2-4.6-7.4-5.3-11.7c-1-6.7,0.1-13.9,3.7-19.6c3.6-5.7,10.7-7.1,16.9-5.7
		C279.2,395.7,282.8,400.2,283.7,407.4z"/>
</g>
<rect x="284.4" y="209.6" fill="#FFFFFF" width="3.3" height="102.9"/>
<rect x="323.9" y="195.8" fill="#FFFFFF" width="3.2" height="116.7"/>
<rect x="390.6" y="195.8" fill="#FFFFFF" width="3.2" height="116.7"/>
<rect x="357.5" y="175.1" fill="#FFFFFF" width="3.1" height="137.3"/>
<rect x="801.5" y="-378.2" fill="#FFFFFF" width="3.3" height="101.6"/>
<path fill="#FFFFFF" d="M918.5-381.4c-4.5-26.6-21.2-43.5-45.2-53.9c-12.4-5.3-25.5-6-38.8-5.7c-8.9,0.2-16.4-2.9-21.8-10.4
	c-3.7-5.2-7.7-10.3-11.6-15.4c-1.2-1.5-2.5-2.8-3.8-4.2c-0.5,0.3-0.9,0.6-1.4,0.9c3.5,9.9,7.3,19.6,13.5,28.3c3.8,5.3,8.6,9,15.2,10
	c8.1,1.3,16.4,2,24.3,4.2c7.3,2,14.9,4.6,21.1,8.7c21.7,14.3,19.5,41.4-3.7,53c-16.3,8.1-33.2,4.1-50.4,2.4v-10.8
	c-8.7-1.4-16.9-1.4-26.1,0c0,2.2,0,4.2,0,6.2c0,17.8,0,35.6,0,53.4c0,10.1,0,10,9.6,10.9c0.3,0,12.9-0.3,16-0.5
	c1.1-8.7,2.1-9.9,10.8-11.4c9-1.6,18.1-2.6,27.1-4.4c18.3-3.6,35.8-9.4,50.3-21.9C915.6-352.6,921.2-365.7,918.5-381.4z"/>
<path fill="#FFFFFF" d="M652.2-373.7c0,1.8-0.2,3.8,0,5.8c0.3,3.5-1.2,5-4.6,5.2c-8.9,0.4-17.9,1.1-26.8,1.5
	c-9.3,0.3-17.6-2.9-25-8.4c-16.2-12-17.1-32.4-2.1-45.9c10.6-9.5,23.7-13.3,37.4-14c16.9-0.9,28.5-8.1,34.5-24
	c1.6-4.3,3.6-8.4,5.3-12.7c0.5-1.2,0.6-2.6,0.9-3.9c-2.3,0.9-3.7,2.3-4.8,3.8c-4.3,5.5-7.9,11.6-12.8,16.4
	c-3.6,3.5-8.4,6.8-13.2,7.8c-7.2,1.6-14.9,0.8-22.4,1.5c-29.1,2.9-51.4,16.6-64.2,43.4c-11.1,23.2-4.9,45.3,16.4,59.7
	c5,3.4,10.4,6.2,15.9,8.7c16.6,7.5,34.4,9.8,52.2,12.3c7.4,1,14.7,1.9,14,12.1c3.7,0.2,25.1,0.1,25.1,0.1v-69.4
	C673.2-374.9,656.8-374.9,652.2-373.7z"/>
<path fill="#FF0123" d="M547.5-353c4.9,4.8,4.5,9.9,3.3,15.8c-20.1,93.6,32.8,187.4,123.2,218.7C783.5-80.6,901.1-149,922.4-263
	c4.8-25.5,4.7-51.2-1.8-76.4c-2.1-8.2-1.3-15.3,2.4-22.4c23.6,57.9,16.6,149.9-52.9,213.3C802.7-86.9,699.2-80,624.8-131.7
	C544.7-187.3,524.3-282.8,547.5-353z"/>
<path fill="#FFFFFF" d="M769.7-292.2H780v-96.2c-4.8-1.6-20.8-1.5-25.2,0.1v95.8C758.4-292.3,769.7-292.2,769.7-292.2z"/>
<path fill="#FFFFFF" d="M688-388.3v95.8c3.8,0.2,21.7,0.1,25-0.1v-95.7C708.6-389.9,692.5-389.9,688-388.3z"/>
<path fill="#FFFFFF" d="M721.7-407.4v96.5c3.7,0.2,21.1,0.2,24.6-0.2v-96.3C742.4-409.2,725.4-409.4,721.7-407.4z"/>
<path fill="#FF0123" d="M868.9-442.8c-7.9-1.1-14-2.3-19.9-6.7c-36.1-27-77.1-39.1-122.1-37.5c-17.7,0.6-34.8,4.4-51.7,9.8
	c-19,6.1-36.2,15.5-52.1,27.4c-4.9,3.7-9.6,5.6-15.5,5C667.2-502.7,786.9-517,868.9-442.8z"/>
<path fill="#FFFFFF" d="M627.4-300.9c8.6,0,16.6,0,25,0c0,3.1,0,5.9,0,9.3c-3.2,0.2-6.4,0.3-10.5,0.5c0,2.8,0,5.5,0,8.3
	c0,1.4,0,2.7,0,4.1c0,0.7,0,1.4-0.1,2c0,0.8,0,1.3,0,1.3c-0.8,0.1-3.9,0-4,0c0,0,0-1.6,0-2c0-0.6,0-1.3-0.1-1.9c0-1.3,0-2.5,0-3.8
	c0-0.7,0.1-8.1,0.1-8.1c-3.8,0-9,0.2-10.4,0.1C627.4-294.2,627.4-297.5,627.4-300.9z"/>
<path fill="#FFFFFF" d="M815.3-300.1c8.6,0,16.6,0,25,0c0,3.1,0,5.9,0,9.3c-3.2,0.2-6.4,0.3-10.5,0.5c0,5.1,0.1,10-0.1,14.9l-4,0.1
	c-0.2-4.8-0.1-9.9-0.1-15.2c-3.6-0.2-6.9-0.2-10.4-0.4C815.3-293.9,815.3-296.8,815.3-300.1z"/>
<path fill="#FF0123" d="M632.6-265.9c11.1,0.4,22.1,0.4,33,1.4c6.3,0.5,10.7,5.8,11.7,11.8c1.3,7.2-1.2,13.3-6.8,16.9
	c-1.2,0.7-2.5,1.3-4.1,2.2c-0.2,0.1,17.2,28.8,18,31.6c-5.8,0.3-11.7,0.1-17.5,0c-1.8,0-2.6-1.1-3.5-2.6
	c-4.1-7.1-8.2-14.3-12.9-21.4c0,7.9,0,15.7,0,23.9c-6.2,0-11.9,0-17.9,0C632.6-223.2,632.6-244.2,632.6-265.9z M650.5-238.8
	c6.8-0.4,8.7-2.8,8.4-10.3c-0.2-5.8-2.4-7.8-8.4-7.5C650.5-250.8,650.5-244.9,650.5-238.8z"/>
<path fill="#FF0123" d="M761.2-222.7c-3.4,6.7-6.3,12.6-9.4,18.4c-1.1,2-3.7,2.3-5.7,2.6c-2.3,0.3-4.7,0.3-7.1,0.2
	c-3.3-0.2-1.1-2.8-0.1-4.2c5.1-8.1,10.1-16.2,15.3-24.2c1.2-1.9,1.3-3.2,0.1-5.2c-5.4-8.8-10.6-17.7-15.9-26.6
	c-0.6-1-2.2-2.6-1.8-3.9c0.1-0.4,7.6,0,8.3,0c2.4,0,4.9,0.1,7.3,0.1c2,0.1,3.9,0.7,5,2.5c3.2,5.2,6.1,10.4,9.6,16.3
	c2.8-5.2,5.6-9.9,7.9-14.7c0.9-2,2.5-3.7,4.8-4.1c1.5-0.3,3.1-0.2,4.7-0.1c1.6,0.1,3.3,0,4.8,0.1c-0.4,1.3-1.3,2.7-2,3.8
	c-4.3,7.2-8.5,14.5-13,21.6c-1.4,2.2-1.3,3.8,0,5.9c5.6,9.4,11,19,16.5,28.5c0.4,0.7,0.8,1.4,1.2,2.1c0.2,0.4,0.4,0.7,0.5,1.1
	c0.1,0.4,0.3,0.7-0.2,0.7c-1,0-2.1,0-3.1,0c-1.2,0-2.4,0-3.7,0c-2.4,0-4.9,0-7.3,0.1c-1.3,0-2.6,0-3.8-0.4c-0.9-0.3-1.8-0.8-2.3-1.6
	c-0.3-0.4-0.4-0.8-0.7-1.2c-0.3-0.5-0.6-1-0.9-1.5c-1.2-2-2.3-4.1-3.4-6.2C764.8-216,763-219.3,761.2-222.7z"/>
<path fill="#FF0123" d="M819.3-222.7c-3.4,6.7-6.3,12.6-9.4,18.4c-1.1,2-3.7,2.3-5.7,2.6c-2.3,0.3-4.7,0.3-7.1,0.2
	c-3.3-0.2-1.1-2.8-0.1-4.2c5.1-8.1,10.1-16.2,15.3-24.2c1.2-1.9,1.3-3.2,0.1-5.2c-5.4-8.8-10.6-17.7-15.9-26.6
	c-0.6-1-2.2-2.6-1.8-3.9c0.1-0.4,7.6,0,8.3,0c2.4,0,4.9,0.1,7.3,0.1c2,0.1,3.9,0.7,5,2.5c3.2,5.2,6.1,10.4,9.6,16.3
	c2.8-5.2,5.6-9.9,7.9-14.7c0.9-2,2.5-3.7,4.8-4.1c1.5-0.3,3.1-0.2,4.7-0.1c1.6,0.1,3.3,0,4.8,0.1c-0.4,1.3-1.3,2.7-2,3.8
	c-4.3,7.2-8.5,14.5-13,21.6c-1.4,2.2-1.3,3.8,0,5.9c5.6,9.4,11,19,16.5,28.5c0.4,0.7,0.8,1.4,1.2,2.1c0.2,0.4,0.4,0.7,0.5,1.1
	c0.1,0.4,0.3,0.7-0.2,0.7c-1,0-2.1,0-3.1,0c-1.2,0-2.4,0-3.7,0c-2.4,0-4.9,0-7.3,0.1c-1.3,0-2.6,0-3.8-0.4c-0.9-0.3-1.8-0.8-2.3-1.6
	c-0.3-0.4-0.4-0.8-0.7-1.2c-0.3-0.5-0.6-1-0.9-1.5c-1.2-2-2.3-4.1-3.4-6.2C823-216,821.2-219.3,819.3-222.7z"/>
<path fill="#FF0123" d="M708.7-230.1c0,6.6,0,12.7,0,19.2c8.2,0,16.3,0,24.4,0c0,3.1,0,5.8,0,8.7c-14.1,0-28,0-42.2,0
	c0-20.9,0-41.9,0-63.1c13.7,0,27.4,0,41.3,0c0,2.6,0,5.2,0,8.3c-7.7,0-15.5,0-23.5,0c0,6.2,0,11.9,0,18c5.2,0,13.5-0.2,18.7-0.2
	c0,0,0,7.4,0,9.1C721-230.1,715-230.1,708.7-230.1z"/>
<g>
	<path fill="#FFFFFF" d="M744-192.9c3.3-1.1,5.4,0,7.2,2.9c5.7,9.2,11.7,18.1,18.4,27c0-10,0-19.9,0-30c1.9,0,3.4,0,5,0
		c0,13.6,0,26.9,0,40.2c-3.6,1.1-5.6-0.2-7.5-3.2c-5.6-9.1-11.6-17.9-18-27.8c0,11,0,21,0,31.1c-1.9,0-3.3,0-5.1,0
		C744-165.9,744-179.3,744-192.9z"/>
	<path fill="#FFFFFF" d="M809-168.4c-3.3,0-6,0-9.1,0c-0.1-1.4-0.1-2.6-0.2-4c4.9,0,9.6,0,14.6,0c0,4.7,0.6,9.4-0.3,13.8
		c-0.4,2.1-3.4,4.4-5.7,5.3c-8.5,3.1-19.5,1.3-23.2-7.9c-1.8-4.6-2.5-9.7-2-14.6c0.4-4.5,1.6-10.6,4.9-13.9c2.3-2.3,6-3.4,9.1-3.7
		c8.3-0.8,15.4,3,16.9,11.7c-1.5,0.5-3.2,0.8-4.5,0c-1.3-0.9-1.7-2.6-2.5-4c-1.5-2.7-4.5-3.5-7.3-3.5c-5.6-0.1-8.4,2.5-10.1,7.5
		c-1.7,5-2,10.4-0.7,15.5c0.6,2.4,1.6,4.8,3.3,6.7c3.5,4.1,10.1,4.8,14.6,2c1-0.6,1.9-2,2-3.1C809.2-163.1,809-165.5,809-168.4z"/>
	<path fill="#FFFFFF" d="M671.3-171c0,6.3,0,12.2,0,18.4c-1.8,0-3.3,0-5.1,0c0-13.4,0-26.7,0-40.2c1.5,0,3,0,4.9,0
		c0,5.5,0,11.1,0,16.9c7,0,13.6,0,20.6,0c0-5.7,0-11.2,0-17c1.9,0,3.3,0,5,0c0,13.4,0,26.8,0,40.3c-1.6,0-3,0-4.9,0
		c0-6.1,0-12.1,0-18.4C684.8-171,678.3-171,671.3-171z"/>
	<path fill="#FFFFFF" d="M848.1-152.6c-8.8,0-17.1,0-25.6,0c0-13.4,0-26.7,0-40.3c8.2,0,16.4,0,24.9,0c0,1.2,0,2.4,0,3.9
		c-6.4,0-12.9,0-19.6,0c0,4.5,0,8.6,0,13.2c5.6,0,11.3,0,17.2,0c0.1,1.6,0.1,2.8,0.2,4.4c-5.9,0-11.6,0-17.5,0c0,5,0,9.5,0,14.4
		c6.7,0,13.2,0,20,0C847.9-155.4,848-154.2,848.1-152.6z"/>
	<path fill="#FFFFFF" d="M738.2-153c-0.1,0.2-0.3,0.4-0.6,0.5c-2.9,1.5-5-2-5.8-4.1c-2.8-7.9-0.7-6.3-9.1-6.5c-0.4,0-0.7,0-1.1,0
		c-2.9,0-6.9-0.6-9.1,1.8c-2.7,3.1-1.8,9-7.1,9c-0.4,0-0.7,0-1-0.2c-1-0.6-0.3-2.1,0-2.9c4.4-11.6,8.8-23.2,13.2-34.8
		c1.5-4,5.5-3.9,6.9,0c4.4,11.5,8.8,23,13.2,34.5C738-154.7,738.6-153.7,738.2-153z M721-186.7c-2.5,6.9-4.6,12.8-6.8,19
		c4.8,0,8.9,0,13.6,0C725.6-174,723.5-179.8,721-186.7z"/>
	<path fill="#FFFFFF" d="M658.9-180.4c0,0.4-3.4,0.3-3.8,0.1c-1.4-0.6-1.6-1.7-2.1-3c-2.5-7.4-12.9-8.1-17.1-1.8
		c-3.7,5.5-3.7,15-1.7,21.1c1.3,3.8,4.5,7.2,8.7,7.7c4.1,0.6,8.9-1.2,9.9-5.5c0.9-3.8,3-3.9,5.9-3.2c-0.4,6.4-4.1,11.1-9.9,12.6
		c-5.6,1.5-11.5,0.7-15.7-3.7c-3-3.2-4.6-7.4-5.3-11.7c-1-6.7,0.1-13.9,3.7-19.6c3.6-5.7,10.7-7.1,16.9-5.7
		C654.3-192.1,658-187.6,658.9-180.4z"/>
</g>
<rect x="532.9" y="-251.3" fill="#FFFFFF" width="3.3" height="102.9"/>
<rect x="801.5" y="-378.2" fill="#FFFFFF" width="3.3" height="102.9"/>
<rect x="699" y="-392.1" fill="#FFFFFF" width="3.2" height="116.7"/>
<rect x="765.8" y="-392.1" fill="#FFFFFF" width="3.2" height="116.7"/>
<rect x="732.6" y="-412.7" fill="#FFFFFF" width="3.1" height="137.3"/>
</svg>
