<?xml version="1.0" encoding="utf-8"?>
<!-- Generator: Adobe Illustrator 18.1.1, SVG Export Plug-In . SVG Version: 6.00 Build 0)  -->
<svg version="1.1" id="Layer_1" xmlns="http://www.w3.org/2000/svg" xmlns:xlink="http://www.w3.org/1999/xlink" x="0px" y="0px"
	 viewBox="0 0 841.9 595.3" enable-background="new 0 0 841.9 595.3" xml:space="preserve">
<rect x="-861.9" width="841.9" height="595.3"/>
<path fill="#FFFFFF" d="M-407.9,183.9c15.1,0,30.2,0,45.3,0c5,0,5.1,0.1,5.2,5.1c0.2,8.9,0.2,17.8,0.3,26.7c0,2.4-0.6,3.1-2.9,3.2
	c-3,0.1-6,0-8.9,0c-0.6,0-1.2-0.1-1.7,0c-2.2,0.1-2.8,1.1-1.6,3c1.6,2.6,3.3,5.3,4.8,8c3.3,5.9,5.6,12.1,7.4,18.6
	c2.3,8.6,3.4,17.4,3,26.3c-0.7,16.4-5.6,31.5-15,45.1c-5.9,8.5-12.8,16-21.2,22c-7.7,5.5-16.2,9.7-25.3,12.5
	c-9.1,2.8-18.3,3.8-27.8,3.7c-26.7-0.1-53.3,0-80,0c-0.8,0-1.7,0-2.5,0c-2.3-0.1-3-0.8-3-3.1c0-5.6,0-11.3,0-16.9
	c0-3.7,0-7.4,0-11.1c0-2.9,0.6-3.5,3.5-3.6c3.1-0.1,6.2,0,9.3-0.1c3.1-0.1,3.6-1,1.9-3.5c-4.8-7.6-8.8-15.6-11.2-24.3
	c-3.2-11.4-4.7-23-2.9-34.9c2-13.9,6.5-26.8,14.5-38.4c8.2-11.9,18.6-21.4,31.6-28.2c8.8-4.6,18.2-7.6,27.9-9.2
	c4.5-0.7,9.2-0.7,13.8-0.7C-431.7,183.9-419.8,184-407.9,183.9C-407.9,184-407.9,183.9-407.9,183.9z M-444.8,323.1
	c29.8,0.3,52.4-23.5,52.5-51.8c0.1-28.2-21.4-52.3-51.7-52.5c-30.6-0.2-52.4,23-52.8,51.9C-497.1,299.6-473.3,323.6-444.8,323.1z"/>
<path fill="#FFFFFF" d="M-531.2,184c9.8-0.3,19.8,1.6,29.6,5.1c0.5,0.2,1,0.4,1.4,0.6c1.7,1,1.8,1.8,0.3,3.1c-2.4,2-4.9,3.8-7.3,5.8
	c-5.8,5.1-11.3,10.5-15.4,17.1c-1.5,2.3-3.3,3.3-6.3,3.2c-11.2-0.3-21.8,2.1-31.4,8.2c-8.8,5.7-15.1,13.5-19.5,22.9
	c-3.3,7.2-4.2,14.9-4,22.7c0.4,18.2,8.9,31.8,23.4,42c5.1,3.5,10.9,5.7,16.9,7.1c2.6,0.6,3.2,1.4,3.3,4c0,9.5,0,19.1,0,28.6
	c0,2.4-0.8,3.3-3.2,3c-4.2-0.7-8.4-1.5-12.5-2.6c-8.6-2.3-16.6-6.1-24-11.1c-11.7-7.9-21-18-28.1-30.2c-4.6-7.9-7.8-16.3-9.5-25.1
	c-2-10.2-2.1-20.6-0.6-30.9c1.9-12.2,6.2-23.5,13-33.8c10.2-15.5,23.9-26.7,41.1-33.7C-553.6,185.9-542.9,183.7-531.2,184z"/>
<path fill="#FFFFFF" d="M-357.8,358c-10,0.8-19.8-1.8-29.5-4.9c-0.3-0.1-0.6-0.2-0.9-0.4c-2.6-1.3-2.7-2.2-0.4-3.9
	c6.4-4.8,12.3-10.1,17.5-16.2c1.9-2.1,3.5-4.5,5.2-6.8c1.2-1.8,2.8-2.8,5-2.7c1.6,0.1,3.2,0,4.9,0c11.8,0,22.2-4.1,31.4-11.3
	c8.8-6.9,14.6-16,17.6-26.6c2.3-8.2,2.3-16.6,0.7-25c-2-10.7-7.3-19.6-15-27.1c-6.7-6.5-14.8-10.9-24.1-12.6
	c-2.7-0.5-3.3-1.2-3.3-3.8c0-9.5,0-19.1,0.1-28.6c0-3.3,0.8-4,4.1-3.4c10.7,1.9,20.9,5.2,30.3,10.6c11.8,6.7,21.5,15.7,29.3,26.9
	c6.8,9.9,11.3,20.8,13.5,32.6c1.5,8.3,1.9,16.6,1.1,25c-0.9,10.1-3.5,19.8-8,29c-6.6,13.3-15.8,24.5-27.8,33.2
	c-8.6,6.3-18.3,10.7-28.7,13.5C-342.3,357.3-349.7,358.3-357.8,358z"/>
<path fill="#FFFFFF" d="M-651,407.8c0-6.5,0-13,0-19.4c0-2.9,0.5-3.4,3.4-3.4c8.1,0,16.2-0.2,24.3,0.1c3,0.1,6.2,0.8,8.9,2.2
	c6.5,3.2,8.7,11.8,4.9,18.1c-1.2,1.9-2.9,3.6-4.7,5c-1.5,1.2-2,2.2-1,3.9c2.5,4.6,5,9.2,7.5,13.8c1.3,2.5,1,2.9-1.8,2.9
	c-3.4,0-6.7,0-10.1,0c-1.9,0-3.2-0.8-4-2.5c-1.7-3.8-3.5-7.5-5.3-11.2c-1.4-3-3.3-3.9-6.4-2.9c-0.6,0.2-1.2,1.3-1.2,2
	c-0.1,3.9-0.1,7.9-0.1,11.9c0,2.5-0.3,2.8-2.8,2.8c-2.9,0-5.7,0-8.6,0c-2.6,0-3-0.3-3.1-3c-0.1-4,0-8,0-12.1
	C-651.1,413.1-651.1,410.5-651,407.8C-651.1,407.8-651.1,407.8-651,407.8z M-630.4,395.3c-1.5,0-3.4-0.2-4.9,0.3
	c-1.4,0.4-1.5,1.5-1.6,2.8c0,1,0.1,2,0.2,3c0.1,1.6,0.8,2.4,2.4,2.4c2.6,0,5.3-0.1,7.9-0.2c2.2-0.1,3.7-1.8,3.8-3.9
	C-622.4,395.4-627.2,395.3-630.4,395.3z"/>
<path fill="#FFFFFF" d="M-436.2,407.9c0,0.1,0,0.2,0,0.3c0,1.2,0.2,2.4,0.4,3.7c0.2,1.5,0.5,3,1,4.4c1.4,3.8,4.8,5.1,8.7,4.9
	c4-0.3,6.2-1.9,7.3-5.8c0.6-2,1.6-2.8,3.6-2.7c2.5,0.1,5.1,0,7.6,0.1c1.8,0,2.6,0.9,2.4,2.7c-0.6,5.9-4.1,11.9-10.5,14.3
	c-7.7,3-15.5,2.9-23.1-0.1c-5.2-2-8.7-5.9-10.3-11.2c-2.3-7.6-2.5-15.3,0.7-22.8c2.7-6.4,9.2-9.8,15.9-10.9
	c9.1-1.5,20.7,0.3,25.4,9.3c1.1,2.1,1.7,4.5,1.9,6.9c0.2,2.1-0.4,2.7-2.5,2.8c-2.8,0.1-5.7,0-8.6,0c-1.5,0-2.3-0.8-2.7-2.3
	c-1.1-4.4-4.8-7.1-9-6.7c-3.3,0.3-6,2.4-7.2,5.4c-0.6,1.6-0.7,3.3-0.9,5C-436.1,406.1-436.2,407-436.2,407.9z"/>
<path fill="#FFFFFF" d="M-398.3,406.6c0-6.3,0-12.6,0-18.9c0-0.6,0-1.1,0-1.7c0-3.6,0.4-3.9,3.9-3.9c2.1,0,4.3,0,6.4,0
	c1.8,0,2.7,0.9,2.7,2.7c0,3.6,0,7.3,0.1,10.9c0.1,2.1,0.8,2.5,2.7,1.4c4.4-2.5,9.1-3.1,13.8-1.4c4.5,1.6,6.2,5.6,6.6,9.9
	c0.4,3.9,0.2,7.8,0.2,11.6c0,3.6,0,7.3-0.1,10.9c0,2.3-0.5,2.7-2.7,2.8c-2.5,0-4.9-0.1-7.4,0c-1.9,0.1-2.7-0.7-2.7-2.6
	c0-5.2,0-10.5,0-15.7c0-1,0-1.9,0-2.9c-0.1-3.4-1.8-5.2-4.7-5.3c-3.2-0.1-5.6,2-5.8,5.3c-0.2,3.4-0.1,6.9-0.1,10.3
	c0,2.9,0,5.7,0,8.6c0,1.7-0.8,2.5-2.5,2.4c-2.5-0.1-5.1,0-7.6,0c-2.3,0-2.8-0.4-2.8-2.7C-398.2,421-398.3,413.8-398.3,406.6z"/>
<path fill="#FFFFFF" d="M-578,415.8c-0.9,0-1.8,0-2.6,0c-1.9,0-3.7,0-5.6-0.1c-1.3,0-3.7-0.5-4.6,0.7c-0.2,0.3-0.3,0.7-0.3,1.1
	c-0.1,1.9,1.1,3.8,2.7,4.8c1.6,1,3.6,1.3,5.6,1.1c1.7-0.2,3.4-0.7,4.4-2c0.6-0.7,0.9-1.6,1.6-2.2c0.8-0.7,2-0.7,3.1-0.7
	c1.9,0,3.8-0.1,5.7-0.1c2,0,3.4,0.6,3.1,2.8c-1.5,9.7-15.1,11.8-23,10.5c-0.7-0.1-1.4-0.3-2.1-0.5c-5.2-1.3-10.6-4.2-12.5-9.5
	c-0.6-1.7-1-3.5-1.2-5.3c-0.5-4.1-0.2-8.1,1.6-12c2.9-6.4,8.3-8.9,14.7-9.4c3.4-0.3,7,0,10.4,0.6c6.6,1.2,11.2,6.3,12.1,13
	c0.2,1.6,0.2,3.2,0.3,4.8c0.2,2.9-2.9,2.4-4.9,2.4C-572.5,415.8-575.3,415.8-578,415.8z M-584.4,409.3
	C-584.4,409.3-584.4,409.3-584.4,409.3c1.5,0,3,0,4.5,0c1.9,0,2.4-0.7,1.7-2.6c-0.8-2.3-2.8-3.6-5.6-3.6c-2.7,0-5.2,0.4-6.5,3.2
	c-0.1,0.2-0.2,0.5-0.3,0.7c-0.5,1.4-0.1,2.3,1.6,2.3C-587.5,409.3-585.9,409.3-584.4,409.3z"/>
<path fill="#FFFFFF" d="M-267,413.2c0-4.9,0-9.7,0-14.6c0-2.4,0.5-2.8,2.9-2.9c1.4,0,2.9,0,4.3,0.1c1.8,0.1,3.3,0.4,3.9,2.7
	c0.4,1.7,1.7,1.2,2.7,0.3c3.1-2.7,6.7-4,10.9-3.9c6.7,0.1,11.1,3.7,11.4,10.4c0.4,7.8,0.2,15.7,0.2,23.5c0,1.5-0.8,2.1-2.2,2.1
	c-2.7,0-5.4-0.1-8.2,0c-1.9,0-2.5-0.8-2.5-2.6c0-6,0-12.1,0-18.1c0-3.7-1.3-5.5-4.2-5.8c-3-0.3-5.6,1.7-6.2,5
	c-0.3,1.5-0.2,3.1-0.2,4.6c0,4.7,0.1,9.3,0.1,14c0,2.5-0.4,2.8-2.9,2.8c-2.5,0-4.9-0.1-7.4,0c-1.9,0.1-2.7-0.7-2.7-2.6
	C-267,423.3-267.1,418.2-267,413.2C-267,413.2-267,413.2-267,413.2z"/>
<path fill="#FFFFFF" d="M-476.7,430.7C-476.7,430.7-476.7,430.7-476.7,430.7c-0.4,0.6-2.7,0.4-3.3,0.4c-2.4,0.1-4.9,0.1-7.3-0.1
	c-1.8-0.1-3.8-0.5-4.8-2.2c-1.5-2.4-3-4.8-4.7-7.1c-1.1-1.6-1.9-1.5-2.9,0.1c-1.4,2.2-2.8,4.4-4.1,6.6c-1.5,2.5-3.7,2.5-6.4,2.6
	c-2,0.1-4,0-6.1-0.1c-0.5,0-2.4,0.1-2.6-0.4c-0.1-0.4,0.9-1.9,1.2-2.2c3.2-4.4,6.5-8.9,9.8-13.3c1.7-2.3,1.8-3,0.1-5.3
	c-2.9-3.9-5.9-7.7-8.9-11.6c-0.5-0.6-0.8-1.5-0.1-1.9c0.7-0.5,2-0.4,2.8-0.4c2.2,0,4.4,0,6.6,0c2.2,0,4.4-0.1,5.6,2
	c0.9,1.5,1.7,2.9,2.6,4.3c1.6,2.5,2.4,2.5,4,0.1c0.9-1.4,1.8-2.8,2.7-4.3c0.8-1.4,2-2.1,3.7-2.1c3,0,6.1,0,9.1,0
	c1.8,0,2.3,0.8,1.2,2.3c-2.2,3-4.6,5.9-6.8,9c-4.9,6.7-4.3,5.1-0.3,10.8c2.5,3.7,5.2,7.2,7.8,10.9
	C-477.4,429-476.5,430.2-476.7,430.7z"/>
<path fill="#FFFFFF" d="M-521.1,430.6C-521.1,430.6-521.1,430.7-521.1,430.6c-0.4,0.6-2.7,0.4-3.3,0.4c-2.4,0.1-4.9,0.1-7.3-0.1
	c-1.8-0.1-3.8-0.5-4.8-2.2c-1.5-2.4-3-4.8-4.7-7.1c-1.1-1.6-1.9-1.5-2.9,0.1c-1.4,2.2-2.8,4.4-4.1,6.6c-1.5,2.5-3.7,2.5-6.4,2.6
	c-2,0.1-4,0-6.1-0.1c-0.5,0-2.4,0.1-2.6-0.4c-0.1-0.4,0.9-1.9,1.2-2.2c3.2-4.4,6.5-8.9,9.8-13.3c1.7-2.3,1.8-3,0.1-5.3
	c-2.9-3.9-5.9-7.7-8.9-11.6c-0.5-0.6-0.8-1.5-0.1-1.9c0.7-0.5,2-0.4,2.8-0.4c2.2,0,4.4,0,6.6,0c2.2,0,4.4-0.1,5.6,2
	c0.9,1.5,1.7,2.9,2.6,4.3c1.6,2.5,2.4,2.5,4,0.1c0.9-1.4,1.8-2.8,2.7-4.3c0.8-1.4,2-2.1,3.7-2.1c3,0,6.1,0,9.1,0
	c1.8,0,2.3,0.8,1.2,2.3c-2.2,3-4.6,5.9-6.8,9c-4.9,6.7-4.3,5.1-0.3,10.8c2.5,3.7,5.2,7.2,7.8,10.9
	C-521.8,428.9-521,430.1-521.1,430.6z"/>
<path fill="#FFFFFF" d="M-332.3,429.8c-2.7,0-5.3-0.1-7.6,0c-1.4,0-2.6-0.3-3-1.9c-0.4-1.7-0.5-3.6,1.2-4.5c1.5-0.8,1.5-1.6,0.8-2.9
	c-3.4-7-1.6-13.4,2.6-19.3c2.9-4.1,9-4.7,13.6-4.9c2.1-0.1,15.8-1.6,16.1,1.4c0.2,1.5,0.2,3.8-0.7,4.5c-1.9,1.4-1.5,2.7-0.9,4.4
	c1.8,4.3,1.7,8.7,0.1,13.1C-313.4,428.9-323.3,429.8-332.3,429.8z M-325.6,423.1c5.7-0.2,10.5-4.6,10.3-10.8
	c-0.2-5.4-4.8-9.8-10.4-9.7c-6,0.1-10.3,4.5-10.3,10.4C-336,419.3-330.5,423.2-325.6,423.1z"/>
<path fill="#FFFFFF" d="M-288.1,413.2c0-5,0-10,0-15c0-2.2,0.3-2.6,2.6-2.6c2.4,0,4.8,0,7.2,0c2.3,0.1,2.9,0.7,2.9,2.9
	c0,9.6,0.1,19.2,0.1,28.7c0,3.3-0.3,3.6-3.5,3.6c-2.3,0-4.5-0.1-6.8,0c-1.8,0.1-2.5-0.8-2.5-2.6
	C-288.1,423.3-288.1,418.3-288.1,413.2C-288.1,413.2-288.1,413.2-288.1,413.2z"/>
<path fill="#FFFFFF" d="M-343.2,396.4c1.3,0,2.6,0,3.9,0.2c0.4,0.1,0.9,0.1,1.2,0.3c0.4,0.2,0.7,0.5,0.8,1c0.3,1.6-2.6,3.4-3.8,4.1
	c-2.4,1.4-5.4,1-7.7,2.5c-2.1,1.4-3.8,3.6-4.1,6.2c-0.8,5.5,1,9,5.9,11.5c0.7,0.4,1.5,0.8,2.1,1.4c1,1,1.2,3.9,0.3,5
	c-1.1,1.4-2.5,0.7-3.7,0.2c-9.5-3.6-14.3-14.3-9.4-23.3C-354.6,399.4-349.3,396.6-343.2,396.4z"/>
<path fill="#FFFFFF" d="M-285.8,391.1c-1.2-0.1-2.2-0.5-2.2-2c0-1.6,0-3.1-0.1-4.7c0-1.4,0.7-2.2,2.1-2.2c2.8,0,5.7,0,8.5,0.1
	c1.4,0,2.1,0.8,2.2,2.2c0,1.2,0,2.3,0,3.5c0,2.2-0.7,2.8-2.8,2.9c-2.3,0.1-4.6,0.2-7,0.2C-285.4,391.1-285.6,391.1-285.8,391.1z"/>
<path fill="#FFFFFF" d="M-307.6,429.3c-1.3,0.1-2.8,0-4.1-0.2c-2.1-0.3-2-1.8-0.8-3.1c1.3-1.4,2.9-2.5,4.7-3.1
	c1.9-0.6,3.9-0.8,5.5-2c2.1-1.5,3.6-3.8,3.9-6.4c0.6-5.5-1.4-9-6.3-11.2c-0.8-0.3-1.6-0.7-2.2-1.3c-1.1-1-1.3-3.8-0.5-4.9
	c1.1-1.5,2.5-0.8,3.7-0.4c9.7,3.2,14.9,13.8,10.3,22.9C-296.2,425.4-301,428.8-307.6,429.3z"/>
<rect x="0" fill="#030C43" width="841.9" height="595.3"/>
<path fill="#FFFFFF" d="M453.9,173.6c15.1,0,30.2,0,45.3,0c5,0,5.1,0.1,5.2,5.1c0.2,8.9,0.2,17.8,0.3,26.7c0,2.4-0.6,3.1-2.9,3.2
	c-3,0.1-6,0-8.9,0c-0.6,0-1.2-0.1-1.7,0c-2.2,0.1-2.8,1.1-1.6,3c1.6,2.6,3.3,5.3,4.8,8c3.3,5.9,5.6,12.1,7.4,18.6
	c2.3,8.6,3.4,17.4,3,26.3c-0.7,16.4-5.6,31.5-15,45.1c-5.9,8.5-12.8,16-21.2,22c-7.7,5.5-16.2,9.7-25.3,12.5
	c-9.1,2.8-18.3,3.8-27.8,3.7c-26.7-0.1-53.3,0-80,0c-0.8,0-1.7,0-2.5,0c-2.3-0.1-3-0.8-3-3.1c0-5.6,0-11.3,0-16.9
	c0-3.7,0-7.4,0-11.1c0-2.9,0.6-3.5,3.5-3.6c3.1-0.1,6.2,0,9.3-0.1c3.1-0.1,3.6-1,1.9-3.5c-4.8-7.6-8.8-15.6-11.2-24.3
	c-3.2-11.4-4.7-23-2.9-34.9c2-13.9,6.5-26.8,14.5-38.4c8.2-11.9,18.6-21.4,31.6-28.2c8.8-4.6,18.2-7.6,27.9-9.2
	c4.5-0.7,9.2-0.7,13.8-0.7C430.2,173.6,442.1,173.6,453.9,173.6C453.9,173.6,453.9,173.6,453.9,173.6z M417.1,312.8
	c29.8,0.3,52.4-23.5,52.5-51.8c0.1-28.2-21.4-52.3-51.7-52.5c-30.6-0.2-52.4,23-52.8,51.9C364.8,289.3,388.6,313.3,417.1,312.8z"/>
<path fill="#FFFFFF" d="M330.7,173.7c9.8-0.3,19.8,1.6,29.6,5.1c0.5,0.2,1,0.4,1.4,0.6c1.7,1,1.8,1.8,0.3,3.1
	c-2.4,2-4.9,3.8-7.3,5.8c-5.8,5.1-11.3,10.5-15.4,17.1c-1.5,2.3-3.3,3.3-6.3,3.2c-11.2-0.3-21.8,2.1-31.4,8.2
	c-8.8,5.7-15.1,13.5-19.5,22.9c-3.3,7.2-4.2,14.9-4,22.7c0.4,18.2,8.9,31.8,23.4,42c5.1,3.5,10.9,5.7,16.9,7.1
	c2.6,0.6,3.2,1.4,3.3,4c0,9.5,0,19.1,0,28.6c0,2.4-0.8,3.3-3.2,3c-4.2-0.7-8.4-1.5-12.5-2.6c-8.6-2.3-16.6-6.1-24-11.1
	c-11.7-7.9-21-18-28.1-30.2c-4.6-7.9-7.8-16.3-9.5-25.1c-2-10.2-2.1-20.6-0.6-30.9c1.9-12.2,6.2-23.5,13-33.8
	c10.2-15.5,23.9-26.7,41.1-33.7C308.3,175.5,319,173.4,330.7,173.7z"/>
<path fill="#FFFFFF" d="M504.1,347.6c-10,0.8-19.8-1.8-29.5-4.9c-0.3-0.1-0.6-0.2-0.9-0.4c-2.6-1.3-2.7-2.2-0.4-3.9
	c6.4-4.8,12.3-10.1,17.5-16.2c1.9-2.1,3.5-4.5,5.2-6.8c1.2-1.8,2.8-2.8,5-2.7c1.6,0.1,3.2,0,4.9,0c11.8,0,22.2-4.1,31.4-11.3
	c8.8-6.9,14.6-16,17.6-26.6c2.3-8.2,2.3-16.6,0.7-25c-2-10.7-7.3-19.6-15-27.1c-6.7-6.5-14.8-10.9-24.1-12.6
	c-2.7-0.5-3.3-1.2-3.3-3.8c0-9.5,0-19.1,0.1-28.6c0-3.3,0.8-4,4.1-3.4c10.7,1.9,20.9,5.2,30.3,10.6c11.8,6.7,21.5,15.7,29.3,26.9
	c6.8,9.9,11.3,20.8,13.5,32.6c1.5,8.3,1.9,16.6,1.1,25c-0.9,10.1-3.5,19.8-8,29c-6.6,13.3-15.8,24.5-27.8,33.2
	c-8.6,6.3-18.3,10.7-28.7,13.5C519.6,347,512.2,348,504.1,347.6z"/>
<path fill="#FFFFFF" d="M210.9,397.5c0-6.5,0-13,0-19.4c0-2.9,0.5-3.4,3.4-3.4c8.1,0,16.2-0.2,24.3,0.1c3,0.1,6.2,0.8,8.9,2.2
	c6.5,3.2,8.7,11.8,4.9,18.1c-1.2,1.9-2.9,3.6-4.7,5c-1.5,1.2-2,2.2-1,3.9c2.5,4.6,5,9.2,7.5,13.8c1.3,2.5,1,2.9-1.8,2.9
	c-3.4,0-6.7,0-10.1,0c-1.9,0-3.2-0.8-4-2.5c-1.7-3.8-3.5-7.5-5.3-11.2c-1.4-3-3.3-3.9-6.4-2.9c-0.6,0.2-1.2,1.3-1.2,2
	c-0.1,3.9-0.1,7.9-0.1,11.9c0,2.5-0.3,2.8-2.8,2.8c-2.9,0-5.7,0-8.6,0c-2.6,0-3-0.3-3.1-3c-0.1-4,0-8,0-12.1
	C210.8,402.8,210.8,400.2,210.9,397.5C210.8,397.5,210.8,397.5,210.9,397.5z M231.5,385c-1.5,0-3.4-0.2-4.9,0.3
	c-1.4,0.4-1.5,1.5-1.6,2.8c0,1,0.1,2,0.2,3c0.1,1.6,0.8,2.4,2.4,2.4c2.6,0,5.3-0.1,7.9-0.2c2.2-0.1,3.7-1.8,3.8-3.9
	C239.5,385.1,234.7,385,231.5,385z"/>
<path fill="#FFFFFF" d="M425.7,397.6c0,0.1,0,0.2,0,0.3c0,1.2,0.2,2.4,0.4,3.7c0.2,1.5,0.5,3,1,4.4c1.4,3.8,4.8,5.1,8.7,4.9
	c4-0.3,6.2-1.9,7.3-5.8c0.6-2,1.6-2.8,3.6-2.7c2.5,0.1,5.1,0,7.6,0.1c1.8,0,2.6,0.9,2.4,2.7c-0.6,5.9-4.1,11.9-10.5,14.3
	c-7.7,3-15.5,2.9-23.1-0.1c-5.2-2-8.7-5.9-10.3-11.2c-2.3-7.6-2.5-15.3,0.7-22.8c2.7-6.4,9.2-9.8,15.9-10.9
	c9.1-1.5,20.7,0.3,25.4,9.3c1.1,2.1,1.7,4.5,1.9,6.9c0.2,2.1-0.4,2.7-2.5,2.8c-2.8,0.1-5.7,0-8.6,0c-1.5,0-2.3-0.8-2.7-2.3
	c-1.1-4.4-4.8-7.1-9-6.7c-3.3,0.3-6,2.4-7.2,5.4c-0.6,1.6-0.7,3.3-0.9,5C425.8,395.8,425.7,396.7,425.7,397.6z"/>
<path fill="#FFFFFF" d="M463.6,396.3c0-6.3,0-12.6,0-18.9c0-0.6,0-1.1,0-1.7c0-3.6,0.4-3.9,3.9-3.9c2.1,0,4.3,0,6.4,0
	c1.8,0,2.7,0.9,2.7,2.7c0,3.6,0,7.3,0.1,10.9c0.1,2.1,0.8,2.5,2.7,1.4c4.4-2.5,9.1-3.1,13.8-1.4c4.5,1.6,6.2,5.6,6.6,9.9
	c0.4,3.9,0.2,7.8,0.2,11.6c0,3.6,0,7.3-0.1,10.9c0,2.3-0.5,2.7-2.7,2.8c-2.5,0-4.9-0.1-7.4,0c-1.9,0.1-2.7-0.7-2.7-2.6
	c0-5.2,0-10.5,0-15.7c0-1,0-1.9,0-2.9c-0.1-3.4-1.8-5.2-4.7-5.3c-3.2-0.1-5.6,2-5.8,5.3c-0.2,3.4-0.1,6.9-0.1,10.3
	c0,2.9,0,5.7,0,8.6c0,1.7-0.8,2.5-2.5,2.4c-2.5-0.1-5.1,0-7.6,0c-2.3,0-2.8-0.4-2.8-2.7C463.7,410.7,463.6,403.5,463.6,396.3z"/>
<path fill="#FFFFFF" d="M283.8,405.4c-0.9,0-1.8,0-2.6,0c-1.9,0-3.7,0-5.6-0.1c-1.3,0-3.7-0.5-4.6,0.7c-0.2,0.3-0.3,0.7-0.3,1.1
	c-0.1,1.9,1.1,3.8,2.7,4.8s3.6,1.3,5.6,1.1c1.7-0.2,3.4-0.7,4.4-2c0.6-0.7,0.9-1.6,1.6-2.2c0.8-0.7,2-0.7,3.1-0.7
	c1.9,0,3.8-0.1,5.7-0.1c2,0,3.4,0.6,3.1,2.8c-1.5,9.7-15.1,11.8-23,10.5c-0.7-0.1-1.4-0.3-2.1-0.5c-5.2-1.3-10.6-4.2-12.5-9.5
	c-0.6-1.7-1-3.5-1.2-5.3c-0.5-4.1-0.2-8.1,1.6-12c2.9-6.4,8.3-8.9,14.7-9.4c3.4-0.3,7,0,10.4,0.6c6.6,1.2,11.2,6.3,12.1,13
	c0.2,1.6,0.2,3.2,0.3,4.8c0.2,2.9-2.9,2.4-4.9,2.4C289.4,405.5,286.6,405.5,283.8,405.4z M277.5,399C277.5,399,277.5,399,277.5,399
	c1.5,0,3,0,4.5,0c1.9,0,2.4-0.7,1.7-2.6c-0.8-2.3-2.8-3.6-5.6-3.6c-2.7,0-5.2,0.4-6.5,3.2c-0.1,0.2-0.2,0.5-0.3,0.7
	c-0.5,1.4-0.1,2.3,1.6,2.3C274.4,399,276,399,277.5,399z"/>
<path fill="#FFFFFF" d="M594.9,402.8c0-4.9,0-9.7,0-14.6c0-2.4,0.5-2.8,2.9-2.9c1.4,0,2.9,0,4.3,0.1c1.8,0.1,3.3,0.4,3.9,2.7
	c0.4,1.7,1.7,1.2,2.7,0.3c3.1-2.7,6.7-4,10.9-3.9c6.7,0.1,11.1,3.7,11.4,10.4c0.4,7.8,0.2,15.7,0.2,23.5c0,1.5-0.8,2.1-2.2,2.1
	c-2.7,0-5.4-0.1-8.2,0c-1.9,0-2.5-0.8-2.5-2.6c0-6,0-12.1,0-18.1c0-3.7-1.3-5.5-4.2-5.8c-3-0.3-5.6,1.7-6.2,5
	c-0.3,1.5-0.2,3.1-0.2,4.6c0,4.7,0.1,9.3,0.1,14c0,2.5-0.4,2.8-2.9,2.8c-2.5,0-4.9-0.1-7.4,0c-1.9,0.1-2.7-0.7-2.7-2.6
	C594.9,413,594.8,407.9,594.9,402.8C594.8,402.8,594.9,402.8,594.9,402.8z"/>
<path fill="#FFFFFF" d="M385.2,420.4C385.2,420.4,385.2,420.4,385.2,420.4c-0.4,0.6-2.7,0.4-3.3,0.4c-2.4,0.1-4.9,0.1-7.3-0.1
	c-1.8-0.1-3.8-0.5-4.8-2.2c-1.5-2.4-3-4.8-4.7-7.1c-1.1-1.6-1.9-1.5-2.9,0.1c-1.4,2.2-2.8,4.4-4.1,6.6c-1.5,2.5-3.7,2.5-6.4,2.6
	c-2,0.1-4,0-6.1-0.1c-0.5,0-2.4,0.1-2.6-0.4c-0.1-0.4,0.9-1.9,1.2-2.2c3.2-4.4,6.5-8.9,9.8-13.3c1.7-2.3,1.8-3,0.1-5.3
	c-2.9-3.9-5.9-7.7-8.9-11.6c-0.5-0.6-0.8-1.5-0.1-1.9c0.7-0.5,2-0.4,2.8-0.4c2.2,0,4.4,0,6.6,0c2.2,0,4.4-0.1,5.6,2
	c0.9,1.5,1.7,2.9,2.6,4.3c1.6,2.5,2.4,2.5,4,0.1c0.9-1.4,1.8-2.8,2.7-4.3c0.8-1.4,2-2.1,3.7-2.1c3,0,6.1,0,9.1,0
	c1.8,0,2.3,0.8,1.2,2.3c-2.2,3-4.6,5.9-6.8,9c-4.9,6.7-4.3,5.1-0.3,10.8c2.5,3.7,5.2,7.2,7.8,10.9
	C384.5,418.7,385.4,419.8,385.2,420.4z"/>
<path fill="#FFFFFF" d="M340.8,420.3C340.8,420.3,340.7,420.3,340.8,420.3c-0.4,0.6-2.7,0.4-3.3,0.4c-2.4,0.1-4.9,0.1-7.3-0.1
	c-1.8-0.1-3.8-0.5-4.8-2.2c-1.5-2.4-3-4.8-4.7-7.1c-1.1-1.6-1.9-1.5-2.9,0.1c-1.4,2.2-2.8,4.4-4.1,6.6c-1.5,2.5-3.7,2.5-6.4,2.6
	c-2,0.1-4,0-6.1-0.1c-0.5,0-2.4,0.1-2.6-0.4c-0.1-0.4,0.9-1.9,1.2-2.2c3.2-4.4,6.5-8.9,9.8-13.3c1.7-2.3,1.8-3,0.1-5.3
	c-2.9-3.9-5.9-7.7-8.9-11.6c-0.5-0.6-0.8-1.5-0.1-1.9c0.7-0.5,2-0.4,2.8-0.4c2.2,0,4.4,0,6.6,0c2.2,0,4.4-0.1,5.6,2
	c0.9,1.5,1.7,2.9,2.6,4.3c1.6,2.5,2.4,2.5,4,0.1c0.9-1.4,1.8-2.8,2.7-4.3c0.8-1.4,2-2.1,3.7-2.1c3,0,6.1,0,9.1,0
	c1.8,0,2.3,0.8,1.2,2.3c-2.2,3-4.6,5.9-6.8,9c-4.9,6.7-4.3,5.1-0.3,10.8c2.5,3.7,5.2,7.2,7.8,10.9
	C340.1,418.6,340.9,419.8,340.8,420.3z"/>
<path fill="#FFFFFF" d="M529.5,419.5c-2.7,0-5.3-0.1-7.6,0c-1.4,0-2.6-0.3-3-1.9c-0.4-1.7-0.5-3.6,1.2-4.5c1.5-0.8,1.5-1.6,0.8-2.9
	c-3.4-7-1.6-13.4,2.6-19.3c2.9-4.1,9-4.7,13.6-4.9c2.1-0.1,15.8-1.6,16.1,1.4c0.2,1.5,0.2,3.8-0.7,4.5c-1.9,1.4-1.5,2.7-0.9,4.4
	c1.8,4.3,1.7,8.7,0.1,13.1C548.5,418.6,538.6,419.5,529.5,419.5z M536.3,412.8c5.7-0.2,10.5-4.6,10.3-10.8
	c-0.2-5.4-4.8-9.8-10.4-9.7c-6,0.1-10.3,4.5-10.3,10.4C525.9,409,531.4,412.8,536.3,412.8z"/>
<path fill="#FFFFFF" d="M573.8,402.9c0-5,0-10,0-15c0-2.2,0.3-2.6,2.6-2.6c2.4,0,4.8,0,7.2,0c2.3,0.1,2.9,0.7,2.9,2.9
	c0,9.6,0.1,19.2,0.1,28.7c0,3.3-0.3,3.6-3.5,3.6c-2.3,0-4.5-0.1-6.8,0c-1.8,0.1-2.5-0.8-2.5-2.6C573.8,413,573.7,407.9,573.8,402.9
	C573.8,402.9,573.8,402.9,573.8,402.9z"/>
<path fill="#FFFFFF" d="M518.7,386c1.3,0,2.6,0,3.9,0.2c0.4,0.1,0.9,0.1,1.2,0.3c0.4,0.2,0.7,0.5,0.8,1c0.3,1.6-2.6,3.4-3.8,4.1
	c-2.4,1.4-5.4,1-7.7,2.5c-2.1,1.4-3.8,3.6-4.1,6.2c-0.8,5.5,1,9,5.9,11.5c0.7,0.4,1.5,0.8,2.1,1.4c1,1,1.2,3.9,0.3,5
	c-1.1,1.4-2.5,0.7-3.7,0.2c-9.5-3.6-14.3-14.3-9.4-23.3C507.3,389.1,512.5,386.2,518.7,386z"/>
<path fill="#FFFFFF" d="M576,380.7c-1.2-0.1-2.2-0.5-2.2-2c0-1.6,0-3.1-0.1-4.7c0-1.4,0.7-2.2,2.1-2.2c2.8,0,5.7,0,8.5,0.1
	c1.4,0,2.1,0.8,2.2,2.2c0,1.2,0,2.3,0,3.5c0,2.2-0.7,2.8-2.8,2.9c-2.3,0.1-4.6,0.2-7,0.2C576.5,380.7,576.3,380.7,576,380.7z"/>
<path fill="#FFFFFF" d="M554.3,418.9c-1.3,0.1-2.8,0-4.1-0.2c-2.1-0.3-2-1.8-0.8-3.1c1.3-1.4,2.9-2.5,4.7-3.1c1.9-0.6,3.9-0.8,5.5-2
	c2.1-1.5,3.6-3.8,3.9-6.4c0.6-5.5-1.4-9-6.3-11.2c-0.8-0.3-1.6-0.7-2.2-1.3c-1.1-1-1.3-3.8-0.5-4.9c1.1-1.5,2.5-0.8,3.7-0.4
	c9.7,3.2,14.9,13.8,10.3,22.9C565.6,415.1,560.9,418.5,554.3,418.9z"/>
<path fill="#FFFFFF" d="M1348,173.6c15.1,0,30.2,0,45.3,0c5,0,5.1,0.1,5.2,5.1c0.2,8.9,0.2,17.8,0.3,26.7c0,2.4-0.6,3.1-2.9,3.2
	c-3,0.1-6,0-8.9,0c-0.6,0-1.2-0.1-1.7,0c-2.2,0.1-2.8,1.1-1.6,3c1.6,2.6,3.3,5.3,4.8,8c3.3,5.9,5.6,12.1,7.4,18.6
	c2.3,8.6,3.4,17.4,3,26.3c-0.7,16.4-5.6,31.5-15,45.1c-5.9,8.5-12.8,16-21.2,22c-7.7,5.5-16.2,9.7-25.3,12.5
	c-9.1,2.8-18.3,3.8-27.8,3.7c-26.7-0.1-53.3,0-80,0c-0.8,0-1.7,0-2.5,0c-2.3-0.1-3-0.8-3-3.1c0-5.6,0-11.3,0-16.9
	c0-3.7,0-7.4,0-11.1c0-2.9,0.6-3.5,3.5-3.6c3.1-0.1,6.2,0,9.3-0.1c3.1-0.1,3.6-1,1.9-3.5c-4.8-7.6-8.8-15.6-11.2-24.3
	c-3.2-11.4-4.7-23-2.9-34.9c2-13.9,6.5-26.8,14.5-38.4c8.2-11.9,18.6-21.4,31.6-28.2c8.8-4.6,18.2-7.6,27.9-9.2
	c4.5-0.7,9.2-0.7,13.8-0.7C1324.3,173.6,1336.2,173.6,1348,173.6C1348,173.6,1348,173.6,1348,173.6z M1311.2,312.8
	c29.8,0.3,52.4-23.5,52.5-51.8c0.1-28.2-21.4-52.3-51.7-52.5c-30.6-0.2-52.4,23-52.8,51.9C1258.8,289.3,1282.7,313.3,1311.2,312.8z"
	/>
<path fill="#FFFFFF" d="M1224.8,173.7c9.8-0.3,19.8,1.6,29.6,5.1c0.5,0.2,1,0.4,1.4,0.6c1.7,1,1.8,1.8,0.3,3.1
	c-2.4,2-4.9,3.8-7.3,5.8c-5.8,5.1-11.3,10.5-15.4,17.1c-1.5,2.3-3.3,3.3-6.3,3.2c-11.2-0.3-21.8,2.1-31.4,8.2
	c-8.8,5.7-15.1,13.5-19.5,22.9c-3.3,7.2-4.2,14.9-4,22.7c0.4,18.2,8.9,31.8,23.4,42c5.1,3.5,10.9,5.7,16.9,7.1
	c2.6,0.6,3.2,1.4,3.3,4c0,9.5,0,19.1,0,28.6c0,2.4-0.8,3.3-3.2,3c-4.2-0.7-8.4-1.5-12.5-2.6c-8.6-2.3-16.6-6.1-24-11.1
	c-11.7-7.9-21-18-28.1-30.2c-4.6-7.9-7.8-16.3-9.5-25.1c-2-10.2-2.1-20.6-0.6-30.9c1.9-12.2,6.2-23.5,13-33.8
	c10.2-15.5,23.9-26.7,41.1-33.7C1202.4,175.5,1213.1,173.4,1224.8,173.7z"/>
<path fill="#FFFFFF" d="M1398.2,347.6c-10,0.8-19.8-1.8-29.5-4.9c-0.3-0.1-0.6-0.2-0.9-0.4c-2.6-1.3-2.7-2.2-0.4-3.9
	c6.4-4.8,12.3-10.1,17.5-16.2c1.9-2.1,3.5-4.5,5.2-6.8c1.2-1.8,2.8-2.8,5-2.7c1.6,0.1,3.2,0,4.9,0c11.8,0,22.2-4.1,31.4-11.3
	c8.8-6.9,14.6-16,17.6-26.6c2.3-8.2,2.3-16.6,0.7-25c-2-10.7-7.3-19.6-15-27.1c-6.7-6.5-14.8-10.9-24.1-12.6
	c-2.7-0.5-3.3-1.2-3.3-3.8c0-9.5,0-19.1,0.1-28.6c0-3.3,0.8-4,4.1-3.4c10.7,1.9,20.9,5.2,30.3,10.6c11.8,6.7,21.5,15.7,29.3,26.9
	c6.8,9.9,11.3,20.8,13.5,32.6c1.5,8.3,1.9,16.6,1.1,25c-0.9,10.1-3.5,19.8-8,29c-6.6,13.3-15.8,24.5-27.8,33.2
	c-8.6,6.3-18.3,10.7-28.7,13.5C1413.7,347,1406.2,348,1398.2,347.6z"/>
<path fill="#FFFFFF" d="M1104.9,397.5c0-6.5,0-13,0-19.4c0-2.9,0.5-3.4,3.4-3.4c8.1,0,16.2-0.2,24.3,0.1c3,0.1,6.2,0.8,8.9,2.2
	c6.5,3.2,8.7,11.8,4.9,18.1c-1.2,1.9-2.9,3.6-4.7,5c-1.5,1.2-2,2.2-1,3.9c2.5,4.6,5,9.2,7.5,13.8c1.3,2.5,1,2.9-1.8,2.9
	c-3.4,0-6.7,0-10.1,0c-1.9,0-3.2-0.8-4-2.5c-1.7-3.8-3.5-7.5-5.3-11.2c-1.4-3-3.3-3.9-6.4-2.9c-0.6,0.2-1.2,1.3-1.2,2
	c-0.1,3.9-0.1,7.9-0.1,11.9c0,2.5-0.3,2.8-2.8,2.8c-2.9,0-5.7,0-8.6,0c-2.6,0-3-0.3-3.1-3c-0.1-4,0-8,0-12.1
	C1104.9,402.8,1104.9,400.2,1104.9,397.5C1104.9,397.5,1104.9,397.5,1104.9,397.5z M1125.6,385c-1.5,0-3.4-0.2-4.9,0.3
	c-1.4,0.4-1.5,1.5-1.6,2.8c0,1,0.1,2,0.2,3c0.1,1.6,0.8,2.4,2.4,2.4c2.6,0,5.3-0.1,7.9-0.2c2.2-0.1,3.7-1.8,3.8-3.9
	C1133.6,385.1,1128.8,385,1125.6,385z"/>
<path fill="#FFFFFF" d="M1319.8,397.6c0,0.1,0,0.2,0,0.3c0,1.2,0.2,2.4,0.4,3.7c0.2,1.5,0.5,3,1,4.4c1.4,3.8,4.8,5.1,8.7,4.9
	c4-0.3,6.2-1.9,7.3-5.8c0.6-2,1.6-2.8,3.6-2.7c2.5,0.1,5.1,0,7.6,0.1c1.8,0,2.6,0.9,2.4,2.7c-0.6,5.9-4.1,11.9-10.5,14.3
	c-7.7,3-15.5,2.9-23.1-0.1c-5.2-2-8.7-5.9-10.3-11.2c-2.3-7.6-2.5-15.3,0.7-22.8c2.7-6.4,9.2-9.8,15.9-10.9
	c9.1-1.5,20.7,0.3,25.4,9.3c1.1,2.1,1.7,4.5,1.9,6.9c0.2,2.1-0.4,2.7-2.5,2.8c-2.8,0.1-5.7,0-8.6,0c-1.5,0-2.3-0.8-2.7-2.3
	c-1.1-4.4-4.8-7.1-9-6.7c-3.3,0.3-6,2.4-7.2,5.4c-0.6,1.6-0.7,3.3-0.9,5C1319.9,395.8,1319.8,396.7,1319.8,397.6z"/>
<path fill="#FFFFFF" d="M1357.7,396.3c0-6.3,0-12.6,0-18.9c0-0.6,0-1.1,0-1.7c0-3.6,0.4-3.9,3.9-3.9c2.1,0,4.3,0,6.4,0
	c1.8,0,2.7,0.9,2.7,2.7c0,3.6,0,7.3,0.1,10.9c0.1,2.1,0.8,2.5,2.7,1.4c4.4-2.5,9.1-3.1,13.8-1.4c4.5,1.6,6.2,5.6,6.6,9.9
	c0.4,3.9,0.2,7.8,0.2,11.6c0,3.6,0,7.3-0.1,10.9c0,2.3-0.5,2.7-2.7,2.8c-2.5,0-4.9-0.1-7.4,0c-1.9,0.1-2.7-0.7-2.7-2.6
	c0-5.2,0-10.5,0-15.7c0-1,0-1.9,0-2.9c-0.1-3.4-1.8-5.2-4.7-5.3c-3.2-0.1-5.6,2-5.8,5.3c-0.2,3.4-0.1,6.9-0.1,10.3
	c0,2.9,0,5.7,0,8.6c0,1.7-0.8,2.5-2.5,2.4c-2.5-0.1-5.1,0-7.6,0c-2.3,0-2.8-0.4-2.8-2.7C1357.8,410.7,1357.7,403.5,1357.7,396.3z"/>
<path fill="#FFFFFF" d="M1177.9,405.4c-0.9,0-1.8,0-2.6,0c-1.9,0-3.7,0-5.6-0.1c-1.3,0-3.7-0.5-4.6,0.7c-0.2,0.3-0.3,0.7-0.3,1.1
	c-0.1,1.9,1.1,3.8,2.7,4.8c1.6,1,3.6,1.3,5.6,1.1c1.7-0.2,3.4-0.7,4.4-2c0.6-0.7,0.9-1.6,1.6-2.2c0.8-0.7,2-0.7,3.1-0.7
	c1.9,0,3.8-0.1,5.7-0.1c2,0,3.4,0.6,3.1,2.8c-1.5,9.7-15.1,11.8-23,10.5c-0.7-0.1-1.4-0.3-2.1-0.5c-5.2-1.3-10.6-4.2-12.5-9.5
	c-0.6-1.7-1-3.5-1.2-5.3c-0.5-4.1-0.2-8.1,1.6-12c2.9-6.4,8.3-8.9,14.7-9.4c3.4-0.3,7,0,10.4,0.6c6.6,1.2,11.2,6.3,12.1,13
	c0.2,1.6,0.2,3.2,0.3,4.8c0.2,2.9-2.9,2.4-4.9,2.4C1183.5,405.5,1180.7,405.5,1177.9,405.4z M1171.6,399
	C1171.6,399,1171.6,399,1171.6,399c1.5,0,3,0,4.5,0c1.9,0,2.4-0.7,1.7-2.6c-0.8-2.3-2.8-3.6-5.6-3.6c-2.7,0-5.2,0.4-6.5,3.2
	c-0.1,0.2-0.2,0.5-0.3,0.7c-0.5,1.4-0.1,2.3,1.6,2.3C1168.5,399,1170.1,399,1171.6,399z"/>
<path fill="#FFFFFF" d="M1489,402.8c0-4.9,0-9.7,0-14.6c0-2.4,0.5-2.8,2.9-2.9c1.4,0,2.9,0,4.3,0.1c1.8,0.1,3.3,0.4,3.9,2.7
	c0.4,1.7,1.7,1.2,2.7,0.3c3.1-2.7,6.7-4,10.9-3.9c6.7,0.1,11.1,3.7,11.4,10.4c0.4,7.8,0.2,15.7,0.2,23.5c0,1.5-0.8,2.1-2.2,2.1
	c-2.7,0-5.4-0.1-8.2,0c-1.9,0-2.5-0.8-2.5-2.6c0-6,0-12.1,0-18.1c0-3.7-1.3-5.5-4.2-5.8c-3-0.3-5.6,1.7-6.2,5
	c-0.3,1.5-0.2,3.1-0.2,4.6c0,4.7,0.1,9.3,0.1,14c0,2.5-0.4,2.8-2.9,2.8c-2.5,0-4.9-0.1-7.4,0c-1.9,0.1-2.7-0.7-2.7-2.6
	C1489,413,1488.9,407.9,1489,402.8C1488.9,402.8,1488.9,402.8,1489,402.8z"/>
<path fill="#FFFFFF" d="M1279.3,420.4C1279.3,420.4,1279.3,420.4,1279.3,420.4c-0.4,0.6-2.7,0.4-3.3,0.4c-2.4,0.1-4.9,0.1-7.3-0.1
	c-1.8-0.1-3.8-0.5-4.8-2.2c-1.5-2.4-3-4.8-4.7-7.1c-1.1-1.6-1.9-1.5-2.9,0.1c-1.4,2.2-2.8,4.4-4.1,6.6c-1.5,2.5-3.7,2.5-6.4,2.6
	c-2,0.1-4,0-6.1-0.1c-0.5,0-2.4,0.1-2.6-0.4c-0.1-0.4,0.9-1.9,1.2-2.2c3.2-4.4,6.5-8.9,9.8-13.3c1.7-2.3,1.8-3,0.1-5.3
	c-2.9-3.9-5.9-7.7-8.9-11.6c-0.5-0.6-0.8-1.5-0.1-1.9c0.7-0.5,2-0.4,2.8-0.4c2.2,0,4.4,0,6.6,0c2.2,0,4.4-0.1,5.6,2
	c0.9,1.5,1.7,2.9,2.6,4.3c1.6,2.5,2.4,2.5,4,0.1c0.9-1.4,1.8-2.8,2.7-4.3c0.8-1.4,2-2.1,3.7-2.1c3,0,6.1,0,9.1,0
	c1.8,0,2.3,0.8,1.2,2.3c-2.2,3-4.6,5.9-6.8,9c-4.9,6.7-4.3,5.1-0.3,10.8c2.5,3.7,5.2,7.2,7.8,10.9
	C1278.6,418.7,1279.4,419.8,1279.3,420.4z"/>
<path fill="#FFFFFF" d="M1234.8,420.3C1234.8,420.3,1234.8,420.3,1234.8,420.3c-0.4,0.6-2.7,0.4-3.3,0.4c-2.4,0.1-4.9,0.1-7.3-0.1
	c-1.8-0.1-3.8-0.5-4.8-2.2c-1.5-2.4-3-4.8-4.7-7.1c-1.1-1.6-1.9-1.5-2.9,0.1c-1.4,2.2-2.8,4.4-4.1,6.6c-1.5,2.5-3.7,2.5-6.4,2.6
	c-2,0.1-4,0-6.1-0.1c-0.5,0-2.4,0.1-2.6-0.4c-0.1-0.4,0.9-1.9,1.2-2.2c3.2-4.4,6.5-8.9,9.8-13.3c1.7-2.3,1.8-3,0.1-5.3
	c-2.9-3.9-5.9-7.7-8.9-11.6c-0.5-0.6-0.8-1.5-0.1-1.9c0.7-0.5,2-0.4,2.8-0.4c2.2,0,4.4,0,6.6,0c2.2,0,4.4-0.1,5.6,2
	c0.9,1.5,1.7,2.9,2.6,4.3c1.6,2.5,2.4,2.5,4,0.1c0.9-1.4,1.8-2.8,2.7-4.3c0.8-1.4,2-2.1,3.7-2.1c3,0,6.1,0,9.1,0
	c1.8,0,2.3,0.8,1.2,2.3c-2.2,3-4.6,5.9-6.8,9c-4.9,6.7-4.3,5.1-0.3,10.8c2.5,3.7,5.2,7.2,7.8,10.9
	C1234.1,418.6,1235,419.8,1234.8,420.3z"/>
<path fill="#FFFFFF" d="M1423.6,419.5c-2.7,0-5.3-0.1-7.6,0c-1.4,0-2.6-0.3-3-1.9c-0.4-1.7-0.5-3.6,1.2-4.5c1.5-0.8,1.5-1.6,0.8-2.9
	c-3.4-7-1.6-13.4,2.6-19.3c2.9-4.1,9-4.7,13.6-4.9c2.1-0.1,15.8-1.6,16.1,1.4c0.2,1.5,0.2,3.8-0.7,4.5c-1.9,1.4-1.5,2.7-0.9,4.4
	c1.8,4.3,1.7,8.7,0.1,13.1C1442.6,418.6,1432.7,419.5,1423.6,419.5z M1430.4,412.8c5.7-0.2,10.5-4.6,10.3-10.8
	c-0.2-5.4-4.8-9.8-10.4-9.7c-6,0.1-10.3,4.5-10.3,10.4C1420,409,1425.5,412.8,1430.4,412.8z"/>
<path fill="#FFFFFF" d="M1467.9,402.9c0-5,0-10,0-15c0-2.2,0.3-2.6,2.6-2.6c2.4,0,4.8,0,7.2,0c2.3,0.1,2.9,0.7,2.9,2.9
	c0,9.6,0.1,19.2,0.1,28.7c0,3.3-0.3,3.6-3.5,3.6c-2.3,0-4.5-0.1-6.8,0c-1.8,0.1-2.5-0.8-2.5-2.6
	C1467.9,413,1467.8,407.9,1467.9,402.9C1467.8,402.9,1467.9,402.9,1467.9,402.9z"/>
<path fill="#FFFFFF" d="M1412.8,386c1.3,0,2.6,0,3.9,0.2c0.4,0.1,0.9,0.1,1.2,0.3c0.4,0.2,0.7,0.5,0.8,1c0.3,1.6-2.6,3.4-3.8,4.1
	c-2.4,1.4-5.4,1-7.7,2.5c-2.1,1.4-3.8,3.6-4.1,6.2c-0.8,5.5,1,9,5.9,11.5c0.7,0.4,1.5,0.8,2.1,1.4c1,1,1.2,3.9,0.3,5
	c-1.1,1.4-2.5,0.7-3.7,0.2c-9.5-3.6-14.3-14.3-9.4-23.3C1401.4,389.1,1406.6,386.2,1412.8,386z"/>
<path fill="#FFFFFF" d="M1470.1,380.7c-1.2-0.1-2.2-0.5-2.2-2c0-1.6,0-3.1-0.1-4.7c0-1.4,0.7-2.2,2.1-2.2c2.8,0,5.7,0,8.5,0.1
	c1.4,0,2.1,0.8,2.2,2.2c0,1.2,0,2.3,0,3.5c0,2.2-0.7,2.8-2.8,2.9c-2.3,0.1-4.6,0.2-7,0.2C1470.6,380.7,1470.4,380.7,1470.1,380.7z"
	/>
<path fill="#FFFFFF" d="M1448.4,418.9c-1.3,0.1-2.8,0-4.1-0.2c-2.1-0.3-2-1.8-0.8-3.1c1.3-1.4,2.9-2.5,4.7-3.1
	c1.9-0.6,3.9-0.8,5.5-2c2.1-1.5,3.6-3.8,3.9-6.4c0.6-5.5-1.4-9-6.3-11.2c-0.8-0.3-1.6-0.7-2.2-1.3c-1.1-1-1.3-3.8-0.5-4.9
	c1.1-1.5,2.5-0.8,3.7-0.4c9.7,3.2,14.9,13.8,10.3,22.9C1459.7,415.1,1455,418.5,1448.4,418.9z"/>
</svg>
