<?xml version="1.0" encoding="utf-8"?>
<!-- Generator: Adobe Illustrator 18.1.1, SVG Export Plug-In . SVG Version: 6.00 Build 0)  -->
<svg version="1.1" id="Layer_1" xmlns="http://www.w3.org/2000/svg" xmlns:xlink="http://www.w3.org/1999/xlink" x="0px" y="0px"
	 viewBox="0 0 841.9 595.3" enable-background="new 0 0 841.9 595.3" xml:space="preserve">
<rect x="0.6" fill="#050000" width="841.9" height="595.3"/>
<path fill="#FFFFFF" stroke="#03A9F5" stroke-width="2" stroke-miterlimit="10" d="M514.6,284.3c-2.4,0.3-3.8,0.5-5.7,0.7
	c1.5-3.7,2.6-7.1,4.3-10.1c0.7-1.1,3-2,4.5-1.9c6.4,0.8,12.8,1.9,19.9,3.1c-39.1,63.6-78.2,127.3-117.4,191c-0.5-0.3-1-0.5-1.5-0.8
	c15.9-30.1,31.9-60.2,47.8-90.4C482.4,345.6,498.3,315.3,514.6,284.3z"/>
<path fill="#FFFFFF" stroke="#03A9F5" stroke-width="2" stroke-miterlimit="10" d="M254.1,284.3c2.4,0.3,3.8,0.5,5.7,0.7
	c-1.5-3.7-2.6-7.1-4.3-10.1c-0.7-1.1-3-2-4.5-1.9c-6.4,0.8-12.8,1.9-19.9,3.1c39.1,63.6,78.2,127.3,117.4,191c0.5-0.3,1-0.5,1.5-0.8
	c-15.9-30.1-31.9-60.2-47.8-90.4C286.4,345.6,270.4,315.3,254.1,284.3z"/>
<path fill="#00AEEF" d="M543.8,192.7c-4-5.8-8.3-12.3-14.1-16.5c0.4,11.3,1.8,22.6,2.7,33.9c1.7,23.2-8.2,37.4-30.1,43
	c-4.1,1.1-8.4,2-12.6,2.2c-4.7,0.2-7.2,2.4-9.2,6.6c-8.6,18-17.6,35.7-26.4,53.6c-22.2,44.9-44.3,89.8-66.5,134.7
	c-1.1,2.2-2.3,4.3-4.1,7.6c-18.9-39.5-37.1-77.7-55.9-116.9c7.6,0,13.8,0.2,20.1-0.1c4-0.1,6.1,1.7,7.8,5.1
	c7.2,15.1,14.5,30.2,21.8,45.3c3.3,6.8,6.7,13.4,10.7,21.4c4.9-9.9,9.4-18.4,13.3-27.1c1-2.2,0.9-5.5,0-7.7
	c-4.4-10.1-9.2-19.9-13.9-29.9c-1-2.1-1.7-4.2-2.7-6.6c7.9,0,15,0.3,22-0.1c10.7-0.6,19.1-4.7,24.1-15.1c6-12.6,12.3-25.2,18.5-37.7
	c3.1-6.3,6.3-12.5,9.4-18.8c1-2,7.9-12.6,4.8-14.1c-1.1-0.5-3.7,0-4.9,0c-19.8,0-39.5,0-59.3,0c-35.4,0-70.9,0.1-106.3-0.1
	c-7.8,0-15.6-0.7-23.4-1.7c-9.6-1.3-19.6-6.7-25.2-12.9c-0.2,0.9,1.7,3.1,1.4,3.9c-1.2,4.9-3.4,9.3-6.8,12.9
	c-2.7,4.1-6.2,7.4-10.7,9.8c-2.4,1.2-4.9,2.3-7.4,3.4c3.5,6.3,8,12.2,13.3,17.2c5.8,5.5,12.2,9.9,19.7,12.5
	c7.4,2.6,15.3,4.1,22.6,6.6c2.4,0.8,5.1,3,6.2,5.3c14.5,29.9,28.9,59.8,43.2,89.8c7.2,15,14.4,29.9,21.5,44.9
	c5.5,11.5,9.5,23.1,23.2,26.6c5.7,1.5,11.6,1.4,17.4,1.2c8.4-0.3,16.6-1.6,22.2-8.4c5-6.1,7.1-14.1,10.6-21
	c6.5-13.2,13-26.3,19.5-39.5c15.5-31.4,30.9-62.8,46.5-94.2c0.8-1.7,2.3-3.5,4-4.3c13.2-5.7,27.8-8.3,39.6-17
	c10-7.3,17.8-17.8,22.1-29.2C561.1,238.6,557.5,212.5,543.8,192.7z M315.7,308.2c-2,0-4.7-1.9-5.7-3.7c-2.8-5.1-4.9-10.7-7.5-16.7
	h116.3c-3.4,6.8-6.4,13-9.8,19.1c-0.6,1-2.9,1.4-4.4,1.4C375,308.4,345.4,308.5,315.7,308.2z"/>
<path fill="#00AEEF" d="M225.2,193c4-5.8,8.3-12.3,14.1-16.5c-0.4,11.3-1.8,22.6-2.7,33.9c-1.7,23.2,8.2,37.4,30.1,43
	c4.1,1.1,8.4,2,12.6,2.2c4.7,0.2,7.2,2.4,9.2,6.6c3.9,8.1,7.9,16.2,11.8,24.2c-0.5,0.3-0.9,0.5-1.4,0.8c-3.3,2.1-6.4,4.7-9.4,7.2
	c-0.6,0.5-1.1,0.9-1.6,1.4c-1.2,1.1-2.4,2.3-3.7,3.4c-2.6,2.6-4.7,5.4-6.4,8.5c-13.2-5.7-27.6-8.3-39.4-16.9
	c-10-7.3-17.8-17.8-22.1-29.2C207.9,238.9,211.4,212.8,225.2,193z"/>
<path fill="#FFFFFF" stroke="#03A9F5" stroke-width="2" stroke-miterlimit="10" d="M472.2,222.7c1.9,0,3.6,0,5.3,0c8,0,16,0,24,0
	c3.5,0,4.6,1.1,4.7,4.6c0,1,0,2,0,2.9c-0.2,2.8-1.4,4-4.2,4c-13.1,0-26.1,0-39.2,0c-2.8,0-4-1.1-4-3.9c0-17.1,0-34.1,0-51.2
	c0-2.5,1.4-3.7,3.9-3.7c13.2,0,26.4,0,39.7,0c0.5,0,1,0,1.5,0.2c2.3,0.8,3.2,3.9,2.4,8.3c-0.4,2.2-1.8,3.2-4,3.2c-9,0-18,0-26.9,0
	c-0.9,0-1.8,0-2.9,0c0,4,0,7.7,0,11.8c0.8,0,1.7,0.1,2.6,0.1c7.5,0,15,0,22.5,0c3.3,0,4.5,1.2,4.7,4.3c0.1,0.9,0,1.8,0,2.7
	c-0.1,3.3-1.4,4.5-4.7,4.5c-7.4,0-14.8,0-22.2,0c-0.9,0-1.8,0-2.9,0C472.2,214.7,472.2,218.6,472.2,222.7z"/>
<path fill="#FFFFFF" stroke="#03A9F5" stroke-width="2" stroke-miterlimit="10" d="M526.7,160c-9.5-14.2-24.6-24.3-41.2-28.6
	c-8.3-2.2-16.9-3-25.5-2.2c-2.7,0.3-16.9,0.9-18.9,4.1c0,0.2,0,0.4-0.1,0.6c-0.1,0.6-0.1,1.1-0.3,1.7c-0.1,0.9-0.2,1.7-0.7,2.3
	c0.3,0.8,0,1.9,1.1,2.1c0,0,0,0,0,0c11.4-3.2,27.2-2.1,38.4,0.9c13.2,3.5,25.4,10.9,34.3,21.3c17.2,20.2,22.1,53.5,5.9,75.7
	c-1.1,1.5-2.3,3-2.5,4.8c-0.6,5.4,5,3.3,7.1,0.9c9-10.1,11.5-23.2,13.1-36.2C539.4,190.9,535.9,173.8,526.7,160z"/>
<path fill="#FFFFFF" stroke="#03A9F5" stroke-width="2" stroke-miterlimit="10" d="M328.7,139c-1.8-1.7-2.6-4.1-2.7-6.5
	c0-0.3,0-0.6,0-0.9c-4.7-1.9-14.4-2.3-16.7-2.5c-8.5-0.8-17.2,0-25.5,2.2c-16.5,4.4-31.7,14.4-41.2,28.6
	c-9.2,13.8-12.7,31-10.7,47.3c1.6,12.9,4.1,26.1,13.1,36.2c2.1,2.3,5.8,4.1,7.2,0.6c1.1-2.8-4.7-10-6-12.4
	c-12-21.8-6.4-51.1,9.3-69.7c8.8-10.4,21.1-17.8,34.3-21.3c11.2-3,27-4.1,38.4-0.9c0,0,0,0,0,0c0.4,0,0.6-0.2,0.7-0.4
	C328.9,139.2,328.8,139.1,328.7,139z"/>
<path fill="#FFFFFF" stroke="#03A9F5" stroke-width="2" stroke-miterlimit="10" d="M380.4,264.9c-0.6-0.4-1.5-0.7-1.6-1.2
	c-4.5-15.3-23.8-15.5-36.5-12.3c-7.6,1.9-14.9,4.9-22.5,6.7c-11.4,2.7-23.5,2.7-34.8-0.6c-6.4-1.8-12.5-4.8-17.9-8.6
	c-2.9-2-5.7-4.4-8-7c-1.6-1.8-3.9-6.4,0.7-4.1c3.7,1.9,6.7,5.5,10.5,7.5c7.6,4.1,16.3,6.3,25,6.3c10.5-0.1,20.6-3.3,30.7-6.1
	c10.1-2.8,20.6-5.3,30.9-3.7c13.4,2,22,10.1,24.4,22.8C381,264.6,380.7,264.8,380.4,264.9z"/>
<path fill="#FFFFFF" stroke="#03A9F5" stroke-width="2" stroke-miterlimit="10" d="M388.2,264.9c0.6-0.4,1.5-0.7,1.6-1.2
	c4.5-15.3,23.8-15.5,36.5-12.3c7.6,1.9,14.9,4.9,22.5,6.7c11.4,2.7,23.5,2.7,34.8-0.6c6.4-1.8,12.5-4.8,17.9-8.6c2.9-2,5.7-4.4,8-7
	c1.6-1.8,3.9-6.4-0.7-4.1c-3.7,1.9-6.7,5.5-10.5,7.5c-7.6,4.1-16.3,6.3-25,6.3c-10.5-0.1-20.6-3.3-30.7-6.1
	c-10.1-2.8-20.6-5.3-30.9-3.7c-13.4,2-22,10.1-24.4,22.8C387.5,264.6,387.9,264.8,388.2,264.9z"/>
<path fill="#FFFFFF" stroke="#03A9F5" stroke-width="2" stroke-miterlimit="10" d="M289.9,214.6c2.9-7.2,5.8-14.4,8.6-21.6
	c2.4-6,4.8-12,7.2-18c1.5-3.9,3.1-4.9,7.3-4.9c1.7,0,3.5,0,5.2,0c4.5,0,5.6,1.5,3.9,5.6c-5.1,12.5-10.2,25-15.4,37.5
	c-2.5,6.2-5.1,12.4-7.6,18.6c-2.2,5.4-3.4,6.2-9.2,6.2c-0.4,0-0.8,0-1.2,0c-5.1,0-6.6-1-8.5-5.6c-3-7.2-5.9-14.4-8.8-21.6
	c-4.8-11.8-9.7-23.6-14.6-35.4c-1.5-3.7-0.4-5.3,3.6-5.3c1.9,0,3.8,0,5.7,0c4.3,0,5.7,0.9,7.3,4.9c3.4,8.4,6.7,16.9,10.1,25.3
	c1.9,4.8,3.8,9.5,5.7,14.3C289.5,214.6,289.7,214.6,289.9,214.6z"/>
<path fill="#FFFFFF" stroke="#03A9F5" stroke-width="2" stroke-miterlimit="10" d="M398.2,213.7c5.3,4.1,8,10.2,11.7,15.6
	c1,1.5,0.7,2.8-1.3,2.9c-2.8,0.2-6.6,0.6-9.3-0.7c-2.5-1.3-4-4.3-5.5-6.5c-0.4-0.6-0.8-1.2-1.2-1.8c-4.4-7-6.3-7.5-16.7-6.6
	c0,3.8,0,7.6,0,11.4c0,3.3-1,4.3-4.3,4.3c-7.6,0.1-7.6,0.1-7.6-7.3c0-10.6,0-21.2,0-31.8c0-3.7,0.8-4.5,4.5-4.5
	c8.1,0,16.1-0.2,24.2,0.1c3.3,0.1,6.8,1,9.7,2.5c5.1,2.6,7,7.3,6.4,12.8c-0.6,5-4.2,7.3-8.6,8.8c-0.6,0.2-1.3,0.4-1.9,0.6
	C398.3,213.4,398.2,213.5,398.2,213.7z M376,207.3c5.7,0,11.1,0.2,16.5-0.1c3-0.2,4.6-2.3,4.7-4.5c0.1-2.3-1.6-4.7-4.6-4.9
	c-5.5-0.4-11-0.1-16.6-0.1C376,200.8,376,204,376,207.3z"/>
<path fill="#FFFFFF" stroke="#03A9F5" stroke-width="2" stroke-miterlimit="10" d="M434.9,235.5c-7-0.2-13.9-1.8-17.8-4.1
	c-2.8-1.6-5.2-4.3-5.9-7.5c-0.2-1-0.2-2.1,0.3-2.9c0.5-0.7,1.4-1.2,2.2-1.3c4.5-1,7.4,3,11,4.7c3.5,1.6,18.2,3.9,20.2-0.9
	c0.8-1.9-0.6-3.8-2.5-4.3c-4.1-1.2-8.2-2-12.3-3.2c-3.8-1-7.6-2-11.1-3.4c-4.5-1.8-7.6-5-7.7-10.2c-0.3-15,21.9-14.8,32.3-12.4
	c2.7,0.6,5.3,1.5,7.5,3s4,3.8,4.5,6.5c0.2,1.2,0.1,2.7-0.7,3.6c-0.7,0.8-1.9,1.1-3,1.2c-4.1,0.4-7-3.1-10.5-4.5
	c-4.5-1.7-9.8-2.1-14.5-1.4c-6.1,0.9-3.5,5.6,0.4,7.2c3.6,1.4,7.6,1.1,11.2,2.2c4.2,1.2,8.5,2.4,12.4,4.2c4.4,2,6.4,5.8,6.1,10.6
	C456.4,232.5,445.6,235.7,434.9,235.5z"/>
<path fill="#FFFFFF" stroke="#03A9F5" stroke-width="2" stroke-miterlimit="10" d="M331.1,197.4c0,2.9,0,5.5,0,8.4
	c0.9,0,1.8,0.1,2.7,0.1c6.1,0,12.1,0,18.2,0c3.3,0,4.1,0.9,4.1,4.1c0,3.3-0.8,4.1-4,4.2c-6.9,0-13.8,0-20.9,0c0,2.9,0,5.6,0,8.7
	c0.9,0,1.8,0,2.7,0c7.2,0,14.5,0,21.7,0c3.2,0,3.9,0.7,3.9,3.9c0,3.4-0.8,4.3-3.8,4.4c-10.7,0-21.4,0-32.2,0c-2.8,0-3.8-0.9-3.8-3.7
	c0-11.6,0-23.2,0-34.8c0-2.8,0.9-3.6,3.8-3.6c10.7,0,21.4,0,32.2,0c3.2,0,3.9,0.7,3.9,4.2c0,3.3-0.7,4.1-4,4.1c-7.1,0-14.3,0-21.4,0
	C333.2,197.4,332.3,197.4,331.1,197.4z"/>
<path fill="#FFFFFF" stroke="#03A9F5" stroke-width="2" stroke-miterlimit="10" d="M381.2,99.2c0-1.2,0-2.3,0-3.5
	c-0.1-4.2-0.1-8.4-0.2-12.5c-0.2-5.4-2.3-7.6-8.3-7.9c-6.4-0.3-12.8-0.3-19.2-0.5c-1.7,0-3.4,0.1-5.1-0.1c-0.8-0.1-2-0.8-2.2-1.4
	c-0.3-1.2,0.8-1.7,2-1.7c8.7,0.1,17.5,0,26.2,0.4c5.7,0.2,9.5,3.8,9.9,9.1c0.4,5.4,0.5,10.8,0.5,16.1c0,1.6,0.4,2.1,2.2,2.1
	c10.6,0,21.2,0.1,31.8,0.3c11.2,0.1,22.8,8.9,25.5,20.5c3.4,14.3-5.3,28.1-20.6,31.9c-11.4,2.8-22.2-0.8-30-10.7
	c-0.9-1.1-1.7-2.4-2.3-3.7c-0.7-1.5-2.5-1.5-4-1.5c-2.1,0-4.3,0.1-6.4,0.1c-0.6,0-1.2,0-1.8,0.2c-0.8,0.2-1.5,0.8-1.9,1.6
	c-3.7,6.8-9.4,11.8-17.4,13.9c-16.5,4.4-33.2-6-35.7-21.7c-2.5-16.3,11.1-31.2,29.2-30.8c8.4,0.2,16.9,0,25.4-0.1
	C379.6,99.3,380.3,99.2,381.2,99.2z M384.7,103.1C384.7,103.1,384.7,103.1,384.7,103.1c-11,0-22,0.1-33.1,0c-4.6,0-8.7,1-12.4,3.5
	c-7.9,5.2-11.6,12.2-11.2,21.1c0.7,13.4,14.1,23.7,28.4,21.4c8.9-1.4,14.9-6.4,18.5-13.8c1.7-3.4,7.4-2.9,10.6-3
	c1.7,0,3.5,0,5.1,0.5c1.4,0.4,2.8,1.1,3.7,2.3c0.9,1.1,1.3,2.6,2.1,3.8c0.8,1.1,1.6,2.2,2.6,3.2c1.9,1.9,4.1,3.5,6.5,4.7
	c4.9,2.5,10.6,3.2,16,2.2c0.5-0.1,0.9-0.2,1.3-0.3c10.5-2.5,17.7-11.5,18.4-21.5c0.9-12.3-10.3-25-26-24.2
	C405.1,103.5,394.9,103.1,384.7,103.1z"/>
<path fill="#FFFFFF" stroke="#03A9F5" stroke-width="2" stroke-miterlimit="10" d="M428.4,121.7c2.9,0,5,2,4.9,4.6
	c-0.1,2.2-2.4,4.3-4.9,4.3c-2.7,0-4.8-2.1-4.8-4.6C423.7,123.7,425.9,121.7,428.4,121.7z"/>
<path fill="#FFFFFF" stroke="#03A9F5" stroke-width="2" stroke-miterlimit="10" d="M412.1,137.4c0-2.7,1.9-4.7,4.6-4.6
	c2.5,0,4.7,2.1,4.8,4.5c0.1,2.5-2.1,4.6-4.8,4.6C414,141.8,412.2,140,412.1,137.4z"/>
<path fill="#FFFFFF" stroke="#03A9F5" stroke-width="2" stroke-miterlimit="10" d="M405.1,121.7c2.4,0,4.6,2.2,4.5,4.6
	c-0.1,2.4-2.2,4.4-4.8,4.3c-2.6-0.1-4.7-2.2-4.7-4.5C400.2,123.7,402.5,121.6,405.1,121.7z"/>
<path fill="#FFFFFF" stroke="#03A9F5" stroke-width="2" stroke-miterlimit="10" d="M412.1,115.2c0-2.6,1.8-4.6,4.4-4.6
	c2.6-0.1,4.9,2,5,4.4c0.1,2.3-2.1,4.3-4.8,4.3C414.1,119.3,412.2,117.6,412.1,115.2z"/>
<text transform="matrix(1.0166 0 0 1 339.6221 135.8511)" fill="#FFFFFF" stroke="#03A9F5" stroke-width="2" stroke-miterlimit="10" font-family="'MyriadPro-Regular'" font-size="38.2604">+</text>
<text transform="matrix(1.0086 0 0 1 335.5547 184.8066)" fill="#FFFFFF" stroke="#03A9F5" stroke-width="2" stroke-miterlimit="10" font-family="'Days'" font-size="36.2276">REXX</text>
</svg>
