<?xml version="1.0" encoding="utf-8"?>
<!-- Generator: Adobe Illustrator 18.1.1, SVG Export Plug-In . SVG Version: 6.00 Build 0)  -->
<svg version="1.1" id="Layer_1" xmlns="http://www.w3.org/2000/svg" xmlns:xlink="http://www.w3.org/1999/xlink" x="0px" y="0px"
	 viewBox="0 0 841.9 595.3" enable-background="new 0 0 841.9 595.3" xml:space="preserve">
<rect x="-861.9" y="-1.6" width="841.9" height="595.3"/>
<linearGradient id="SVGID_1_" gradientUnits="userSpaceOnUse" x1="107.9059" y1="799.4975" x2="157.6401" y2="799.4975">
	<stop  offset="0" style="stop-color:#A4A4A4"/>
	<stop  offset="0.5538" style="stop-color:#EAEAEA"/>
	<stop  offset="0.5769" style="stop-color:#DFDFDF"/>
	<stop  offset="0.6573" style="stop-color:#BDBDBD"/>
	<stop  offset="0.7395" style="stop-color:#A2A2A2"/>
	<stop  offset="0.823" style="stop-color:#8F8F8F"/>
	<stop  offset="0.9087" style="stop-color:#848484"/>
	<stop  offset="1" style="stop-color:#808080"/>
</linearGradient>
<path fill="url(#SVGID_1_)" d="M132.5,807.7c0.2,0.2-4.3,5.9-4.7,6.4c-4.1,5.5-10.8,13-18.6,10.8c-6-1.7,11.6-21.2,14-23.8
	c1.5-1.7,1.2-2.8-0.1-4.4c-2.8-3.4-5.6-6.9-8.3-10.4c-1.7-2.2-4.1-3.9-5.5-6.4c-3.5-6.3,5.2-5.4,8.7-4c4.2,1.8,7.9,4.9,10.6,8.6
	c0.3,0.5,4.1,5.5,4,5.6c4.6-6.7,10.1-14.3,18.5-16c7.3-1.5,5.8,4.7,3,8.4c-2.6,3.6-6,6.4-8.7,9.8c-1.3,1.6-2.4,3.3-3.8,4.8
	c-1.2,1.3-1,2.3,0,3.6c5.3,6.6,13.5,11.3,15.8,19.9c0.2,0.9,0.4,1.9-0.1,2.7c-0.5,0.8-1.5,1.1-2.4,1.2
	C144,826.2,138.1,814.9,132.5,807.7z"/>
<linearGradient id="SVGID_2_" gradientUnits="userSpaceOnUse" x1="14.8612" y1="773.7658" x2="65.9943" y2="773.7658">
	<stop  offset="0" style="stop-color:#A4A4A4"/>
	<stop  offset="0.5538" style="stop-color:#EAEAEA"/>
	<stop  offset="0.5769" style="stop-color:#DFDFDF"/>
	<stop  offset="0.6573" style="stop-color:#BDBDBD"/>
	<stop  offset="0.7395" style="stop-color:#A2A2A2"/>
	<stop  offset="0.823" style="stop-color:#8F8F8F"/>
	<stop  offset="0.9087" style="stop-color:#848484"/>
	<stop  offset="1" style="stop-color:#808080"/>
</linearGradient>
<path fill="url(#SVGID_2_)" d="M40.5,781.9c0.2,0.2-4.3,5.9-4.7,6.4c-1.7,2.3-3.5,4.6-5.6,6.5c-3.6,3.3-8.7,5.4-13.4,3.9
	c-0.6-0.2-1.2-0.4-1.6-0.9c-0.7-0.8-0.4-1.6,0-2.4c1-2,2.7-3.3,4-5c2.3-3,4.7-5.9,7-8.9c1.6-2.1,3.1-4.3,4.9-6.2
	c1.5-1.7,1.2-2.8-0.1-4.4c-4.7-5.8-9.3-11.6-13.8-17.5c-0.4-0.5-1.5-2.4-1.3-3.1c0.2-0.9,2-1.2,3-1.3c4.8-1,9.2,1.1,12.7,4.2
	c1.8,1.6,3.4,3.5,4.9,5.5c0.3,0.5,4.1,5.5,4,5.6c3.9-5,7.3-11.2,13.1-14.3c2.5-1.3,5.5-2,8.3-1.6c0.7,0.1,1.5,0.3,2.1,0.7
	c1.4,1,1.2,2.2,0.3,3.5c-3.6,4.7-7.3,9.3-10.9,13.9c-1.3,1.6-2.4,3.3-3.8,4.8c-1.2,1.3-1,2.3,0,3.6c5.1,6.4,10.2,12.9,15.2,19.5
	c1.3,1.6,1.9,3.5-0.6,4c-6,1.2-11.1-0.3-15-5C46.3,789.7,43.5,785.7,40.5,781.9z"/>
<rect x="-740.3" y="-76.9" fill="#A3730F" width="133.2" height="66"/>
<rect x="-566.3" y="-67.9" fill="#CE9D1C" width="142.5" height="57"/>
<rect x="-365.6" y="-58.9" fill="#E7C124" width="121" height="48"/>
<linearGradient id="SVGID_3_" gradientUnits="userSpaceOnUse" x1="-201.7899" y1="-27.3933" x2="-87.7957" y2="-27.3933">
	<stop  offset="3.358718e-002" style="stop-color:#CE9D1C"/>
	<stop  offset="0.3978" style="stop-color:#FAF52E"/>
	<stop  offset="0.7957" style="stop-color:#E7C124"/>
	<stop  offset="1" style="stop-color:#A3730F"/>
</linearGradient>
<rect x="-201.8" y="-43.9" fill="url(#SVGID_3_)" width="114" height="33"/>
<linearGradient id="SVGID_4_" gradientUnits="userSpaceOnUse" x1="-314.89" y1="-93.75" x2="-264.39" y2="-93.75">
	<stop  offset="0" style="stop-color:#A4A4A4"/>
	<stop  offset="0.5538" style="stop-color:#EAEAEA"/>
	<stop  offset="0.5769" style="stop-color:#DFDFDF"/>
	<stop  offset="0.6573" style="stop-color:#BDBDBD"/>
	<stop  offset="0.7395" style="stop-color:#A2A2A2"/>
	<stop  offset="0.823" style="stop-color:#8F8F8F"/>
	<stop  offset="0.9087" style="stop-color:#848484"/>
	<stop  offset="1" style="stop-color:#808080"/>
</linearGradient>
<rect x="-314.9" y="-108" fill="url(#SVGID_4_)" width="50.5" height="28.5"/>
<rect x="-236.4" y="-103.5" fill="#A4A4A4" width="44" height="29"/>
<rect x="-177.4" y="-108" fill="#808080" width="47" height="33.5"/>
<rect x="0" fill="#030C43" width="841.9" height="595.3"/>
<g>
	<linearGradient id="SVGID_5_" gradientUnits="userSpaceOnUse" x1="-702.5088" y1="246.1157" x2="-484.9676" y2="246.1157">
		<stop  offset="3.358718e-002" style="stop-color:#CE9D1C"/>
		<stop  offset="0.3978" style="stop-color:#FAF52E"/>
		<stop  offset="0.7957" style="stop-color:#E7C124"/>
		<stop  offset="1" style="stop-color:#A3730F"/>
	</linearGradient>
	<path fill="url(#SVGID_5_)" d="M-589.1,213.1c4.5,8.3,8.9,16.4,13.2,24.5c5.5,10.2,10.9,20.5,16.5,30.7c0.7,1.3,2.4,3.1,3.6,3.1
		c11.4,0.2,22.9,0.1,35.6,0.1c-1.4-5.9-2.3-11.3-4-16.5c-16.2-49.4-70-72.8-115.2-48.9c-20.7,10.9-34.2,28.3-41.1,50.6
		c-2.3,7.6-13.1,5.5-19.4,5.1c-5.8-0.4-0.8-11.2,0.3-14.2c13.7-38.2,39.7-63.2,80-70.8c47.6-9,95.7,18.8,112.6,64.3
		c3.3,9,4.8,18.8,7.4,28.1c0.5,1.7,1.9,3.6,3.4,4.5c5.4,3.2,8.8,7.7,10.5,13.7c1.4,5,0.7,5.9-4.5,5.9c-16.9,0-33.8,0-50.7,0
		c-1.4,0-2.8,0.2-4.5,0.3c0.6,1.7,1.2,3,1.6,4.3c2.5,8.3-2.9,17.8-11.2,19.2c-1.1,0.2-3.1-1.7-3.8-3.1
		c-12.2-22.4-24.2-44.9-36.2-67.4c-1.4-2.5-2.7-5.1-4-7.6C-605.8,226.4-603.3,219.2-589.1,213.1z"/>
	<linearGradient id="SVGID_6_" gradientUnits="userSpaceOnUse" x1="-718.5355" y1="318.8086" x2="-500.7166" y2="318.8086">
		<stop  offset="3.358718e-002" style="stop-color:#CE9D1C"/>
		<stop  offset="0.3978" style="stop-color:#FAF52E"/>
		<stop  offset="0.7957" style="stop-color:#E7C124"/>
		<stop  offset="1" style="stop-color:#A3730F"/>
	</linearGradient>
	<path fill="url(#SVGID_6_)" d="M-501.1,304.5c0,0.1,0.1,0.1,0.1,0.2c1.7,3.1-5.5,17.8-6.9,21c-12.7,28.7-33.4,49.3-63.7,58.6
		c-38.6,11.9-72.7,2.9-101.7-25c-17.7-17.1-27.4-38.5-30.7-62.8c-0.4-3.2-1.7-5-4.5-6.5c-5.1-2.8-8.1-7.3-9.7-13
		c-1.1-4-0.3-5.5,4.1-5.5c16.4,0.2,32.8,0.1,49.3,0.1c2,0,4,0,6.5,0c-0.5-1.7-0.7-2.5-1-3.4c-3.3-9,0.7-17.5,9.7-20.1
		c1.1-0.3,3.6,1.4,4.4,2.7c7.8,14.2,15.5,28.6,23.2,42.9c6,11.2,12.1,22.4,18.1,33.7c5.2,9.7,3,16.6-6.4,22
		c-3.3,1.9-4.9,1.3-6.6-1.9c-8.9-16.8-18-33.4-26.8-50.2c-1.6-3.1-3.5-4.5-7-4.4c-10.6,0.2-21.3,0.1-33.3,0.1
		c1.6,6.7,2.7,12.9,4.6,18.8c11.2,33.8,44.2,57.1,79.5,56.4c33.5-0.7,66.1-25.6,75.7-57.7c1.6-5.5,1.2-5.8,6.1-7.4
		C-514.8,302-503.3,301.4-501.1,304.5z"/>
</g>
<g>
	<path fill="#E5E5E5" d="M-607,248c0,0,21,18.5,17,45.2l-7,2.6l-10-13.3l10.6,25.1l13.2,9.4l1.3-9.6v-19.3l-4.4-18.1l-10.1-15.5
		C-596.4,254.5-604.3,248.1-607,248z"/>
	<path fill="#A0A0A0" d="M-579.5,325c-1.9-4.5-3.6-9-5.4-13.6c-0.4-1.1,0-3,0-4.1c0-2,0-4-0.1-6c-0.3-12.8-1.3-25.8-6.6-37.6
		c-3.1-6.8-8.1-13.2-15.4-15.7c8.9,3,15.9,9.5,20.5,17.6c4.9,8.7,6.7,18.7,7.6,28.5c0.5,4.9,0.8,10,0.8,15.1
		C-578.2,314.1-577.9,320.3-579.5,325z"/>
	<path fill="none" stroke="#ED1C24" stroke-miterlimit="10" d="M-586.4,306.7"/>
	<path fill="#E5E5E5" d="M-579.5,325.2c-3.8-3.6-8.7-6.2-12.6-9.7c-4.1-3.6-7.9-7.7-10.6-12.5c-2-3.5-3.3-7.4-4.2-11.4
		c-0.4-2-0.7-4-0.9-6c-0.2-1.7,0.2-3.8,0-5.3c0,0,3.1,19.5,22.9,30C-583.1,315.1-580.6,320.1-579.5,325.2z"/>
	<path fill="#E5E5E5" d="M-592.3,293c-0.5-1.3-0.1-3.8-0.1-5.3c-0.1-2.1-0.2-4.2-0.4-6.3c-0.4-4.2-1-8.3-2.1-12.4
		c-2-7.4-6.3-16-12.2-21.1c7.1,6,13.1,13.6,16.9,22.1c4.1,9.4,4.9,21.2,4,31.3c-0.1,0.7-0.1,4.3-0.8,4.5c-1,0.3-1.9-2.7-2.1-3.4
		C-590.3,299.4-591.1,296.2-592.3,293z"/>
	<path fill="#A0A0A0" d="M-586.3,308.9l-6-15.9l-15.5-12.8C-607.8,280.2-607.3,297.2-586.3,308.9z"/>
	<path fill="#E5E5E5" d="M-598.9,316c0,0-20.5-19.1-15.8-45.7l7.1-2.4l9.6,13.5l-9.9-25.4l-12.9-9.7l-1.6,9.5l-0.5,19.3l3.9,18.3
		l9.6,15.8C-609.3,309.2-601.6,315.8-598.9,316z"/>
	<path fill="#A0A0A0" d="M-624.3,238.2c1.8,4.5,3.4,9.1,5.1,13.7c0.4,1.1-0.1,3-0.1,4.1c0,2-0.1,4-0.1,6c0,12.8,0.6,25.8,5.6,37.8
		c2.9,6.8,7.8,13.4,14.9,16.1c-8.8-3.3-15.6-9.9-20-18.2c-4.7-8.8-6.2-18.9-6.8-28.7c-0.3-4.9-0.5-10.1-0.4-15.1
		C-625.9,249.1-626,242.9-624.3,238.2z"/>
	<path fill="none" stroke="#ED1C24" stroke-miterlimit="10" d="M-617.9,256.7"/>
	<path fill="#E5E5E5" d="M-624.3,238c3.7,3.7,8.5,6.5,12.4,10.1c4,3.7,7.7,7.9,10.2,12.8c1.9,3.6,3.1,7.5,3.9,11.5
		c0.4,2,0.6,4,0.8,6.1c0.1,1.7-0.3,3.8-0.1,5.3c0,0-2.6-19.6-22.1-30.6C-620.9,248.2-623.3,243.1-624.3,238z"/>
	<path fill="#E5E5E5" d="M-612.4,270.5c0.4,1.3,0,3.8,0,5.3c0,2.1,0.1,4.2,0.2,6.3c0.2,4.2,0.7,8.4,1.7,12.4
		c1.8,7.4,5.8,16.2,11.6,21.4c-6.9-6.2-12.8-13.9-16.3-22.6c-3.8-9.5-4.3-21.3-3.2-31.4c0.1-0.7,0.2-4.3,0.9-4.5
		c1-0.3,1.8,2.8,2,3.5C-614.2,264.1-613.5,267.4-612.4,270.5z"/>
	<path fill="#A0A0A0" d="M-617.9,254.4l5.5,16.1l15.2,13.2C-597.2,283.7-597.3,266.7-617.9,254.4z"/>
</g>
<g>
	<linearGradient id="SVGID_7_" gradientUnits="userSpaceOnUse" x1="-473.66" y1="278.0217" x2="-419.3778" y2="278.0217">
		<stop  offset="0" style="stop-color:#A4A4A4"/>
		<stop  offset="0.5538" style="stop-color:#EAEAEA"/>
		<stop  offset="0.5769" style="stop-color:#DFDFDF"/>
		<stop  offset="0.6573" style="stop-color:#BDBDBD"/>
		<stop  offset="0.7395" style="stop-color:#A2A2A2"/>
		<stop  offset="0.823" style="stop-color:#8F8F8F"/>
		<stop  offset="0.9087" style="stop-color:#848484"/>
		<stop  offset="1" style="stop-color:#808080"/>
	</linearGradient>
	<path fill="url(#SVGID_7_)" d="M-473.7,300.7v-45.4c0-0.9,0.3-1.8,1-2.4c0.7-0.7,1.5-1,2.4-1h30.1c5.6,0,10.1,1.5,13.7,4.5
		c3.6,3,5.3,7,5.3,12.1c0,7.1-4.6,11.5-13.7,13.3c1.4,0.6,2.8,1.5,4,2.8c1.3,1.3,2.7,3.2,4.3,5.6l6.6,10.5c0.4,0.7,0.6,1.3,0.6,1.8
		c0,0.2,0,0.4-0.1,0.6c-0.2,0.7-0.8,1-1.8,1h-8.7c-0.9,0-2-0.3-3.1-1s-1.9-1.5-2.5-2.4l-6.2-9.7c-2.5-4-5.6-6-9.3-6h-8.9v15.7
		c0,0.9-0.3,1.8-1,2.4c-0.7,0.7-1.5,1-2.4,1h-6.8c-0.9,0-1.8-0.3-2.4-1C-473.3,302.5-473.7,301.7-473.7,300.7z M-459.9,274.7h15.5
		c2.5,0,4.7-0.5,6.6-1.5c1.9-1,2.9-2.6,2.9-4.8c0-2.2-1-3.8-2.9-4.8c-1.9-1-4.1-1.5-6.6-1.5h-15.5V274.7z"/>
	<linearGradient id="SVGID_8_" gradientUnits="userSpaceOnUse" x1="-413.4037" y1="278.0217" x2="-364.5135" y2="278.0217">
		<stop  offset="0" style="stop-color:#A4A4A4"/>
		<stop  offset="0.5538" style="stop-color:#EAEAEA"/>
		<stop  offset="0.5769" style="stop-color:#DFDFDF"/>
		<stop  offset="0.6573" style="stop-color:#BDBDBD"/>
		<stop  offset="0.7395" style="stop-color:#A2A2A2"/>
		<stop  offset="0.823" style="stop-color:#8F8F8F"/>
		<stop  offset="0.9087" style="stop-color:#848484"/>
		<stop  offset="1" style="stop-color:#808080"/>
	</linearGradient>
	<path fill="url(#SVGID_8_)" d="M-413.4,300.6v-45.4c0-0.9,0.3-1.7,1-2.4c0.7-0.7,1.5-1,2.4-1h42c0.9,0,1.8,0.3,2.4,1
		c0.7,0.7,1,1.5,1,2.4v3.4c0,0.9-0.3,1.8-1,2.4c-0.7,0.7-1.5,1-2.4,1h-31.7v10.6h27.3c0.9,0,1.8,0.3,2.4,1c0.7,0.7,1,1.5,1,2.4v3.4
		c0,1-0.3,1.8-1,2.4c-0.7,0.7-1.5,1-2.4,1h-27.3v10.7h31.7c0.9,0,1.7,0.3,2.4,1c0.6,0.7,1,1.5,1,2.4v3.5c0,0.9-0.3,1.8-1,2.4
		c-0.7,0.7-1.5,1-2.4,1h-41.8c-0.9,0-1.8-0.3-2.4-1C-413.1,302.5-413.4,301.6-413.4,300.6z"/>
	<linearGradient id="SVGID_9_" gradientUnits="userSpaceOnUse" x1="-362.3275" y1="278.0217" x2="-307.827" y2="278.0217">
		<stop  offset="0" style="stop-color:#A4A4A4"/>
		<stop  offset="0.5538" style="stop-color:#EAEAEA"/>
		<stop  offset="0.5769" style="stop-color:#DFDFDF"/>
		<stop  offset="0.6573" style="stop-color:#BDBDBD"/>
		<stop  offset="0.7395" style="stop-color:#A2A2A2"/>
		<stop  offset="0.823" style="stop-color:#8F8F8F"/>
		<stop  offset="0.9087" style="stop-color:#848484"/>
		<stop  offset="1" style="stop-color:#808080"/>
	</linearGradient>
	<path fill="url(#SVGID_9_)" d="M-362.2,303.1c-0.1-0.2-0.1-0.4-0.1-0.6c0-0.5,0.3-1.1,0.8-1.8l18.4-23.4l-17.3-21.9
		c-0.5-0.6-0.8-1.2-0.8-1.8c0-0.2,0-0.4,0.1-0.6c0.3-0.7,0.9-1.1,1.9-1.1h7.8c2.4,0,4.6,1.2,6.4,3.5l10,12.7l10-12.7
		c1.8-2.3,3.9-3.4,6.4-3.5h7.8c1,0,1.6,0.4,1.9,1.1c0.1,0.2,0.1,0.4,0.1,0.6c0,0.5-0.3,1.1-0.8,1.8l-17.3,21.9l18.4,23.4
		c0.5,0.6,0.8,1.2,0.8,1.8c0,0.2,0,0.4-0.1,0.6c-0.3,0.7-0.9,1.1-1.9,1.1h-7.8c-2.4,0-4.5-1.1-6.3-3.4l-11.1-14.2l-11.1,14.2
		c-1.8,2.3-3.9,3.4-6.3,3.4h-7.8C-361.3,304.1-361.9,303.8-362.2,303.1z"/>
	<linearGradient id="SVGID_10_" gradientUnits="userSpaceOnUse" x1="-306.3695" y1="278.0217" x2="-251.869" y2="278.0217">
		<stop  offset="0" style="stop-color:#A4A4A4"/>
		<stop  offset="0.5538" style="stop-color:#EAEAEA"/>
		<stop  offset="0.5769" style="stop-color:#DFDFDF"/>
		<stop  offset="0.6573" style="stop-color:#BDBDBD"/>
		<stop  offset="0.7395" style="stop-color:#A2A2A2"/>
		<stop  offset="0.823" style="stop-color:#8F8F8F"/>
		<stop  offset="0.9087" style="stop-color:#848484"/>
		<stop  offset="1" style="stop-color:#808080"/>
	</linearGradient>
	<path fill="url(#SVGID_10_)" d="M-306.2,303.1c-0.1-0.2-0.1-0.4-0.1-0.6c0-0.5,0.3-1.1,0.8-1.8l18.4-23.4l-17.3-21.9
		c-0.5-0.6-0.8-1.2-0.8-1.8c0-0.2,0-0.4,0.1-0.6c0.3-0.7,0.9-1.1,1.9-1.1h7.8c2.4,0,4.6,1.2,6.4,3.5l10,12.7l10-12.7
		c1.8-2.3,3.9-3.4,6.4-3.5h7.8c1,0,1.6,0.4,1.9,1.1c0.1,0.2,0.1,0.4,0.1,0.6c0,0.5-0.3,1.1-0.8,1.8l-17.3,21.9l18.4,23.4
		c0.5,0.6,0.8,1.2,0.8,1.8c0,0.2,0,0.4-0.1,0.6c-0.3,0.7-0.9,1.1-1.9,1.1h-7.8c-2.4,0-4.5-1.1-6.3-3.4l-11.1-14.2l-11.1,14.2
		c-1.8,2.3-3.9,3.4-6.3,3.4h-7.8C-305.3,304.1-306,303.8-306.2,303.1z"/>
</g>
<g>
	<linearGradient id="SVGID_11_" gradientUnits="userSpaceOnUse" x1="-493.2933" y1="331.23" x2="-459.661" y2="331.23">
		<stop  offset="0" style="stop-color:#A4A4A4"/>
		<stop  offset="0.5538" style="stop-color:#EAEAEA"/>
		<stop  offset="0.5769" style="stop-color:#DFDFDF"/>
		<stop  offset="0.6573" style="stop-color:#BDBDBD"/>
		<stop  offset="0.7395" style="stop-color:#A2A2A2"/>
		<stop  offset="0.823" style="stop-color:#8F8F8F"/>
		<stop  offset="0.9087" style="stop-color:#848484"/>
		<stop  offset="1" style="stop-color:#808080"/>
	</linearGradient>
	<path fill="url(#SVGID_11_)" d="M-489.3,343c-2.7-2.5-4-6.5-4-11.8s1.3-9.2,4-11.8s6.7-3.8,12.1-3.8h4.8c3.3,0,6.2,0.8,8.7,2.5
		s3.8,4,3.8,7c0,0.8-0.3,1.5-0.8,1.8s-1,0.5-1.5,0.5h-2.6c-1.4,0-2.4-0.8-3.2-2.4c-1.1-2.3-2.8-3.4-5.3-3.4h-3.8
		c-3.1,0-5.3,0.7-6.4,2c-1.1,1.3-1.7,3.8-1.7,7.5s0.6,6.1,1.7,7.5c1.1,1.4,3.3,2,6.4,2h4.3c2.5,0,4.2-1.1,5.3-3.4
		c0.7-1.6,1.8-2.4,3.1-2.4h2.6c0.3,0,0.5,0.1,0.8,0.2c0.3,0.1,0.6,0.4,0.9,0.7c0.3,0.4,0.5,0.9,0.5,1.5c0,3-1.2,5.3-3.7,7
		c-2.5,1.7-5.4,2.5-8.6,2.5h-5.3C-482.6,346.9-486.6,345.6-489.3,343z"/>
	<linearGradient id="SVGID_12_" gradientUnits="userSpaceOnUse" x1="-457.2474" y1="331.2402" x2="-422.5594" y2="331.2402">
		<stop  offset="0" style="stop-color:#A4A4A4"/>
		<stop  offset="0.5538" style="stop-color:#EAEAEA"/>
		<stop  offset="0.5769" style="stop-color:#DFDFDF"/>
		<stop  offset="0.6573" style="stop-color:#BDBDBD"/>
		<stop  offset="0.7395" style="stop-color:#A2A2A2"/>
		<stop  offset="0.823" style="stop-color:#8F8F8F"/>
		<stop  offset="0.9087" style="stop-color:#848484"/>
		<stop  offset="1" style="stop-color:#808080"/>
	</linearGradient>
	<path fill="url(#SVGID_12_)" d="M-452.8,343.5c-2.9-2.6-4.4-6.7-4.4-12.2c0-5.6,1.5-9.7,4.4-12.2c2.9-2.6,7.3-3.9,12.9-3.9
		c5.7,0,10,1.3,12.9,3.9c2.9,2.6,4.4,6.7,4.4,12.2c0,5.6-1.5,9.7-4.4,12.2c-2.9,2.6-7.2,3.9-12.9,3.9
		C-445.6,347.3-449.9,346.1-452.8,343.5z M-446.9,323.5c-1.5,1.7-2.2,4.3-2.2,7.7s0.7,6,2.2,7.7c1.5,1.7,3.8,2.6,7,2.6
		c3.2,0,5.6-0.9,7-2.6c1.5-1.7,2.2-4.3,2.2-7.7s-0.7-6-2.2-7.7c-1.5-1.7-3.8-2.6-7-2.6C-443.1,321-445.5,321.8-446.9,323.5z"/>
	<linearGradient id="SVGID_13_" gradientUnits="userSpaceOnUse" x1="-418.1639" y1="331.2295" x2="-386.1473" y2="331.2295">
		<stop  offset="0" style="stop-color:#A4A4A4"/>
		<stop  offset="0.5538" style="stop-color:#EAEAEA"/>
		<stop  offset="0.5769" style="stop-color:#DFDFDF"/>
		<stop  offset="0.6573" style="stop-color:#BDBDBD"/>
		<stop  offset="0.7395" style="stop-color:#A2A2A2"/>
		<stop  offset="0.823" style="stop-color:#8F8F8F"/>
		<stop  offset="0.9087" style="stop-color:#848484"/>
		<stop  offset="1" style="stop-color:#808080"/>
	</linearGradient>
	<path fill="url(#SVGID_13_)" d="M-418.2,344.7v-26.8c0-0.6,0.2-1,0.6-1.4c0.4-0.4,0.9-0.6,1.4-0.6h6.4c0.5,0,1,0.2,1.6,0.6
		c0.6,0.4,1,0.9,1.4,1.4l13.1,20v-20.1c0-0.6,0.2-1,0.6-1.4c0.4-0.4,0.8-0.6,1.4-0.6h3.6c0.5,0,1,0.2,1.4,0.6
		c0.4,0.4,0.6,0.9,0.6,1.5v26.8c0,0.6-0.2,1-0.6,1.4c-0.4,0.4-0.9,0.6-1.4,0.6h-7.1c-0.6,0-1.1-0.2-1.7-0.6c-0.6-0.4-1-0.9-1.4-1.4
		l-11.8-18.5v18.5c0,0.6-0.2,1-0.6,1.4c-0.4,0.4-0.9,0.6-1.5,0.6h-3.9c-0.6,0-1.1-0.2-1.5-0.6C-418,345.7-418.2,345.2-418.2,344.7z"
		/>
	<linearGradient id="SVGID_14_" gradientUnits="userSpaceOnUse" x1="-379.9208" y1="331.2295" x2="-347.9042" y2="331.2295">
		<stop  offset="0" style="stop-color:#A4A4A4"/>
		<stop  offset="0.5538" style="stop-color:#EAEAEA"/>
		<stop  offset="0.5769" style="stop-color:#DFDFDF"/>
		<stop  offset="0.6573" style="stop-color:#BDBDBD"/>
		<stop  offset="0.7395" style="stop-color:#A2A2A2"/>
		<stop  offset="0.823" style="stop-color:#8F8F8F"/>
		<stop  offset="0.9087" style="stop-color:#848484"/>
		<stop  offset="1" style="stop-color:#808080"/>
	</linearGradient>
	<path fill="url(#SVGID_14_)" d="M-379.9,344.7v-26.8c0-0.6,0.2-1,0.6-1.4c0.4-0.4,0.9-0.6,1.4-0.6h6.4c0.5,0,1,0.2,1.6,0.6
		c0.6,0.4,1,0.9,1.4,1.4l13.1,20v-20.1c0-0.6,0.2-1,0.6-1.4c0.4-0.4,0.8-0.6,1.4-0.6h3.6c0.5,0,1,0.2,1.4,0.6
		c0.4,0.4,0.6,0.9,0.6,1.5v26.8c0,0.6-0.2,1-0.6,1.4c-0.4,0.4-0.9,0.6-1.4,0.6h-7.1c-0.6,0-1.1-0.2-1.7-0.6c-0.6-0.4-1-0.9-1.4-1.4
		l-11.8-18.5v18.5c0,0.6-0.2,1-0.6,1.4c-0.4,0.4-0.9,0.6-1.5,0.6h-3.9c-0.6,0-1.1-0.2-1.5-0.6C-379.7,345.7-379.9,345.2-379.9,344.7
		z"/>
	<linearGradient id="SVGID_15_" gradientUnits="userSpaceOnUse" x1="-341.6776" y1="331.2295" x2="-312.7635" y2="331.2295">
		<stop  offset="0" style="stop-color:#A4A4A4"/>
		<stop  offset="0.5538" style="stop-color:#EAEAEA"/>
		<stop  offset="0.5769" style="stop-color:#DFDFDF"/>
		<stop  offset="0.6573" style="stop-color:#BDBDBD"/>
		<stop  offset="0.7395" style="stop-color:#A2A2A2"/>
		<stop  offset="0.823" style="stop-color:#8F8F8F"/>
		<stop  offset="0.9087" style="stop-color:#848484"/>
		<stop  offset="1" style="stop-color:#808080"/>
	</linearGradient>
	<path fill="url(#SVGID_15_)" d="M-341.7,344.6v-26.8c0-0.6,0.2-1,0.6-1.4c0.4-0.4,0.9-0.6,1.4-0.6h24.8c0.6,0,1,0.2,1.4,0.6
		c0.4,0.4,0.6,0.9,0.6,1.4v2c0,0.6-0.2,1-0.6,1.4c-0.4,0.4-0.9,0.6-1.4,0.6h-18.8v6.2h16.2c0.6,0,1,0.2,1.4,0.6s0.6,0.9,0.6,1.4v2
		c0,0.6-0.2,1-0.6,1.4s-0.9,0.6-1.4,0.6h-16.2v6.4h18.7c0.6,0,1,0.2,1.4,0.6c0.4,0.4,0.6,0.9,0.6,1.4v2.1c0,0.6-0.2,1-0.6,1.4
		c-0.4,0.4-0.9,0.6-1.4,0.6h-24.7c-0.6,0-1-0.2-1.4-0.6C-341.5,345.7-341.7,345.2-341.7,344.6z"/>
	<linearGradient id="SVGID_16_" gradientUnits="userSpaceOnUse" x1="-310.5873" y1="331.23" x2="-276.955" y2="331.23">
		<stop  offset="0" style="stop-color:#A4A4A4"/>
		<stop  offset="0.5538" style="stop-color:#EAEAEA"/>
		<stop  offset="0.5769" style="stop-color:#DFDFDF"/>
		<stop  offset="0.6573" style="stop-color:#BDBDBD"/>
		<stop  offset="0.7395" style="stop-color:#A2A2A2"/>
		<stop  offset="0.823" style="stop-color:#8F8F8F"/>
		<stop  offset="0.9087" style="stop-color:#848484"/>
		<stop  offset="1" style="stop-color:#808080"/>
	</linearGradient>
	<path fill="url(#SVGID_16_)" d="M-306.6,343c-2.7-2.5-4-6.5-4-11.8s1.3-9.2,4-11.8s6.7-3.8,12.1-3.8h4.8c3.3,0,6.2,0.8,8.7,2.5
		s3.8,4,3.8,7c0,0.8-0.3,1.5-0.8,1.8s-1,0.5-1.5,0.5h-2.6c-1.4,0-2.4-0.8-3.2-2.4c-1.1-2.3-2.8-3.4-5.3-3.4h-3.8
		c-3.1,0-5.3,0.7-6.4,2c-1.1,1.3-1.7,3.8-1.7,7.5s0.6,6.1,1.7,7.5c1.1,1.4,3.3,2,6.4,2h4.3c2.5,0,4.2-1.1,5.3-3.4
		c0.7-1.6,1.8-2.4,3.1-2.4h2.6c0.3,0,0.5,0.1,0.8,0.2c0.3,0.1,0.6,0.4,0.9,0.7c0.3,0.4,0.5,0.9,0.5,1.5c0,3-1.2,5.3-3.7,7
		c-2.5,1.7-5.4,2.5-8.6,2.5h-5.3C-299.9,346.9-303.9,345.6-306.6,343z"/>
	<linearGradient id="SVGID_17_" gradientUnits="userSpaceOnUse" x1="-276.308" y1="331.2295" x2="-244.8734" y2="331.2295">
		<stop  offset="0" style="stop-color:#A4A4A4"/>
		<stop  offset="0.5538" style="stop-color:#EAEAEA"/>
		<stop  offset="0.5769" style="stop-color:#DFDFDF"/>
		<stop  offset="0.6573" style="stop-color:#BDBDBD"/>
		<stop  offset="0.7395" style="stop-color:#A2A2A2"/>
		<stop  offset="0.823" style="stop-color:#8F8F8F"/>
		<stop  offset="0.9087" style="stop-color:#848484"/>
		<stop  offset="1" style="stop-color:#808080"/>
	</linearGradient>
	<path fill="url(#SVGID_17_)" d="M-276.3,319.9v-2c0-0.6,0.2-1.1,0.6-1.5s0.9-0.6,1.5-0.6h27.3c0.6,0,1.1,0.2,1.5,0.6
		s0.6,0.9,0.6,1.5v2c0,0.6-0.2,1.1-0.6,1.5c-0.4,0.4-0.9,0.6-1.5,0.6h-9.6v22.8c0,0.6-0.2,1-0.6,1.4c-0.4,0.4-0.9,0.6-1.4,0.6h-4.1
		c-0.6,0-1-0.2-1.4-0.6c-0.4-0.4-0.6-0.9-0.6-1.4v-22.8h-9.6c-0.6,0-1.1-0.2-1.5-0.6C-276.1,320.9-276.3,320.4-276.3,319.9z"/>
</g>
<g>
	<g>
		<linearGradient id="SVGID_18_" gradientUnits="userSpaceOnUse" x1="230.1757" y1="253.1962" x2="447.7169" y2="253.1962">
			<stop  offset="3.358718e-002" style="stop-color:#CE9D1C"/>
			<stop  offset="0.3978" style="stop-color:#FAF52E"/>
			<stop  offset="0.7957" style="stop-color:#E7C124"/>
			<stop  offset="1" style="stop-color:#A3730F"/>
		</linearGradient>
		<path fill="url(#SVGID_18_)" d="M343.6,220.2c4.5,8.3,8.9,16.4,13.2,24.5c5.5,10.2,10.9,20.5,16.5,30.7c0.7,1.3,2.4,3.1,3.6,3.1
			c11.4,0.2,22.9,0.1,35.6,0.1c-1.4-5.9-2.3-11.3-4-16.5c-16.2-49.4-70-72.8-115.2-48.9c-20.7,10.9-34.2,28.3-41.1,50.6
			c-2.3,7.6-13.1,5.5-19.4,5.1c-5.9-0.4-0.8-11.2,0.3-14.2c13.7-38.2,39.7-63.2,80-70.8c47.6-9,95.7,18.8,112.6,64.3
			c3.3,9,4.8,18.8,7.4,28.1c0.5,1.7,1.9,3.6,3.4,4.5c5.4,3.2,8.8,7.7,10.5,13.7c1.4,5,0.7,5.9-4.5,5.9c-16.9,0-33.8,0-50.7,0
			c-1.4,0-2.8,0.2-4.5,0.3c0.6,1.7,1.2,3,1.6,4.3c2.5,8.3-2.9,17.8-11.2,19.2c-1.1,0.2-3.1-1.7-3.8-3.1
			c-12.2-22.4-24.2-44.9-36.2-67.4c-1.4-2.5-2.7-5.1-4-7.6C326.8,233.5,329.4,226.3,343.6,220.2z"/>
		<linearGradient id="SVGID_19_" gradientUnits="userSpaceOnUse" x1="214.149" y1="325.8891" x2="431.9679" y2="325.8891">
			<stop  offset="3.358718e-002" style="stop-color:#CE9D1C"/>
			<stop  offset="0.3978" style="stop-color:#FAF52E"/>
			<stop  offset="0.7957" style="stop-color:#E7C124"/>
			<stop  offset="1" style="stop-color:#A3730F"/>
		</linearGradient>
		<path fill="url(#SVGID_19_)" d="M431.6,311.6c0,0.1,0.1,0.1,0.1,0.2c1.7,3.1-5.5,17.8-6.9,21c-12.7,28.7-33.4,49.3-63.7,58.6
			c-38.6,11.9-72.7,2.9-101.7-25c-17.7-17.1-27.4-38.5-30.7-62.8c-0.4-3.2-1.7-5-4.5-6.5c-5.1-2.8-8.1-7.3-9.7-13
			c-1.1-4-0.3-5.5,4.1-5.5c16.4,0.2,32.8,0.1,49.3,0.1c2,0,4,0,6.5,0c-0.5-1.7-0.7-2.5-1-3.4c-3.3-9,0.7-17.5,9.7-20.1
			c1.1-0.3,3.6,1.4,4.4,2.7c7.8,14.2,15.5,28.6,23.2,42.9c6,11.2,12.1,22.4,18.1,33.7c5.2,9.7,3,16.6-6.4,22
			c-3.3,1.9-4.9,1.3-6.6-1.9c-8.9-16.8-18-33.4-26.8-50.2c-1.6-3.1-3.5-4.5-7-4.4c-10.6,0.2-21.3,0.1-33.3,0.1
			c1.6,6.7,2.7,12.9,4.6,18.8c11.2,33.8,44.2,57.1,79.5,56.4c33.5-0.7,66.1-25.6,75.7-57.7c1.6-5.5,1.2-5.8,6.1-7.4
			C417.9,309.1,429.4,308.5,431.6,311.6z"/>
	</g>
	<g>
		<path fill="#E5E5E5" d="M325.6,255.1c0,0,21,18.5,17,45.2l-7,2.6l-10-13.3l10.6,25.1l13.2,9.4l1.3-9.6v-19.3l-4.4-18.1l-10.1-15.5
			C336.2,261.6,328.4,255.2,325.6,255.1z"/>
		<path fill="#A0A0A0" d="M353.2,332.1c-1.9-4.5-3.6-9-5.4-13.6c-0.4-1.1,0-3,0-4.1c0-2,0-4-0.1-6c-0.3-12.8-1.3-25.8-6.6-37.6
			c-3.1-6.8-8.1-13.2-15.4-15.7c8.9,3,15.9,9.5,20.5,17.6c4.9,8.7,6.7,18.7,7.6,28.5c0.5,4.9,0.8,10,0.8,15.1
			C354.5,321.2,354.8,327.4,353.2,332.1z"/>
		<path fill="none" stroke="#ED1C24" stroke-miterlimit="10" d="M346.3,313.8"/>
		<path fill="#E5E5E5" d="M353.2,332.3c-3.8-3.6-8.7-6.2-12.6-9.7c-4.1-3.6-7.9-7.7-10.6-12.5c-2-3.5-3.3-7.4-4.2-11.4
			c-0.4-2-0.7-4-0.9-6c-0.2-1.7,0.2-3.8,0-5.3c0,0,3.1,19.5,22.9,30C349.6,322.2,352.1,327.2,353.2,332.3z"/>
		<path fill="#E5E5E5" d="M340.4,300.1c-0.5-1.3-0.1-3.8-0.1-5.3c-0.1-2.1-0.2-4.2-0.4-6.3c-0.4-4.2-1-8.3-2.1-12.4
			c-2-7.4-6.3-16-12.2-21.1c7.1,6,13.1,13.6,16.9,22.1c4.1,9.4,4.9,21.2,4,31.3c-0.1,0.7-0.1,4.3-0.8,4.5c-1,0.3-1.9-2.7-2.1-3.4
			C342.4,306.5,341.6,303.2,340.4,300.1z"/>
		<path fill="#A0A0A0" d="M346.4,316l-6-15.9l-15.5-12.8C324.9,287.3,325.4,304.3,346.4,316z"/>
		<path fill="#E5E5E5" d="M333.8,323c0,0-20.5-19.1-15.8-45.7l7.1-2.4l9.6,13.5l-9.9-25.4l-12.9-9.7l-1.6,9.5l-0.5,19.3l3.9,18.3
			l9.6,15.8C323.4,316.2,331.1,322.8,333.8,323z"/>
		<path fill="#A0A0A0" d="M308.4,245.3c1.8,4.5,3.4,9.1,5.1,13.7c0.4,1.1-0.1,3-0.1,4.1c0,2-0.1,4-0.1,6c0,12.8,0.6,25.8,5.6,37.8
			c2.9,6.8,7.8,13.4,14.9,16.1c-8.8-3.3-15.6-9.9-20-18.2c-4.7-8.8-6.2-18.9-6.8-28.7c-0.3-4.9-0.5-10.1-0.4-15.1
			C306.8,256.2,306.6,249.9,308.4,245.3z"/>
		<path fill="none" stroke="#ED1C24" stroke-miterlimit="10" d="M314.8,263.8"/>
		<path fill="#E5E5E5" d="M308.4,245.1c3.7,3.7,8.5,6.5,12.4,10.1c4,3.7,7.7,7.9,10.2,12.8c1.9,3.6,3.1,7.5,3.9,11.5
			c0.4,2,0.6,4,0.8,6.1c0.1,1.7-0.3,3.8-0.1,5.3c0,0-2.6-19.6-22.1-30.6C311.7,255.2,309.4,250.2,308.4,245.1z"/>
		<path fill="#E5E5E5" d="M320.3,277.6c0.4,1.3,0,3.8,0,5.3c0,2.1,0.1,4.2,0.2,6.3c0.2,4.2,0.7,8.4,1.7,12.4
			c1.8,7.4,5.8,16.2,11.6,21.4c-6.9-6.2-12.8-13.9-16.3-22.6c-3.8-9.5-4.3-21.3-3.2-31.4c0.1-0.7,0.2-4.3,0.9-4.5
			c1-0.3,1.8,2.8,2,3.5C318.5,271.2,319.2,274.4,320.3,277.6z"/>
		<path fill="#A0A0A0" d="M314.8,261.5l5.5,16.1l15.2,13.2C335.5,290.8,335.4,273.8,314.8,261.5z"/>
	</g>
	<g>
		<linearGradient id="SVGID_20_" gradientUnits="userSpaceOnUse" x1="459.0245" y1="285.1022" x2="513.3067" y2="285.1022">
			<stop  offset="0" style="stop-color:#A4A4A4"/>
			<stop  offset="0.5538" style="stop-color:#EAEAEA"/>
			<stop  offset="0.5769" style="stop-color:#DFDFDF"/>
			<stop  offset="0.6573" style="stop-color:#BDBDBD"/>
			<stop  offset="0.7395" style="stop-color:#A2A2A2"/>
			<stop  offset="0.823" style="stop-color:#8F8F8F"/>
			<stop  offset="0.9087" style="stop-color:#848484"/>
			<stop  offset="1" style="stop-color:#808080"/>
		</linearGradient>
		<path fill="url(#SVGID_20_)" d="M459,307.8v-45.4c0-0.9,0.3-1.8,1-2.4c0.7-0.7,1.5-1,2.4-1h30.1c5.6,0,10.1,1.5,13.7,4.5
			c3.6,3,5.3,7,5.3,12.1c0,7.1-4.6,11.5-13.7,13.3c1.4,0.6,2.8,1.5,4,2.8c1.3,1.3,2.7,3.2,4.3,5.6l6.6,10.5c0.4,0.7,0.6,1.3,0.6,1.8
			c0,0.2,0,0.4-0.1,0.6c-0.2,0.7-0.8,1-1.8,1h-8.7c-0.9,0-2-0.3-3.1-1s-1.9-1.5-2.5-2.4l-6.2-9.7c-2.5-4-5.6-6-9.3-6h-8.9v15.7
			c0,0.9-0.3,1.8-1,2.4c-0.7,0.7-1.5,1-2.4,1h-6.8c-0.9,0-1.8-0.3-2.4-1C459.4,309.6,459,308.7,459,307.8z M472.8,281.8h15.5
			c2.5,0,4.7-0.5,6.6-1.5c1.9-1,2.9-2.6,2.9-4.8c0-2.2-1-3.8-2.9-4.8c-1.9-1-4.1-1.5-6.6-1.5h-15.5V281.8z"/>
		<linearGradient id="SVGID_21_" gradientUnits="userSpaceOnUse" x1="519.2808" y1="285.1022" x2="568.171" y2="285.1022">
			<stop  offset="0" style="stop-color:#A4A4A4"/>
			<stop  offset="0.5538" style="stop-color:#EAEAEA"/>
			<stop  offset="0.5769" style="stop-color:#DFDFDF"/>
			<stop  offset="0.6573" style="stop-color:#BDBDBD"/>
			<stop  offset="0.7395" style="stop-color:#A2A2A2"/>
			<stop  offset="0.823" style="stop-color:#8F8F8F"/>
			<stop  offset="0.9087" style="stop-color:#848484"/>
			<stop  offset="1" style="stop-color:#808080"/>
		</linearGradient>
		<path fill="url(#SVGID_21_)" d="M519.3,307.7v-45.4c0-0.9,0.3-1.7,1-2.4c0.7-0.7,1.5-1,2.4-1h42c0.9,0,1.8,0.3,2.4,1
			c0.7,0.7,1,1.5,1,2.4v3.4c0,0.9-0.3,1.8-1,2.4c-0.7,0.7-1.5,1-2.4,1H533v10.6h27.3c0.9,0,1.8,0.3,2.4,1c0.7,0.7,1,1.5,1,2.4v3.4
			c0,1-0.3,1.8-1,2.4c-0.7,0.7-1.5,1-2.4,1H533v10.7h31.7c0.9,0,1.7,0.3,2.4,1c0.6,0.7,1,1.5,1,2.4v3.5c0,0.9-0.3,1.8-1,2.4
			c-0.7,0.7-1.5,1-2.4,1h-41.8c-0.9,0-1.8-0.3-2.4-1C519.6,309.6,519.3,308.7,519.3,307.7z"/>
		<linearGradient id="SVGID_22_" gradientUnits="userSpaceOnUse" x1="570.357" y1="285.1022" x2="624.8575" y2="285.1022">
			<stop  offset="0" style="stop-color:#A4A4A4"/>
			<stop  offset="0.5538" style="stop-color:#EAEAEA"/>
			<stop  offset="0.5769" style="stop-color:#DFDFDF"/>
			<stop  offset="0.6573" style="stop-color:#BDBDBD"/>
			<stop  offset="0.7395" style="stop-color:#A2A2A2"/>
			<stop  offset="0.823" style="stop-color:#8F8F8F"/>
			<stop  offset="0.9087" style="stop-color:#848484"/>
			<stop  offset="1" style="stop-color:#808080"/>
		</linearGradient>
		<path fill="url(#SVGID_22_)" d="M570.5,310.2c-0.1-0.2-0.1-0.4-0.1-0.6c0-0.5,0.3-1.1,0.8-1.8l18.4-23.4l-17.3-21.9
			c-0.5-0.6-0.8-1.2-0.8-1.8c0-0.2,0-0.4,0.1-0.6c0.3-0.7,0.9-1.1,1.9-1.1h7.8c2.4,0,4.6,1.2,6.4,3.5l10,12.7l10-12.7
			c1.8-2.3,3.9-3.4,6.4-3.5h7.8c1,0,1.6,0.4,1.9,1.1c0.1,0.2,0.1,0.4,0.1,0.6c0,0.5-0.3,1.1-0.8,1.8l-17.3,21.9l18.4,23.4
			c0.5,0.6,0.8,1.2,0.8,1.8c0,0.2,0,0.4-0.1,0.6c-0.3,0.7-0.9,1.1-1.9,1.1h-7.8c-2.4,0-4.5-1.1-6.3-3.4l-11.1-14.2l-11.1,14.2
			c-1.8,2.3-3.9,3.4-6.3,3.4h-7.8C571.4,311.2,570.8,310.9,570.5,310.2z"/>
		<linearGradient id="SVGID_23_" gradientUnits="userSpaceOnUse" x1="626.315" y1="285.1022" x2="680.8155" y2="285.1022">
			<stop  offset="0" style="stop-color:#A4A4A4"/>
			<stop  offset="0.5538" style="stop-color:#EAEAEA"/>
			<stop  offset="0.5769" style="stop-color:#DFDFDF"/>
			<stop  offset="0.6573" style="stop-color:#BDBDBD"/>
			<stop  offset="0.7395" style="stop-color:#A2A2A2"/>
			<stop  offset="0.823" style="stop-color:#8F8F8F"/>
			<stop  offset="0.9087" style="stop-color:#848484"/>
			<stop  offset="1" style="stop-color:#808080"/>
		</linearGradient>
		<path fill="url(#SVGID_23_)" d="M626.5,310.2c-0.1-0.2-0.1-0.4-0.1-0.6c0-0.5,0.3-1.1,0.8-1.8l18.4-23.4l-17.3-21.9
			c-0.5-0.6-0.8-1.2-0.8-1.8c0-0.2,0-0.4,0.1-0.6c0.3-0.7,0.9-1.1,1.9-1.1h7.8c2.4,0,4.6,1.2,6.4,3.5l10,12.7l10-12.7
			c1.8-2.3,3.9-3.4,6.4-3.5h7.8c1,0,1.6,0.4,1.9,1.1c0.1,0.2,0.1,0.4,0.1,0.6c0,0.5-0.3,1.1-0.8,1.8l-17.3,21.9l18.4,23.4
			c0.5,0.6,0.8,1.2,0.8,1.8c0,0.2,0,0.4-0.1,0.6c-0.3,0.7-0.9,1.1-1.9,1.1H671c-2.4,0-4.5-1.1-6.3-3.4l-11.1-14.2l-11.1,14.2
			c-1.8,2.3-3.9,3.4-6.3,3.4h-7.8C627.4,311.2,626.7,310.9,626.5,310.2z"/>
	</g>
	<g>
		<linearGradient id="SVGID_24_" gradientUnits="userSpaceOnUse" x1="439.3912" y1="338.3105" x2="473.0235" y2="338.3105">
			<stop  offset="0" style="stop-color:#A4A4A4"/>
			<stop  offset="0.5538" style="stop-color:#EAEAEA"/>
			<stop  offset="0.5769" style="stop-color:#DFDFDF"/>
			<stop  offset="0.6573" style="stop-color:#BDBDBD"/>
			<stop  offset="0.7395" style="stop-color:#A2A2A2"/>
			<stop  offset="0.823" style="stop-color:#8F8F8F"/>
			<stop  offset="0.9087" style="stop-color:#848484"/>
			<stop  offset="1" style="stop-color:#808080"/>
		</linearGradient>
		<path fill="url(#SVGID_24_)" d="M443.4,350.1c-2.7-2.5-4-6.5-4-11.8s1.3-9.2,4-11.8s6.7-3.8,12.1-3.8h4.8c3.3,0,6.2,0.8,8.7,2.5
			s3.8,4,3.8,7c0,0.8-0.3,1.5-0.8,1.8s-1,0.5-1.5,0.5h-2.6c-1.4,0-2.4-0.8-3.2-2.4c-1.1-2.3-2.8-3.4-5.3-3.4h-3.8
			c-3.1,0-5.3,0.7-6.4,2c-1.1,1.3-1.7,3.8-1.7,7.5s0.6,6.1,1.7,7.5c1.1,1.4,3.3,2,6.4,2h4.3c2.5,0,4.2-1.1,5.3-3.4
			c0.7-1.6,1.8-2.4,3.1-2.4h2.6c0.3,0,0.5,0.1,0.8,0.2c0.3,0.1,0.6,0.4,0.9,0.7c0.3,0.4,0.5,0.9,0.5,1.5c0,3-1.2,5.3-3.7,7
			c-2.5,1.7-5.4,2.5-8.6,2.5h-5.3C450,353.9,446.1,352.7,443.4,350.1z"/>
		<linearGradient id="SVGID_25_" gradientUnits="userSpaceOnUse" x1="475.4371" y1="338.3207" x2="510.1251" y2="338.3207">
			<stop  offset="0" style="stop-color:#A4A4A4"/>
			<stop  offset="0.5538" style="stop-color:#EAEAEA"/>
			<stop  offset="0.5769" style="stop-color:#DFDFDF"/>
			<stop  offset="0.6573" style="stop-color:#BDBDBD"/>
			<stop  offset="0.7395" style="stop-color:#A2A2A2"/>
			<stop  offset="0.823" style="stop-color:#8F8F8F"/>
			<stop  offset="0.9087" style="stop-color:#848484"/>
			<stop  offset="1" style="stop-color:#808080"/>
		</linearGradient>
		<path fill="url(#SVGID_25_)" d="M479.9,350.6c-2.9-2.6-4.4-6.7-4.4-12.2c0-5.6,1.5-9.7,4.4-12.2c2.9-2.6,7.3-3.9,12.9-3.9
			c5.7,0,10,1.3,12.9,3.9c2.9,2.6,4.4,6.7,4.4,12.2c0,5.6-1.5,9.7-4.4,12.2c-2.9,2.6-7.2,3.9-12.9,3.9
			C487.1,354.4,482.8,353.1,479.9,350.6z M485.7,330.6c-1.5,1.7-2.2,4.3-2.2,7.7s0.7,6,2.2,7.7c1.5,1.7,3.8,2.6,7,2.6
			c3.2,0,5.6-0.9,7-2.6c1.5-1.7,2.2-4.3,2.2-7.7s-0.7-6-2.2-7.7c-1.5-1.7-3.8-2.6-7-2.6C489.6,328,487.2,328.9,485.7,330.6z"/>
		<linearGradient id="SVGID_26_" gradientUnits="userSpaceOnUse" x1="514.5206" y1="338.31" x2="546.5372" y2="338.31">
			<stop  offset="0" style="stop-color:#A4A4A4"/>
			<stop  offset="0.5538" style="stop-color:#EAEAEA"/>
			<stop  offset="0.5769" style="stop-color:#DFDFDF"/>
			<stop  offset="0.6573" style="stop-color:#BDBDBD"/>
			<stop  offset="0.7395" style="stop-color:#A2A2A2"/>
			<stop  offset="0.823" style="stop-color:#8F8F8F"/>
			<stop  offset="0.9087" style="stop-color:#848484"/>
			<stop  offset="1" style="stop-color:#808080"/>
		</linearGradient>
		<path fill="url(#SVGID_26_)" d="M514.5,351.7v-26.8c0-0.6,0.2-1,0.6-1.4c0.4-0.4,0.9-0.6,1.4-0.6h6.4c0.5,0,1,0.2,1.6,0.6
			c0.6,0.4,1,0.9,1.4,1.4l13.1,20v-20.1c0-0.6,0.2-1,0.6-1.4c0.4-0.4,0.8-0.6,1.4-0.6h3.6c0.5,0,1,0.2,1.4,0.6
			c0.4,0.4,0.6,0.9,0.6,1.5v26.8c0,0.6-0.2,1-0.6,1.4c-0.4,0.4-0.9,0.6-1.4,0.6h-7.1c-0.6,0-1.1-0.2-1.7-0.6c-0.6-0.4-1-0.9-1.4-1.4
			l-11.8-18.5v18.5c0,0.6-0.2,1-0.6,1.4c-0.4,0.4-0.9,0.6-1.5,0.6h-3.9c-0.6,0-1.1-0.2-1.5-0.6C514.7,352.8,514.5,352.3,514.5,351.7
			z"/>
		<linearGradient id="SVGID_27_" gradientUnits="userSpaceOnUse" x1="552.7637" y1="338.31" x2="584.7803" y2="338.31">
			<stop  offset="0" style="stop-color:#A4A4A4"/>
			<stop  offset="0.5538" style="stop-color:#EAEAEA"/>
			<stop  offset="0.5769" style="stop-color:#DFDFDF"/>
			<stop  offset="0.6573" style="stop-color:#BDBDBD"/>
			<stop  offset="0.7395" style="stop-color:#A2A2A2"/>
			<stop  offset="0.823" style="stop-color:#8F8F8F"/>
			<stop  offset="0.9087" style="stop-color:#848484"/>
			<stop  offset="1" style="stop-color:#808080"/>
		</linearGradient>
		<path fill="url(#SVGID_27_)" d="M552.8,351.7v-26.8c0-0.6,0.2-1,0.6-1.4c0.4-0.4,0.9-0.6,1.4-0.6h6.4c0.5,0,1,0.2,1.6,0.6
			c0.6,0.4,1,0.9,1.4,1.4l13.1,20v-20.1c0-0.6,0.2-1,0.6-1.4c0.4-0.4,0.8-0.6,1.4-0.6h3.6c0.5,0,1,0.2,1.4,0.6
			c0.4,0.4,0.6,0.9,0.6,1.5v26.8c0,0.6-0.2,1-0.6,1.4c-0.4,0.4-0.9,0.6-1.4,0.6h-7.1c-0.6,0-1.1-0.2-1.7-0.6c-0.6-0.4-1-0.9-1.4-1.4
			l-11.8-18.5v18.5c0,0.6-0.2,1-0.6,1.4c-0.4,0.4-0.9,0.6-1.5,0.6h-3.9c-0.6,0-1.1-0.2-1.5-0.6C553,352.8,552.8,352.3,552.8,351.7z"
			/>
		<linearGradient id="SVGID_28_" gradientUnits="userSpaceOnUse" x1="591.0069" y1="338.31" x2="619.921" y2="338.31">
			<stop  offset="0" style="stop-color:#A4A4A4"/>
			<stop  offset="0.5538" style="stop-color:#EAEAEA"/>
			<stop  offset="0.5769" style="stop-color:#DFDFDF"/>
			<stop  offset="0.6573" style="stop-color:#BDBDBD"/>
			<stop  offset="0.7395" style="stop-color:#A2A2A2"/>
			<stop  offset="0.823" style="stop-color:#8F8F8F"/>
			<stop  offset="0.9087" style="stop-color:#848484"/>
			<stop  offset="1" style="stop-color:#808080"/>
		</linearGradient>
		<path fill="url(#SVGID_28_)" d="M591,351.7v-26.8c0-0.6,0.2-1,0.6-1.4c0.4-0.4,0.9-0.6,1.4-0.6h24.8c0.6,0,1,0.2,1.4,0.6
			c0.4,0.4,0.6,0.9,0.6,1.4v2c0,0.6-0.2,1-0.6,1.4c-0.4,0.4-0.9,0.6-1.4,0.6h-18.8v6.2h16.2c0.6,0,1,0.2,1.4,0.6s0.6,0.9,0.6,1.4v2
			c0,0.6-0.2,1-0.6,1.4s-0.9,0.6-1.4,0.6h-16.2v6.4h18.7c0.6,0,1,0.2,1.4,0.6c0.4,0.4,0.6,0.9,0.6,1.4v2.1c0,0.6-0.2,1-0.6,1.4
			c-0.4,0.4-0.9,0.6-1.4,0.6h-24.7c-0.6,0-1-0.2-1.4-0.6C591.2,352.8,591,352.3,591,351.7z"/>
		<linearGradient id="SVGID_29_" gradientUnits="userSpaceOnUse" x1="622.0972" y1="338.3105" x2="655.7296" y2="338.3105">
			<stop  offset="0" style="stop-color:#A4A4A4"/>
			<stop  offset="0.5538" style="stop-color:#EAEAEA"/>
			<stop  offset="0.5769" style="stop-color:#DFDFDF"/>
			<stop  offset="0.6573" style="stop-color:#BDBDBD"/>
			<stop  offset="0.7395" style="stop-color:#A2A2A2"/>
			<stop  offset="0.823" style="stop-color:#8F8F8F"/>
			<stop  offset="0.9087" style="stop-color:#848484"/>
			<stop  offset="1" style="stop-color:#808080"/>
		</linearGradient>
		<path fill="url(#SVGID_29_)" d="M626.1,350.1c-2.7-2.5-4-6.5-4-11.8s1.3-9.2,4-11.8s6.7-3.8,12.1-3.8h4.8c3.3,0,6.2,0.8,8.7,2.5
			s3.8,4,3.8,7c0,0.8-0.3,1.5-0.8,1.8s-1,0.5-1.5,0.5h-2.6c-1.4,0-2.4-0.8-3.2-2.4c-1.1-2.3-2.8-3.4-5.3-3.4h-3.8
			c-3.1,0-5.3,0.7-6.4,2c-1.1,1.3-1.7,3.8-1.7,7.5s0.6,6.1,1.7,7.5c1.1,1.4,3.3,2,6.4,2h4.3c2.5,0,4.2-1.1,5.3-3.4
			c0.7-1.6,1.8-2.4,3.1-2.4h2.6c0.3,0,0.5,0.1,0.8,0.2c0.3,0.1,0.6,0.4,0.9,0.7c0.3,0.4,0.5,0.9,0.5,1.5c0,3-1.2,5.3-3.7,7
			c-2.5,1.7-5.4,2.5-8.6,2.5h-5.3C632.8,353.9,628.8,352.7,626.1,350.1z"/>
		<linearGradient id="SVGID_30_" gradientUnits="userSpaceOnUse" x1="656.3765" y1="338.31" x2="687.8111" y2="338.31">
			<stop  offset="0" style="stop-color:#A4A4A4"/>
			<stop  offset="0.5538" style="stop-color:#EAEAEA"/>
			<stop  offset="0.5769" style="stop-color:#DFDFDF"/>
			<stop  offset="0.6573" style="stop-color:#BDBDBD"/>
			<stop  offset="0.7395" style="stop-color:#A2A2A2"/>
			<stop  offset="0.823" style="stop-color:#8F8F8F"/>
			<stop  offset="0.9087" style="stop-color:#848484"/>
			<stop  offset="1" style="stop-color:#808080"/>
		</linearGradient>
		<path fill="url(#SVGID_30_)" d="M656.4,326.9v-2c0-0.6,0.2-1.1,0.6-1.5s0.9-0.6,1.5-0.6h27.3c0.6,0,1.1,0.2,1.5,0.6
			s0.6,0.9,0.6,1.5v2c0,0.6-0.2,1.1-0.6,1.5c-0.4,0.4-0.9,0.6-1.5,0.6h-9.6v22.8c0,0.6-0.2,1-0.6,1.4c-0.4,0.4-0.9,0.6-1.4,0.6h-4.1
			c-0.6,0-1-0.2-1.4-0.6c-0.4-0.4-0.6-0.9-0.6-1.4V329h-9.6c-0.6,0-1.1-0.2-1.5-0.6C656.6,328,656.4,327.5,656.4,326.9z"/>
	</g>
</g>
<g>
	<g>
		<linearGradient id="SVGID_31_" gradientUnits="userSpaceOnUse" x1="1103.6722" y1="273.6201" x2="1321.2134" y2="273.6201">
			<stop  offset="3.358718e-002" style="stop-color:#CE9D1C"/>
			<stop  offset="0.3978" style="stop-color:#FAF52E"/>
			<stop  offset="0.7957" style="stop-color:#E7C124"/>
			<stop  offset="1" style="stop-color:#A3730F"/>
		</linearGradient>
		<path fill="url(#SVGID_31_)" d="M1217.1,240.6c4.5,8.3,8.9,16.4,13.2,24.5c5.5,10.2,10.9,20.5,16.5,30.7c0.7,1.3,2.4,3.1,3.6,3.1
			c11.4,0.2,22.9,0.1,35.6,0.1c-1.4-5.9-2.3-11.3-4-16.5c-16.2-49.4-70-72.8-115.2-48.9c-20.7,10.9-34.2,28.3-41.1,50.6
			c-2.3,7.6-13.1,5.5-19.4,5.1c-5.8-0.4-0.8-11.2,0.3-14.2c13.7-38.2,39.7-63.2,80-70.8c47.6-9,95.7,18.8,112.6,64.3
			c3.3,9,4.8,18.8,7.4,28.1c0.5,1.7,1.9,3.6,3.4,4.5c5.4,3.2,8.8,7.7,10.5,13.7c1.4,5,0.7,5.9-4.5,5.9c-16.9,0-33.8,0-50.7,0
			c-1.4,0-2.8,0.2-4.5,0.3c0.6,1.7,1.2,3,1.6,4.3c2.5,8.3-2.9,17.8-11.2,19.2c-1.1,0.2-3.1-1.7-3.8-3.1
			c-12.2-22.4-24.2-44.9-36.2-67.4c-1.4-2.5-2.7-5.1-4-7.6C1200.3,253.9,1202.9,246.7,1217.1,240.6z"/>
		<linearGradient id="SVGID_32_" gradientUnits="userSpaceOnUse" x1="1087.6454" y1="346.313" x2="1305.4644" y2="346.313">
			<stop  offset="3.358718e-002" style="stop-color:#CE9D1C"/>
			<stop  offset="0.3978" style="stop-color:#FAF52E"/>
			<stop  offset="0.7957" style="stop-color:#E7C124"/>
			<stop  offset="1" style="stop-color:#A3730F"/>
		</linearGradient>
		<path fill="url(#SVGID_32_)" d="M1305.1,332c0,0.1,0.1,0.1,0.1,0.2c1.7,3.1-5.5,17.8-6.9,21c-12.7,28.7-33.4,49.3-63.7,58.6
			c-38.6,11.9-72.7,2.9-101.7-25c-17.7-17.1-27.4-38.5-30.7-62.8c-0.4-3.2-1.7-5-4.5-6.5c-5.1-2.8-8.1-7.3-9.7-13
			c-1.1-4-0.3-5.5,4.1-5.5c16.4,0.2,32.8,0.1,49.3,0.1c2,0,4,0,6.5,0c-0.5-1.7-0.7-2.5-1-3.4c-3.3-9,0.7-17.5,9.7-20.1
			c1.1-0.3,3.6,1.4,4.4,2.7c7.8,14.2,15.5,28.6,23.2,42.9c6,11.2,12.1,22.4,18.1,33.7c5.2,9.7,3,16.6-6.4,22
			c-3.3,1.9-4.9,1.3-6.6-1.9c-8.9-16.8-18-33.4-26.8-50.2c-1.6-3.1-3.5-4.5-7-4.4c-10.6,0.2-21.3,0.1-33.3,0.1
			c1.6,6.7,2.7,12.9,4.6,18.8c11.2,33.8,44.2,57.1,79.5,56.4c33.5-0.7,66.1-25.6,75.7-57.7c1.6-5.5,1.2-5.8,6.1-7.4
			C1291.4,329.5,1302.9,328.9,1305.1,332z"/>
	</g>
	<g>
		<path fill="#E5E5E5" d="M1199.1,275.5c0,0,21,18.5,17,45.2l-7,2.6l-10-13.3l10.6,25.1l13.2,9.4l1.3-9.6v-19.3l-4.4-18.1
			l-10.1-15.5C1209.7,282,1201.9,275.6,1199.1,275.5z"/>
		<path fill="#A0A0A0" d="M1226.7,352.5c-1.9-4.5-3.6-9-5.4-13.6c-0.4-1.1,0-3,0-4.1c0-2,0-4-0.1-6c-0.3-12.8-1.3-25.8-6.6-37.6
			c-3.1-6.8-8.1-13.2-15.4-15.7c8.9,3,15.9,9.5,20.5,17.6c4.9,8.7,6.7,18.7,7.6,28.5c0.5,4.9,0.8,10,0.8,15.1
			C1228,341.6,1228.3,347.8,1226.7,352.5z"/>
		<path fill="none" stroke="#ED1C24" stroke-miterlimit="10" d="M1219.8,334.2"/>
		<path fill="#E5E5E5" d="M1226.7,352.7c-3.8-3.6-8.7-6.2-12.6-9.7c-4.1-3.6-7.9-7.7-10.6-12.5c-2-3.5-3.3-7.4-4.2-11.4
			c-0.4-2-0.7-4-0.9-6c-0.2-1.7,0.2-3.8,0-5.3c0,0,3.1,19.5,22.9,30C1223.1,342.6,1225.5,347.6,1226.7,352.7z"/>
		<path fill="#E5E5E5" d="M1213.9,320.5c-0.5-1.3-0.1-3.8-0.1-5.3c-0.1-2.1-0.2-4.2-0.4-6.3c-0.4-4.2-1-8.3-2.1-12.4
			c-2-7.4-6.3-16-12.2-21.1c7.1,6,13.1,13.6,16.9,22.1c4.1,9.4,4.9,21.2,4,31.3c-0.1,0.7-0.1,4.3-0.8,4.5c-1,0.3-1.9-2.7-2.1-3.4
			C1215.9,326.9,1215.1,323.7,1213.9,320.5z"/>
		<path fill="#A0A0A0" d="M1219.9,336.5l-6-15.9l-15.5-12.8C1198.4,307.7,1198.9,324.7,1219.9,336.5z"/>
		<path fill="#E5E5E5" d="M1207.3,343.5c0,0-20.5-19.1-15.8-45.7l7.1-2.4l9.6,13.5l-9.9-25.4l-12.9-9.7l-1.6,9.5l-0.5,19.3l3.9,18.3
			l9.6,15.8C1196.9,336.7,1204.6,343.3,1207.3,343.5z"/>
		<path fill="#A0A0A0" d="M1181.9,265.7c1.8,4.5,3.4,9.1,5.1,13.7c0.4,1.1-0.1,3-0.1,4.1c0,2-0.1,4-0.1,6c0,12.8,0.6,25.8,5.6,37.8
			c2.9,6.8,7.8,13.4,14.9,16.1c-8.8-3.3-15.6-9.9-20-18.2c-4.7-8.8-6.2-18.9-6.8-28.7c-0.3-4.9-0.5-10.1-0.4-15.1
			C1180.3,276.6,1180.1,270.4,1181.9,265.7z"/>
		<path fill="none" stroke="#ED1C24" stroke-miterlimit="10" d="M1188.3,284.2"/>
		<path fill="#E5E5E5" d="M1181.9,265.5c3.7,3.7,8.5,6.5,12.4,10.1c4,3.7,7.7,7.9,10.2,12.8c1.9,3.6,3.1,7.5,3.9,11.5
			c0.4,2,0.6,4,0.8,6.1c0.1,1.7-0.3,3.8-0.1,5.3c0,0-2.6-19.6-22.1-30.6C1185.2,275.7,1182.9,270.6,1181.9,265.5z"/>
		<path fill="#E5E5E5" d="M1193.8,298c0.4,1.3,0,3.8,0,5.3c0,2.1,0.1,4.2,0.2,6.3c0.2,4.2,0.7,8.4,1.7,12.4
			c1.8,7.4,5.8,16.2,11.6,21.4c-6.9-6.2-12.8-13.9-16.3-22.6c-3.8-9.5-4.3-21.3-3.2-31.4c0.1-0.7,0.2-4.3,0.9-4.5
			c1-0.3,1.8,2.8,2,3.5C1192,291.6,1192.7,294.9,1193.8,298z"/>
		<path fill="#A0A0A0" d="M1188.3,282l5.5,16.1l15.2,13.2C1209,311.2,1208.9,294.2,1188.3,282z"/>
	</g>
	<g>
		<linearGradient id="SVGID_33_" gradientUnits="userSpaceOnUse" x1="1332.521" y1="305.5261" x2="1386.8032" y2="305.5261">
			<stop  offset="0" style="stop-color:#A4A4A4"/>
			<stop  offset="0.5538" style="stop-color:#EAEAEA"/>
			<stop  offset="0.5769" style="stop-color:#DFDFDF"/>
			<stop  offset="0.6573" style="stop-color:#BDBDBD"/>
			<stop  offset="0.7395" style="stop-color:#A2A2A2"/>
			<stop  offset="0.823" style="stop-color:#8F8F8F"/>
			<stop  offset="0.9087" style="stop-color:#848484"/>
			<stop  offset="1" style="stop-color:#808080"/>
		</linearGradient>
		<path fill="url(#SVGID_33_)" d="M1332.5,328.2v-45.4c0-0.9,0.3-1.8,1-2.4c0.7-0.7,1.5-1,2.4-1h30.1c5.6,0,10.1,1.5,13.7,4.5
			c3.6,3,5.3,7,5.3,12.1c0,7.1-4.6,11.5-13.7,13.3c1.4,0.6,2.8,1.5,4,2.8c1.3,1.3,2.7,3.2,4.3,5.6l6.6,10.5c0.4,0.7,0.6,1.3,0.6,1.8
			c0,0.2,0,0.4-0.1,0.6c-0.2,0.7-0.8,1-1.8,1h-8.7c-0.9,0-2-0.3-3.1-1s-1.9-1.5-2.5-2.4l-6.2-9.7c-2.5-4-5.6-6-9.3-6h-8.9v15.7
			c0,0.9-0.3,1.8-1,2.4c-0.7,0.7-1.5,1-2.4,1h-6.8c-0.9,0-1.8-0.3-2.4-1C1332.9,330,1332.5,329.2,1332.5,328.2z M1346.3,302.2h15.5
			c2.5,0,4.7-0.5,6.6-1.5c1.9-1,2.9-2.6,2.9-4.8c0-2.2-1-3.8-2.9-4.8c-1.9-1-4.1-1.5-6.6-1.5h-15.5V302.2z"/>
		<linearGradient id="SVGID_34_" gradientUnits="userSpaceOnUse" x1="1392.7773" y1="305.5261" x2="1441.6675" y2="305.5261">
			<stop  offset="0" style="stop-color:#A4A4A4"/>
			<stop  offset="0.5538" style="stop-color:#EAEAEA"/>
			<stop  offset="0.5769" style="stop-color:#DFDFDF"/>
			<stop  offset="0.6573" style="stop-color:#BDBDBD"/>
			<stop  offset="0.7395" style="stop-color:#A2A2A2"/>
			<stop  offset="0.823" style="stop-color:#8F8F8F"/>
			<stop  offset="0.9087" style="stop-color:#848484"/>
			<stop  offset="1" style="stop-color:#808080"/>
		</linearGradient>
		<path fill="url(#SVGID_34_)" d="M1392.8,328.1v-45.4c0-0.9,0.3-1.7,1-2.4c0.7-0.7,1.5-1,2.4-1h42c0.9,0,1.8,0.3,2.4,1
			c0.7,0.7,1,1.5,1,2.4v3.4c0,0.9-0.3,1.8-1,2.4c-0.7,0.7-1.5,1-2.4,1h-31.7v10.6h27.3c0.9,0,1.8,0.3,2.4,1c0.7,0.7,1,1.5,1,2.4v3.4
			c0,1-0.3,1.8-1,2.4c-0.7,0.7-1.5,1-2.4,1h-27.3v10.7h31.7c0.9,0,1.7,0.3,2.4,1c0.6,0.7,1,1.5,1,2.4v3.5c0,0.9-0.3,1.8-1,2.4
			c-0.7,0.7-1.5,1-2.4,1h-41.8c-0.9,0-1.8-0.3-2.4-1C1393.1,330,1392.8,329.1,1392.8,328.1z"/>
		<linearGradient id="SVGID_35_" gradientUnits="userSpaceOnUse" x1="1443.8535" y1="305.5261" x2="1498.354" y2="305.5261">
			<stop  offset="0" style="stop-color:#A4A4A4"/>
			<stop  offset="0.5538" style="stop-color:#EAEAEA"/>
			<stop  offset="0.5769" style="stop-color:#DFDFDF"/>
			<stop  offset="0.6573" style="stop-color:#BDBDBD"/>
			<stop  offset="0.7395" style="stop-color:#A2A2A2"/>
			<stop  offset="0.823" style="stop-color:#8F8F8F"/>
			<stop  offset="0.9087" style="stop-color:#848484"/>
			<stop  offset="1" style="stop-color:#808080"/>
		</linearGradient>
		<path fill="url(#SVGID_35_)" d="M1444,330.6c-0.1-0.2-0.1-0.4-0.1-0.6c0-0.5,0.3-1.1,0.8-1.8l18.4-23.4l-17.3-21.9
			c-0.5-0.6-0.8-1.2-0.8-1.8c0-0.2,0-0.4,0.1-0.6c0.3-0.7,0.9-1.1,1.9-1.1h7.8c2.4,0,4.6,1.2,6.4,3.5l10,12.7l10-12.7
			c1.8-2.3,3.9-3.4,6.4-3.5h7.8c1,0,1.6,0.4,1.9,1.1c0.1,0.2,0.1,0.4,0.1,0.6c0,0.5-0.3,1.1-0.8,1.8l-17.3,21.9l18.4,23.4
			c0.5,0.6,0.8,1.2,0.8,1.8c0,0.2,0,0.4-0.1,0.6c-0.3,0.7-0.9,1.1-1.9,1.1h-7.8c-2.4,0-4.5-1.1-6.3-3.4l-11.1-14.2l-11.1,14.2
			c-1.8,2.3-3.9,3.4-6.3,3.4h-7.8C1444.9,331.6,1444.3,331.3,1444,330.6z"/>
		<linearGradient id="SVGID_36_" gradientUnits="userSpaceOnUse" x1="1499.8115" y1="305.5261" x2="1554.312" y2="305.5261">
			<stop  offset="0" style="stop-color:#A4A4A4"/>
			<stop  offset="0.5538" style="stop-color:#EAEAEA"/>
			<stop  offset="0.5769" style="stop-color:#DFDFDF"/>
			<stop  offset="0.6573" style="stop-color:#BDBDBD"/>
			<stop  offset="0.7395" style="stop-color:#A2A2A2"/>
			<stop  offset="0.823" style="stop-color:#8F8F8F"/>
			<stop  offset="0.9087" style="stop-color:#848484"/>
			<stop  offset="1" style="stop-color:#808080"/>
		</linearGradient>
		<path fill="url(#SVGID_36_)" d="M1500,330.6c-0.1-0.2-0.1-0.4-0.1-0.6c0-0.5,0.3-1.1,0.8-1.8l18.4-23.4l-17.3-21.9
			c-0.5-0.6-0.8-1.2-0.8-1.8c0-0.2,0-0.4,0.1-0.6c0.3-0.7,0.9-1.1,1.9-1.1h7.8c2.4,0,4.6,1.2,6.4,3.5l10,12.7l10-12.7
			c1.8-2.3,3.9-3.4,6.4-3.5h7.8c1,0,1.6,0.4,1.9,1.1c0.1,0.2,0.1,0.4,0.1,0.6c0,0.5-0.3,1.1-0.8,1.8l-17.3,21.9l18.4,23.4
			c0.5,0.6,0.8,1.2,0.8,1.8c0,0.2,0,0.4-0.1,0.6c-0.3,0.7-0.9,1.1-1.9,1.1h-7.8c-2.4,0-4.5-1.1-6.3-3.4l-11.1-14.2l-11.1,14.2
			c-1.8,2.3-3.9,3.4-6.3,3.4h-7.8C1500.9,331.6,1500.2,331.3,1500,330.6z"/>
	</g>
	<g>
		<linearGradient id="SVGID_37_" gradientUnits="userSpaceOnUse" x1="1312.8877" y1="358.7344" x2="1346.52" y2="358.7344">
			<stop  offset="0" style="stop-color:#A4A4A4"/>
			<stop  offset="0.5538" style="stop-color:#EAEAEA"/>
			<stop  offset="0.5769" style="stop-color:#DFDFDF"/>
			<stop  offset="0.6573" style="stop-color:#BDBDBD"/>
			<stop  offset="0.7395" style="stop-color:#A2A2A2"/>
			<stop  offset="0.823" style="stop-color:#8F8F8F"/>
			<stop  offset="0.9087" style="stop-color:#848484"/>
			<stop  offset="1" style="stop-color:#808080"/>
		</linearGradient>
		<path fill="url(#SVGID_37_)" d="M1316.9,370.5c-2.7-2.5-4-6.5-4-11.8s1.3-9.2,4-11.8s6.7-3.8,12.1-3.8h4.8c3.3,0,6.2,0.8,8.7,2.5
			s3.8,4,3.8,7c0,0.8-0.3,1.5-0.8,1.8s-1,0.5-1.5,0.5h-2.6c-1.4,0-2.4-0.8-3.2-2.4c-1.1-2.3-2.8-3.4-5.3-3.4h-3.8
			c-3.1,0-5.3,0.7-6.4,2c-1.1,1.3-1.7,3.8-1.7,7.5s0.6,6.1,1.7,7.5c1.1,1.4,3.3,2,6.4,2h4.3c2.5,0,4.2-1.1,5.3-3.4
			c0.7-1.6,1.8-2.4,3.1-2.4h2.6c0.3,0,0.5,0.1,0.8,0.2c0.3,0.1,0.6,0.4,0.9,0.7c0.3,0.4,0.5,0.9,0.5,1.5c0,3-1.2,5.3-3.7,7
			c-2.5,1.7-5.4,2.5-8.6,2.5h-5.3C1323.5,374.4,1319.5,373.1,1316.9,370.5z"/>
		<linearGradient id="SVGID_38_" gradientUnits="userSpaceOnUse" x1="1348.9336" y1="358.7446" x2="1383.6216" y2="358.7446">
			<stop  offset="0" style="stop-color:#A4A4A4"/>
			<stop  offset="0.5538" style="stop-color:#EAEAEA"/>
			<stop  offset="0.5769" style="stop-color:#DFDFDF"/>
			<stop  offset="0.6573" style="stop-color:#BDBDBD"/>
			<stop  offset="0.7395" style="stop-color:#A2A2A2"/>
			<stop  offset="0.823" style="stop-color:#8F8F8F"/>
			<stop  offset="0.9087" style="stop-color:#848484"/>
			<stop  offset="1" style="stop-color:#808080"/>
		</linearGradient>
		<path fill="url(#SVGID_38_)" d="M1353.4,371c-2.9-2.6-4.4-6.7-4.4-12.2c0-5.6,1.5-9.7,4.4-12.2c2.9-2.6,7.3-3.9,12.9-3.9
			c5.7,0,10,1.3,12.9,3.9c2.9,2.6,4.4,6.7,4.4,12.2c0,5.6-1.5,9.7-4.4,12.2c-2.9,2.6-7.2,3.9-12.9,3.9
			C1360.6,374.9,1356.3,373.6,1353.4,371z M1359.2,351c-1.5,1.7-2.2,4.3-2.2,7.7s0.7,6,2.2,7.7c1.5,1.7,3.8,2.6,7,2.6
			c3.2,0,5.6-0.9,7-2.6c1.5-1.7,2.2-4.3,2.2-7.7s-0.7-6-2.2-7.7c-1.5-1.7-3.8-2.6-7-2.6C1363,348.5,1360.7,349.3,1359.2,351z"/>
		<linearGradient id="SVGID_39_" gradientUnits="userSpaceOnUse" x1="1388.0171" y1="358.7339" x2="1420.0337" y2="358.7339">
			<stop  offset="0" style="stop-color:#A4A4A4"/>
			<stop  offset="0.5538" style="stop-color:#EAEAEA"/>
			<stop  offset="0.5769" style="stop-color:#DFDFDF"/>
			<stop  offset="0.6573" style="stop-color:#BDBDBD"/>
			<stop  offset="0.7395" style="stop-color:#A2A2A2"/>
			<stop  offset="0.823" style="stop-color:#8F8F8F"/>
			<stop  offset="0.9087" style="stop-color:#848484"/>
			<stop  offset="1" style="stop-color:#808080"/>
		</linearGradient>
		<path fill="url(#SVGID_39_)" d="M1388,372.2v-26.8c0-0.6,0.2-1,0.6-1.4c0.4-0.4,0.9-0.6,1.4-0.6h6.4c0.5,0,1,0.2,1.6,0.6
			c0.6,0.4,1,0.9,1.4,1.4l13.1,20v-20.1c0-0.6,0.2-1,0.6-1.4c0.4-0.4,0.8-0.6,1.4-0.6h3.6c0.5,0,1,0.2,1.4,0.6
			c0.4,0.4,0.6,0.9,0.6,1.5v26.8c0,0.6-0.2,1-0.6,1.4c-0.4,0.4-0.9,0.6-1.4,0.6h-7.1c-0.6,0-1.1-0.2-1.7-0.6c-0.6-0.4-1-0.9-1.4-1.4
			l-11.8-18.5v18.5c0,0.6-0.2,1-0.6,1.4c-0.4,0.4-0.9,0.6-1.5,0.6h-3.9c-0.6,0-1.1-0.2-1.5-0.6C1388.2,373.2,1388,372.7,1388,372.2z
			"/>
		<linearGradient id="SVGID_40_" gradientUnits="userSpaceOnUse" x1="1426.2603" y1="358.7339" x2="1458.2769" y2="358.7339">
			<stop  offset="0" style="stop-color:#A4A4A4"/>
			<stop  offset="0.5538" style="stop-color:#EAEAEA"/>
			<stop  offset="0.5769" style="stop-color:#DFDFDF"/>
			<stop  offset="0.6573" style="stop-color:#BDBDBD"/>
			<stop  offset="0.7395" style="stop-color:#A2A2A2"/>
			<stop  offset="0.823" style="stop-color:#8F8F8F"/>
			<stop  offset="0.9087" style="stop-color:#848484"/>
			<stop  offset="1" style="stop-color:#808080"/>
		</linearGradient>
		<path fill="url(#SVGID_40_)" d="M1426.3,372.2v-26.8c0-0.6,0.2-1,0.6-1.4c0.4-0.4,0.9-0.6,1.4-0.6h6.4c0.5,0,1,0.2,1.6,0.6
			c0.6,0.4,1,0.9,1.4,1.4l13.1,20v-20.1c0-0.6,0.2-1,0.6-1.4c0.4-0.4,0.8-0.6,1.4-0.6h3.6c0.5,0,1,0.2,1.4,0.6
			c0.4,0.4,0.6,0.9,0.6,1.5v26.8c0,0.6-0.2,1-0.6,1.4c-0.4,0.4-0.9,0.6-1.4,0.6h-7.1c-0.6,0-1.1-0.2-1.7-0.6c-0.6-0.4-1-0.9-1.4-1.4
			l-11.8-18.5v18.5c0,0.6-0.2,1-0.6,1.4c-0.4,0.4-0.9,0.6-1.5,0.6h-3.9c-0.6,0-1.1-0.2-1.5-0.6
			C1426.5,373.2,1426.3,372.7,1426.3,372.2z"/>
		<linearGradient id="SVGID_41_" gradientUnits="userSpaceOnUse" x1="1464.5034" y1="358.7339" x2="1493.4175" y2="358.7339">
			<stop  offset="0" style="stop-color:#A4A4A4"/>
			<stop  offset="0.5538" style="stop-color:#EAEAEA"/>
			<stop  offset="0.5769" style="stop-color:#DFDFDF"/>
			<stop  offset="0.6573" style="stop-color:#BDBDBD"/>
			<stop  offset="0.7395" style="stop-color:#A2A2A2"/>
			<stop  offset="0.823" style="stop-color:#8F8F8F"/>
			<stop  offset="0.9087" style="stop-color:#848484"/>
			<stop  offset="1" style="stop-color:#808080"/>
		</linearGradient>
		<path fill="url(#SVGID_41_)" d="M1464.5,372.1v-26.8c0-0.6,0.2-1,0.6-1.4c0.4-0.4,0.9-0.6,1.4-0.6h24.8c0.6,0,1,0.2,1.4,0.6
			c0.4,0.4,0.6,0.9,0.6,1.4v2c0,0.6-0.2,1-0.6,1.4c-0.4,0.4-0.9,0.6-1.4,0.6h-18.8v6.2h16.2c0.6,0,1,0.2,1.4,0.6s0.6,0.9,0.6,1.4v2
			c0,0.6-0.2,1-0.6,1.4s-0.9,0.6-1.4,0.6h-16.2v6.4h18.7c0.6,0,1,0.2,1.4,0.6c0.4,0.4,0.6,0.9,0.6,1.4v2.1c0,0.6-0.2,1-0.6,1.4
			c-0.4,0.4-0.9,0.6-1.4,0.6h-24.7c-0.6,0-1-0.2-1.4-0.6C1464.7,373.2,1464.5,372.7,1464.5,372.1z"/>
		<linearGradient id="SVGID_42_" gradientUnits="userSpaceOnUse" x1="1495.5938" y1="358.7344" x2="1529.2261" y2="358.7344">
			<stop  offset="0" style="stop-color:#A4A4A4"/>
			<stop  offset="0.5538" style="stop-color:#EAEAEA"/>
			<stop  offset="0.5769" style="stop-color:#DFDFDF"/>
			<stop  offset="0.6573" style="stop-color:#BDBDBD"/>
			<stop  offset="0.7395" style="stop-color:#A2A2A2"/>
			<stop  offset="0.823" style="stop-color:#8F8F8F"/>
			<stop  offset="0.9087" style="stop-color:#848484"/>
			<stop  offset="1" style="stop-color:#808080"/>
		</linearGradient>
		<path fill="url(#SVGID_42_)" d="M1499.6,370.5c-2.7-2.5-4-6.5-4-11.8s1.3-9.2,4-11.8s6.7-3.8,12.1-3.8h4.8c3.3,0,6.2,0.8,8.7,2.5
			s3.8,4,3.8,7c0,0.8-0.3,1.5-0.8,1.8s-1,0.5-1.5,0.5h-2.6c-1.4,0-2.4-0.8-3.2-2.4c-1.1-2.3-2.8-3.4-5.3-3.4h-3.8
			c-3.1,0-5.3,0.7-6.4,2c-1.1,1.3-1.7,3.8-1.7,7.5s0.6,6.1,1.7,7.5c1.1,1.4,3.3,2,6.4,2h4.3c2.5,0,4.2-1.1,5.3-3.4
			c0.7-1.6,1.8-2.4,3.1-2.4h2.6c0.3,0,0.5,0.1,0.8,0.2c0.3,0.1,0.6,0.4,0.9,0.7c0.3,0.4,0.5,0.9,0.5,1.5c0,3-1.2,5.3-3.7,7
			c-2.5,1.7-5.4,2.5-8.6,2.5h-5.3C1506.3,374.4,1502.3,373.1,1499.6,370.5z"/>
		<linearGradient id="SVGID_43_" gradientUnits="userSpaceOnUse" x1="1529.873" y1="358.7339" x2="1561.3076" y2="358.7339">
			<stop  offset="0" style="stop-color:#A4A4A4"/>
			<stop  offset="0.5538" style="stop-color:#EAEAEA"/>
			<stop  offset="0.5769" style="stop-color:#DFDFDF"/>
			<stop  offset="0.6573" style="stop-color:#BDBDBD"/>
			<stop  offset="0.7395" style="stop-color:#A2A2A2"/>
			<stop  offset="0.823" style="stop-color:#8F8F8F"/>
			<stop  offset="0.9087" style="stop-color:#848484"/>
			<stop  offset="1" style="stop-color:#808080"/>
		</linearGradient>
		<path fill="url(#SVGID_43_)" d="M1529.9,347.4v-2c0-0.6,0.2-1.1,0.6-1.5s0.9-0.6,1.5-0.6h27.3c0.6,0,1.1,0.2,1.5,0.6
			s0.6,0.9,0.6,1.5v2c0,0.6-0.2,1.1-0.6,1.5c-0.4,0.4-0.9,0.6-1.5,0.6h-9.6v22.8c0,0.6-0.2,1-0.6,1.4c-0.4,0.4-0.9,0.6-1.4,0.6h-4.1
			c-0.6,0-1-0.2-1.4-0.6c-0.4-0.4-0.6-0.9-0.6-1.4v-22.8h-9.6c-0.6,0-1.1-0.2-1.5-0.6C1530.1,348.4,1529.9,347.9,1529.9,347.4z"/>
	</g>
</g>
</svg>
